M48
; DRILL file {KiCad 8.0.3} date 2024-06-18T15:01:11-0700
; FORMAT={-:-/ absolute / metric / decimal}
; #@! TF.CreationDate,2024-06-18T15:01:11-07:00
; #@! TF.GenerationSoftware,Kicad,Pcbnew,8.0.3
; #@! TF.FileFunction,Plated,1,4,PTH
FMAT,2
METRIC
; #@! TA.AperFunction,Plated,PTH,ViaDrill
T1C0.200
; #@! TA.AperFunction,Plated,PTH,ViaDrill
T2C0.250
; #@! TA.AperFunction,Plated,PTH,ViaDrill
T3C0.300
; #@! TA.AperFunction,Plated,PTH,ViaDrill
T4C0.350
; #@! TA.AperFunction,Plated,PTH,ComponentDrill
T5C0.500
; #@! TA.AperFunction,Plated,PTH,ComponentDrill
T6C0.600
; #@! TA.AperFunction,Plated,PTH,ComponentDrill
T7C0.850
%
G90
G05
T1
X144.018Y-97.536
X146.425Y-88.802
X146.9Y-90.299
X146.927Y-87.796
X147.525Y-88.702
X147.549Y-87.584
X147.55Y-89.427
X147.55Y-90.552
X148.2Y-90.3
X148.291Y-87.476
X148.596Y-89.303
X148.625Y-88.302
X148.946Y-90.297
T2
X133.706Y-89.586
X133.706Y-91.415
X134.366Y-109.474
X134.874Y-86.538
X134.874Y-87.681
X134.874Y-88.951
X134.874Y-90.678
X134.874Y-92.456
X135.001Y-93.599
X135.128Y-84.963
X135.601Y-109.89
X135.763Y-91.948
X135.763Y-93.218
X135.763Y-94.488
X135.825Y-86.002
X135.825Y-87.097
X135.825Y-88.392
X135.825Y-89.535
X135.89Y-83.82
X136.144Y-82.296
X136.25Y-84.952
X136.271Y-96.139
X136.271Y-96.774
X136.652Y-91.948
X136.906Y-82.927
X137.16Y-83.82
X137.287Y-91.948
X137.541Y-108.077
X137.541Y-109.347
X137.55Y-82.169
X137.922Y-100.0
X137.922Y-106.807
X138.024Y-110.287
X138.151Y-93.624
X138.325Y-82.804
X138.43Y-91.277
X138.665Y-92.933
X138.748Y-103.188
X138.76Y-109.347
X138.811Y-84.074
X138.872Y-97.536
X138.989Y-101.651
X138.989Y-102.329
X139.15Y-82.169
X139.2Y-91.277
X139.228Y-99.662
X139.319Y-105.918
X139.446Y-83.312
X139.446Y-108.712
X139.482Y-98.773
X139.581Y-103.378
X139.7Y-92.302
X139.827Y-104.572
X139.975Y-93.027
X140.025Y-91.252
X140.081Y-108.077
X140.081Y-109.347
X140.081Y-110.287
X140.335Y-83.185
X140.335Y-88.367
X140.375Y-82.169
X140.389Y-103.531
X140.589Y-98.044
X140.589Y-102.286
X140.64Y-104.496
X140.716Y-101.473
X140.725Y-91.427
X140.725Y-92.302
X140.798Y-95.679
X140.818Y-94.767
X140.818Y-105.385
X140.97Y-93.726
X141.224Y-84.201
X141.224Y-85.471
X141.224Y-98.044
X141.351Y-83.185
X141.351Y-108.077
X141.402Y-106.807
X141.478Y-109.347
X141.478Y-110.617
X141.6Y-82.169
X141.8Y-93.091
X141.935Y-95.758
X142.049Y-86.106
X142.15Y-88.652
X142.15Y-89.252
X142.15Y-89.852
X142.15Y-90.452
X142.24Y-83.185
X142.24Y-84.709
X142.3Y-92.202
X142.367Y-99.441
X142.367Y-104.521
X142.625Y-82.169
X142.714Y-106.166
X142.75Y-88.652
X142.75Y-89.252
X142.75Y-89.852
X142.75Y-90.452
X142.8Y-93.091
X142.875Y-97.663
X143.256Y-96.774
X143.3Y-92.202
X143.35Y-88.652
X143.35Y-89.252
X143.35Y-89.852
X143.35Y-90.452
X143.383Y-107.061
X143.637Y-82.169
X143.802Y-93.091
X143.95Y-88.652
X143.95Y-89.252
X143.95Y-89.852
X143.95Y-90.452
X144.083Y-84.899
X144.145Y-83.185
X144.2Y-86.827
X144.272Y-106.934
X144.3Y-92.202
X144.399Y-96.749
X144.6Y-82.169
X144.907Y-106.299
X144.958Y-97.739
X145.4Y-91.302
X145.469Y-96.393
X145.532Y-90.335
X145.575Y-83.527
X145.625Y-82.169
X145.9Y-92.152
X145.912Y-107.736
X146.056Y-90.992
X146.198Y-90.328
X146.231Y-96.774
X146.231Y-97.46
X146.46Y-86.41
X146.5Y-83.527
X146.507Y-84.379
X146.507Y-85.302
X146.525Y-93.202
X146.609Y-91.44
X146.7Y-82.169
X146.939Y-100.457
X146.975Y-85.752
X147.0Y-92.227
X147.32Y-96.52
X147.325Y-84.502
X147.431Y-86.031
X147.45Y-83.527
X147.475Y-91.252
X147.475Y-93.902
X147.701Y-85.217
X147.75Y-82.169
X147.755Y-97.409
X147.904Y-86.432
X148.05Y-92.152
X148.082Y-83.947
X148.125Y-86.952
X148.275Y-91.177
X148.35Y-84.777
X148.35Y-85.877
X148.35Y-93.027
X148.39Y-98.425
X148.59Y-82.804
X148.615Y-94.158
X148.615Y-95.402
X148.85Y-86.502
X148.85Y-91.952
X149.152Y-99.187
X149.245Y-103.104
X149.279Y-104.775
X149.35Y-82.169
X149.35Y-83.577
X149.35Y-84.677
X149.35Y-93.102
X149.375Y-85.602
X149.403Y-100.965
X149.479Y-94.869
X149.479Y-97.118
X149.525Y-86.427
X149.53Y-92.002
X149.95Y-87.002
X149.962Y-91.452
X149.987Y-98.425
X150.0Y-88.602
X150.0Y-89.802
X150.05Y-87.827
X150.05Y-90.577
X150.35Y-94.277
X150.45Y-84.802
X150.475Y-86.077
X150.525Y-83.527
X150.571Y-92.634
X150.575Y-82.327
X150.622Y-103.124
X150.622Y-104.394
X150.775Y-88.602
X150.775Y-89.802
X150.775Y-91.477
X150.9Y-86.952
X150.9Y-90.502
X150.952Y-100.891
X150.952Y-101.492
X151.1Y-87.802
X151.206Y-93.447
X151.265Y-99.314
X151.384Y-105.08
X151.675Y-84.877
X151.675Y-86.302
X151.7Y-92.377
X151.773Y-98.679
X151.775Y-83.502
X151.775Y-91.427
X151.816Y-90.477
X151.836Y-87.79
X151.95Y-82.252
X152.4Y-86.868
X152.451Y-93.447
X152.502Y-105.054
X152.552Y-106.655
X152.654Y-92.377
X152.654Y-99.568
X153.076Y-100.427
X153.162Y-83.566
X153.162Y-84.877
X153.162Y-86.302
X153.193Y-91.694
X153.594Y-93.447
X153.67Y-92.377
X153.67Y-99.568
X153.899Y-105.918
X154.051Y-100.457
X154.102Y-86.868
X154.178Y-91.694
T3
X134.671Y-96.952
X135.695Y-100.33
X135.695Y-101.346
X135.89Y-97.688
X136.906Y-95.402
X138.201Y-102.235
X139.548Y-84.887
X140.081Y-85.395
X140.106Y-84.379
X141.351Y-86.741
X142.812Y-101.257
X144.477Y-85.52
X145.466Y-86.538
X145.745Y-84.734
X145.745Y-85.395
X146.964Y-101.357
T4
X143.764Y-100.682
X143.764Y-101.981
X143.764Y-103.232
X144.912Y-100.682
X144.912Y-101.957
X144.912Y-103.232
X146.177Y-100.682
X146.187Y-101.957
X146.187Y-103.232
T5
X133.985Y-94.996
X133.985Y-95.996
X147.193Y-108.347
X147.193Y-109.347
X148.193Y-108.347
X148.193Y-109.347
X149.193Y-108.347
X149.193Y-109.347
X150.193Y-108.347
X150.193Y-109.347
X151.193Y-108.347
X151.193Y-109.347
X152.193Y-108.347
X152.193Y-109.347
X152.857Y-94.869
X152.857Y-95.869
X152.857Y-96.869
X152.857Y-97.869
T7
X136.881Y-99.13
X136.881Y-104.13
T6
X133.831Y-98.13G85X134.531Y-98.13
G05
X134.531Y-105.13G85X133.831Y-105.13
G05
M30
