G04 #@! TF.GenerationSoftware,KiCad,Pcbnew,8.0.3*
G04 #@! TF.CreationDate,2024-06-18T15:01:00-07:00*
G04 #@! TF.ProjectId,lora2040,6c6f7261-3230-4343-902e-6b696361645f,rev?*
G04 #@! TF.SameCoordinates,Original*
G04 #@! TF.FileFunction,Copper,L3,Inr*
G04 #@! TF.FilePolarity,Positive*
%FSLAX46Y46*%
G04 Gerber Fmt 4.6, Leading zero omitted, Abs format (unit mm)*
G04 Created by KiCad (PCBNEW 8.0.3) date 2024-06-18 15:01:00*
%MOMM*%
%LPD*%
G01*
G04 APERTURE LIST*
G04 #@! TA.AperFunction,ComponentPad*
%ADD10R,0.850000X0.850000*%
G04 #@! TD*
G04 #@! TA.AperFunction,ComponentPad*
%ADD11O,0.850000X0.850000*%
G04 #@! TD*
G04 #@! TA.AperFunction,ComponentPad*
%ADD12O,1.900000X1.200000*%
G04 #@! TD*
G04 #@! TA.AperFunction,ComponentPad*
%ADD13C,1.450000*%
G04 #@! TD*
G04 #@! TA.AperFunction,ViaPad*
%ADD14C,0.520000*%
G04 #@! TD*
G04 #@! TA.AperFunction,ViaPad*
%ADD15C,0.650000*%
G04 #@! TD*
G04 #@! TA.AperFunction,ViaPad*
%ADD16C,0.600000*%
G04 #@! TD*
G04 #@! TA.AperFunction,ViaPad*
%ADD17C,0.460000*%
G04 #@! TD*
G04 #@! TA.AperFunction,Conductor*
%ADD18C,0.500000*%
G04 #@! TD*
G04 #@! TA.AperFunction,Conductor*
%ADD19C,0.350000*%
G04 #@! TD*
G04 #@! TA.AperFunction,Conductor*
%ADD20C,0.200000*%
G04 #@! TD*
G04 #@! TA.AperFunction,Conductor*
%ADD21C,0.635000*%
G04 #@! TD*
G04 #@! TA.AperFunction,Conductor*
%ADD22C,0.150000*%
G04 #@! TD*
G04 #@! TA.AperFunction,Conductor*
%ADD23C,1.270000*%
G04 #@! TD*
G04 #@! TA.AperFunction,Conductor*
%ADD24C,0.939800*%
G04 #@! TD*
G04 #@! TA.AperFunction,Conductor*
%ADD25C,0.762000*%
G04 #@! TD*
G04 #@! TA.AperFunction,Conductor*
%ADD26C,1.100000*%
G04 #@! TD*
G04 APERTURE END LIST*
D10*
X133985000Y-94996000D03*
D11*
X133985000Y-95996000D03*
D10*
X147193000Y-109347000D03*
D11*
X147193000Y-108347000D03*
X148193000Y-109347000D03*
X148193000Y-108347000D03*
X149193000Y-109347000D03*
X149193000Y-108347000D03*
X150193000Y-109347000D03*
X150193000Y-108347000D03*
X151193000Y-109347000D03*
X151193000Y-108347000D03*
X152193000Y-109347000D03*
X152193000Y-108347000D03*
D10*
X152857200Y-97869000D03*
D11*
X152857200Y-96869000D03*
X152857200Y-95869000D03*
X152857200Y-94869000D03*
D12*
X134180600Y-98130000D03*
D13*
X136880600Y-99130000D03*
X136880600Y-104130000D03*
D12*
X134180600Y-105130000D03*
D14*
X145624900Y-82169000D03*
D15*
X146187000Y-101957000D03*
D14*
X150899900Y-86952000D03*
X138811000Y-84074000D03*
X145574900Y-83527000D03*
X150571200Y-92633800D03*
X139199900Y-91277000D03*
X143349900Y-88652000D03*
X142149900Y-89852000D03*
X141351000Y-83185000D03*
X138665217Y-92932866D03*
X135890000Y-83820000D03*
X149999900Y-88602000D03*
D15*
X144912000Y-103232000D03*
D14*
X140724900Y-92302000D03*
X150774900Y-88602000D03*
X147474900Y-93902000D03*
D16*
X135694600Y-100330000D03*
D17*
X148624900Y-88302000D03*
D14*
X147324900Y-84502000D03*
X135763000Y-94488000D03*
X149374900Y-85602000D03*
X142749900Y-89252000D03*
D16*
X138201400Y-102235000D03*
D14*
X154051000Y-100457000D03*
X146699900Y-82169000D03*
X140798239Y-95678501D03*
X141935200Y-95758000D03*
X148615400Y-94157800D03*
X138988800Y-102329500D03*
X153162000Y-83566000D03*
X141224000Y-85471000D03*
X150952200Y-100891500D03*
X135824900Y-88392000D03*
X151774900Y-91427000D03*
X154101800Y-86868000D03*
X134874000Y-88950800D03*
X143949900Y-89252000D03*
X136906000Y-82927000D03*
D17*
X147549900Y-90552000D03*
D14*
X153670000Y-92377000D03*
X149524900Y-86427000D03*
X142749900Y-88652000D03*
X138324900Y-82804000D03*
X140817600Y-94767400D03*
X153898600Y-105918000D03*
X153162000Y-84877000D03*
D15*
X146177000Y-100682000D03*
D14*
X152400000Y-86868000D03*
D15*
X143764000Y-103232000D03*
D14*
X146507200Y-85302000D03*
X148349900Y-85877000D03*
X152654000Y-92377000D03*
X139446000Y-83312000D03*
X146608800Y-91440000D03*
X150774900Y-89802000D03*
X139446000Y-108712000D03*
X142749900Y-90452000D03*
X149245250Y-103103750D03*
X154178000Y-91694000D03*
X147701000Y-85217000D03*
X140724900Y-91427000D03*
X152450800Y-93446600D03*
X152501600Y-105054400D03*
X134874000Y-90678000D03*
X150952200Y-101491500D03*
X151674900Y-86302000D03*
X143637000Y-82169000D03*
X145531984Y-90335288D03*
X150774900Y-91477000D03*
X133705600Y-89585800D03*
X151206200Y-93446600D03*
X148590000Y-82804000D03*
X148274900Y-91177000D03*
X148049900Y-92152000D03*
X146974900Y-85752000D03*
X153162000Y-86302000D03*
X152654000Y-99568000D03*
D15*
X143764000Y-101981000D03*
D17*
X148291298Y-87476146D03*
D14*
X153076400Y-100426600D03*
X135824900Y-87096600D03*
X153670000Y-99568000D03*
X139228000Y-99662500D03*
X148124900Y-86952000D03*
X147904010Y-86431741D03*
X146499900Y-83527000D03*
D17*
X146927212Y-87796383D03*
D14*
X135824900Y-89535000D03*
X142149900Y-88652000D03*
X146197723Y-90328472D03*
X144082923Y-84898736D03*
D17*
X148199900Y-90299773D03*
D14*
X137160000Y-83820000D03*
X149961600Y-91452000D03*
X142149900Y-90452000D03*
D17*
X147549360Y-87584165D03*
D14*
X146056471Y-90991939D03*
X138760200Y-109347000D03*
X153593800Y-93446600D03*
D15*
X144912000Y-101957000D03*
D14*
X139482000Y-98773500D03*
X150349900Y-94277000D03*
X149529800Y-92002000D03*
X147431193Y-86031190D03*
X143949900Y-89852000D03*
X143349900Y-90452000D03*
D15*
X146187000Y-103232000D03*
D14*
X147449900Y-83527000D03*
X144145000Y-83185000D03*
X150049900Y-90577000D03*
X142624900Y-82169000D03*
X141401800Y-106807000D03*
D17*
X147549900Y-89427000D03*
D14*
X150049900Y-87827000D03*
D16*
X135890000Y-97688400D03*
D14*
X134874000Y-86537800D03*
X146459777Y-86409588D03*
X145469381Y-96393000D03*
X140081000Y-109347000D03*
D16*
X135694600Y-101346000D03*
D14*
X135763000Y-91948000D03*
X144599900Y-82169000D03*
X150524900Y-83527000D03*
X134366000Y-109474000D03*
X151949900Y-82252000D03*
X142049341Y-86105860D03*
X144199900Y-86827000D03*
X151099900Y-87802000D03*
D15*
X144912000Y-100682000D03*
D14*
X142749900Y-89852000D03*
X136249900Y-84952000D03*
X143949900Y-90452000D03*
X143949900Y-88652000D03*
D17*
X147524900Y-88702000D03*
D14*
X148349900Y-84777000D03*
X133705600Y-91414600D03*
X153192900Y-91694000D03*
X148615400Y-95402400D03*
X141224000Y-84201000D03*
X139699900Y-92302000D03*
X134874000Y-92456000D03*
X151815800Y-90477000D03*
X146999900Y-92227000D03*
X150899900Y-90502000D03*
D16*
X134670800Y-96951800D03*
D14*
X135824900Y-86002000D03*
X149349900Y-84677000D03*
X151674900Y-84877000D03*
D17*
X146899900Y-90299170D03*
D14*
X135128000Y-84963000D03*
X138150600Y-93624400D03*
X139149900Y-82169000D03*
X140374900Y-82169000D03*
X150449900Y-84802000D03*
X140024900Y-91252000D03*
X140081000Y-108077000D03*
X150474900Y-86077000D03*
X142149900Y-89252000D03*
X140335000Y-83185000D03*
X150574900Y-82327000D03*
X151836423Y-87790470D03*
D15*
X143764000Y-100682000D03*
D14*
X149349900Y-83577000D03*
X149349900Y-93102000D03*
X151699900Y-92377000D03*
X146524900Y-93202000D03*
X151384000Y-105079800D03*
X147474900Y-91252000D03*
X136144000Y-82296000D03*
D17*
X148945600Y-90297000D03*
D14*
X151774900Y-83502000D03*
X141599900Y-82169000D03*
X134874000Y-87680800D03*
X140335000Y-88366600D03*
D16*
X136906000Y-95402400D03*
D14*
X138430000Y-91277000D03*
X138988800Y-101650800D03*
X148349900Y-93027000D03*
X145899900Y-92152000D03*
X149999900Y-89802000D03*
X149349900Y-82169000D03*
X140970000Y-93726000D03*
D17*
X146424900Y-88802000D03*
D14*
X140081000Y-110286800D03*
X150622000Y-104394000D03*
X145912000Y-107736490D03*
X137549900Y-82169000D03*
D17*
X148596068Y-89302977D03*
D14*
X135001000Y-93599000D03*
X142240000Y-83185000D03*
X142240000Y-84709000D03*
X149949900Y-87002000D03*
X135763000Y-93218000D03*
X147749900Y-82169000D03*
X143349900Y-89252000D03*
X143349900Y-89852000D03*
X152552400Y-106654600D03*
X146507200Y-84378800D03*
X148082000Y-83947000D03*
X150622000Y-103124000D03*
X138023600Y-110286800D03*
X149402800Y-100965000D03*
X140589000Y-102285800D03*
D16*
X142812000Y-101257000D03*
X146964400Y-101357030D03*
D14*
X141224000Y-98044000D03*
D16*
X140081000Y-85394800D03*
D14*
X140716000Y-101473000D03*
X149987000Y-98425000D03*
X142367000Y-104521000D03*
D16*
X145745200Y-84734400D03*
D14*
X142367000Y-99441000D03*
D16*
X145745200Y-85394800D03*
D14*
X137287000Y-91948000D03*
X135600775Y-109890225D03*
X139319000Y-105918000D03*
X146939000Y-100457000D03*
X136652000Y-91948000D03*
D16*
X139547600Y-84886800D03*
D14*
X149479000Y-94869000D03*
X140589000Y-98044000D03*
D16*
X140106400Y-84378800D03*
X145465800Y-86537800D03*
D14*
X140817600Y-105384600D03*
X141478000Y-110617000D03*
X149279381Y-104775000D03*
X148849900Y-91952000D03*
X139974900Y-93027000D03*
X148849900Y-86502000D03*
X139827000Y-104571800D03*
X141351000Y-108077000D03*
X137541000Y-109347000D03*
X138747500Y-103187500D03*
D16*
X141351000Y-86741000D03*
X144476770Y-85519894D03*
D14*
X142299900Y-92202000D03*
X146231381Y-97459800D03*
X142799900Y-93091000D03*
X146231381Y-96774000D03*
X141799900Y-93091000D03*
X144399000Y-96748600D03*
X137541000Y-108077000D03*
X139581000Y-103378000D03*
X141478000Y-109347000D03*
X140639800Y-104495658D03*
X140389381Y-103531500D03*
X137922000Y-106807000D03*
X143383000Y-107061000D03*
X142714283Y-106165713D03*
X144272000Y-106934000D03*
X147320000Y-96520000D03*
X143801630Y-93091000D03*
X144907000Y-106299000D03*
X143299900Y-92202000D03*
X149152381Y-99187000D03*
X144299900Y-92202000D03*
X147755381Y-97409000D03*
X148390381Y-98425000D03*
X145399900Y-91302000D03*
X136271000Y-96139000D03*
X138872000Y-97536000D03*
X137922000Y-99999800D03*
X136271000Y-96774000D03*
X143256000Y-96774000D03*
D17*
X144018000Y-97536000D03*
D14*
X142875000Y-97663000D03*
X151773000Y-98679000D03*
X151265000Y-99314000D03*
X144957800Y-97739200D03*
X149479000Y-97118500D03*
D18*
X149402800Y-100965000D02*
X149021800Y-101346000D01*
X149021800Y-101346000D02*
X146975430Y-101346000D01*
X141926643Y-102142357D02*
X142812000Y-101257000D01*
X140732443Y-102142357D02*
X141926643Y-102142357D01*
X146975430Y-101346000D02*
X146964400Y-101357030D01*
X140589000Y-102285800D02*
X140732443Y-102142357D01*
D19*
X135600775Y-109890225D02*
X136937150Y-111226600D01*
D20*
X149148800Y-100457000D02*
X149987000Y-99618800D01*
X149987000Y-98425000D02*
X149987000Y-95377000D01*
D21*
X135280400Y-105994200D02*
X135280400Y-109569850D01*
D22*
X141859000Y-104013000D02*
X140366000Y-104013000D01*
D21*
X140589000Y-99441000D02*
X139166600Y-100863400D01*
D19*
X150193000Y-110385600D02*
X150193000Y-109347000D01*
D21*
X139166600Y-100863400D02*
X137769600Y-100863400D01*
D22*
X142367000Y-104521000D02*
X141859000Y-104013000D01*
X140366000Y-104013000D02*
X140264400Y-104114600D01*
D21*
X135636000Y-102997000D02*
X135636000Y-105638600D01*
X137769600Y-100863400D02*
X135636000Y-102997000D01*
D22*
X139598400Y-104114600D02*
X139319000Y-104394000D01*
D21*
X140716000Y-101473000D02*
X140716000Y-101092000D01*
X135280400Y-109569850D02*
X135600775Y-109890225D01*
D19*
X149352000Y-111226600D02*
X150193000Y-110385600D01*
D21*
X140716000Y-101092000D02*
X142367000Y-99441000D01*
X135636000Y-105638600D02*
X135280400Y-105994200D01*
X140589000Y-98044000D02*
X140589000Y-99441000D01*
D23*
X136982200Y-93937518D02*
X136982200Y-92049600D01*
D19*
X136937150Y-111226600D02*
X149352000Y-111226600D01*
D20*
X149987000Y-95377000D02*
X149479000Y-94869000D01*
D22*
X139319000Y-104394000D02*
X139319000Y-105918000D01*
D20*
X146939000Y-100457000D02*
X149148800Y-100457000D01*
D22*
X140264400Y-104114600D02*
X139598400Y-104114600D01*
D23*
X140897936Y-97853254D02*
X136982200Y-93937518D01*
D20*
X149987000Y-99618800D02*
X149987000Y-98425000D01*
D22*
X140817600Y-105384600D02*
X142113000Y-106680000D01*
X142113000Y-106680000D02*
X142113000Y-109474000D01*
X141478000Y-110109000D02*
X141478000Y-110617000D01*
X142113000Y-109474000D02*
X141478000Y-110109000D01*
D20*
X149936200Y-103047800D02*
X149936200Y-103483181D01*
X149279381Y-104140000D02*
X149279381Y-104775000D01*
X148849900Y-91952000D02*
X148849900Y-93454409D01*
X149936200Y-103483181D02*
X149279381Y-104140000D01*
X150469600Y-102514400D02*
X149936200Y-103047800D01*
X148849900Y-93454409D02*
X150469600Y-95074109D01*
X150469600Y-95074109D02*
X150469600Y-102514400D01*
X148849900Y-86502000D02*
X148849900Y-83954900D01*
X147572000Y-82677000D02*
X139319000Y-82677000D01*
X137541000Y-84455000D02*
X137541000Y-91065409D01*
X148849900Y-83954900D02*
X147572000Y-82677000D01*
X139319000Y-82677000D02*
X137541000Y-84455000D01*
X139502591Y-93027000D02*
X139974900Y-93027000D01*
X139974900Y-93027000D02*
X139974900Y-93027000D01*
X137541000Y-91065409D02*
X139502591Y-93027000D01*
D22*
X139827000Y-106553000D02*
X141351000Y-108077000D01*
X139827000Y-104571800D02*
X139827000Y-106553000D01*
X138747500Y-103187500D02*
X138747500Y-103695500D01*
X136987400Y-106090600D02*
X136987400Y-108793400D01*
X138176000Y-104267000D02*
X138176000Y-104902000D01*
X136987400Y-108793400D02*
X137541000Y-109347000D01*
X138176000Y-104902000D02*
X136987400Y-106090600D01*
X138747500Y-103695500D02*
X138176000Y-104267000D01*
D18*
X142621000Y-86741000D02*
X141351000Y-86741000D01*
X143779796Y-85582204D02*
X142621000Y-86741000D01*
X144476770Y-85519894D02*
X144414460Y-85582204D01*
X144414460Y-85582204D02*
X143779796Y-85582204D01*
D20*
X145516600Y-97459800D02*
X145059400Y-97002600D01*
X146231381Y-97459800D02*
X145516600Y-97459800D01*
X145059400Y-96672400D02*
X142299900Y-93912900D01*
X145059400Y-97002600D02*
X145059400Y-96672400D01*
X142299900Y-93912900D02*
X142299900Y-92202000D01*
X142799900Y-93650900D02*
X144983200Y-95834200D01*
X142799900Y-93091000D02*
X142799900Y-93650900D01*
X146231381Y-96467464D02*
X146231381Y-96774000D01*
X145598117Y-95834200D02*
X146231381Y-96467464D01*
X144983200Y-95834200D02*
X145598117Y-95834200D01*
X144399000Y-96748600D02*
X141799900Y-94149500D01*
X141799900Y-94149500D02*
X141799900Y-93091000D01*
D22*
X138430000Y-108458000D02*
X138176000Y-108712000D01*
X138430000Y-105410000D02*
X137464800Y-106375200D01*
X137823302Y-107569000D02*
X138176000Y-107569000D01*
X138176000Y-107569000D02*
X138430000Y-107823000D01*
X138430000Y-107823000D02*
X138430000Y-108458000D01*
X139581000Y-103378000D02*
X139573000Y-103378000D01*
X137668000Y-108712000D02*
X137541000Y-108585000D01*
X138176000Y-108712000D02*
X137668000Y-108712000D01*
X139573000Y-103378000D02*
X138430000Y-104521000D01*
X137464800Y-107210498D02*
X137823302Y-107569000D01*
X137541000Y-108585000D02*
X137541000Y-108077000D01*
X137464800Y-106375200D02*
X137464800Y-107210498D01*
X138430000Y-104521000D02*
X138430000Y-105410000D01*
X140639800Y-104495658D02*
X140295000Y-104840458D01*
X140295000Y-106357698D02*
X141861400Y-107924098D01*
X140295000Y-104840458D02*
X140295000Y-106357698D01*
X141861400Y-107924098D02*
X141861400Y-108963600D01*
X141861400Y-108963600D02*
X141478000Y-109347000D01*
X138811000Y-104546184D02*
X139521984Y-103835200D01*
X140085681Y-103835200D02*
X140389381Y-103531500D01*
X137922000Y-106807000D02*
X138811000Y-105918000D01*
X139521984Y-103835200D02*
X140085681Y-103835200D01*
X138811000Y-105918000D02*
X138811000Y-104546184D01*
X143383000Y-107061000D02*
X143383000Y-107315000D01*
X143383000Y-107315000D02*
X145415000Y-109347000D01*
X145415000Y-109347000D02*
X147193000Y-109347000D01*
X142714283Y-106165713D02*
X142714283Y-107306683D01*
X147904200Y-110185200D02*
X148193000Y-109896400D01*
X148193000Y-109896400D02*
X148193000Y-109347000D01*
X142714283Y-107306683D02*
X145592800Y-110185200D01*
X145592800Y-110185200D02*
X147904200Y-110185200D01*
X145685000Y-108347000D02*
X147193000Y-108347000D01*
X144272000Y-106934000D02*
X145685000Y-108347000D01*
D20*
X143801630Y-93091000D02*
X143891000Y-93091000D01*
X143891000Y-93091000D02*
X147320000Y-96520000D01*
D22*
X144907000Y-106299000D02*
X145796000Y-107188000D01*
X147701000Y-107188000D02*
X148193000Y-107680000D01*
X145796000Y-107188000D02*
X147701000Y-107188000D01*
X148193000Y-107680000D02*
X148193000Y-108347000D01*
D20*
X145186400Y-94996000D02*
X144780000Y-94996000D01*
X143299900Y-93515900D02*
X143299900Y-92202000D01*
X144780000Y-94996000D02*
X143299900Y-93515900D01*
X148463000Y-99187000D02*
X146866000Y-97590000D01*
X146866000Y-96675600D02*
X145186400Y-94996000D01*
X149152381Y-99187000D02*
X148463000Y-99187000D01*
X146866000Y-97590000D02*
X146866000Y-96675600D01*
X144145000Y-91059000D02*
X144018000Y-91186000D01*
X144018000Y-91186000D02*
X144018000Y-91920100D01*
X144907000Y-91313000D02*
X144653000Y-91059000D01*
X148082000Y-96418400D02*
X144907000Y-93243400D01*
X144653000Y-91059000D02*
X144145000Y-91059000D01*
X147755381Y-97409000D02*
X148082000Y-97082381D01*
X144907000Y-93243400D02*
X144907000Y-91313000D01*
X148082000Y-97082381D02*
X148082000Y-96418400D01*
X144018000Y-91920100D02*
X144299900Y-92202000D01*
X148615400Y-96240600D02*
X148615400Y-98199981D01*
X145399900Y-91302000D02*
X145399900Y-93025100D01*
X148615400Y-98199981D02*
X148390381Y-98425000D01*
X145399900Y-93025100D02*
X148615400Y-96240600D01*
D24*
X133985000Y-95996000D02*
X135810000Y-95996000D01*
D20*
X138872000Y-97536000D02*
X138303000Y-98105000D01*
D25*
X137922000Y-99999800D02*
X138252200Y-99669600D01*
X138252200Y-98120200D02*
X137414000Y-97282000D01*
D26*
X137160000Y-97282000D02*
X135858000Y-95980000D01*
D24*
X135810000Y-95996000D02*
X135826000Y-96012000D01*
D25*
X137414000Y-97282000D02*
X137160000Y-97282000D01*
X138252200Y-99669600D02*
X138252200Y-98120200D01*
D20*
X144348200Y-100152200D02*
X144348200Y-103582200D01*
X149936200Y-106121200D02*
X151193000Y-107378000D01*
X143510000Y-99314000D02*
X144348200Y-100152200D01*
X144348200Y-103582200D02*
X146887200Y-106121200D01*
X151193000Y-107378000D02*
X151193000Y-108347000D01*
X143510000Y-97028000D02*
X143510000Y-99314000D01*
X146887200Y-106121200D02*
X149936200Y-106121200D01*
X143256000Y-96774000D02*
X143510000Y-97028000D01*
X145567400Y-100228400D02*
X145567400Y-103911400D01*
X147142200Y-105486200D02*
X150063200Y-105486200D01*
X144018000Y-97536000D02*
X144018000Y-98679000D01*
X145567400Y-103911400D02*
X147142200Y-105486200D01*
X152193000Y-107616000D02*
X152193000Y-108347000D01*
X144018000Y-98679000D02*
X145567400Y-100228400D01*
X150063200Y-105486200D02*
X152193000Y-107616000D01*
X143129000Y-100812600D02*
X143383000Y-101066600D01*
X143383000Y-101066600D02*
X143383000Y-101533000D01*
X150193000Y-107267000D02*
X150193000Y-108347000D01*
X143129000Y-97917000D02*
X143129000Y-100812600D01*
X142875000Y-102041000D02*
X142875000Y-103124000D01*
X142875000Y-103124000D02*
X146405600Y-106654600D01*
X143383000Y-101533000D02*
X142875000Y-102041000D01*
X149580600Y-106654600D02*
X150193000Y-107267000D01*
X142875000Y-97663000D02*
X143129000Y-97917000D01*
X146405600Y-106654600D02*
X149580600Y-106654600D01*
D22*
X152127200Y-96869000D02*
X152857200Y-96869000D01*
X151773000Y-98679000D02*
X151773000Y-97223200D01*
X151773000Y-97223200D02*
X152127200Y-96869000D01*
X151265000Y-96664400D02*
X152060400Y-95869000D01*
X152060400Y-95869000D02*
X152857200Y-95869000D01*
X151265000Y-99314000D02*
X151265000Y-96664400D01*
D20*
X149406000Y-97191500D02*
X149479000Y-97118500D01*
X149656800Y-99364800D02*
X149656800Y-98907600D01*
X144957800Y-97739200D02*
X144957800Y-97764600D01*
X149656800Y-98907600D02*
X149479000Y-98729800D01*
X144957800Y-97764600D02*
X147116800Y-99923600D01*
X149098000Y-99923600D02*
X149656800Y-99364800D01*
X147116800Y-99923600D02*
X149098000Y-99923600D01*
X149479000Y-98729800D02*
X149479000Y-97118500D01*
G04 #@! TA.AperFunction,Conductor*
G36*
X140065032Y-83451726D02*
G01*
X140109156Y-83495850D01*
X140170288Y-83526998D01*
X140216266Y-83550425D01*
X140312653Y-83565691D01*
X140334999Y-83569231D01*
X140335000Y-83569231D01*
X140335001Y-83569231D01*
X140351235Y-83566659D01*
X140453734Y-83550425D01*
X140560845Y-83495849D01*
X140604968Y-83451726D01*
X140635692Y-83439000D01*
X141050308Y-83439000D01*
X141081032Y-83451726D01*
X141125156Y-83495850D01*
X141186288Y-83526998D01*
X141232266Y-83550425D01*
X141328653Y-83565691D01*
X141350999Y-83569231D01*
X141351000Y-83569231D01*
X141351001Y-83569231D01*
X141367235Y-83566659D01*
X141469734Y-83550425D01*
X141576845Y-83495849D01*
X141620968Y-83451726D01*
X141651692Y-83439000D01*
X141939308Y-83439000D01*
X141970032Y-83451726D01*
X142014156Y-83495850D01*
X142075288Y-83526998D01*
X142121266Y-83550425D01*
X142217653Y-83565691D01*
X142239999Y-83569231D01*
X142240000Y-83569231D01*
X142240001Y-83569231D01*
X142256235Y-83566659D01*
X142358734Y-83550425D01*
X142465845Y-83495849D01*
X142509968Y-83451726D01*
X142540692Y-83439000D01*
X143844308Y-83439000D01*
X143875032Y-83451726D01*
X143919156Y-83495850D01*
X143980288Y-83526998D01*
X144026266Y-83550425D01*
X144122653Y-83565691D01*
X144144999Y-83569231D01*
X144145000Y-83569231D01*
X144145001Y-83569231D01*
X144161235Y-83566659D01*
X144263734Y-83550425D01*
X144370845Y-83495849D01*
X144414968Y-83451726D01*
X144445692Y-83439000D01*
X145153733Y-83439000D01*
X145184457Y-83451726D01*
X145197183Y-83482450D01*
X145196648Y-83489247D01*
X145190669Y-83526998D01*
X145190669Y-83527000D01*
X145209475Y-83645734D01*
X145209475Y-83645735D01*
X145264049Y-83752843D01*
X145349056Y-83837850D01*
X145404714Y-83866209D01*
X145456166Y-83892425D01*
X145552553Y-83907691D01*
X145574899Y-83911231D01*
X145574900Y-83911231D01*
X145574901Y-83911231D01*
X145591135Y-83908659D01*
X145693634Y-83892425D01*
X145745085Y-83866208D01*
X145778237Y-83863599D01*
X145793088Y-83871933D01*
X145838936Y-83911231D01*
X146147469Y-84175688D01*
X146162514Y-84205344D01*
X146157907Y-84228401D01*
X146141777Y-84260060D01*
X146141774Y-84260067D01*
X146122969Y-84378799D01*
X146122969Y-84378800D01*
X146141775Y-84497534D01*
X146141775Y-84497535D01*
X146172264Y-84557371D01*
X146177000Y-84577097D01*
X146177000Y-85103701D01*
X146172264Y-85123427D01*
X146141775Y-85183264D01*
X146141775Y-85183265D01*
X146122969Y-85301999D01*
X146122969Y-85302000D01*
X146141775Y-85420734D01*
X146141775Y-85420735D01*
X146158798Y-85454145D01*
X146167386Y-85470999D01*
X146172264Y-85480571D01*
X146177000Y-85500297D01*
X146177000Y-86137673D01*
X146164274Y-86168397D01*
X146148926Y-86183744D01*
X146094352Y-86290852D01*
X146094352Y-86290853D01*
X146075546Y-86409587D01*
X146075546Y-86409588D01*
X146094352Y-86528322D01*
X146094352Y-86528323D01*
X146148926Y-86635431D01*
X146164274Y-86650779D01*
X146177000Y-86681503D01*
X146177000Y-86951550D01*
X146164274Y-86982274D01*
X146133550Y-86995000D01*
X144950450Y-86995000D01*
X144919726Y-86982274D01*
X144907000Y-86951550D01*
X144907000Y-85217000D01*
X144763923Y-85217000D01*
X144733199Y-85204274D01*
X144717491Y-85188566D01*
X144603326Y-85130396D01*
X144476771Y-85110352D01*
X144473351Y-85110352D01*
X144473351Y-85108805D01*
X144446251Y-85102291D01*
X144428884Y-85073931D01*
X144433087Y-85047420D01*
X144447135Y-85019850D01*
X144448348Y-85017470D01*
X144467154Y-84898736D01*
X144448348Y-84780002D01*
X144393772Y-84672891D01*
X144308768Y-84587887D01*
X144308766Y-84587885D01*
X144201658Y-84533311D01*
X144082924Y-84514505D01*
X144082922Y-84514505D01*
X143964188Y-84533311D01*
X143964187Y-84533311D01*
X143857079Y-84587885D01*
X143772072Y-84672892D01*
X143717498Y-84780000D01*
X143717498Y-84780001D01*
X143698692Y-84898735D01*
X143698692Y-84898736D01*
X143717498Y-85017470D01*
X143717498Y-85017471D01*
X143772072Y-85124579D01*
X143803423Y-85155930D01*
X143816149Y-85186654D01*
X143803423Y-85217378D01*
X143772699Y-85230104D01*
X143733434Y-85230104D01*
X143643889Y-85254098D01*
X143643889Y-85254099D01*
X143563605Y-85300452D01*
X143563602Y-85300454D01*
X142770782Y-86093274D01*
X142740058Y-86106000D01*
X142470704Y-86106000D01*
X142439980Y-86093274D01*
X142427789Y-86069347D01*
X142420821Y-86025357D01*
X142414766Y-85987126D01*
X142384934Y-85928578D01*
X142360191Y-85880016D01*
X142275184Y-85795009D01*
X142168076Y-85740435D01*
X142049342Y-85721629D01*
X142049340Y-85721629D01*
X141930606Y-85740435D01*
X141930605Y-85740435D01*
X141823497Y-85795009D01*
X141738490Y-85880016D01*
X141683916Y-85987124D01*
X141683916Y-85987125D01*
X141670893Y-86069347D01*
X141653517Y-86097702D01*
X141627978Y-86106000D01*
X139235450Y-86106000D01*
X139204726Y-86093274D01*
X139192000Y-86062550D01*
X139192000Y-85470999D01*
X140839769Y-85470999D01*
X140839769Y-85471000D01*
X140858575Y-85589734D01*
X140858575Y-85589735D01*
X140913149Y-85696843D01*
X140998156Y-85781850D01*
X141105264Y-85836424D01*
X141105266Y-85836425D01*
X141198676Y-85851220D01*
X141223999Y-85855231D01*
X141224000Y-85855231D01*
X141224001Y-85855231D01*
X141240235Y-85852659D01*
X141342734Y-85836425D01*
X141449845Y-85781849D01*
X141534849Y-85696845D01*
X141589425Y-85589734D01*
X141608231Y-85471000D01*
X141589425Y-85352266D01*
X141563813Y-85301999D01*
X141534850Y-85245156D01*
X141449843Y-85160149D01*
X141342735Y-85105575D01*
X141224001Y-85086769D01*
X141223999Y-85086769D01*
X141105265Y-85105575D01*
X141105264Y-85105575D01*
X140998156Y-85160149D01*
X140913149Y-85245156D01*
X140858575Y-85352264D01*
X140858575Y-85352265D01*
X140839769Y-85470999D01*
X139192000Y-85470999D01*
X139192000Y-84708999D01*
X141855769Y-84708999D01*
X141855769Y-84709000D01*
X141874575Y-84827734D01*
X141874575Y-84827735D01*
X141929149Y-84934843D01*
X142014156Y-85019850D01*
X142120296Y-85073931D01*
X142121266Y-85074425D01*
X142217653Y-85089691D01*
X142239999Y-85093231D01*
X142240000Y-85093231D01*
X142240001Y-85093231D01*
X142256235Y-85090659D01*
X142358734Y-85074425D01*
X142465845Y-85019849D01*
X142550849Y-84934845D01*
X142605425Y-84827734D01*
X142624231Y-84709000D01*
X142605425Y-84590266D01*
X142598715Y-84577097D01*
X142550850Y-84483156D01*
X142465843Y-84398149D01*
X142358735Y-84343575D01*
X142240001Y-84324769D01*
X142239999Y-84324769D01*
X142121265Y-84343575D01*
X142121264Y-84343575D01*
X142014156Y-84398149D01*
X141929149Y-84483156D01*
X141874575Y-84590264D01*
X141874575Y-84590265D01*
X141855769Y-84708999D01*
X139192000Y-84708999D01*
X139192000Y-84218998D01*
X139199455Y-84200999D01*
X140839769Y-84200999D01*
X140839769Y-84201000D01*
X140858575Y-84319734D01*
X140858575Y-84319735D01*
X140913149Y-84426843D01*
X140998156Y-84511850D01*
X141105264Y-84566424D01*
X141105266Y-84566425D01*
X141201653Y-84581691D01*
X141223999Y-84585231D01*
X141224000Y-84585231D01*
X141224001Y-84585231D01*
X141240235Y-84582659D01*
X141342734Y-84566425D01*
X141449845Y-84511849D01*
X141534849Y-84426845D01*
X141589425Y-84319734D01*
X141608231Y-84201000D01*
X141589425Y-84082266D01*
X141534849Y-83975155D01*
X141449845Y-83890151D01*
X141449843Y-83890149D01*
X141342735Y-83835575D01*
X141224001Y-83816769D01*
X141223999Y-83816769D01*
X141105265Y-83835575D01*
X141105264Y-83835575D01*
X140998156Y-83890149D01*
X140913149Y-83975156D01*
X140858575Y-84082264D01*
X140858575Y-84082265D01*
X140839769Y-84200999D01*
X139199455Y-84200999D01*
X139204726Y-84188274D01*
X139941274Y-83451726D01*
X139971998Y-83439000D01*
X140034308Y-83439000D01*
X140065032Y-83451726D01*
G37*
G04 #@! TD.AperFunction*
M02*
