G04 #@! TF.GenerationSoftware,KiCad,Pcbnew,8.0.3*
G04 #@! TF.CreationDate,2024-06-18T15:01:00-07:00*
G04 #@! TF.ProjectId,lora2040,6c6f7261-3230-4343-902e-6b696361645f,rev?*
G04 #@! TF.SameCoordinates,Original*
G04 #@! TF.FileFunction,Copper,L1,Top*
G04 #@! TF.FilePolarity,Positive*
%FSLAX46Y46*%
G04 Gerber Fmt 4.6, Leading zero omitted, Abs format (unit mm)*
G04 Created by KiCad (PCBNEW 8.0.3) date 2024-06-18 15:01:00*
%MOMM*%
%LPD*%
G01*
G04 APERTURE LIST*
G04 Aperture macros list*
%AMRoundRect*
0 Rectangle with rounded corners*
0 $1 Rounding radius*
0 $2 $3 $4 $5 $6 $7 $8 $9 X,Y pos of 4 corners*
0 Add a 4 corners polygon primitive as box body*
4,1,4,$2,$3,$4,$5,$6,$7,$8,$9,$2,$3,0*
0 Add four circle primitives for the rounded corners*
1,1,$1+$1,$2,$3*
1,1,$1+$1,$4,$5*
1,1,$1+$1,$6,$7*
1,1,$1+$1,$8,$9*
0 Add four rect primitives between the rounded corners*
20,1,$1+$1,$2,$3,$4,$5,0*
20,1,$1+$1,$4,$5,$6,$7,0*
20,1,$1+$1,$6,$7,$8,$9,0*
20,1,$1+$1,$8,$9,$2,$3,0*%
%AMRotRect*
0 Rectangle, with rotation*
0 The origin of the aperture is its center*
0 $1 length*
0 $2 width*
0 $3 Rotation angle, in degrees counterclockwise*
0 Add horizontal line*
21,1,$1,$2,0,0,$3*%
G04 Aperture macros list end*
G04 #@! TA.AperFunction,Conductor*
%ADD10C,0.000000*%
G04 #@! TD*
G04 #@! TA.AperFunction,SMDPad,CuDef*
%ADD11R,0.350000X0.350000*%
G04 #@! TD*
G04 #@! TA.AperFunction,SMDPad,CuDef*
%ADD12R,0.500000X0.250000*%
G04 #@! TD*
G04 #@! TA.AperFunction,SMDPad,CuDef*
%ADD13R,0.300000X0.600000*%
G04 #@! TD*
G04 #@! TA.AperFunction,SMDPad,CuDef*
%ADD14RoundRect,0.140000X-0.170000X0.140000X-0.170000X-0.140000X0.170000X-0.140000X0.170000X0.140000X0*%
G04 #@! TD*
G04 #@! TA.AperFunction,ComponentPad*
%ADD15R,0.850000X0.850000*%
G04 #@! TD*
G04 #@! TA.AperFunction,ComponentPad*
%ADD16O,0.850000X0.850000*%
G04 #@! TD*
G04 #@! TA.AperFunction,SMDPad,CuDef*
%ADD17R,0.550000X0.550000*%
G04 #@! TD*
G04 #@! TA.AperFunction,SMDPad,CuDef*
%ADD18RoundRect,0.140000X-0.140000X-0.170000X0.140000X-0.170000X0.140000X0.170000X-0.140000X0.170000X0*%
G04 #@! TD*
G04 #@! TA.AperFunction,SMDPad,CuDef*
%ADD19RoundRect,0.250000X-0.275000X-0.250000X0.275000X-0.250000X0.275000X0.250000X-0.275000X0.250000X0*%
G04 #@! TD*
G04 #@! TA.AperFunction,SMDPad,CuDef*
%ADD20RoundRect,0.250000X-0.850000X-0.275000X0.850000X-0.275000X0.850000X0.275000X-0.850000X0.275000X0*%
G04 #@! TD*
G04 #@! TA.AperFunction,SMDPad,CuDef*
%ADD21RoundRect,0.140000X0.170000X-0.140000X0.170000X0.140000X-0.170000X0.140000X-0.170000X-0.140000X0*%
G04 #@! TD*
G04 #@! TA.AperFunction,SMDPad,CuDef*
%ADD22RoundRect,0.062500X-0.062500X-0.062500X0.062500X-0.062500X0.062500X0.062500X-0.062500X0.062500X0*%
G04 #@! TD*
G04 #@! TA.AperFunction,SMDPad,CuDef*
%ADD23R,0.800000X0.900000*%
G04 #@! TD*
G04 #@! TA.AperFunction,SMDPad,CuDef*
%ADD24R,1.200000X1.400000*%
G04 #@! TD*
G04 #@! TA.AperFunction,SMDPad,CuDef*
%ADD25R,1.050000X0.450000*%
G04 #@! TD*
G04 #@! TA.AperFunction,SMDPad,CuDef*
%ADD26R,2.100000X2.100000*%
G04 #@! TD*
G04 #@! TA.AperFunction,SMDPad,CuDef*
%ADD27RoundRect,0.140000X0.140000X0.170000X-0.140000X0.170000X-0.140000X-0.170000X0.140000X-0.170000X0*%
G04 #@! TD*
G04 #@! TA.AperFunction,SMDPad,CuDef*
%ADD28R,1.300000X1.300000*%
G04 #@! TD*
G04 #@! TA.AperFunction,SMDPad,CuDef*
%ADD29RoundRect,0.135000X0.185000X-0.135000X0.185000X0.135000X-0.185000X0.135000X-0.185000X-0.135000X0*%
G04 #@! TD*
G04 #@! TA.AperFunction,SMDPad,CuDef*
%ADD30RoundRect,0.050000X0.050000X-0.387500X0.050000X0.387500X-0.050000X0.387500X-0.050000X-0.387500X0*%
G04 #@! TD*
G04 #@! TA.AperFunction,SMDPad,CuDef*
%ADD31RoundRect,0.050000X0.387500X-0.050000X0.387500X0.050000X-0.387500X0.050000X-0.387500X-0.050000X0*%
G04 #@! TD*
G04 #@! TA.AperFunction,HeatsinkPad*
%ADD32R,3.200000X3.200000*%
G04 #@! TD*
G04 #@! TA.AperFunction,SMDPad,CuDef*
%ADD33RotRect,0.350000X0.350000X315.000000*%
G04 #@! TD*
G04 #@! TA.AperFunction,SMDPad,CuDef*
%ADD34R,1.350000X0.400000*%
G04 #@! TD*
G04 #@! TA.AperFunction,ComponentPad*
%ADD35O,1.900000X1.200000*%
G04 #@! TD*
G04 #@! TA.AperFunction,SMDPad,CuDef*
%ADD36R,1.900000X1.200000*%
G04 #@! TD*
G04 #@! TA.AperFunction,ComponentPad*
%ADD37C,1.450000*%
G04 #@! TD*
G04 #@! TA.AperFunction,SMDPad,CuDef*
%ADD38R,1.900000X1.500000*%
G04 #@! TD*
G04 #@! TA.AperFunction,SMDPad,CuDef*
%ADD39O,0.300000X0.800000*%
G04 #@! TD*
G04 #@! TA.AperFunction,SMDPad,CuDef*
%ADD40O,0.800000X0.300000*%
G04 #@! TD*
G04 #@! TA.AperFunction,SMDPad,CuDef*
%ADD41RoundRect,0.060000X-1.140000X1.140000X-1.140000X-1.140000X1.140000X-1.140000X1.140000X1.140000X0*%
G04 #@! TD*
G04 #@! TA.AperFunction,SMDPad,CuDef*
%ADD42RoundRect,0.135000X-0.185000X0.135000X-0.185000X-0.135000X0.185000X-0.135000X0.185000X0.135000X0*%
G04 #@! TD*
G04 #@! TA.AperFunction,SMDPad,CuDef*
%ADD43RoundRect,0.150000X0.150000X-0.512500X0.150000X0.512500X-0.150000X0.512500X-0.150000X-0.512500X0*%
G04 #@! TD*
G04 #@! TA.AperFunction,SMDPad,CuDef*
%ADD44RoundRect,0.147500X0.172500X-0.147500X0.172500X0.147500X-0.172500X0.147500X-0.172500X-0.147500X0*%
G04 #@! TD*
G04 #@! TA.AperFunction,ViaPad*
%ADD45C,0.520000*%
G04 #@! TD*
G04 #@! TA.AperFunction,ViaPad*
%ADD46C,0.650000*%
G04 #@! TD*
G04 #@! TA.AperFunction,ViaPad*
%ADD47C,0.600000*%
G04 #@! TD*
G04 #@! TA.AperFunction,ViaPad*
%ADD48C,0.460000*%
G04 #@! TD*
G04 #@! TA.AperFunction,Conductor*
%ADD49C,0.200000*%
G04 #@! TD*
G04 #@! TA.AperFunction,Conductor*
%ADD50C,0.127000*%
G04 #@! TD*
G04 #@! TA.AperFunction,Conductor*
%ADD51C,0.300000*%
G04 #@! TD*
G04 #@! TA.AperFunction,Conductor*
%ADD52C,0.279400*%
G04 #@! TD*
G04 #@! TA.AperFunction,Conductor*
%ADD53C,0.450000*%
G04 #@! TD*
G04 #@! TA.AperFunction,Conductor*
%ADD54C,0.254000*%
G04 #@! TD*
G04 #@! TA.AperFunction,Conductor*
%ADD55C,0.240000*%
G04 #@! TD*
G04 #@! TA.AperFunction,Conductor*
%ADD56C,0.350000*%
G04 #@! TD*
G04 #@! TA.AperFunction,Conductor*
%ADD57C,0.150000*%
G04 #@! TD*
G04 #@! TA.AperFunction,Conductor*
%ADD58C,0.400000*%
G04 #@! TD*
G04 #@! TA.AperFunction,Conductor*
%ADD59C,0.250000*%
G04 #@! TD*
G04 #@! TA.AperFunction,Conductor*
%ADD60C,0.500000*%
G04 #@! TD*
G04 #@! TA.AperFunction,Conductor*
%ADD61C,0.560000*%
G04 #@! TD*
G04 APERTURE END LIST*
D10*
G04 #@! TA.AperFunction,Conductor*
G36*
X139299900Y-88627000D02*
G01*
X139449900Y-88777000D01*
X140224900Y-88777000D01*
X140574900Y-89127000D01*
X141424900Y-89127000D01*
X141499900Y-89202000D01*
X141499900Y-89402000D01*
X141424900Y-89477000D01*
X137949900Y-89477000D01*
X137949900Y-87902000D01*
X139299900Y-87902000D01*
X139299900Y-88627000D01*
G37*
G04 #@! TD.AperFunction*
G04 #@! TA.AperFunction,Conductor*
G36*
X149924900Y-88877000D02*
G01*
X149724900Y-88877000D01*
X149724900Y-88502000D01*
X149924900Y-88502000D01*
X149924900Y-88877000D01*
G37*
G04 #@! TD.AperFunction*
G04 #@! TA.AperFunction,Conductor*
G36*
X147049900Y-86377000D02*
G01*
X146649900Y-86377000D01*
X146649900Y-86027000D01*
X147049900Y-86027000D01*
X147049900Y-86377000D01*
G37*
G04 #@! TD.AperFunction*
G04 #@! TA.AperFunction,Conductor*
G36*
X145699900Y-90852000D02*
G01*
X145149900Y-90302000D01*
X145699900Y-90302000D01*
X145699900Y-90852000D01*
G37*
G04 #@! TD.AperFunction*
G04 #@! TA.AperFunction,Conductor*
G36*
X140999900Y-92377000D02*
G01*
X140824900Y-92552000D01*
X140499900Y-92552000D01*
X140499900Y-91102000D01*
X140999900Y-91102000D01*
X140999900Y-92377000D01*
G37*
G04 #@! TD.AperFunction*
G04 #@! TA.AperFunction,Conductor*
G36*
X149874900Y-89902000D02*
G01*
X149724900Y-89902000D01*
X149724900Y-89527000D01*
X149874900Y-89527000D01*
X149874900Y-89902000D01*
G37*
G04 #@! TD.AperFunction*
G04 #@! TA.AperFunction,Conductor*
G36*
X141949900Y-89102000D02*
G01*
X141874890Y-89102000D01*
X141724900Y-88952000D01*
X141724900Y-88652000D01*
X141874890Y-88502000D01*
X141949900Y-88502000D01*
X141949900Y-89102000D01*
G37*
G04 #@! TD.AperFunction*
G04 #@! TA.AperFunction,Conductor*
G36*
X146724890Y-86277000D02*
G01*
X148099900Y-86277000D01*
X148099900Y-86652000D01*
X146200690Y-86651990D01*
X146200700Y-84252000D01*
X146724900Y-84252000D01*
X146724890Y-86277000D01*
G37*
G04 #@! TD.AperFunction*
G04 #@! TA.AperFunction,Conductor*
G36*
X145874900Y-90502000D02*
G01*
X143949900Y-90502000D01*
X143949900Y-90102000D01*
X145874900Y-90102000D01*
X145874900Y-90502000D01*
G37*
G04 #@! TD.AperFunction*
G04 #@! TA.AperFunction,Conductor*
G36*
X140599890Y-88177000D02*
G01*
X140599900Y-88427000D01*
X140774900Y-88602000D01*
X142149900Y-88602000D01*
X142149900Y-88977000D01*
X140649900Y-88977000D01*
X140299900Y-88627000D01*
X139549900Y-88627000D01*
X139549900Y-87902000D01*
X140324900Y-87902000D01*
X140599890Y-88177000D01*
G37*
G04 #@! TD.AperFunction*
G04 #@! TA.AperFunction,Conductor*
G36*
X144324900Y-90127000D02*
G01*
X144324900Y-90477000D01*
X144199900Y-90602000D01*
X143895900Y-90602000D01*
X143895900Y-90002000D01*
X144199900Y-90002000D01*
X144324900Y-90127000D01*
G37*
G04 #@! TD.AperFunction*
G04 #@! TA.AperFunction,Conductor*
G36*
X146349910Y-87877000D02*
G01*
X146799890Y-88326990D01*
X146799900Y-88427000D01*
X145999900Y-88427010D01*
X145999890Y-87876970D01*
X146349910Y-87877000D01*
G37*
G04 #@! TD.AperFunction*
G04 #@! TA.AperFunction,Conductor*
G36*
X142099900Y-87188109D02*
G01*
X142499900Y-87188109D01*
X142499900Y-88433000D01*
X142099900Y-88433000D01*
X142099900Y-87188109D01*
G37*
G04 #@! TD.AperFunction*
G04 #@! TA.AperFunction,Conductor*
G36*
X144124900Y-88402000D02*
G01*
X144124900Y-88452000D01*
X143524900Y-88452000D01*
X143524900Y-88402000D01*
X143649900Y-88277000D01*
X143999900Y-88277000D01*
X144124900Y-88402000D01*
G37*
G04 #@! TD.AperFunction*
G04 #@! TA.AperFunction,Conductor*
G36*
X140599900Y-90917000D02*
G01*
X140564900Y-90952000D01*
X139649890Y-90952000D01*
X139574900Y-91027020D01*
X139574900Y-91352000D01*
X138887890Y-91352010D01*
X139637890Y-90602000D01*
X140599900Y-90601980D01*
X140599900Y-90917000D01*
G37*
G04 #@! TD.AperFunction*
G04 #@! TA.AperFunction,Conductor*
G36*
X144449890Y-86711990D02*
G01*
X144449900Y-86926990D01*
X144289900Y-87086990D01*
X144164910Y-87087000D01*
X143999890Y-87252010D01*
X143999940Y-88652000D01*
X143649890Y-88652000D01*
X143649900Y-87302000D01*
X143949890Y-87002000D01*
X143949900Y-86711990D01*
X144074900Y-86586990D01*
X144324900Y-86586990D01*
X144449890Y-86711990D01*
G37*
G04 #@! TD.AperFunction*
G04 #@! TA.AperFunction,Conductor*
G36*
X147599900Y-87227000D02*
G01*
X146799900Y-87227000D01*
X146374900Y-87652000D01*
X145824890Y-87652000D01*
X145324900Y-88151990D01*
X145324900Y-88302000D01*
X144624900Y-88302000D01*
X144624900Y-88177000D01*
X144649900Y-88152000D01*
X144649890Y-88077010D01*
X145649900Y-87077000D01*
X145649910Y-87077000D01*
X145899910Y-86827000D01*
X146574900Y-86827000D01*
X147599900Y-86827000D01*
X147599900Y-87227000D01*
G37*
G04 #@! TD.AperFunction*
G04 #@! TA.AperFunction,Conductor*
G36*
X140478895Y-86476997D02*
G01*
X141399890Y-87652000D01*
X141399900Y-88302000D01*
X140749900Y-88302000D01*
X140749900Y-88052000D01*
X140399897Y-87702000D01*
X137949910Y-87702000D01*
X137949880Y-86252010D01*
X138274900Y-85927000D01*
X140478890Y-85927000D01*
X140478895Y-86476997D01*
G37*
G04 #@! TD.AperFunction*
G04 #@! TA.AperFunction,Conductor*
G36*
X149174890Y-89327000D02*
G01*
X148859900Y-89327000D01*
X148724870Y-89461960D01*
X148724910Y-89527000D01*
X148449900Y-89526970D01*
X148449900Y-89077010D01*
X149174900Y-89077000D01*
X149174890Y-89327000D01*
G37*
G04 #@! TD.AperFunction*
G04 #@! TA.AperFunction,Conductor*
G36*
X146050710Y-86376980D02*
G01*
X144449890Y-87927000D01*
X144149890Y-87927000D01*
X144149900Y-87452000D01*
X145440400Y-86156800D01*
X145440400Y-84429600D01*
X146050000Y-84429600D01*
X146050710Y-86376980D01*
G37*
G04 #@! TD.AperFunction*
G04 #@! TA.AperFunction,Conductor*
G36*
X147399900Y-90252000D02*
G01*
X145249900Y-90252000D01*
X145249900Y-90152000D01*
X145324900Y-90077000D01*
X147399900Y-90077000D01*
X147399900Y-90252000D01*
G37*
G04 #@! TD.AperFunction*
D11*
X148849900Y-87002000D03*
X148849900Y-87602000D03*
X145912000Y-107247490D03*
X145912000Y-106647500D03*
D12*
X146899900Y-88302000D03*
X146899900Y-88802000D03*
X146899900Y-89302000D03*
X146899900Y-89802000D03*
D13*
X147549900Y-90127000D03*
D12*
X148199900Y-89802000D03*
X148199900Y-89302000D03*
X148199900Y-88802000D03*
X148199900Y-88302000D03*
D13*
X147549900Y-87977000D03*
D11*
X145516600Y-96855000D03*
X145516600Y-97454990D03*
D14*
X140724000Y-96416500D03*
X140724000Y-97376500D03*
D15*
X133985000Y-94996000D03*
D16*
X133985000Y-95996000D03*
D11*
X140008000Y-105410000D03*
X139408000Y-105410000D03*
X146824900Y-86452000D03*
X146824900Y-87051990D03*
D17*
X144754600Y-83947000D03*
X144754600Y-84747000D03*
D18*
X139228000Y-99662500D03*
X140188000Y-99662500D03*
D19*
X151667900Y-89202000D03*
D20*
X153192900Y-87727000D03*
X153192900Y-90677000D03*
D21*
X140081000Y-95349000D03*
X140081000Y-94389000D03*
D14*
X141935200Y-96421000D03*
X141935200Y-97381000D03*
D11*
X150674900Y-89202000D03*
X150074910Y-89202000D03*
D22*
X149049900Y-88802000D03*
X149049900Y-89202000D03*
X149049900Y-89602000D03*
X149449900Y-89602000D03*
X149449900Y-89202000D03*
X149449900Y-88802000D03*
D11*
X144124000Y-83882000D03*
X144124000Y-84481990D03*
X149449900Y-87002000D03*
X149449900Y-87601990D03*
X140024900Y-90177000D03*
X140024900Y-90776990D03*
D23*
X142198000Y-84009000D03*
X142198000Y-85409000D03*
X143298000Y-85409000D03*
X143298000Y-84009000D03*
D11*
X149449900Y-91452000D03*
X149449900Y-90852010D03*
X150503000Y-101491500D03*
X149903010Y-101491500D03*
D24*
X153639000Y-103841000D03*
X153639000Y-101641000D03*
X151939000Y-101641000D03*
X151939000Y-103841000D03*
D17*
X139899900Y-88282000D03*
X139899900Y-87482000D03*
D25*
X142296000Y-110617000D03*
X142296000Y-109347000D03*
X142296000Y-108077000D03*
X142296000Y-106807000D03*
X136596000Y-106807000D03*
X136596000Y-108077000D03*
X136596000Y-109347000D03*
X136596000Y-110617000D03*
D26*
X139446000Y-108712000D03*
D18*
X139482000Y-98773500D03*
X140442000Y-98773500D03*
D14*
X135636000Y-95405000D03*
X135636000Y-96365000D03*
D15*
X147193000Y-109347000D03*
D16*
X147193000Y-108347000D03*
X148193000Y-109347000D03*
X148193000Y-108347000D03*
X149193000Y-109347000D03*
X149193000Y-108347000D03*
X150193000Y-109347000D03*
X150193000Y-108347000D03*
X151193000Y-109347000D03*
X151193000Y-108347000D03*
X152193000Y-109347000D03*
X152193000Y-108347000D03*
D15*
X152857200Y-97869000D03*
D16*
X152857200Y-96869000D03*
X152857200Y-95869000D03*
X152857200Y-94869000D03*
D17*
X146124900Y-87352000D03*
X146124900Y-88152000D03*
D11*
X149479000Y-96575500D03*
X149479000Y-95975500D03*
X142702000Y-86868000D03*
X143302000Y-86868000D03*
D27*
X138021000Y-92837000D03*
X137061000Y-92837000D03*
D11*
X152538990Y-100424500D03*
X151939000Y-100424500D03*
X139535000Y-101057000D03*
X140135000Y-101057000D03*
D17*
X145650000Y-85979000D03*
X146450000Y-85979000D03*
D11*
X139535000Y-101657000D03*
X140134990Y-101657000D03*
X148849900Y-90852000D03*
X148849900Y-91452000D03*
X149903000Y-99695000D03*
X150503000Y-99695000D03*
X142702000Y-86268000D03*
X143301990Y-86268000D03*
X147424900Y-86452000D03*
X147424900Y-87051990D03*
D28*
X138624900Y-88602000D03*
X138624900Y-87002000D03*
D11*
X150503000Y-100891500D03*
X149903010Y-100891500D03*
X153039010Y-105056500D03*
X153639000Y-105056500D03*
D29*
X144653000Y-109728000D03*
X144653000Y-108708000D03*
D11*
X150168000Y-102091500D03*
X149568000Y-102091500D03*
X139535000Y-100457000D03*
X140135000Y-100457000D03*
D18*
X135692000Y-90678000D03*
X136652000Y-90678000D03*
D30*
X142312000Y-105394500D03*
X142712000Y-105394500D03*
X143112000Y-105394500D03*
X143512000Y-105394500D03*
X143912000Y-105394500D03*
X144312000Y-105394500D03*
X144712000Y-105394500D03*
X145112000Y-105394500D03*
X145512000Y-105394500D03*
X145912000Y-105394500D03*
X146312000Y-105394500D03*
X146712000Y-105394500D03*
X147112000Y-105394500D03*
X147512000Y-105394500D03*
D31*
X148349500Y-104557000D03*
X148349500Y-104157000D03*
X148349500Y-103757000D03*
X148349500Y-103357000D03*
X148349500Y-102957000D03*
X148349500Y-102557000D03*
X148349500Y-102157000D03*
X148349500Y-101757000D03*
X148349500Y-101357000D03*
X148349500Y-100957000D03*
X148349500Y-100557000D03*
X148349500Y-100157000D03*
X148349500Y-99757000D03*
X148349500Y-99357000D03*
D30*
X147512000Y-98519500D03*
X147112000Y-98519500D03*
X146712000Y-98519500D03*
X146312000Y-98519500D03*
X145912000Y-98519500D03*
X145512000Y-98519500D03*
X145112000Y-98519500D03*
X144712000Y-98519500D03*
X144312000Y-98519500D03*
X143912000Y-98519500D03*
X143512000Y-98519500D03*
X143112000Y-98519500D03*
X142712000Y-98519500D03*
X142312000Y-98519500D03*
D31*
X141474500Y-99357000D03*
X141474500Y-99757000D03*
X141474500Y-100157000D03*
X141474500Y-100557000D03*
X141474500Y-100957000D03*
X141474500Y-101357000D03*
X141474500Y-101757000D03*
X141474500Y-102157000D03*
X141474500Y-102557000D03*
X141474500Y-102957000D03*
X141474500Y-103357000D03*
X141474500Y-103757000D03*
X141474500Y-104157000D03*
X141474500Y-104557000D03*
D32*
X144912000Y-101957000D03*
D33*
X134830743Y-109811743D03*
X135255000Y-110236000D03*
D34*
X136880600Y-100330000D03*
X136880600Y-100980000D03*
X136880600Y-101630000D03*
X136880600Y-102280000D03*
X136880600Y-102930000D03*
D35*
X134180600Y-98130000D03*
D36*
X134180600Y-98730000D03*
D37*
X136880600Y-99130000D03*
D38*
X134180600Y-100630000D03*
X134180600Y-102630000D03*
D37*
X136880600Y-104130000D03*
D36*
X134180600Y-104530000D03*
D35*
X134180600Y-105130000D03*
D39*
X144299900Y-87652000D03*
X143799900Y-87652000D03*
X143299900Y-87652000D03*
X142799900Y-87652000D03*
X142299900Y-87652000D03*
X141799900Y-87652000D03*
D40*
X141149900Y-88302000D03*
X141149900Y-88802000D03*
X141149900Y-89302000D03*
X141149900Y-89802000D03*
X141149900Y-90302000D03*
X141149900Y-90802000D03*
D39*
X141799900Y-91452000D03*
X142299900Y-91452000D03*
X142799900Y-91452000D03*
X143299900Y-91452000D03*
X143799900Y-91452000D03*
X144299900Y-91452000D03*
D40*
X144949900Y-90802000D03*
X144949900Y-90302000D03*
X144949900Y-89802000D03*
X144949900Y-89302000D03*
X144949900Y-88802000D03*
X144949900Y-88302000D03*
D41*
X143049900Y-89552000D03*
D42*
X143510000Y-108708000D03*
X143510000Y-109728000D03*
D11*
X139535000Y-102329500D03*
X140134990Y-102329500D03*
D43*
X136972000Y-96514500D03*
X137922000Y-96514500D03*
X138872000Y-96514500D03*
X138872000Y-94239500D03*
X136972000Y-94239500D03*
D44*
X150622000Y-96968500D03*
X150622000Y-95998500D03*
D45*
X145624900Y-82169000D03*
D46*
X146187000Y-101957000D03*
D45*
X150899900Y-86952000D03*
X138811000Y-84074000D03*
X145574900Y-83527000D03*
X150571200Y-92633800D03*
X139199900Y-91277000D03*
X143349900Y-88652000D03*
X142149900Y-89852000D03*
X141351000Y-83185000D03*
X138665217Y-92932866D03*
X135890000Y-83820000D03*
X149999900Y-88602000D03*
D46*
X144912000Y-103232000D03*
D45*
X140724900Y-92302000D03*
X150774900Y-88602000D03*
X147474900Y-93902000D03*
D47*
X135694600Y-100330000D03*
D48*
X148624900Y-88302000D03*
D45*
X147324900Y-84502000D03*
X135763000Y-94488000D03*
X149374900Y-85602000D03*
X142749900Y-89252000D03*
D47*
X138201400Y-102235000D03*
D45*
X154051000Y-100457000D03*
X146699900Y-82169000D03*
X140798239Y-95678501D03*
X141935200Y-95758000D03*
X148615400Y-94157800D03*
X138988800Y-102329500D03*
X153162000Y-83566000D03*
X141224000Y-85471000D03*
X150952200Y-100891500D03*
X135824900Y-88392000D03*
X151774900Y-91427000D03*
X154101800Y-86868000D03*
X134874000Y-88950800D03*
X143949900Y-89252000D03*
X136906000Y-82927000D03*
D48*
X147549900Y-90552000D03*
D45*
X153670000Y-92377000D03*
X149524900Y-86427000D03*
X142749900Y-88652000D03*
X138324900Y-82804000D03*
X140817600Y-94767400D03*
X153898600Y-105918000D03*
X153162000Y-84877000D03*
D46*
X146177000Y-100682000D03*
D45*
X152400000Y-86868000D03*
D46*
X143764000Y-103232000D03*
D45*
X146507200Y-85302000D03*
X148349900Y-85877000D03*
X152654000Y-92377000D03*
X139446000Y-83312000D03*
X146608800Y-91440000D03*
X150774900Y-89802000D03*
X139446000Y-108712000D03*
X142749900Y-90452000D03*
X149245250Y-103103750D03*
X154178000Y-91694000D03*
X147701000Y-85217000D03*
X140724900Y-91427000D03*
X152450800Y-93446600D03*
X152501600Y-105054400D03*
X134874000Y-90678000D03*
X150952200Y-101491500D03*
X151674900Y-86302000D03*
X143637000Y-82169000D03*
X145531984Y-90335288D03*
X150774900Y-91477000D03*
X133705600Y-89585800D03*
X151206200Y-93446600D03*
X148590000Y-82804000D03*
X148274900Y-91177000D03*
X148049900Y-92152000D03*
X146974900Y-85752000D03*
X153162000Y-86302000D03*
X152654000Y-99568000D03*
D46*
X143764000Y-101981000D03*
D48*
X148291298Y-87476146D03*
D45*
X153076400Y-100426600D03*
X135824900Y-87096600D03*
X153670000Y-99568000D03*
X139228000Y-99662500D03*
X148124900Y-86952000D03*
X147904010Y-86431741D03*
X146499900Y-83527000D03*
D48*
X146927212Y-87796383D03*
D45*
X135824900Y-89535000D03*
X142149900Y-88652000D03*
X146197723Y-90328472D03*
X144082923Y-84898736D03*
D48*
X148199900Y-90299773D03*
D45*
X137160000Y-83820000D03*
X149961600Y-91452000D03*
X142149900Y-90452000D03*
D48*
X147549360Y-87584165D03*
D45*
X146056471Y-90991939D03*
X138760200Y-109347000D03*
X153593800Y-93446600D03*
D46*
X144912000Y-101957000D03*
D45*
X139482000Y-98773500D03*
X150349900Y-94277000D03*
X149529800Y-92002000D03*
X147431193Y-86031190D03*
X143949900Y-89852000D03*
X143349900Y-90452000D03*
D46*
X146187000Y-103232000D03*
D45*
X147449900Y-83527000D03*
X144145000Y-83185000D03*
X150049900Y-90577000D03*
X142624900Y-82169000D03*
X141401800Y-106807000D03*
D48*
X147549900Y-89427000D03*
D45*
X150049900Y-87827000D03*
D47*
X135890000Y-97688400D03*
D45*
X134874000Y-86537800D03*
X146459777Y-86409588D03*
X145469381Y-96393000D03*
X140081000Y-109347000D03*
D47*
X135694600Y-101346000D03*
D45*
X135763000Y-91948000D03*
X144599900Y-82169000D03*
X150524900Y-83527000D03*
X134366000Y-109474000D03*
X151949900Y-82252000D03*
X142049341Y-86105860D03*
X144199900Y-86827000D03*
X151099900Y-87802000D03*
D46*
X144912000Y-100682000D03*
D45*
X142749900Y-89852000D03*
X136249900Y-84952000D03*
X143949900Y-90452000D03*
X143949900Y-88652000D03*
D48*
X147524900Y-88702000D03*
D45*
X148349900Y-84777000D03*
X133705600Y-91414600D03*
X153192900Y-91694000D03*
X148615400Y-95402400D03*
X141224000Y-84201000D03*
X139699900Y-92302000D03*
X134874000Y-92456000D03*
X151815800Y-90477000D03*
X146999900Y-92227000D03*
X150899900Y-90502000D03*
D47*
X134670800Y-96951800D03*
D45*
X135824900Y-86002000D03*
X149349900Y-84677000D03*
X151674900Y-84877000D03*
D48*
X146899900Y-90299170D03*
D45*
X135128000Y-84963000D03*
X138150600Y-93624400D03*
X139149900Y-82169000D03*
X140374900Y-82169000D03*
X150449900Y-84802000D03*
X140024900Y-91252000D03*
X140081000Y-108077000D03*
X150474900Y-86077000D03*
X142149900Y-89252000D03*
X140335000Y-83185000D03*
X150574900Y-82327000D03*
X151836423Y-87790470D03*
D46*
X143764000Y-100682000D03*
D45*
X149349900Y-83577000D03*
X149349900Y-93102000D03*
X151699900Y-92377000D03*
X146524900Y-93202000D03*
X151384000Y-105079800D03*
X147474900Y-91252000D03*
X136144000Y-82296000D03*
D48*
X148945600Y-90297000D03*
D45*
X151774900Y-83502000D03*
X141599900Y-82169000D03*
X134874000Y-87680800D03*
X140335000Y-88366600D03*
D47*
X136906000Y-95402400D03*
D45*
X138430000Y-91277000D03*
X138988800Y-101650800D03*
X148349900Y-93027000D03*
X145899900Y-92152000D03*
X149999900Y-89802000D03*
X149349900Y-82169000D03*
X140970000Y-93726000D03*
D48*
X146424900Y-88802000D03*
D45*
X140081000Y-110286800D03*
X150622000Y-104394000D03*
X145912000Y-107736490D03*
X137549900Y-82169000D03*
D48*
X148596068Y-89302977D03*
D45*
X135001000Y-93599000D03*
X142240000Y-83185000D03*
X142240000Y-84709000D03*
X149949900Y-87002000D03*
X135763000Y-93218000D03*
X147749900Y-82169000D03*
X143349900Y-89252000D03*
X143349900Y-89852000D03*
X152552400Y-106654600D03*
X146507200Y-84378800D03*
X148082000Y-83947000D03*
X150622000Y-103124000D03*
X138023600Y-110286800D03*
X149402800Y-100965000D03*
X140589000Y-102285800D03*
D47*
X142812000Y-101257000D03*
X146964400Y-101357030D03*
D45*
X141224000Y-98044000D03*
D47*
X140081000Y-85394800D03*
D45*
X140716000Y-101473000D03*
X149987000Y-98425000D03*
X142367000Y-104521000D03*
D47*
X145745200Y-84734400D03*
D45*
X142367000Y-99441000D03*
D47*
X145745200Y-85394800D03*
D45*
X137287000Y-91948000D03*
X135600775Y-109890225D03*
X139319000Y-105918000D03*
X146939000Y-100457000D03*
X136652000Y-91948000D03*
D47*
X139547600Y-84886800D03*
D45*
X149479000Y-94869000D03*
X140589000Y-98044000D03*
D47*
X140106400Y-84378800D03*
X145465800Y-86537800D03*
D45*
X140817600Y-105384600D03*
X141478000Y-110617000D03*
X149279381Y-104775000D03*
X148849900Y-91952000D03*
X139974900Y-93027000D03*
X148849900Y-86502000D03*
X139827000Y-104571800D03*
X141351000Y-108077000D03*
X137541000Y-109347000D03*
X138747500Y-103187500D03*
D47*
X141351000Y-86741000D03*
X144476770Y-85519894D03*
D45*
X142299900Y-92202000D03*
X146231381Y-97459800D03*
X142799900Y-93091000D03*
X146231381Y-96774000D03*
X141799900Y-93091000D03*
X144399000Y-96748600D03*
X137541000Y-108077000D03*
X139581000Y-103378000D03*
X141478000Y-109347000D03*
X140639800Y-104495658D03*
X140389381Y-103531500D03*
X137922000Y-106807000D03*
X143383000Y-107061000D03*
X142714283Y-106165713D03*
X144272000Y-106934000D03*
X147320000Y-96520000D03*
X143801630Y-93091000D03*
X144907000Y-106299000D03*
X143299900Y-92202000D03*
X149152381Y-99187000D03*
X144299900Y-92202000D03*
X147755381Y-97409000D03*
X148390381Y-98425000D03*
X145399900Y-91302000D03*
X136271000Y-96139000D03*
X138872000Y-97536000D03*
X137922000Y-99999800D03*
X136271000Y-96774000D03*
X143256000Y-96774000D03*
D48*
X144018000Y-97536000D03*
D45*
X142875000Y-97663000D03*
X151773000Y-98679000D03*
X151265000Y-99314000D03*
X144957800Y-97739200D03*
X149479000Y-97118500D03*
D49*
X139573000Y-99212400D02*
X139674600Y-99314000D01*
X141935200Y-96421000D02*
X141935200Y-95758000D01*
X145231200Y-83870700D02*
X145231200Y-85451600D01*
X152538990Y-100424500D02*
X153074300Y-100424500D01*
X139344400Y-99212400D02*
X139306300Y-99250500D01*
X138995000Y-101657000D02*
X139535000Y-101657000D01*
X139482000Y-99074800D02*
X139482000Y-98773500D01*
D50*
X145788881Y-96806519D02*
X145788881Y-96577919D01*
D49*
X150622000Y-100584000D02*
X150749000Y-100584000D01*
X150503000Y-100703000D02*
X150622000Y-100584000D01*
X139204700Y-99250500D02*
X139065000Y-99110800D01*
X150503000Y-101491500D02*
X150952200Y-101491500D01*
X148742400Y-109797600D02*
X149193000Y-109347000D01*
X153039010Y-105056500D02*
X152503700Y-105056500D01*
X152503700Y-105056500D02*
X152501600Y-105054400D01*
X145469381Y-96393000D02*
X145516600Y-96440219D01*
X138988800Y-101650800D02*
X138995000Y-101657000D01*
X139228000Y-99662500D02*
X139228000Y-99328800D01*
X145516600Y-96440219D02*
X145516600Y-96855000D01*
D50*
X145740400Y-96855000D02*
X145788881Y-96806519D01*
D49*
X149245250Y-103103750D02*
X149098500Y-102957000D01*
X140724000Y-96416500D02*
X140724000Y-95752740D01*
D51*
X142299900Y-88701990D02*
X142299900Y-88702000D01*
D49*
X149193000Y-109347000D02*
X149643600Y-109797600D01*
X139344400Y-99212400D02*
X139482000Y-99074800D01*
D50*
X145516600Y-96855000D02*
X145740400Y-96855000D01*
D49*
X149098500Y-102957000D02*
X148349500Y-102957000D01*
D50*
X145788881Y-96577919D02*
X145846800Y-96520000D01*
D49*
X139535000Y-102329500D02*
X138988800Y-102329500D01*
X140724000Y-95752740D02*
X140798239Y-95678501D01*
X139344400Y-99212400D02*
X139573000Y-99212400D01*
X149193000Y-108347000D02*
X148742400Y-107896400D01*
X150503000Y-100891500D02*
X150503000Y-100703000D01*
X145574900Y-83527000D02*
X145231200Y-83870700D01*
X142299900Y-88339500D02*
X142274900Y-88364500D01*
X139306300Y-99250500D02*
X139204700Y-99250500D01*
X145231200Y-85451600D02*
X145211800Y-85471000D01*
X145912000Y-107247490D02*
X145912000Y-107736490D01*
X139228000Y-99328800D02*
X139344400Y-99212400D01*
X149643600Y-107896400D02*
X149193000Y-108347000D01*
X150503000Y-100891500D02*
X150952200Y-100891500D01*
X148349500Y-102557000D02*
X152355000Y-102557000D01*
X152355000Y-102557000D02*
X153639000Y-103841000D01*
X153639000Y-105123500D02*
X153639000Y-103841000D01*
X141474500Y-100157000D02*
X142446500Y-100157000D01*
D52*
X140589000Y-102285800D02*
X140563600Y-102311200D01*
D49*
X140589000Y-102285800D02*
X140717800Y-102157000D01*
D51*
X149476300Y-100891500D02*
X149903010Y-100891500D01*
X149402800Y-100965000D02*
X149476300Y-100891500D01*
D49*
X140717800Y-102157000D02*
X141474500Y-102157000D01*
X149402800Y-100965000D02*
X149010800Y-101357000D01*
X140809500Y-100157000D02*
X140315000Y-99662500D01*
D52*
X140563600Y-102311200D02*
X140153290Y-102311200D01*
D49*
X140315000Y-99662500D02*
X140188000Y-99662500D01*
X141474500Y-100157000D02*
X140809500Y-100157000D01*
D52*
X140153290Y-102311200D02*
X140134990Y-102329500D01*
D49*
X149010800Y-101357000D02*
X148349500Y-101357000D01*
X141000000Y-101757000D02*
X140716000Y-101473000D01*
X141474500Y-101757000D02*
X142204500Y-101757000D01*
X149262510Y-101757000D02*
X149528010Y-101491500D01*
X149479000Y-94869000D02*
X152857200Y-94869000D01*
X145516600Y-97454990D02*
X145912000Y-97850390D01*
D53*
X136596000Y-110617000D02*
X135636000Y-110617000D01*
D49*
X145912000Y-106647500D02*
X145912000Y-105394500D01*
X141474500Y-101757000D02*
X141000000Y-101757000D01*
X149528010Y-101491500D02*
X149903010Y-101491500D01*
X145912000Y-97850390D02*
X145912000Y-98519500D01*
X139408000Y-105829000D02*
X139319000Y-105918000D01*
X139408000Y-105410000D02*
X139408000Y-105829000D01*
X145912000Y-105394500D02*
X145912000Y-104634500D01*
X140832000Y-101357000D02*
X140716000Y-101473000D01*
D53*
X135636000Y-110617000D02*
X135255000Y-110236000D01*
D49*
X145912000Y-98519500D02*
X145912000Y-99389500D01*
X148349500Y-101757000D02*
X149262510Y-101757000D01*
X150503000Y-98941000D02*
X150503000Y-99695000D01*
X147646500Y-101757000D02*
X147582000Y-101821500D01*
D54*
X140134990Y-101657000D02*
X140532000Y-101657000D01*
D49*
X141474500Y-101357000D02*
X142240000Y-101357000D01*
X142312000Y-105394500D02*
X142312000Y-104678500D01*
D53*
X135255000Y-110236000D02*
X135600775Y-109890225D01*
D49*
X141474500Y-101357000D02*
X140832000Y-101357000D01*
D54*
X140532000Y-101657000D02*
X140716000Y-101473000D01*
D49*
X149987000Y-98425000D02*
X150503000Y-98941000D01*
X148349500Y-101757000D02*
X147646500Y-101757000D01*
D55*
X150674900Y-89202000D02*
X151667900Y-89202000D01*
D56*
X139535000Y-101057000D02*
X138642800Y-101057000D01*
X138069800Y-101630000D02*
X137076000Y-101630000D01*
X138642800Y-101057000D02*
X138069800Y-101630000D01*
D49*
X148349500Y-102157000D02*
X149614000Y-102157000D01*
D56*
X138455400Y-100457000D02*
X137932400Y-100980000D01*
X139535000Y-100457000D02*
X138455400Y-100457000D01*
X137932400Y-100980000D02*
X137076000Y-100980000D01*
D57*
X140970900Y-105384600D02*
X141474500Y-104881000D01*
X143510000Y-110109000D02*
X143510000Y-109728000D01*
X140817600Y-105384600D02*
X140033400Y-105384600D01*
X140817600Y-105384600D02*
X140970900Y-105384600D01*
X142296000Y-110617000D02*
X141478000Y-110617000D01*
X143002000Y-110617000D02*
X143510000Y-110109000D01*
X140033400Y-105384600D02*
X140008000Y-105410000D01*
X141474500Y-104881000D02*
X141474500Y-104557000D01*
X142296000Y-110617000D02*
X143002000Y-110617000D01*
D49*
X148849900Y-91952000D02*
X148849900Y-91452000D01*
X149061381Y-104557000D02*
X149279381Y-104775000D01*
X148349500Y-104557000D02*
X149061381Y-104557000D01*
X139974900Y-93027000D02*
X140774900Y-93027000D01*
X140774900Y-93027000D02*
X141249900Y-92552000D01*
X148849900Y-87002000D02*
X148849900Y-86502000D01*
X141249900Y-90902000D02*
X141287400Y-90864500D01*
X141249900Y-92552000D02*
X141249900Y-90902000D01*
D57*
X140360400Y-104038400D02*
X140658100Y-104038400D01*
X140939500Y-103757000D02*
X141474500Y-103757000D01*
X139827000Y-104571800D02*
X140360400Y-104038400D01*
X140658100Y-104038400D02*
X140939500Y-103757000D01*
X142296000Y-108077000D02*
X141351000Y-108077000D01*
X138794698Y-103187500D02*
X139223698Y-102758500D01*
X140962667Y-102557000D02*
X141474500Y-102557000D01*
X139223698Y-102758500D02*
X140761167Y-102758500D01*
X136596000Y-109347000D02*
X137541000Y-109347000D01*
X140761167Y-102758500D02*
X140962667Y-102557000D01*
X138747500Y-103187500D02*
X138794698Y-103187500D01*
D56*
X141351000Y-86741000D02*
X141799900Y-87189900D01*
D58*
X144754600Y-85242064D02*
X144754600Y-84747000D01*
X144476770Y-85519894D02*
X144754600Y-85242064D01*
D56*
X141799900Y-87189900D02*
X141799900Y-87652000D01*
D49*
X142299900Y-92277000D02*
X142299900Y-91452000D01*
X146312000Y-97540419D02*
X146312000Y-98519500D01*
X146231381Y-97459800D02*
X146312000Y-97540419D01*
X142799900Y-93091000D02*
X142799900Y-91452000D01*
X146712000Y-97105800D02*
X146712000Y-98519500D01*
X146231381Y-96774000D02*
X146380200Y-96774000D01*
X146380200Y-96774000D02*
X146712000Y-97105800D01*
X144399000Y-96748600D02*
X144472000Y-96821600D01*
X144312000Y-97884053D02*
X144312000Y-98519500D01*
X141799900Y-93091000D02*
X141799900Y-91452000D01*
X144472000Y-96821600D02*
X144472000Y-97724053D01*
X144472000Y-97724053D02*
X144312000Y-97884053D01*
X151939000Y-100424500D02*
X151939000Y-101641000D01*
X151939000Y-101641000D02*
X151488500Y-102091500D01*
X151488500Y-102091500D02*
X150168000Y-102091500D01*
D55*
X149449900Y-89202000D02*
X150074900Y-89202000D01*
D49*
X148849900Y-90852000D02*
X148849900Y-90852000D01*
X148849900Y-90852000D02*
X149449900Y-90852000D01*
X149449900Y-90852000D02*
X149449900Y-89602000D01*
X149449900Y-88802000D02*
X149449900Y-87602000D01*
X149449900Y-87602000D02*
X148849900Y-87602000D01*
D59*
X145474900Y-88802000D02*
X146124900Y-88152000D01*
X146124900Y-88152000D02*
X146124900Y-88152000D01*
X144949900Y-88802000D02*
X144949900Y-88802000D01*
X144949900Y-88802000D02*
X144949900Y-88802000D01*
X144949900Y-88802000D02*
X144949900Y-88802000D01*
X144949900Y-88802000D02*
X145474900Y-88802000D01*
D49*
X143510000Y-108708000D02*
X144653000Y-108708000D01*
X141474500Y-100957000D02*
X140235000Y-100957000D01*
X140235000Y-100957000D02*
X140135000Y-101057000D01*
X141474500Y-100557000D02*
X140235000Y-100557000D01*
X140235000Y-100557000D02*
X140135000Y-100457000D01*
D59*
X144949900Y-89302000D02*
X146899900Y-89302000D01*
D49*
X143299900Y-86870100D02*
X143302000Y-86868000D01*
X143299900Y-87652000D02*
X143299900Y-86870100D01*
D59*
X144924900Y-89802000D02*
X144924900Y-89802000D01*
X144924900Y-89802000D02*
X146899900Y-89802000D01*
D49*
X142702000Y-86268000D02*
X142702000Y-86868000D01*
D55*
X148199900Y-89802000D02*
X148849900Y-89802000D01*
X148849900Y-89802000D02*
X149049900Y-89602000D01*
X148199900Y-88802000D02*
X149049900Y-88802000D01*
D57*
X139885800Y-103073200D02*
X139581000Y-103378000D01*
X141004500Y-102957000D02*
X140888300Y-103073200D01*
X141474500Y-102957000D02*
X141004500Y-102957000D01*
X137541000Y-108077000D02*
X136596000Y-108077000D01*
X140888300Y-103073200D02*
X139885800Y-103073200D01*
X142296000Y-109347000D02*
X141478000Y-109347000D01*
X140978458Y-104157000D02*
X141474500Y-104157000D01*
X140639800Y-104495658D02*
X140978458Y-104157000D01*
D49*
X136596000Y-106807000D02*
X137922000Y-106807000D01*
D57*
X140563881Y-103357000D02*
X141474500Y-103357000D01*
X140389381Y-103531500D02*
X140563881Y-103357000D01*
X143383000Y-107061000D02*
X143383000Y-106146600D01*
X143383000Y-106146600D02*
X143112000Y-105875600D01*
X143112000Y-105875600D02*
X143112000Y-105394500D01*
X142712000Y-106163430D02*
X142712000Y-105394500D01*
X142714283Y-106165713D02*
X142712000Y-106163430D01*
X144312000Y-106894000D02*
X144312000Y-105394500D01*
X144272000Y-106934000D02*
X144312000Y-106894000D01*
X148349500Y-100157000D02*
X148833773Y-100157000D01*
X148833773Y-100157000D02*
X149295773Y-99695000D01*
X149295773Y-99695000D02*
X149903000Y-99695000D01*
D49*
X143801630Y-93091000D02*
X143801630Y-91453730D01*
X147112000Y-96728000D02*
X147112000Y-98519500D01*
X147320000Y-96520000D02*
X147112000Y-96728000D01*
D57*
X144712000Y-105394500D02*
X144712000Y-106104000D01*
X144712000Y-106104000D02*
X144907000Y-106299000D01*
D49*
X143298000Y-86264010D02*
X143301990Y-86268000D01*
X143298000Y-85409000D02*
X143298000Y-86264010D01*
X149152381Y-99447220D02*
X148842601Y-99757000D01*
X143299900Y-91452000D02*
X143299900Y-91452000D01*
X148842601Y-99757000D02*
X148349500Y-99757000D01*
X143299900Y-92202000D02*
X143299900Y-91452000D01*
X149152381Y-99187000D02*
X149152381Y-99447220D01*
X147755381Y-97409000D02*
X147512000Y-97652381D01*
X147512000Y-97652381D02*
X147512000Y-98519500D01*
X144299900Y-92202000D02*
X144299900Y-91452000D01*
X148349500Y-99357000D02*
X148390381Y-99316119D01*
X144949900Y-90802000D02*
X145199900Y-90802000D01*
X145399900Y-91302000D02*
X145399900Y-91002000D01*
X145199900Y-90802000D02*
X145399900Y-91002000D01*
X148390381Y-99316119D02*
X148390381Y-98425000D01*
D51*
X143425000Y-83882000D02*
X143298000Y-84009000D01*
X144124000Y-83882000D02*
X143425000Y-83882000D01*
X144715000Y-83882000D02*
X144780000Y-83947000D01*
X144124000Y-83882000D02*
X144715000Y-83882000D01*
D60*
X137591800Y-100330000D02*
X136880600Y-100330000D01*
D49*
X138872000Y-97536000D02*
X138872000Y-96514500D01*
D60*
X137922000Y-99999800D02*
X137591800Y-100330000D01*
D61*
X140081000Y-94389000D02*
X139021500Y-94389000D01*
X139021500Y-94389000D02*
X138872000Y-94239500D01*
D49*
X143512000Y-97030000D02*
X143512000Y-98519500D01*
X143256000Y-96774000D02*
X143512000Y-97030000D01*
X143912000Y-98519500D02*
X143912000Y-97642000D01*
X143912000Y-97642000D02*
X144018000Y-97536000D01*
X143112000Y-97900000D02*
X143112000Y-98519500D01*
X142875000Y-97663000D02*
X143112000Y-97900000D01*
X150599000Y-95975500D02*
X150622000Y-95998500D01*
X149479000Y-95975500D02*
X150599000Y-95975500D01*
D57*
X148745405Y-100957000D02*
X148349500Y-100957000D01*
X149395005Y-100307400D02*
X148745405Y-100957000D01*
X151773000Y-99483800D02*
X150949400Y-100307400D01*
X151773000Y-98679000D02*
X151773000Y-99483800D01*
X150949400Y-100307400D02*
X149395005Y-100307400D01*
X150744700Y-100055800D02*
X149290789Y-100055800D01*
X151265000Y-99314000D02*
X151265000Y-99535500D01*
X151265000Y-99535500D02*
X150744700Y-100055800D01*
X148789589Y-100557000D02*
X148349500Y-100557000D01*
X149290789Y-100055800D02*
X148789589Y-100557000D01*
D49*
X149479000Y-96575500D02*
X149479000Y-97118500D01*
X144957800Y-97739200D02*
X145112000Y-97893400D01*
X145112000Y-97893400D02*
X145112000Y-98519500D01*
G04 #@! TA.AperFunction,Conductor*
G36*
X147699274Y-99169726D02*
G01*
X147712000Y-99200450D01*
X147712000Y-104713550D01*
X147699274Y-104744274D01*
X147668550Y-104757000D01*
X142155450Y-104757000D01*
X142124726Y-104744274D01*
X142112000Y-104713550D01*
X142112000Y-101150724D01*
X142124726Y-101120000D01*
X142155450Y-101107274D01*
X142163923Y-101108108D01*
X142179597Y-101111226D01*
X142185999Y-101112500D01*
X142186000Y-101112500D01*
X142313050Y-101112500D01*
X142343774Y-101125226D01*
X142356500Y-101155950D01*
X142356500Y-101283002D01*
X142368334Y-101342498D01*
X142368336Y-101342504D01*
X142368337Y-101342507D01*
X142390011Y-101394833D01*
X142410308Y-101429989D01*
X142461378Y-101469176D01*
X142473639Y-101483917D01*
X142480674Y-101497723D01*
X142543774Y-101560823D01*
X142556500Y-101591547D01*
X142556500Y-104083002D01*
X142568334Y-104142498D01*
X142568336Y-104142504D01*
X142590011Y-104194833D01*
X142610308Y-104229990D01*
X142610310Y-104229991D01*
X142674165Y-104278988D01*
X142674166Y-104278988D01*
X142674167Y-104278989D01*
X142726493Y-104300663D01*
X142726499Y-104300664D01*
X142726501Y-104300665D01*
X142785998Y-104312500D01*
X142786000Y-104312500D01*
X147038002Y-104312500D01*
X147097498Y-104300665D01*
X147097499Y-104300664D01*
X147097507Y-104300663D01*
X147149833Y-104278989D01*
X147184989Y-104258692D01*
X147233989Y-104194833D01*
X147255663Y-104142507D01*
X147267500Y-104083000D01*
X147267500Y-101870282D01*
X147280226Y-101839558D01*
X147294322Y-101830140D01*
X147299033Y-101828189D01*
X147334189Y-101807892D01*
X147383189Y-101744033D01*
X147404863Y-101691707D01*
X147416700Y-101632200D01*
X147416700Y-101031000D01*
X147416700Y-101030997D01*
X147404865Y-100971501D01*
X147404863Y-100971495D01*
X147404863Y-100971493D01*
X147383189Y-100919167D01*
X147362892Y-100884011D01*
X147362891Y-100884009D01*
X147362889Y-100884008D01*
X147299034Y-100835011D01*
X147281591Y-100827786D01*
X147246707Y-100813337D01*
X147246703Y-100813336D01*
X147246698Y-100813334D01*
X147187202Y-100801500D01*
X147187200Y-100801500D01*
X146736500Y-100801500D01*
X146736498Y-100801500D01*
X146677001Y-100813334D01*
X146676995Y-100813336D01*
X146676993Y-100813337D01*
X146674170Y-100814505D01*
X146640917Y-100814502D01*
X146617404Y-100790984D01*
X146614099Y-100774361D01*
X146614099Y-100346943D01*
X146614098Y-100346941D01*
X146608177Y-100317166D01*
X146608176Y-100317164D01*
X146608176Y-100317163D01*
X146585610Y-100283390D01*
X146551837Y-100260824D01*
X146551836Y-100260823D01*
X146522057Y-100254900D01*
X146522055Y-100254900D01*
X146253175Y-100254900D01*
X146240934Y-100253140D01*
X146238754Y-100252500D01*
X146238753Y-100252500D01*
X146115247Y-100252500D01*
X146113064Y-100253141D01*
X146100825Y-100254900D01*
X144988175Y-100254900D01*
X144975936Y-100253141D01*
X144973753Y-100252500D01*
X144850247Y-100252500D01*
X144850244Y-100252500D01*
X144848062Y-100253141D01*
X144835825Y-100254900D01*
X143840175Y-100254900D01*
X143827938Y-100253141D01*
X143825755Y-100252500D01*
X143825753Y-100252500D01*
X143702247Y-100252500D01*
X143700063Y-100253141D01*
X143700060Y-100253142D01*
X143687825Y-100254900D01*
X143310950Y-100254900D01*
X143280226Y-100242174D01*
X143267500Y-100211450D01*
X143267500Y-100048397D01*
X143255665Y-99988901D01*
X143255663Y-99988895D01*
X143255663Y-99988893D01*
X143233989Y-99936567D01*
X143213692Y-99901411D01*
X143213691Y-99901409D01*
X143213689Y-99901408D01*
X143149834Y-99852411D01*
X143132391Y-99845186D01*
X143097507Y-99830737D01*
X143097503Y-99830736D01*
X143097498Y-99830734D01*
X143038002Y-99818900D01*
X143038000Y-99818900D01*
X142186000Y-99818900D01*
X142185998Y-99818900D01*
X142126501Y-99830734D01*
X142126494Y-99830736D01*
X142126493Y-99830737D01*
X142112000Y-99836740D01*
X142112000Y-99497000D01*
X142300889Y-99157000D01*
X142494000Y-99157000D01*
X147668550Y-99157000D01*
X147699274Y-99169726D01*
G37*
G04 #@! TD.AperFunction*
G04 #@! TA.AperFunction,Conductor*
G36*
X137274274Y-95897726D02*
G01*
X137287000Y-95928450D01*
X137287000Y-97111550D01*
X137274274Y-97142274D01*
X137243550Y-97155000D01*
X135780998Y-97155000D01*
X135750274Y-97142274D01*
X135267726Y-96659726D01*
X135255000Y-96629002D01*
X135255000Y-95928450D01*
X135267726Y-95897726D01*
X135298450Y-95885000D01*
X137243550Y-95885000D01*
X137274274Y-95897726D01*
G37*
G04 #@! TD.AperFunction*
G04 #@! TA.AperFunction,Conductor*
G36*
X140484784Y-83959726D02*
G01*
X140497510Y-83990450D01*
X140497500Y-85508993D01*
X140497491Y-85509014D01*
X140497490Y-85683550D01*
X140484763Y-85714274D01*
X140454040Y-85727000D01*
X138488914Y-85727009D01*
X138488872Y-85726992D01*
X138470900Y-85726992D01*
X138386222Y-85726994D01*
X138174891Y-85726999D01*
X138174889Y-85727000D01*
X137724909Y-86177009D01*
X137724900Y-89652000D01*
X139524900Y-89652000D01*
X141106450Y-89652000D01*
X141137174Y-89664726D01*
X141149900Y-89695450D01*
X141149900Y-89908550D01*
X141137174Y-89939274D01*
X141106450Y-89952000D01*
X140849900Y-89952000D01*
X140799900Y-90002000D01*
X140799900Y-90102000D01*
X140849900Y-90152000D01*
X141106450Y-90152000D01*
X141137174Y-90164726D01*
X141149900Y-90195450D01*
X141149900Y-90408550D01*
X141137174Y-90439274D01*
X141106450Y-90452000D01*
X139574222Y-90452000D01*
X139187722Y-90839244D01*
X139157011Y-90852000D01*
X137541000Y-90852000D01*
X137541000Y-94879690D01*
X137528274Y-94910414D01*
X137497550Y-94923140D01*
X136441450Y-94923149D01*
X136410726Y-94910423D01*
X136398000Y-94879699D01*
X136398000Y-85563212D01*
X136408095Y-85535367D01*
X136430095Y-85509014D01*
X137236854Y-84542612D01*
X137266311Y-84527184D01*
X137270188Y-84527009D01*
X138556894Y-84527000D01*
X138556915Y-84527008D01*
X138574900Y-84527007D01*
X138574900Y-84527009D01*
X139130991Y-84527006D01*
X139814915Y-83957071D01*
X139842731Y-83947000D01*
X140454060Y-83947000D01*
X140484784Y-83959726D01*
G37*
G04 #@! TD.AperFunction*
G04 #@! TA.AperFunction,Conductor*
G36*
X142412000Y-98957000D02*
G01*
X141912000Y-99857000D01*
X141037000Y-99857000D01*
X141037000Y-99257000D01*
X142212000Y-98082000D01*
X142412000Y-98082000D01*
X142412000Y-98957000D01*
G37*
G04 #@! TD.AperFunction*
G04 #@! TA.AperFunction,Conductor*
G36*
X140275760Y-97167726D02*
G01*
X140288486Y-97198450D01*
X140287651Y-97206927D01*
X140287000Y-97210199D01*
X140287000Y-97274900D01*
X141161000Y-97274900D01*
X141161000Y-97210199D01*
X141160349Y-97206927D01*
X141166836Y-97174311D01*
X141194487Y-97155835D01*
X141202964Y-97155000D01*
X141457131Y-97155000D01*
X141487855Y-97167726D01*
X141500581Y-97198450D01*
X141499746Y-97206926D01*
X141498200Y-97214698D01*
X141498200Y-97279400D01*
X142372200Y-97279400D01*
X142372200Y-97214698D01*
X142370654Y-97206926D01*
X142377142Y-97174310D01*
X142404793Y-97155835D01*
X142413269Y-97155000D01*
X142450550Y-97155000D01*
X142481274Y-97167726D01*
X142494000Y-97198450D01*
X142494000Y-97639180D01*
X142493465Y-97645977D01*
X142490769Y-97662999D01*
X142493465Y-97680020D01*
X142494000Y-97686818D01*
X142494000Y-99818900D01*
X142185998Y-99818900D01*
X142126501Y-99830734D01*
X142126495Y-99830736D01*
X142074166Y-99852411D01*
X142039010Y-99872708D01*
X142016987Y-99901411D01*
X141993514Y-99932000D01*
X141964716Y-99948628D01*
X141959044Y-99949000D01*
X140987998Y-99949000D01*
X140957274Y-99936274D01*
X140582826Y-99561826D01*
X140570100Y-99531102D01*
X140570100Y-99468653D01*
X140556053Y-99398037D01*
X140556052Y-99398036D01*
X140502545Y-99317957D01*
X140502542Y-99317954D01*
X140422463Y-99264447D01*
X140385028Y-99257000D01*
X141037000Y-99257000D01*
X141037000Y-99857000D01*
X141912000Y-99857000D01*
X142412000Y-98957000D01*
X142412000Y-98082000D01*
X142212000Y-98082000D01*
X141037000Y-99257000D01*
X140385028Y-99257000D01*
X140375372Y-99255079D01*
X140347722Y-99236603D01*
X140340400Y-99212464D01*
X140340400Y-99210500D01*
X140543600Y-99210500D01*
X140608300Y-99210500D01*
X140686177Y-99195008D01*
X140686178Y-99195008D01*
X140774494Y-99135997D01*
X140774497Y-99135994D01*
X140833508Y-99047678D01*
X140833508Y-99047677D01*
X140849000Y-98969800D01*
X140849000Y-98875100D01*
X140543600Y-98875100D01*
X140543600Y-99210500D01*
X140340400Y-99210500D01*
X140340400Y-98671900D01*
X140543600Y-98671900D01*
X140849000Y-98671900D01*
X140849000Y-98577199D01*
X140833508Y-98499322D01*
X140833508Y-98499321D01*
X140774497Y-98411005D01*
X140774494Y-98411002D01*
X140686178Y-98351991D01*
X140608300Y-98336500D01*
X140543600Y-98336500D01*
X140543600Y-98671900D01*
X140340400Y-98671900D01*
X140340400Y-98336500D01*
X140275698Y-98336500D01*
X140259926Y-98339637D01*
X140227310Y-98333149D01*
X140208835Y-98305498D01*
X140208126Y-98298305D01*
X140208000Y-98298001D01*
X140208000Y-98298000D01*
X140093726Y-98183726D01*
X140081000Y-98153002D01*
X140081000Y-97542800D01*
X140287000Y-97542800D01*
X140302491Y-97620677D01*
X140302491Y-97620678D01*
X140361502Y-97708994D01*
X140361505Y-97708997D01*
X140449821Y-97768008D01*
X140527700Y-97783500D01*
X140622400Y-97783500D01*
X140825600Y-97783500D01*
X140920300Y-97783500D01*
X140998177Y-97768008D01*
X140998178Y-97768008D01*
X141086494Y-97708997D01*
X141086497Y-97708994D01*
X141145508Y-97620678D01*
X141145508Y-97620677D01*
X141160105Y-97547300D01*
X141498200Y-97547300D01*
X141513691Y-97625177D01*
X141513691Y-97625178D01*
X141572702Y-97713494D01*
X141572705Y-97713497D01*
X141661021Y-97772508D01*
X141738900Y-97788000D01*
X141833600Y-97788000D01*
X142036800Y-97788000D01*
X142131500Y-97788000D01*
X142209377Y-97772508D01*
X142209378Y-97772508D01*
X142297694Y-97713497D01*
X142297697Y-97713494D01*
X142356708Y-97625178D01*
X142356708Y-97625177D01*
X142372200Y-97547300D01*
X142372200Y-97482600D01*
X142036800Y-97482600D01*
X142036800Y-97788000D01*
X141833600Y-97788000D01*
X141833600Y-97482600D01*
X141498200Y-97482600D01*
X141498200Y-97547300D01*
X141160105Y-97547300D01*
X141161000Y-97542800D01*
X141161000Y-97478100D01*
X140825600Y-97478100D01*
X140825600Y-97783500D01*
X140622400Y-97783500D01*
X140622400Y-97478100D01*
X140287000Y-97478100D01*
X140287000Y-97542800D01*
X140081000Y-97542800D01*
X140081000Y-97198450D01*
X140093726Y-97167726D01*
X140124450Y-97155000D01*
X140245036Y-97155000D01*
X140275760Y-97167726D01*
G37*
G04 #@! TD.AperFunction*
G04 #@! TA.AperFunction,Conductor*
G36*
X143090326Y-99996074D02*
G01*
X143112000Y-100048400D01*
X143112000Y-103557000D01*
X143122025Y-103567025D01*
X143150148Y-103578674D01*
X143166550Y-103609358D01*
X143167444Y-103608989D01*
X143170232Y-103615720D01*
X143170232Y-103615721D01*
X143170233Y-103615722D01*
X143203496Y-103665504D01*
X143253278Y-103698767D01*
X143297180Y-103707500D01*
X143297181Y-103707500D01*
X146526819Y-103707500D01*
X146526820Y-103707500D01*
X146570722Y-103698767D01*
X146620504Y-103665504D01*
X146653767Y-103615722D01*
X146662500Y-103571820D01*
X146662500Y-103271304D01*
X146663253Y-103260773D01*
X146667390Y-103232000D01*
X146663253Y-103203224D01*
X146662500Y-103192694D01*
X146662500Y-101996304D01*
X146663253Y-101985773D01*
X146665612Y-101969364D01*
X146667390Y-101957000D01*
X146663253Y-101928224D01*
X146662500Y-101917694D01*
X146662500Y-101031000D01*
X146684174Y-100978674D01*
X146736500Y-100957000D01*
X147187200Y-100957000D01*
X147239526Y-100978674D01*
X147261200Y-101031000D01*
X147261200Y-101632200D01*
X147239526Y-101684526D01*
X147187200Y-101706200D01*
X147112000Y-101706200D01*
X147112000Y-104083000D01*
X147090326Y-104135326D01*
X147038000Y-104157000D01*
X142786000Y-104157000D01*
X142733674Y-104135326D01*
X142712000Y-104083000D01*
X142712000Y-101357000D01*
X142586000Y-101357000D01*
X142533674Y-101335326D01*
X142512000Y-101283000D01*
X142512000Y-100957000D01*
X142186000Y-100957000D01*
X142133674Y-100935326D01*
X142112000Y-100883000D01*
X142112000Y-100048400D01*
X142133674Y-99996074D01*
X142186000Y-99974400D01*
X143038000Y-99974400D01*
X143090326Y-99996074D01*
G37*
G04 #@! TD.AperFunction*
G04 #@! TA.AperFunction,Conductor*
G36*
X151910847Y-81730606D02*
G01*
X154743394Y-84563153D01*
X154761700Y-84607347D01*
X154761700Y-93472000D01*
X143940987Y-93472000D01*
X144041305Y-93420885D01*
X144131515Y-93330675D01*
X144189433Y-93217005D01*
X144209390Y-93091000D01*
X144189433Y-92964995D01*
X144189431Y-92964992D01*
X144189431Y-92964990D01*
X144131515Y-92851325D01*
X144062676Y-92782486D01*
X144044370Y-92738292D01*
X144044370Y-92625797D01*
X144062676Y-92581603D01*
X144106870Y-92563297D01*
X144135242Y-92570108D01*
X144173895Y-92589803D01*
X144299900Y-92609760D01*
X144425905Y-92589803D01*
X144539575Y-92531885D01*
X144629785Y-92441675D01*
X144687703Y-92328005D01*
X144707660Y-92202000D01*
X144687703Y-92075995D01*
X144687701Y-92075992D01*
X144687701Y-92075990D01*
X144629785Y-91962325D01*
X144573572Y-91906112D01*
X144555266Y-91861918D01*
X144563639Y-91830668D01*
X144572690Y-91814993D01*
X144592640Y-91740540D01*
X144592640Y-91163460D01*
X144592640Y-91159363D01*
X144594384Y-91159363D01*
X144605232Y-91118873D01*
X144646657Y-91094953D01*
X144657263Y-91094953D01*
X144657263Y-91094740D01*
X144661360Y-91094740D01*
X144952475Y-91094740D01*
X144996669Y-91113046D01*
X145014975Y-91157240D01*
X145012775Y-91171122D01*
X145012867Y-91171137D01*
X145012097Y-91175993D01*
X145012097Y-91175995D01*
X145004921Y-91221304D01*
X144992140Y-91302000D01*
X145012097Y-91428005D01*
X145012098Y-91428009D01*
X145070014Y-91541674D01*
X145160225Y-91631885D01*
X145273890Y-91689801D01*
X145273892Y-91689801D01*
X145273895Y-91689803D01*
X145399900Y-91709760D01*
X145525905Y-91689803D01*
X145529030Y-91688211D01*
X145565165Y-91669799D01*
X145639575Y-91631885D01*
X145729785Y-91541675D01*
X145787703Y-91428005D01*
X145807660Y-91302000D01*
X145787703Y-91175995D01*
X145787701Y-91175992D01*
X145787701Y-91175990D01*
X145729785Y-91062325D01*
X145660946Y-90993486D01*
X145646735Y-90959178D01*
X145643841Y-90959754D01*
X145642640Y-90953718D01*
X145642640Y-90953716D01*
X145621218Y-90902000D01*
X146824900Y-90902000D01*
X147224900Y-90902000D01*
X147874900Y-90902000D01*
X148274900Y-90902000D01*
X148274900Y-90477000D01*
X147874900Y-90477000D01*
X147874900Y-90902000D01*
X147224900Y-90902000D01*
X147224900Y-90477000D01*
X146824900Y-90477000D01*
X146824900Y-90902000D01*
X145621218Y-90902000D01*
X145605685Y-90864499D01*
X145537401Y-90796215D01*
X145500086Y-90758900D01*
X145483911Y-90730884D01*
X145472690Y-90689007D01*
X145434150Y-90622253D01*
X145379647Y-90567750D01*
X145312893Y-90529210D01*
X145312892Y-90529209D01*
X145312891Y-90529209D01*
X145238445Y-90509260D01*
X145238440Y-90509260D01*
X144661360Y-90509260D01*
X144661354Y-90509260D01*
X144640982Y-90514719D01*
X144593556Y-90508474D01*
X144564437Y-90470522D01*
X144562308Y-90454442D01*
X144562227Y-90400794D01*
X144561850Y-90149621D01*
X144580089Y-90105400D01*
X144624256Y-90087028D01*
X144640527Y-90089158D01*
X144661355Y-90094739D01*
X144661360Y-90094740D01*
X145238440Y-90094740D01*
X145238445Y-90094739D01*
X145267221Y-90087028D01*
X145312893Y-90074790D01*
X145312900Y-90074785D01*
X145313602Y-90074496D01*
X145315108Y-90074196D01*
X145316849Y-90073730D01*
X145316879Y-90073844D01*
X145337517Y-90069740D01*
X146965587Y-90069740D01*
X146965591Y-90069739D01*
X147163952Y-90069739D01*
X147163956Y-90069739D01*
X147205594Y-90061458D01*
X147252809Y-90029909D01*
X147284358Y-89982694D01*
X147292640Y-89941057D01*
X147292639Y-89662944D01*
X147284358Y-89621306D01*
X147284357Y-89621304D01*
X147284357Y-89621303D01*
X147261251Y-89586724D01*
X147251918Y-89539808D01*
X147261251Y-89517276D01*
X147272650Y-89500214D01*
X147284358Y-89482694D01*
X147292640Y-89441057D01*
X147292639Y-89162944D01*
X147284358Y-89121306D01*
X147252809Y-89074091D01*
X147205594Y-89042542D01*
X147205593Y-89042541D01*
X147163957Y-89034260D01*
X146953157Y-89034260D01*
X145772170Y-89034260D01*
X145727976Y-89015954D01*
X145709670Y-88971760D01*
X145727976Y-88927566D01*
X145992598Y-88662942D01*
X147807160Y-88662942D01*
X147807160Y-88941054D01*
X147807161Y-88941058D01*
X147813699Y-88973929D01*
X147814900Y-88986121D01*
X147814900Y-89077009D01*
X147814900Y-89077010D01*
X149119660Y-89077000D01*
X149163854Y-89095305D01*
X149182160Y-89139500D01*
X149182160Y-89271760D01*
X149163854Y-89315954D01*
X149119660Y-89334260D01*
X148967187Y-89334260D01*
X148967185Y-89334261D01*
X148949589Y-89337760D01*
X148902673Y-89328424D01*
X148895630Y-89317881D01*
X148893206Y-89320306D01*
X148874900Y-89302000D01*
X148724900Y-89302000D01*
X148724900Y-89476760D01*
X148706594Y-89520954D01*
X148662400Y-89539260D01*
X148495249Y-89539260D01*
X148483056Y-89538059D01*
X148463957Y-89534260D01*
X147935848Y-89534260D01*
X147894206Y-89542542D01*
X147846991Y-89574091D01*
X147815441Y-89621307D01*
X147807160Y-89662942D01*
X147807160Y-89941051D01*
X147807161Y-89941056D01*
X147815442Y-89982694D01*
X147846991Y-90029909D01*
X147894206Y-90061458D01*
X147935843Y-90069740D01*
X148463956Y-90069739D01*
X148483054Y-90065940D01*
X148495244Y-90064740D01*
X148902162Y-90064740D01*
X148986251Y-90029909D01*
X148998728Y-90024741D01*
X148998728Y-90024740D01*
X148998730Y-90024740D01*
X149100467Y-89923002D01*
X149144659Y-89904697D01*
X149188854Y-89923002D01*
X149207160Y-89967196D01*
X149207160Y-90510181D01*
X149188854Y-90554375D01*
X149144660Y-90572681D01*
X149109937Y-90562148D01*
X149080595Y-90542542D01*
X149080593Y-90542541D01*
X149038957Y-90534260D01*
X148660848Y-90534260D01*
X148619206Y-90542542D01*
X148571991Y-90574091D01*
X148540441Y-90621307D01*
X148532160Y-90662942D01*
X148532160Y-91041051D01*
X148540442Y-91082695D01*
X148563549Y-91117277D01*
X148572881Y-91164194D01*
X148563549Y-91186723D01*
X148540442Y-91221304D01*
X148540441Y-91221306D01*
X148532160Y-91262942D01*
X148532160Y-91641052D01*
X148532161Y-91641056D01*
X148535452Y-91657605D01*
X148535453Y-91657608D01*
X148526118Y-91704524D01*
X148522316Y-91709156D01*
X148520014Y-91712324D01*
X148462098Y-91825990D01*
X148462097Y-91825994D01*
X148442140Y-91952000D01*
X148462097Y-92078005D01*
X148462098Y-92078009D01*
X148520014Y-92191674D01*
X148610225Y-92281885D01*
X148723890Y-92339801D01*
X148723892Y-92339801D01*
X148723895Y-92339803D01*
X148849900Y-92359760D01*
X148975905Y-92339803D01*
X149089575Y-92281885D01*
X149179785Y-92191675D01*
X149237703Y-92078005D01*
X149257660Y-91952000D01*
X149237703Y-91825995D01*
X149237701Y-91825992D01*
X149237701Y-91825990D01*
X149179784Y-91712324D01*
X149176895Y-91708347D01*
X149178600Y-91707107D01*
X149163147Y-91669799D01*
X149164348Y-91657605D01*
X149167640Y-91641057D01*
X149167639Y-91262944D01*
X149162747Y-91238346D01*
X149172080Y-91191430D01*
X149211855Y-91164856D01*
X149236239Y-91164856D01*
X149260843Y-91169750D01*
X149638956Y-91169749D01*
X149680594Y-91161468D01*
X149727809Y-91129919D01*
X149759358Y-91082704D01*
X149767640Y-91041067D01*
X149767639Y-90662954D01*
X149759358Y-90621316D01*
X149727809Y-90574101D01*
X149727807Y-90574100D01*
X149727807Y-90574099D01*
X149720416Y-90569160D01*
X149693841Y-90529386D01*
X149692640Y-90517194D01*
X149692640Y-89783133D01*
X149703175Y-89748407D01*
X149705732Y-89744581D01*
X149717640Y-89684715D01*
X149717639Y-89589499D01*
X149735944Y-89545306D01*
X149780138Y-89527000D01*
X150953763Y-89527000D01*
X150997957Y-89545306D01*
X151011116Y-89570876D01*
X151013206Y-89570198D01*
X151014726Y-89574877D01*
X151070691Y-89684715D01*
X151071206Y-89685725D01*
X151159175Y-89773694D01*
X151270024Y-89830174D01*
X151361988Y-89844740D01*
X151361990Y-89844740D01*
X151973810Y-89844740D01*
X151973812Y-89844740D01*
X152065776Y-89830174D01*
X152112027Y-89806607D01*
X152159713Y-89802855D01*
X152196088Y-89833921D01*
X152202900Y-89862296D01*
X152202900Y-90152000D01*
X154292900Y-90152000D01*
X154292900Y-88252000D01*
X152202900Y-88252000D01*
X152202900Y-88541703D01*
X152184594Y-88585897D01*
X152140400Y-88604203D01*
X152112026Y-88597391D01*
X152065777Y-88573826D01*
X152065773Y-88573825D01*
X151973823Y-88559261D01*
X151973813Y-88559260D01*
X151973812Y-88559260D01*
X151361988Y-88559260D01*
X151361986Y-88559260D01*
X151361976Y-88559261D01*
X151270026Y-88573825D01*
X151270022Y-88573826D01*
X151159175Y-88630305D01*
X151071205Y-88718275D01*
X151014726Y-88829122D01*
X151013206Y-88833802D01*
X151010357Y-88832876D01*
X150990090Y-88865358D01*
X150953763Y-88877000D01*
X149780140Y-88877000D01*
X149735946Y-88858694D01*
X149717640Y-88814501D01*
X149717639Y-88719287D01*
X149717638Y-88719280D01*
X149705733Y-88659423D01*
X149705731Y-88659417D01*
X149703172Y-88655587D01*
X149692640Y-88620866D01*
X149692640Y-87936804D01*
X149710946Y-87892610D01*
X149720407Y-87884844D01*
X149727809Y-87879899D01*
X149753358Y-87841663D01*
X149759357Y-87832686D01*
X149759358Y-87832683D01*
X149761621Y-87821305D01*
X149767640Y-87791047D01*
X149767639Y-87412934D01*
X149759358Y-87371296D01*
X149727809Y-87324081D01*
X149680594Y-87292532D01*
X149680593Y-87292531D01*
X149638957Y-87284250D01*
X149260847Y-87284250D01*
X149260846Y-87284250D01*
X149260844Y-87284251D01*
X149236236Y-87289145D01*
X149189320Y-87279810D01*
X149162746Y-87240035D01*
X149162746Y-87215656D01*
X149167640Y-87191057D01*
X149167639Y-86812944D01*
X149164347Y-86796393D01*
X149173679Y-86749479D01*
X149177480Y-86744848D01*
X149179783Y-86741678D01*
X149180129Y-86741000D01*
X149237703Y-86628005D01*
X149257660Y-86502000D01*
X149237703Y-86375995D01*
X149237701Y-86375992D01*
X149237701Y-86375990D01*
X149179785Y-86262325D01*
X149089574Y-86172114D01*
X148975909Y-86114198D01*
X148975905Y-86114197D01*
X148849900Y-86094240D01*
X148723894Y-86114197D01*
X148723890Y-86114198D01*
X148610225Y-86172114D01*
X148520014Y-86262325D01*
X148462098Y-86375990D01*
X148462097Y-86375994D01*
X148442140Y-86502000D01*
X148462097Y-86628005D01*
X148462098Y-86628009D01*
X148520015Y-86741675D01*
X148522905Y-86745653D01*
X148521198Y-86746892D01*
X148536652Y-86784200D01*
X148535452Y-86796390D01*
X148532160Y-86812943D01*
X148532160Y-87191051D01*
X148540442Y-87232695D01*
X148563549Y-87267277D01*
X148572881Y-87314194D01*
X148563549Y-87336723D01*
X148540442Y-87371304D01*
X148540441Y-87371306D01*
X148532160Y-87412942D01*
X148532160Y-87791051D01*
X148532161Y-87791056D01*
X148540442Y-87832694D01*
X148571991Y-87879909D01*
X148619206Y-87911458D01*
X148660843Y-87919740D01*
X149038956Y-87919739D01*
X149080594Y-87911458D01*
X149109937Y-87891850D01*
X149156851Y-87882517D01*
X149196626Y-87909092D01*
X149207160Y-87943817D01*
X149207160Y-88464900D01*
X149188854Y-88509094D01*
X149144660Y-88527400D01*
X147814900Y-88527400D01*
X147814900Y-88617875D01*
X147813699Y-88630068D01*
X147807160Y-88662942D01*
X145992598Y-88662942D01*
X145999953Y-88655587D01*
X146062487Y-88593052D01*
X146106677Y-88574747D01*
X146799902Y-88574740D01*
X146799915Y-88574740D01*
X146810616Y-88571871D01*
X146826800Y-88569739D01*
X147163952Y-88569739D01*
X147163956Y-88569739D01*
X147205594Y-88561458D01*
X147252809Y-88529909D01*
X147284358Y-88482694D01*
X147292640Y-88441057D01*
X147292639Y-88162944D01*
X147284358Y-88121306D01*
X147252809Y-88074091D01*
X147205594Y-88042542D01*
X147205593Y-88042541D01*
X147163957Y-88034260D01*
X146741990Y-88034260D01*
X146697796Y-88015954D01*
X146697795Y-88015954D01*
X146555511Y-87873667D01*
X146538406Y-87841663D01*
X146534358Y-87821306D01*
X146528145Y-87812009D01*
X146514858Y-87792122D01*
X146505526Y-87745206D01*
X146522631Y-87713205D01*
X146533836Y-87702000D01*
X147824900Y-87702000D01*
X147824900Y-88052000D01*
X148224900Y-88052000D01*
X148224900Y-87702010D01*
X147824900Y-87701999D01*
X147824900Y-87702000D01*
X146533836Y-87702000D01*
X146842790Y-87393046D01*
X146886984Y-87374740D01*
X147599897Y-87374740D01*
X147599900Y-87374740D01*
X147630033Y-87366665D01*
X147633968Y-87365748D01*
X147655594Y-87361448D01*
X147655595Y-87361446D01*
X147661281Y-87359092D01*
X147661542Y-87359723D01*
X147669637Y-87356054D01*
X147673770Y-87354947D01*
X147686433Y-87342282D01*
X147695891Y-87334520D01*
X147702809Y-87329899D01*
X147707430Y-87322981D01*
X147715192Y-87313523D01*
X147727847Y-87300870D01*
X147728952Y-87296745D01*
X147732633Y-87288636D01*
X147732001Y-87288374D01*
X147734356Y-87282687D01*
X147734356Y-87282686D01*
X147734358Y-87282684D01*
X147738687Y-87260917D01*
X147739597Y-87257016D01*
X147747640Y-87227000D01*
X147747640Y-86827000D01*
X147747524Y-86826569D01*
X147746891Y-86824202D01*
X147749900Y-86801343D01*
X147749900Y-86627000D01*
X147549900Y-86627000D01*
X147542659Y-86634240D01*
X147531594Y-86660954D01*
X147487400Y-86679260D01*
X146105306Y-86679260D01*
X146061112Y-86660954D01*
X146042806Y-86616760D01*
X146061112Y-86572566D01*
X146061784Y-86571903D01*
X146153480Y-86483118D01*
X146178684Y-86450803D01*
X146198450Y-86376926D01*
X146197740Y-84429546D01*
X146177947Y-84355731D01*
X146177948Y-84355731D01*
X146123869Y-84301652D01*
X146050006Y-84281861D01*
X146050001Y-84281860D01*
X146050000Y-84281860D01*
X145440400Y-84281860D01*
X145440399Y-84281860D01*
X145440393Y-84281861D01*
X145366530Y-84301652D01*
X145312452Y-84355730D01*
X145292661Y-84429593D01*
X145292126Y-84433659D01*
X145290512Y-84433446D01*
X145274354Y-84472456D01*
X145230160Y-84490762D01*
X145185966Y-84472456D01*
X145168860Y-84440453D01*
X145167509Y-84433659D01*
X145164058Y-84416306D01*
X145164057Y-84416304D01*
X145164057Y-84416303D01*
X145140951Y-84381724D01*
X145131618Y-84334808D01*
X145140951Y-84312276D01*
X145152350Y-84295214D01*
X145164058Y-84277694D01*
X145172340Y-84236057D01*
X145172339Y-83657944D01*
X145164058Y-83616306D01*
X145132509Y-83569091D01*
X145085294Y-83537542D01*
X145085293Y-83537541D01*
X145043657Y-83529260D01*
X144465548Y-83529260D01*
X144423904Y-83537542D01*
X144389189Y-83560739D01*
X144342273Y-83570071D01*
X144313057Y-83564260D01*
X143934947Y-83564260D01*
X143934943Y-83564261D01*
X143909316Y-83569357D01*
X143862400Y-83560021D01*
X143835827Y-83520248D01*
X143832458Y-83503306D01*
X143800909Y-83456091D01*
X143753694Y-83424542D01*
X143753693Y-83424541D01*
X143712057Y-83416260D01*
X142883947Y-83416260D01*
X142842306Y-83424542D01*
X142795091Y-83456091D01*
X142763541Y-83503307D01*
X142755260Y-83544942D01*
X142755260Y-84473052D01*
X142755261Y-84473056D01*
X142763542Y-84514694D01*
X142795091Y-84561909D01*
X142842306Y-84593458D01*
X142883943Y-84601740D01*
X143712056Y-84601739D01*
X143753694Y-84593458D01*
X143800909Y-84561909D01*
X143832458Y-84514694D01*
X143840740Y-84473057D01*
X143840740Y-84257158D01*
X143859046Y-84212964D01*
X143903240Y-84194658D01*
X143915429Y-84195858D01*
X143934943Y-84199740D01*
X144278344Y-84199739D01*
X144322538Y-84218045D01*
X144339643Y-84250048D01*
X144345140Y-84277690D01*
X144345142Y-84277695D01*
X144368249Y-84312277D01*
X144377581Y-84359194D01*
X144368249Y-84381723D01*
X144345142Y-84416304D01*
X144345141Y-84416306D01*
X144336860Y-84457942D01*
X144336860Y-85036052D01*
X144336861Y-85036058D01*
X144337643Y-85039990D01*
X144328304Y-85086905D01*
X144293959Y-85112140D01*
X144290962Y-85113020D01*
X144290953Y-85113024D01*
X144183856Y-85181850D01*
X144100486Y-85278063D01*
X144100482Y-85278069D01*
X144047596Y-85393875D01*
X144047595Y-85393878D01*
X144029477Y-85519894D01*
X144047595Y-85645909D01*
X144047596Y-85645912D01*
X144100482Y-85761718D01*
X144100486Y-85761724D01*
X144183856Y-85857937D01*
X144284304Y-85922490D01*
X144290958Y-85926766D01*
X144410645Y-85961909D01*
X144413111Y-85962633D01*
X144413113Y-85962634D01*
X144413114Y-85962634D01*
X144540427Y-85962634D01*
X144540427Y-85962633D01*
X144662582Y-85926766D01*
X144746155Y-85873057D01*
X144769683Y-85857937D01*
X144773849Y-85853130D01*
X144815015Y-85805622D01*
X144853053Y-85761724D01*
X144853054Y-85761722D01*
X144853057Y-85761719D01*
X144905944Y-85645911D01*
X144914819Y-85584179D01*
X144932486Y-85548884D01*
X145028861Y-85452511D01*
X145066335Y-85387602D01*
X145073982Y-85374357D01*
X145097340Y-85287187D01*
X145097340Y-85181814D01*
X145115646Y-85137620D01*
X145125107Y-85129854D01*
X145132509Y-85124909D01*
X145164058Y-85077694D01*
X145168861Y-85053546D01*
X145195437Y-85013773D01*
X145242353Y-85004441D01*
X145282127Y-85031017D01*
X145292660Y-85065740D01*
X145292660Y-85554633D01*
X145274358Y-85598824D01*
X145272089Y-85601092D01*
X145240542Y-85648303D01*
X145240541Y-85648306D01*
X145232260Y-85689942D01*
X145232260Y-86127472D01*
X145213954Y-86171666D01*
X145203552Y-86180049D01*
X145172885Y-86199758D01*
X145172884Y-86199759D01*
X145089515Y-86295972D01*
X145087095Y-86299738D01*
X145086409Y-86299297D01*
X145078498Y-86310701D01*
X144301101Y-87090931D01*
X144264985Y-87108782D01*
X144261360Y-87109259D01*
X144186909Y-87129209D01*
X144186907Y-87129209D01*
X144154240Y-87148070D01*
X144120153Y-87167750D01*
X144120152Y-87167751D01*
X144120148Y-87167754D01*
X144065654Y-87222248D01*
X144065651Y-87222252D01*
X144065650Y-87222253D01*
X144057160Y-87236958D01*
X144027109Y-87289007D01*
X144027109Y-87289009D01*
X144007160Y-87363454D01*
X144007160Y-87425110D01*
X144005030Y-87441286D01*
X144002161Y-87451993D01*
X144002159Y-87452001D01*
X144002150Y-87911233D01*
X143983843Y-87955427D01*
X143939709Y-87973732D01*
X143655199Y-87974001D01*
X143610988Y-87955737D01*
X143592640Y-87911560D01*
X143592640Y-87363460D01*
X143592639Y-87363454D01*
X143579256Y-87313511D01*
X143572690Y-87289007D01*
X143571402Y-87286776D01*
X143551013Y-87251459D01*
X143542640Y-87220210D01*
X143542640Y-87204218D01*
X143560946Y-87160024D01*
X143570419Y-87152250D01*
X143579908Y-87145910D01*
X143579909Y-87145909D01*
X143611458Y-87098694D01*
X143619740Y-87057057D01*
X143619739Y-86678944D01*
X143611458Y-86637306D01*
X143609409Y-86634240D01*
X143588345Y-86602716D01*
X143579012Y-86555800D01*
X143588342Y-86533272D01*
X143611448Y-86498694D01*
X143619730Y-86457057D01*
X143619729Y-86078944D01*
X143619229Y-86076430D01*
X143628561Y-86029516D01*
X143668335Y-86002940D01*
X143680528Y-86001739D01*
X143712052Y-86001739D01*
X143712056Y-86001739D01*
X143753694Y-85993458D01*
X143800909Y-85961909D01*
X143832458Y-85914694D01*
X143840740Y-85873057D01*
X143840739Y-84944944D01*
X143832458Y-84903306D01*
X143800909Y-84856091D01*
X143753694Y-84824542D01*
X143753693Y-84824541D01*
X143712057Y-84816260D01*
X142883947Y-84816260D01*
X142842306Y-84824542D01*
X142795091Y-84856091D01*
X142763541Y-84903307D01*
X142755260Y-84944942D01*
X142755260Y-85873052D01*
X142755261Y-85873055D01*
X142755762Y-85875575D01*
X142746423Y-85922490D01*
X142706646Y-85949061D01*
X142694461Y-85950260D01*
X142512948Y-85950260D01*
X142471306Y-85958542D01*
X142424091Y-85990091D01*
X142392541Y-86037307D01*
X142384260Y-86078942D01*
X142384260Y-86457051D01*
X142392542Y-86498695D01*
X142415649Y-86533277D01*
X142424981Y-86580194D01*
X142415649Y-86602723D01*
X142392542Y-86637304D01*
X142392541Y-86637306D01*
X142384260Y-86678942D01*
X142384260Y-87057051D01*
X142384261Y-87057056D01*
X142392542Y-87098694D01*
X142424091Y-87145909D01*
X142471306Y-87177458D01*
X142493586Y-87181889D01*
X142533360Y-87208463D01*
X142542693Y-87255379D01*
X142535522Y-87274436D01*
X142527110Y-87289005D01*
X142527109Y-87289009D01*
X142507160Y-87363454D01*
X142507160Y-87912644D01*
X142488854Y-87956838D01*
X142444719Y-87975144D01*
X142155199Y-87975418D01*
X142110988Y-87957154D01*
X142092640Y-87912977D01*
X142092640Y-87795155D01*
X142095882Y-87778855D01*
X142094927Y-87778600D01*
X142117638Y-87693837D01*
X142117640Y-87693829D01*
X142117640Y-87148070D01*
X142117638Y-87148062D01*
X142117061Y-87145910D01*
X142095987Y-87067257D01*
X142095986Y-87067254D01*
X142054155Y-86994803D01*
X142054154Y-86994802D01*
X141994997Y-86935645D01*
X141812656Y-86753304D01*
X141794986Y-86718004D01*
X141789415Y-86679260D01*
X141780174Y-86614983D01*
X141727287Y-86499175D01*
X141727283Y-86499169D01*
X141643913Y-86402956D01*
X141536816Y-86334130D01*
X141536807Y-86334126D01*
X141414658Y-86298260D01*
X141414656Y-86298260D01*
X141287344Y-86298260D01*
X141287342Y-86298260D01*
X141165192Y-86334126D01*
X141165183Y-86334130D01*
X141058086Y-86402956D01*
X140974716Y-86499169D01*
X140974712Y-86499175D01*
X140921826Y-86614981D01*
X140921823Y-86614990D01*
X140919847Y-86628736D01*
X140895437Y-86669875D01*
X140849087Y-86681702D01*
X140808794Y-86658395D01*
X140792262Y-86637304D01*
X140639942Y-86442974D01*
X140626633Y-86404421D01*
X140626630Y-85926999D01*
X140606837Y-85853130D01*
X140606834Y-85853127D01*
X140606789Y-85853048D01*
X140606763Y-85852852D01*
X140604708Y-85845182D01*
X140605717Y-85844911D01*
X140600544Y-85805622D01*
X140611332Y-85783746D01*
X140621256Y-85770814D01*
X140633983Y-85740090D01*
X140645230Y-85683551D01*
X140645230Y-85512655D01*
X140645240Y-85512480D01*
X140645241Y-85287186D01*
X140645250Y-83990451D01*
X140634004Y-83933913D01*
X140634003Y-83933910D01*
X140634003Y-83933909D01*
X140621279Y-83903192D01*
X140621276Y-83903185D01*
X140616718Y-83895292D01*
X140601993Y-83869787D01*
X140601991Y-83869785D01*
X140541323Y-83823233D01*
X140541317Y-83823230D01*
X140510600Y-83810506D01*
X140454060Y-83799260D01*
X139842731Y-83799260D01*
X139842728Y-83799260D01*
X139842719Y-83799261D01*
X139792441Y-83808083D01*
X139785749Y-83810506D01*
X139764620Y-83818156D01*
X139764619Y-83818156D01*
X139764615Y-83818158D01*
X139764612Y-83818160D01*
X139720334Y-83843573D01*
X139720333Y-83843574D01*
X139094884Y-84364780D01*
X139054873Y-84379266D01*
X138577123Y-84379267D01*
X138559502Y-84379267D01*
X138559329Y-84379260D01*
X138556893Y-84379260D01*
X138537732Y-84379260D01*
X137270182Y-84379268D01*
X137263512Y-84379419D01*
X137259650Y-84379593D01*
X137197763Y-84396308D01*
X137168307Y-84411736D01*
X137123438Y-84447934D01*
X136316681Y-85414331D01*
X136316682Y-85414332D01*
X136294684Y-85440683D01*
X136294677Y-85440693D01*
X136269202Y-85485009D01*
X136269201Y-85485010D01*
X136259104Y-85512862D01*
X136259104Y-85512863D01*
X136250260Y-85563208D01*
X136250260Y-90387609D01*
X136244934Y-90412854D01*
X136232002Y-90442145D01*
X136229260Y-90465780D01*
X136229260Y-90890220D01*
X136232002Y-90913855D01*
X136244935Y-90943146D01*
X136250260Y-90968389D01*
X136250260Y-91905068D01*
X136249491Y-91914844D01*
X136244240Y-91947999D01*
X136249491Y-91981153D01*
X136250260Y-91990930D01*
X136250260Y-93472000D01*
X133020300Y-93472000D01*
X133020300Y-84607347D01*
X133038606Y-84563153D01*
X135871153Y-81730606D01*
X135915347Y-81712300D01*
X151866653Y-81712300D01*
X151910847Y-81730606D01*
G37*
G04 #@! TD.AperFunction*
G04 #@! TA.AperFunction,Conductor*
G36*
X140614742Y-90618046D02*
G01*
X140633048Y-90662240D01*
X140628290Y-90686159D01*
X140627109Y-90689009D01*
X140607160Y-90763454D01*
X140607160Y-90840545D01*
X140627109Y-90914990D01*
X140627109Y-90914992D01*
X140638559Y-90934824D01*
X140665650Y-90981747D01*
X140720153Y-91036250D01*
X140786907Y-91074790D01*
X140807157Y-91080216D01*
X140861354Y-91094739D01*
X140861360Y-91094740D01*
X140944660Y-91094740D01*
X140988854Y-91113046D01*
X141007160Y-91157240D01*
X141007160Y-92425566D01*
X140988854Y-92469760D01*
X140692660Y-92765954D01*
X140648466Y-92784260D01*
X140327608Y-92784260D01*
X140283414Y-92765954D01*
X140214574Y-92697114D01*
X140100909Y-92639198D01*
X140100905Y-92639197D01*
X139974900Y-92619240D01*
X139848894Y-92639197D01*
X139848890Y-92639198D01*
X139735225Y-92697114D01*
X139645014Y-92787325D01*
X139587098Y-92900990D01*
X139587097Y-92900994D01*
X139567140Y-93027000D01*
X139587097Y-93153005D01*
X139587098Y-93153009D01*
X139645014Y-93266674D01*
X139735225Y-93356885D01*
X139848890Y-93414801D01*
X139848892Y-93414801D01*
X139848895Y-93414803D01*
X139974900Y-93434760D01*
X140100905Y-93414803D01*
X140214575Y-93356885D01*
X140283414Y-93288046D01*
X140327608Y-93269740D01*
X140823182Y-93269740D01*
X140823184Y-93269740D01*
X140912401Y-93232785D01*
X141376496Y-92768689D01*
X141420689Y-92750384D01*
X141464883Y-92768690D01*
X141483189Y-92812884D01*
X141472141Y-92846887D01*
X141472248Y-92846942D01*
X141471906Y-92847613D01*
X141471255Y-92849617D01*
X141470015Y-92851322D01*
X141412098Y-92964990D01*
X141412097Y-92964994D01*
X141392140Y-93091000D01*
X141412097Y-93217005D01*
X141412098Y-93217009D01*
X141448294Y-93288046D01*
X141470015Y-93330675D01*
X141560225Y-93420885D01*
X141660543Y-93472000D01*
X139169226Y-93472000D01*
X139090187Y-93437100D01*
X139090184Y-93437099D01*
X139065712Y-93434260D01*
X138678288Y-93434260D01*
X138666052Y-93435679D01*
X138653815Y-93437099D01*
X138653812Y-93437100D01*
X138574773Y-93472000D01*
X137688740Y-93472000D01*
X137688740Y-91990930D01*
X137689509Y-91981153D01*
X137694760Y-91948000D01*
X137689509Y-91914844D01*
X137688740Y-91905068D01*
X137688740Y-91062240D01*
X137707046Y-91018046D01*
X137751240Y-90999740D01*
X139157011Y-90999740D01*
X139213682Y-90988439D01*
X139244393Y-90975683D01*
X139292290Y-90943611D01*
X139617187Y-90618087D01*
X139661364Y-90599740D01*
X140570548Y-90599740D01*
X140614742Y-90618046D01*
G37*
G04 #@! TD.AperFunction*
G04 #@! TA.AperFunction,Conductor*
G36*
X142133513Y-92569227D02*
G01*
X142173895Y-92589803D01*
X142299900Y-92609760D01*
X142425905Y-92589803D01*
X142466285Y-92569227D01*
X142513973Y-92565475D01*
X142550348Y-92596541D01*
X142557160Y-92624916D01*
X142557160Y-92738292D01*
X142538854Y-92782486D01*
X142470014Y-92851325D01*
X142412098Y-92964990D01*
X142412097Y-92964994D01*
X142392140Y-93091000D01*
X142412097Y-93217005D01*
X142412098Y-93217009D01*
X142448294Y-93288046D01*
X142470015Y-93330675D01*
X142560225Y-93420885D01*
X142660543Y-93472000D01*
X141939257Y-93472000D01*
X142039575Y-93420885D01*
X142129785Y-93330675D01*
X142187703Y-93217005D01*
X142207660Y-93091000D01*
X142187703Y-92964995D01*
X142187701Y-92964992D01*
X142187701Y-92964990D01*
X142129785Y-92851325D01*
X142060946Y-92782486D01*
X142042640Y-92738292D01*
X142042640Y-92624916D01*
X142060946Y-92580722D01*
X142105140Y-92562416D01*
X142133513Y-92569227D01*
G37*
G04 #@! TD.AperFunction*
G04 #@! TA.AperFunction,Conductor*
G36*
X143133513Y-92569227D02*
G01*
X143173895Y-92589803D01*
X143299900Y-92609760D01*
X143425905Y-92589803D01*
X143468016Y-92568345D01*
X143515703Y-92564593D01*
X143552078Y-92595659D01*
X143558890Y-92624034D01*
X143558890Y-92738292D01*
X143540584Y-92782486D01*
X143471744Y-92851325D01*
X143413828Y-92964990D01*
X143413827Y-92964994D01*
X143393870Y-93091000D01*
X143413827Y-93217005D01*
X143413828Y-93217009D01*
X143450024Y-93288046D01*
X143471745Y-93330675D01*
X143561955Y-93420885D01*
X143662273Y-93472000D01*
X142939257Y-93472000D01*
X143039575Y-93420885D01*
X143129785Y-93330675D01*
X143187703Y-93217005D01*
X143207660Y-93091000D01*
X143187703Y-92964995D01*
X143187701Y-92964992D01*
X143187701Y-92964990D01*
X143129785Y-92851325D01*
X143060946Y-92782486D01*
X143042640Y-92738292D01*
X143042640Y-92624916D01*
X143060946Y-92580722D01*
X143105140Y-92562416D01*
X143133513Y-92569227D01*
G37*
G04 #@! TD.AperFunction*
G04 #@! TA.AperFunction,Conductor*
G36*
X144237409Y-88226981D02*
G01*
X144281600Y-88245293D01*
X144299900Y-88289481D01*
X144299900Y-90814500D01*
X144281594Y-90858694D01*
X144237400Y-90877000D01*
X141837400Y-90877000D01*
X141793206Y-90858694D01*
X141774900Y-90814500D01*
X141774900Y-88289148D01*
X141793206Y-88244954D01*
X141837398Y-88226648D01*
X144237409Y-88226981D01*
G37*
G04 #@! TD.AperFunction*
G04 #@! TA.AperFunction,Conductor*
G36*
X140722647Y-88537690D02*
G01*
X140786907Y-88574790D01*
X140821794Y-88584138D01*
X140861354Y-88594739D01*
X140861360Y-88594740D01*
X141435400Y-88594740D01*
X141479594Y-88613046D01*
X141497900Y-88657240D01*
X141497900Y-88917602D01*
X141479594Y-88961796D01*
X141435400Y-88980102D01*
X141427253Y-88979569D01*
X141424903Y-88979260D01*
X141424900Y-88979260D01*
X140661984Y-88979260D01*
X140617790Y-88960954D01*
X140446530Y-88789694D01*
X140428224Y-88745500D01*
X140446530Y-88701306D01*
X140490724Y-88683000D01*
X140628900Y-88683000D01*
X140628900Y-88591817D01*
X140647206Y-88547623D01*
X140691400Y-88529317D01*
X140722647Y-88537690D01*
G37*
G04 #@! TD.AperFunction*
G04 #@! TA.AperFunction,Conductor*
G36*
X149294600Y-109118485D02*
G01*
X149242728Y-109097000D01*
X149143272Y-109097000D01*
X149091400Y-109118485D01*
X149091400Y-108575514D01*
X149143272Y-108597000D01*
X149242728Y-108597000D01*
X149294600Y-108575514D01*
X149294600Y-109118485D01*
G37*
G04 #@! TD.AperFunction*
G04 #@! TA.AperFunction,Conductor*
G36*
X143817078Y-100385442D02*
G01*
X143817840Y-100385551D01*
X143821323Y-100386052D01*
X143825502Y-100386350D01*
X143840154Y-100387399D01*
X143840169Y-100387399D01*
X143840175Y-100387400D01*
X143840180Y-100387400D01*
X144835820Y-100387400D01*
X144835825Y-100387400D01*
X144835831Y-100387399D01*
X144835845Y-100387399D01*
X144847152Y-100386590D01*
X144854677Y-100386052D01*
X144858010Y-100385572D01*
X144858922Y-100385442D01*
X144865102Y-100385000D01*
X144958901Y-100385000D01*
X144965081Y-100385442D01*
X144965479Y-100385499D01*
X144969326Y-100386052D01*
X144969334Y-100386052D01*
X144969337Y-100386053D01*
X144988153Y-100387399D01*
X144988170Y-100387399D01*
X144988175Y-100387400D01*
X144988179Y-100387400D01*
X146100821Y-100387400D01*
X146100825Y-100387400D01*
X146100830Y-100387399D01*
X146100846Y-100387399D01*
X146119662Y-100386053D01*
X146119663Y-100386052D01*
X146119674Y-100386052D01*
X146123582Y-100385490D01*
X146123919Y-100385442D01*
X146130099Y-100385000D01*
X146223900Y-100385000D01*
X146230082Y-100385442D01*
X146234318Y-100386051D01*
X146242866Y-100386662D01*
X146253155Y-100387399D01*
X146253170Y-100387399D01*
X146253175Y-100387400D01*
X146438149Y-100387400D01*
X146468873Y-100400126D01*
X146481599Y-100430850D01*
X146481599Y-100774361D01*
X146484143Y-100800199D01*
X146484144Y-100800205D01*
X146487458Y-100816877D01*
X146487927Y-100819131D01*
X146487930Y-100819139D01*
X146523700Y-100884663D01*
X146523701Y-100884665D01*
X146525168Y-100886132D01*
X146537890Y-100916858D01*
X146534583Y-100933479D01*
X146518836Y-100971494D01*
X146518834Y-100971501D01*
X146507000Y-101030997D01*
X146507000Y-101917704D01*
X146507395Y-101928780D01*
X146508148Y-101939310D01*
X146509335Y-101950351D01*
X146509406Y-101950846D01*
X146509405Y-101951009D01*
X146509418Y-101951121D01*
X146509405Y-101951122D01*
X146509405Y-101962871D01*
X146509418Y-101962873D01*
X146509405Y-101962993D01*
X146509405Y-101963150D01*
X146509337Y-101963619D01*
X146508147Y-101974702D01*
X146507395Y-101985217D01*
X146507000Y-101996292D01*
X146507000Y-103192704D01*
X146507395Y-103203780D01*
X146508148Y-103214314D01*
X146509335Y-103225354D01*
X146509403Y-103225826D01*
X146509403Y-103225984D01*
X146509418Y-103226124D01*
X146509403Y-103226125D01*
X146509403Y-103237870D01*
X146509419Y-103237872D01*
X146509403Y-103238011D01*
X146509404Y-103238169D01*
X146509336Y-103238640D01*
X146508148Y-103249691D01*
X146507395Y-103260217D01*
X146507000Y-103271292D01*
X146507000Y-103508550D01*
X146494274Y-103539274D01*
X146463550Y-103552000D01*
X143338254Y-103552000D01*
X143307530Y-103539274D01*
X143299935Y-103529033D01*
X143287285Y-103505368D01*
X143287281Y-103505362D01*
X143286984Y-103504902D01*
X143283585Y-103499630D01*
X143274433Y-103485435D01*
X143267500Y-103461889D01*
X143267500Y-100430850D01*
X143280226Y-100400126D01*
X143310950Y-100387400D01*
X143687820Y-100387400D01*
X143687825Y-100387400D01*
X143706670Y-100386053D01*
X143710924Y-100385441D01*
X143717104Y-100385000D01*
X143810898Y-100385000D01*
X143817078Y-100385442D01*
G37*
G04 #@! TD.AperFunction*
G04 #@! TA.AperFunction,Conductor*
G36*
X136265500Y-94879701D02*
G01*
X136275584Y-94930400D01*
X136275588Y-94930410D01*
X136288306Y-94961114D01*
X136288312Y-94961128D01*
X136301888Y-94985992D01*
X136360021Y-95032837D01*
X136360023Y-95032838D01*
X136360025Y-95032839D01*
X136390742Y-95045562D01*
X136390748Y-95045564D01*
X136416098Y-95050606D01*
X136441451Y-95055649D01*
X137497535Y-95055640D01*
X137497553Y-95055640D01*
X137548246Y-95045556D01*
X137548247Y-95045555D01*
X137548255Y-95045554D01*
X137578979Y-95032828D01*
X137603843Y-95019252D01*
X137650688Y-94961119D01*
X137663414Y-94930395D01*
X137667164Y-94911542D01*
X137673500Y-94879692D01*
X137673500Y-93685568D01*
X138444500Y-93685568D01*
X138444500Y-94793432D01*
X138446743Y-94812767D01*
X138447192Y-94816635D01*
X138489096Y-94911541D01*
X138562458Y-94984903D01*
X138562457Y-94984903D01*
X138604362Y-95003404D01*
X138657364Y-95026807D01*
X138657363Y-95026807D01*
X138657366Y-95026808D01*
X138680568Y-95029500D01*
X138680573Y-95029500D01*
X139063427Y-95029500D01*
X139063432Y-95029500D01*
X139086634Y-95026808D01*
X139181542Y-94984903D01*
X139254903Y-94911542D01*
X139273687Y-94868999D01*
X149086670Y-94868999D01*
X149086670Y-94869000D01*
X149105872Y-94990237D01*
X149105872Y-94990238D01*
X149161596Y-95099604D01*
X149248395Y-95186403D01*
X149351033Y-95238699D01*
X149357763Y-95242128D01*
X149456183Y-95257716D01*
X149478999Y-95261330D01*
X149479000Y-95261330D01*
X149479001Y-95261330D01*
X149495577Y-95258704D01*
X149600237Y-95242128D01*
X149709606Y-95186402D01*
X149786782Y-95109226D01*
X149817506Y-95096500D01*
X152324379Y-95096500D01*
X152355103Y-95109226D01*
X152364522Y-95123323D01*
X152374591Y-95147633D01*
X152463150Y-95263046D01*
X152463153Y-95263049D01*
X152556308Y-95334529D01*
X152572935Y-95363328D01*
X152564328Y-95395451D01*
X152556308Y-95403471D01*
X152463153Y-95474950D01*
X152463150Y-95474953D01*
X152374592Y-95590365D01*
X152336845Y-95681494D01*
X152321987Y-95717365D01*
X152318918Y-95724773D01*
X152299932Y-95868997D01*
X152299932Y-95869002D01*
X152318918Y-96013226D01*
X152318919Y-96013230D01*
X152318920Y-96013232D01*
X152350100Y-96088505D01*
X152374592Y-96147634D01*
X152463150Y-96263046D01*
X152463153Y-96263049D01*
X152556308Y-96334529D01*
X152572935Y-96363328D01*
X152564328Y-96395451D01*
X152556308Y-96403471D01*
X152463153Y-96474950D01*
X152463150Y-96474953D01*
X152374592Y-96590365D01*
X152332891Y-96691039D01*
X152323426Y-96713891D01*
X152318918Y-96724773D01*
X152299932Y-96868997D01*
X152299932Y-96869002D01*
X152318918Y-97013226D01*
X152318919Y-97013230D01*
X152318920Y-97013232D01*
X152361912Y-97117022D01*
X152374592Y-97147634D01*
X152450991Y-97247200D01*
X152459598Y-97279323D01*
X152442971Y-97308122D01*
X152421771Y-97316502D01*
X152421787Y-97316583D01*
X152421346Y-97316670D01*
X152420789Y-97316891D01*
X152419696Y-97316998D01*
X152382647Y-97324369D01*
X152340638Y-97352438D01*
X152312569Y-97394447D01*
X152305200Y-97431490D01*
X152305200Y-97767400D01*
X152628686Y-97767400D01*
X152607200Y-97819272D01*
X152607200Y-97918728D01*
X152628686Y-97970600D01*
X152305200Y-97970600D01*
X152305200Y-98306509D01*
X152312569Y-98343552D01*
X152340638Y-98385561D01*
X152382647Y-98413630D01*
X152419691Y-98421000D01*
X152755600Y-98421000D01*
X152755600Y-98097514D01*
X152807472Y-98119000D01*
X152906928Y-98119000D01*
X152958800Y-98097514D01*
X152958800Y-98421000D01*
X153294709Y-98421000D01*
X153331752Y-98413630D01*
X153373761Y-98385561D01*
X153401830Y-98343552D01*
X153409200Y-98306509D01*
X153409200Y-97970600D01*
X153085714Y-97970600D01*
X153107200Y-97918728D01*
X153107200Y-97819272D01*
X153085714Y-97767400D01*
X153409200Y-97767400D01*
X153409200Y-97431490D01*
X153401830Y-97394447D01*
X153373761Y-97352438D01*
X153331752Y-97324369D01*
X153294702Y-97316998D01*
X153293612Y-97316891D01*
X153293286Y-97316717D01*
X153292613Y-97316583D01*
X153292653Y-97316378D01*
X153264286Y-97301209D01*
X153254639Y-97269384D01*
X153263407Y-97247201D01*
X153339808Y-97147634D01*
X153395480Y-97013232D01*
X153396616Y-97004604D01*
X153414468Y-96869002D01*
X153414468Y-96868997D01*
X153395481Y-96724773D01*
X153395480Y-96724771D01*
X153395480Y-96724768D01*
X153339808Y-96590366D01*
X153295528Y-96532659D01*
X153251249Y-96474953D01*
X153251243Y-96474947D01*
X153158092Y-96403471D01*
X153141464Y-96374672D01*
X153150071Y-96342550D01*
X153158092Y-96334529D01*
X153251243Y-96263052D01*
X153251243Y-96263051D01*
X153251248Y-96263048D01*
X153339808Y-96147634D01*
X153395480Y-96013232D01*
X153395481Y-96013226D01*
X153414468Y-95869002D01*
X153414468Y-95868997D01*
X153395481Y-95724773D01*
X153395480Y-95724771D01*
X153395480Y-95724768D01*
X153339808Y-95590366D01*
X153251248Y-95474952D01*
X153251243Y-95474947D01*
X153158092Y-95403471D01*
X153141464Y-95374672D01*
X153150071Y-95342550D01*
X153158092Y-95334529D01*
X153251243Y-95263052D01*
X153251243Y-95263051D01*
X153251248Y-95263048D01*
X153339808Y-95147634D01*
X153395480Y-95013232D01*
X153399066Y-94985991D01*
X153414468Y-94869002D01*
X153414468Y-94868997D01*
X153395481Y-94724773D01*
X153395480Y-94724771D01*
X153395480Y-94724768D01*
X153339808Y-94590366D01*
X153286925Y-94521447D01*
X153251249Y-94474953D01*
X153251246Y-94474950D01*
X153135834Y-94386392D01*
X153001432Y-94330720D01*
X153001428Y-94330719D01*
X153001425Y-94330718D01*
X153001427Y-94330718D01*
X152857203Y-94311732D01*
X152857197Y-94311732D01*
X152712973Y-94330718D01*
X152578565Y-94386392D01*
X152463153Y-94474950D01*
X152463150Y-94474953D01*
X152374591Y-94590366D01*
X152364522Y-94614677D01*
X152341007Y-94638192D01*
X152324379Y-94641500D01*
X149817506Y-94641500D01*
X149786782Y-94628774D01*
X149709604Y-94551596D01*
X149600238Y-94495872D01*
X149479001Y-94476670D01*
X149478999Y-94476670D01*
X149357762Y-94495872D01*
X149357761Y-94495872D01*
X149248395Y-94551596D01*
X149161596Y-94638395D01*
X149105872Y-94747761D01*
X149105872Y-94747762D01*
X149086670Y-94868999D01*
X139273687Y-94868999D01*
X139294262Y-94822399D01*
X139318314Y-94799434D01*
X139334010Y-94796500D01*
X140277350Y-94796500D01*
X140329364Y-94786153D01*
X140355373Y-94780980D01*
X140405086Y-94747763D01*
X140443853Y-94721860D01*
X140443853Y-94721859D01*
X140443857Y-94721857D01*
X140502980Y-94633373D01*
X140518500Y-94555348D01*
X140518500Y-94222652D01*
X140518500Y-94222649D01*
X140502980Y-94144627D01*
X140502978Y-94144623D01*
X140443860Y-94056146D01*
X140443853Y-94056139D01*
X140355376Y-93997021D01*
X140355372Y-93997019D01*
X140277350Y-93981500D01*
X140277348Y-93981500D01*
X140134648Y-93981500D01*
X139342950Y-93981500D01*
X139312226Y-93968774D01*
X139299500Y-93938050D01*
X139299500Y-93685572D01*
X139299500Y-93685568D01*
X139296808Y-93662366D01*
X139254903Y-93567458D01*
X139181542Y-93494097D01*
X139181541Y-93494096D01*
X139181542Y-93494096D01*
X139086634Y-93452192D01*
X139086636Y-93452192D01*
X139080004Y-93451422D01*
X139063432Y-93449500D01*
X138680568Y-93449500D01*
X138663995Y-93451422D01*
X138657364Y-93452192D01*
X138562458Y-93494096D01*
X138489096Y-93567458D01*
X138447192Y-93662364D01*
X138447192Y-93662366D01*
X138444500Y-93685568D01*
X137673500Y-93685568D01*
X137673500Y-93345000D01*
X139745467Y-93345000D01*
X139853661Y-93400127D01*
X139853663Y-93400128D01*
X139952083Y-93415716D01*
X139974899Y-93419330D01*
X139974900Y-93419330D01*
X139974901Y-93419330D01*
X139991477Y-93416704D01*
X140096137Y-93400128D01*
X140204332Y-93345000D01*
X141505892Y-93345000D01*
X141569295Y-93408403D01*
X141649954Y-93449500D01*
X141678663Y-93464128D01*
X141777083Y-93479716D01*
X141799899Y-93483330D01*
X141799900Y-93483330D01*
X141799901Y-93483330D01*
X141816477Y-93480704D01*
X141921137Y-93464128D01*
X142030506Y-93408402D01*
X142093908Y-93345000D01*
X142505892Y-93345000D01*
X142569295Y-93408403D01*
X142649954Y-93449500D01*
X142678663Y-93464128D01*
X142777083Y-93479716D01*
X142799899Y-93483330D01*
X142799900Y-93483330D01*
X142799901Y-93483330D01*
X142816477Y-93480704D01*
X142921137Y-93464128D01*
X143030506Y-93408402D01*
X143093908Y-93345000D01*
X143507622Y-93345000D01*
X143571025Y-93408403D01*
X143651684Y-93449500D01*
X143680393Y-93464128D01*
X143778813Y-93479716D01*
X143801629Y-93483330D01*
X143801630Y-93483330D01*
X143801631Y-93483330D01*
X143818207Y-93480704D01*
X143922867Y-93464128D01*
X144032236Y-93408402D01*
X144095638Y-93345000D01*
X154761700Y-93345000D01*
X154761700Y-108694543D01*
X154748974Y-108725267D01*
X151905267Y-111568974D01*
X151874543Y-111581700D01*
X135907457Y-111581700D01*
X135876733Y-111568974D01*
X134404890Y-110097131D01*
X134689039Y-110097131D01*
X134749783Y-110157875D01*
X134781189Y-110178861D01*
X134781190Y-110178862D01*
X134830742Y-110188719D01*
X134834065Y-110188719D01*
X134864789Y-110201445D01*
X134877515Y-110232169D01*
X134877515Y-110236000D01*
X134887411Y-110285748D01*
X134896985Y-110300076D01*
X134909663Y-110319051D01*
X134909192Y-110319365D01*
X134915902Y-110332429D01*
X134926521Y-110372059D01*
X134926522Y-110372060D01*
X134972929Y-110452440D01*
X135419560Y-110899070D01*
X135499939Y-110945477D01*
X135499939Y-110945478D01*
X135589585Y-110969499D01*
X135589592Y-110969500D01*
X137133560Y-110969500D01*
X137142825Y-110967656D01*
X137170748Y-110962102D01*
X137212922Y-110933922D01*
X137241102Y-110891748D01*
X137248500Y-110854558D01*
X137248500Y-110616999D01*
X141085670Y-110616999D01*
X141085670Y-110617000D01*
X141104872Y-110738237D01*
X141104872Y-110738238D01*
X141160596Y-110847604D01*
X141247395Y-110934403D01*
X141316276Y-110969499D01*
X141356763Y-110990128D01*
X141455183Y-111005716D01*
X141477999Y-111009330D01*
X141478000Y-111009330D01*
X141478001Y-111009330D01*
X141538618Y-110999729D01*
X141599237Y-110990128D01*
X141669571Y-110954290D01*
X141702720Y-110951681D01*
X141713435Y-110956879D01*
X141721248Y-110962100D01*
X141721249Y-110962100D01*
X141721252Y-110962102D01*
X141747855Y-110967394D01*
X141758440Y-110969500D01*
X141758442Y-110969500D01*
X142833560Y-110969500D01*
X142842825Y-110967656D01*
X142870748Y-110962102D01*
X142912922Y-110933922D01*
X142941102Y-110891748D01*
X142948500Y-110854560D01*
X142948518Y-110854472D01*
X142966995Y-110826822D01*
X142991133Y-110819500D01*
X143042278Y-110819500D01*
X143042280Y-110819500D01*
X143116707Y-110788671D01*
X143681671Y-110223707D01*
X143712500Y-110149280D01*
X143712500Y-110149276D01*
X143713595Y-110146633D01*
X143737110Y-110123118D01*
X143745258Y-110120646D01*
X143797423Y-110110270D01*
X143884252Y-110052252D01*
X143942270Y-109965423D01*
X143947346Y-109939900D01*
X143957500Y-109888858D01*
X143957500Y-109888808D01*
X144206000Y-109888808D01*
X144221201Y-109965226D01*
X144279107Y-110051891D01*
X144279108Y-110051892D01*
X144365773Y-110109798D01*
X144365773Y-110109799D01*
X144442192Y-110125000D01*
X144551400Y-110125000D01*
X144754600Y-110125000D01*
X144863808Y-110125000D01*
X144940226Y-110109799D01*
X144940226Y-110109798D01*
X145026891Y-110051892D01*
X145026892Y-110051891D01*
X145084798Y-109965226D01*
X145084799Y-109965226D01*
X145100000Y-109888808D01*
X145100000Y-109829600D01*
X144754600Y-109829600D01*
X144754600Y-110125000D01*
X144551400Y-110125000D01*
X144551400Y-109829600D01*
X144206000Y-109829600D01*
X144206000Y-109888808D01*
X143957500Y-109888808D01*
X143957500Y-109567191D01*
X144206000Y-109567191D01*
X144206000Y-109626400D01*
X144551400Y-109626400D01*
X144754600Y-109626400D01*
X145100000Y-109626400D01*
X145100000Y-109567191D01*
X145084798Y-109490773D01*
X145026892Y-109404108D01*
X145026891Y-109404107D01*
X144940226Y-109346201D01*
X144940226Y-109346200D01*
X144863808Y-109331000D01*
X144754600Y-109331000D01*
X144754600Y-109626400D01*
X144551400Y-109626400D01*
X144551400Y-109331000D01*
X144442192Y-109331000D01*
X144365773Y-109346200D01*
X144365773Y-109346201D01*
X144279108Y-109404107D01*
X144279107Y-109404108D01*
X144221201Y-109490773D01*
X144221200Y-109490773D01*
X144206000Y-109567191D01*
X143957500Y-109567191D01*
X143957500Y-109567141D01*
X143942270Y-109490577D01*
X143942269Y-109490576D01*
X143884253Y-109403749D01*
X143884250Y-109403746D01*
X143797423Y-109345730D01*
X143797422Y-109345729D01*
X143720858Y-109330500D01*
X143720856Y-109330500D01*
X143299144Y-109330500D01*
X143299142Y-109330500D01*
X143222577Y-109345729D01*
X143222576Y-109345730D01*
X143135749Y-109403746D01*
X143135746Y-109403749D01*
X143077730Y-109490576D01*
X143077729Y-109490577D01*
X143062500Y-109567141D01*
X143062500Y-109888858D01*
X143077729Y-109965422D01*
X143077730Y-109965423D01*
X143135746Y-110052250D01*
X143135749Y-110052253D01*
X143178420Y-110080765D01*
X143196895Y-110108415D01*
X143190407Y-110141032D01*
X143185004Y-110147616D01*
X142998273Y-110334348D01*
X142967549Y-110347074D01*
X142936825Y-110334348D01*
X142931422Y-110327764D01*
X142912923Y-110300079D01*
X142912920Y-110300076D01*
X142870751Y-110271899D01*
X142870748Y-110271898D01*
X142858351Y-110269432D01*
X142833560Y-110264500D01*
X142833558Y-110264500D01*
X141758442Y-110264500D01*
X141758440Y-110264500D01*
X141721252Y-110271898D01*
X141721249Y-110271899D01*
X141713432Y-110277122D01*
X141680815Y-110283608D01*
X141669569Y-110279707D01*
X141599241Y-110243873D01*
X141599235Y-110243871D01*
X141478001Y-110224670D01*
X141477999Y-110224670D01*
X141356762Y-110243872D01*
X141356761Y-110243872D01*
X141247395Y-110299596D01*
X141160596Y-110386395D01*
X141104872Y-110495761D01*
X141104872Y-110495762D01*
X141085670Y-110616999D01*
X137248500Y-110616999D01*
X137248500Y-110379442D01*
X137248500Y-110379439D01*
X137245734Y-110365540D01*
X137241102Y-110342252D01*
X137241100Y-110342249D01*
X137241100Y-110342248D01*
X137212923Y-110300079D01*
X137212920Y-110300076D01*
X137170751Y-110271899D01*
X137170748Y-110271898D01*
X137158351Y-110269432D01*
X137133560Y-110264500D01*
X137133558Y-110264500D01*
X136642408Y-110264500D01*
X135879406Y-110264500D01*
X135848682Y-110251774D01*
X135835956Y-110221050D01*
X135848682Y-110190326D01*
X135881133Y-110157875D01*
X135918177Y-110120831D01*
X135973903Y-110011462D01*
X135993105Y-109890225D01*
X135992888Y-109888858D01*
X135983435Y-109829171D01*
X135974777Y-109774509D01*
X138269000Y-109774509D01*
X138276369Y-109811552D01*
X138304438Y-109853561D01*
X138346447Y-109881630D01*
X138383491Y-109889000D01*
X139344400Y-109889000D01*
X139547600Y-109889000D01*
X140508509Y-109889000D01*
X140545552Y-109881630D01*
X140587561Y-109853561D01*
X140615630Y-109811552D01*
X140623000Y-109774509D01*
X140623000Y-109346999D01*
X141085670Y-109346999D01*
X141085670Y-109347000D01*
X141104872Y-109468237D01*
X141104872Y-109468238D01*
X141160596Y-109577604D01*
X141247395Y-109664403D01*
X141316278Y-109699500D01*
X141356763Y-109720128D01*
X141455183Y-109735716D01*
X141477999Y-109739330D01*
X141478000Y-109739330D01*
X141478001Y-109739330D01*
X141572296Y-109724395D01*
X141599237Y-109720128D01*
X141669571Y-109684290D01*
X141702720Y-109681681D01*
X141713435Y-109686879D01*
X141721248Y-109692100D01*
X141721249Y-109692100D01*
X141721252Y-109692102D01*
X141747855Y-109697394D01*
X141758440Y-109699500D01*
X141758442Y-109699500D01*
X142833560Y-109699500D01*
X142842825Y-109697656D01*
X142870748Y-109692102D01*
X142912922Y-109663922D01*
X142941102Y-109621748D01*
X142948500Y-109584558D01*
X142948500Y-109109442D01*
X142948500Y-109109439D01*
X142944686Y-109090269D01*
X142941102Y-109072252D01*
X142941100Y-109072249D01*
X142941100Y-109072248D01*
X142912923Y-109030079D01*
X142912920Y-109030076D01*
X142870751Y-109001899D01*
X142870748Y-109001898D01*
X142858351Y-108999432D01*
X142833560Y-108994500D01*
X142833558Y-108994500D01*
X141758442Y-108994500D01*
X141758440Y-108994500D01*
X141721252Y-109001898D01*
X141721249Y-109001899D01*
X141713432Y-109007122D01*
X141680815Y-109013608D01*
X141669569Y-109009707D01*
X141599241Y-108973873D01*
X141599235Y-108973871D01*
X141478001Y-108954670D01*
X141477999Y-108954670D01*
X141356762Y-108973872D01*
X141356761Y-108973872D01*
X141247395Y-109029596D01*
X141160596Y-109116395D01*
X141104872Y-109225761D01*
X141104872Y-109225762D01*
X141085670Y-109346999D01*
X140623000Y-109346999D01*
X140623000Y-108813600D01*
X139547600Y-108813600D01*
X139547600Y-109889000D01*
X139344400Y-109889000D01*
X139344400Y-108813600D01*
X138269000Y-108813600D01*
X138269000Y-109774509D01*
X135974777Y-109774509D01*
X135973903Y-109768988D01*
X135966501Y-109754460D01*
X135965051Y-109751614D01*
X135962442Y-109718461D01*
X135984039Y-109693174D01*
X136017192Y-109690565D01*
X136020395Y-109691747D01*
X136021250Y-109692101D01*
X136021252Y-109692102D01*
X136043644Y-109696556D01*
X136058440Y-109699500D01*
X136058442Y-109699500D01*
X137133560Y-109699500D01*
X137142825Y-109697656D01*
X137170748Y-109692102D01*
X137212922Y-109663922D01*
X137222358Y-109649799D01*
X137250005Y-109631325D01*
X137282622Y-109637811D01*
X137289208Y-109643216D01*
X137310395Y-109664403D01*
X137379278Y-109699500D01*
X137419763Y-109720128D01*
X137518183Y-109735716D01*
X137540999Y-109739330D01*
X137541000Y-109739330D01*
X137541001Y-109739330D01*
X137557577Y-109736704D01*
X137662237Y-109720128D01*
X137771606Y-109664402D01*
X137858402Y-109577606D01*
X137914128Y-109468237D01*
X137933330Y-109347000D01*
X137933203Y-109346201D01*
X137925454Y-109297272D01*
X137914128Y-109225763D01*
X137914127Y-109225761D01*
X137858403Y-109116395D01*
X137771604Y-109029596D01*
X137662238Y-108973872D01*
X137541001Y-108954670D01*
X137540999Y-108954670D01*
X137419762Y-108973872D01*
X137419761Y-108973872D01*
X137310394Y-109029597D01*
X137310390Y-109029599D01*
X137289206Y-109050783D01*
X137258482Y-109063508D01*
X137227759Y-109050780D01*
X137222357Y-109044197D01*
X137212925Y-109030081D01*
X137212920Y-109030076D01*
X137170751Y-109001899D01*
X137170748Y-109001898D01*
X137158351Y-108999432D01*
X137133560Y-108994500D01*
X137133558Y-108994500D01*
X136058442Y-108994500D01*
X136058440Y-108994500D01*
X136021252Y-109001898D01*
X136021248Y-109001899D01*
X135979079Y-109030076D01*
X135979076Y-109030079D01*
X135950899Y-109072248D01*
X135950898Y-109072252D01*
X135943500Y-109109439D01*
X135943500Y-109580044D01*
X135930774Y-109610768D01*
X135900050Y-109623494D01*
X135869326Y-109610768D01*
X135831379Y-109572821D01*
X135722013Y-109517097D01*
X135600776Y-109497895D01*
X135600774Y-109497895D01*
X135479537Y-109517097D01*
X135479536Y-109517097D01*
X135370170Y-109572821D01*
X135283371Y-109659620D01*
X135250367Y-109724395D01*
X135225080Y-109745992D01*
X135191927Y-109743383D01*
X135178064Y-109732232D01*
X135176874Y-109730782D01*
X135116131Y-109670039D01*
X134689039Y-110097131D01*
X134404890Y-110097131D01*
X134119501Y-109811742D01*
X134453767Y-109811742D01*
X134453767Y-109811743D01*
X134463623Y-109861295D01*
X134463624Y-109861296D01*
X134484610Y-109892702D01*
X134545355Y-109953447D01*
X134687059Y-109811743D01*
X134545355Y-109670039D01*
X134484611Y-109730783D01*
X134484610Y-109730783D01*
X134463624Y-109762189D01*
X134463623Y-109762190D01*
X134453767Y-109811742D01*
X134119501Y-109811742D01*
X133834114Y-109526355D01*
X134689039Y-109526355D01*
X134830743Y-109668059D01*
X134972447Y-109526355D01*
X134911702Y-109465610D01*
X134880296Y-109444624D01*
X134880295Y-109444623D01*
X134830744Y-109434767D01*
X134830742Y-109434767D01*
X134781190Y-109444623D01*
X134781189Y-109444624D01*
X134749783Y-109465610D01*
X134749783Y-109465611D01*
X134689039Y-109526355D01*
X133834114Y-109526355D01*
X133033026Y-108725267D01*
X133020300Y-108694543D01*
X133020300Y-107839439D01*
X135943500Y-107839439D01*
X135943500Y-108314560D01*
X135950898Y-108351747D01*
X135950899Y-108351751D01*
X135979076Y-108393920D01*
X135979079Y-108393923D01*
X136021248Y-108422100D01*
X136021249Y-108422100D01*
X136021252Y-108422102D01*
X136047855Y-108427394D01*
X136058440Y-108429500D01*
X136058442Y-108429500D01*
X137133560Y-108429500D01*
X137142825Y-108427656D01*
X137170748Y-108422102D01*
X137212922Y-108393922D01*
X137222358Y-108379799D01*
X137250005Y-108361325D01*
X137282622Y-108367811D01*
X137289208Y-108373216D01*
X137310395Y-108394403D01*
X137379278Y-108429500D01*
X137419763Y-108450128D01*
X137518183Y-108465716D01*
X137540999Y-108469330D01*
X137541000Y-108469330D01*
X137541001Y-108469330D01*
X137557577Y-108466704D01*
X137662237Y-108450128D01*
X137771606Y-108394402D01*
X137858402Y-108307606D01*
X137914128Y-108198237D01*
X137933330Y-108077000D01*
X137914128Y-107955763D01*
X137867795Y-107864828D01*
X137858403Y-107846395D01*
X137771604Y-107759596D01*
X137662238Y-107703872D01*
X137541001Y-107684670D01*
X137540999Y-107684670D01*
X137419762Y-107703872D01*
X137419761Y-107703872D01*
X137310394Y-107759597D01*
X137310390Y-107759599D01*
X137289206Y-107780783D01*
X137258482Y-107793508D01*
X137227759Y-107780780D01*
X137222357Y-107774197D01*
X137212925Y-107760081D01*
X137212920Y-107760076D01*
X137170751Y-107731899D01*
X137170748Y-107731898D01*
X137158351Y-107729432D01*
X137133560Y-107724500D01*
X137133558Y-107724500D01*
X136058442Y-107724500D01*
X136058440Y-107724500D01*
X136021252Y-107731898D01*
X136021248Y-107731899D01*
X135979079Y-107760076D01*
X135979076Y-107760079D01*
X135950899Y-107802248D01*
X135950898Y-107802252D01*
X135943500Y-107839439D01*
X133020300Y-107839439D01*
X133020300Y-107649490D01*
X138269000Y-107649490D01*
X138269000Y-108610400D01*
X139344400Y-108610400D01*
X139547600Y-108610400D01*
X140623000Y-108610400D01*
X140623000Y-108547141D01*
X143062500Y-108547141D01*
X143062500Y-108868858D01*
X143077729Y-108945422D01*
X143077730Y-108945423D01*
X143135746Y-109032250D01*
X143135749Y-109032253D01*
X143157098Y-109046518D01*
X143195611Y-109072252D01*
X143222576Y-109090269D01*
X143222577Y-109090270D01*
X143299142Y-109105500D01*
X143299144Y-109105500D01*
X143720858Y-109105500D01*
X143776308Y-109094470D01*
X143797423Y-109090270D01*
X143884252Y-109032252D01*
X143923261Y-108973872D01*
X143935998Y-108954810D01*
X143963649Y-108936335D01*
X143972125Y-108935500D01*
X144190875Y-108935500D01*
X144221599Y-108948226D01*
X144227002Y-108954810D01*
X144278746Y-109032250D01*
X144278749Y-109032253D01*
X144300098Y-109046518D01*
X144338611Y-109072252D01*
X144365576Y-109090269D01*
X144365577Y-109090270D01*
X144442142Y-109105500D01*
X144442144Y-109105500D01*
X144863858Y-109105500D01*
X144919308Y-109094470D01*
X144940423Y-109090270D01*
X145027252Y-109032252D01*
X145085270Y-108945423D01*
X145090346Y-108919900D01*
X145100500Y-108868858D01*
X145100500Y-108547141D01*
X145085270Y-108470577D01*
X145085269Y-108470576D01*
X145084436Y-108469330D01*
X145027252Y-108383748D01*
X145027250Y-108383746D01*
X144972251Y-108346997D01*
X146635732Y-108346997D01*
X146635732Y-108347002D01*
X146654718Y-108491226D01*
X146710393Y-108625636D01*
X146786431Y-108724732D01*
X146795038Y-108756854D01*
X146778410Y-108785653D01*
X146757502Y-108793916D01*
X146757536Y-108794083D01*
X146756620Y-108794265D01*
X146756221Y-108794423D01*
X146755440Y-108794499D01*
X146718252Y-108801898D01*
X146718248Y-108801899D01*
X146676079Y-108830076D01*
X146676076Y-108830079D01*
X146647899Y-108872248D01*
X146647898Y-108872252D01*
X146640500Y-108909439D01*
X146640500Y-109784560D01*
X146647898Y-109821747D01*
X146647899Y-109821751D01*
X146676076Y-109863920D01*
X146676079Y-109863923D01*
X146718248Y-109892100D01*
X146718249Y-109892100D01*
X146718252Y-109892102D01*
X146744855Y-109897394D01*
X146755440Y-109899500D01*
X146755442Y-109899500D01*
X147630560Y-109899500D01*
X147639825Y-109897656D01*
X147667748Y-109892102D01*
X147709922Y-109863922D01*
X147738102Y-109821748D01*
X147745500Y-109784558D01*
X147745500Y-109784551D01*
X147745575Y-109783794D01*
X147745698Y-109783563D01*
X147745917Y-109782464D01*
X147746249Y-109782530D01*
X147761242Y-109754460D01*
X147793062Y-109744797D01*
X147815268Y-109753568D01*
X147855658Y-109784560D01*
X147914366Y-109829608D01*
X148048768Y-109885280D01*
X148048773Y-109885280D01*
X148048774Y-109885281D01*
X148048772Y-109885281D01*
X148192997Y-109904268D01*
X148193000Y-109904268D01*
X148193003Y-109904268D01*
X148337226Y-109885281D01*
X148337226Y-109885280D01*
X148337232Y-109885280D01*
X148471634Y-109829608D01*
X148587048Y-109741048D01*
X148587324Y-109740689D01*
X148639470Y-109672730D01*
X148658844Y-109647480D01*
X148687643Y-109630853D01*
X148719765Y-109639460D01*
X148727786Y-109647480D01*
X148799307Y-109740689D01*
X148799310Y-109740692D01*
X148914618Y-109829171D01*
X149048900Y-109884791D01*
X149048908Y-109884793D01*
X149091399Y-109890387D01*
X149091400Y-109890386D01*
X149091400Y-109575514D01*
X149143272Y-109597000D01*
X149242728Y-109597000D01*
X149294600Y-109575514D01*
X149294600Y-109890387D01*
X149337091Y-109884793D01*
X149337099Y-109884791D01*
X149471381Y-109829171D01*
X149586689Y-109740692D01*
X149586691Y-109740690D01*
X149658212Y-109647481D01*
X149687012Y-109630853D01*
X149719134Y-109639459D01*
X149727155Y-109647480D01*
X149798950Y-109741046D01*
X149798953Y-109741049D01*
X149826505Y-109762190D01*
X149914366Y-109829608D01*
X150048768Y-109885280D01*
X150048773Y-109885280D01*
X150048774Y-109885281D01*
X150048772Y-109885281D01*
X150192997Y-109904268D01*
X150193000Y-109904268D01*
X150193003Y-109904268D01*
X150337226Y-109885281D01*
X150337226Y-109885280D01*
X150337232Y-109885280D01*
X150471634Y-109829608D01*
X150587048Y-109741048D01*
X150587324Y-109740689D01*
X150658529Y-109647892D01*
X150687328Y-109631264D01*
X150719450Y-109639871D01*
X150727471Y-109647892D01*
X150798947Y-109741043D01*
X150798953Y-109741049D01*
X150826505Y-109762190D01*
X150914366Y-109829608D01*
X151048768Y-109885280D01*
X151048773Y-109885280D01*
X151048774Y-109885281D01*
X151048772Y-109885281D01*
X151192997Y-109904268D01*
X151193000Y-109904268D01*
X151193003Y-109904268D01*
X151337226Y-109885281D01*
X151337226Y-109885280D01*
X151337232Y-109885280D01*
X151471634Y-109829608D01*
X151587048Y-109741048D01*
X151587324Y-109740689D01*
X151658529Y-109647892D01*
X151687328Y-109631264D01*
X151719450Y-109639871D01*
X151727471Y-109647892D01*
X151798947Y-109741043D01*
X151798953Y-109741049D01*
X151826505Y-109762190D01*
X151914366Y-109829608D01*
X152048768Y-109885280D01*
X152048773Y-109885280D01*
X152048774Y-109885281D01*
X152048772Y-109885281D01*
X152192997Y-109904268D01*
X152193000Y-109904268D01*
X152193003Y-109904268D01*
X152337226Y-109885281D01*
X152337226Y-109885280D01*
X152337232Y-109885280D01*
X152471634Y-109829608D01*
X152587048Y-109741048D01*
X152675608Y-109625634D01*
X152731280Y-109491232D01*
X152731281Y-109491226D01*
X152750268Y-109347002D01*
X152750268Y-109346997D01*
X152731281Y-109202773D01*
X152731280Y-109202771D01*
X152731280Y-109202768D01*
X152675608Y-109068366D01*
X152624606Y-109001899D01*
X152587049Y-108952953D01*
X152587043Y-108952947D01*
X152493892Y-108881471D01*
X152477264Y-108852672D01*
X152485871Y-108820550D01*
X152493892Y-108812529D01*
X152587043Y-108741052D01*
X152587043Y-108741051D01*
X152587048Y-108741048D01*
X152675608Y-108625634D01*
X152731280Y-108491232D01*
X152733999Y-108470577D01*
X152750268Y-108347002D01*
X152750268Y-108346997D01*
X152731281Y-108202773D01*
X152731280Y-108202771D01*
X152731280Y-108202768D01*
X152675608Y-108068366D01*
X152589204Y-107955762D01*
X152587049Y-107952953D01*
X152587046Y-107952950D01*
X152471634Y-107864392D01*
X152337232Y-107808720D01*
X152337228Y-107808719D01*
X152337225Y-107808718D01*
X152337227Y-107808718D01*
X152193003Y-107789732D01*
X152192997Y-107789732D01*
X152048773Y-107808718D01*
X151914365Y-107864392D01*
X151798953Y-107952950D01*
X151798950Y-107952953D01*
X151727471Y-108046108D01*
X151698672Y-108062735D01*
X151666549Y-108054128D01*
X151658529Y-108046108D01*
X151587049Y-107952953D01*
X151587046Y-107952950D01*
X151471634Y-107864392D01*
X151337232Y-107808720D01*
X151337228Y-107808719D01*
X151337225Y-107808718D01*
X151337227Y-107808718D01*
X151193003Y-107789732D01*
X151192997Y-107789732D01*
X151048773Y-107808718D01*
X150914365Y-107864392D01*
X150798953Y-107952950D01*
X150798950Y-107952953D01*
X150727471Y-108046108D01*
X150698672Y-108062735D01*
X150666549Y-108054128D01*
X150658529Y-108046108D01*
X150587049Y-107952953D01*
X150587046Y-107952950D01*
X150471634Y-107864392D01*
X150337232Y-107808720D01*
X150337228Y-107808719D01*
X150337225Y-107808718D01*
X150337227Y-107808718D01*
X150193003Y-107789732D01*
X150192997Y-107789732D01*
X150048773Y-107808718D01*
X149914365Y-107864392D01*
X149798953Y-107952950D01*
X149798950Y-107952953D01*
X149727155Y-108046519D01*
X149698355Y-108063146D01*
X149666233Y-108054539D01*
X149658213Y-108046518D01*
X149586697Y-107953316D01*
X149586691Y-107953309D01*
X149471380Y-107864828D01*
X149337100Y-107809208D01*
X149294600Y-107803612D01*
X149294600Y-108118485D01*
X149242728Y-108097000D01*
X149143272Y-108097000D01*
X149091400Y-108118485D01*
X149091400Y-107803612D01*
X149048900Y-107809208D01*
X148914616Y-107864830D01*
X148799313Y-107953304D01*
X148799307Y-107953310D01*
X148727786Y-108046519D01*
X148698986Y-108063146D01*
X148666864Y-108054539D01*
X148658844Y-108046518D01*
X148587052Y-107952956D01*
X148587046Y-107952950D01*
X148471634Y-107864392D01*
X148337232Y-107808720D01*
X148337228Y-107808719D01*
X148337225Y-107808718D01*
X148337227Y-107808718D01*
X148193003Y-107789732D01*
X148192997Y-107789732D01*
X148048773Y-107808718D01*
X147914365Y-107864392D01*
X147798953Y-107952950D01*
X147798950Y-107952953D01*
X147727471Y-108046108D01*
X147698672Y-108062735D01*
X147666549Y-108054128D01*
X147658529Y-108046108D01*
X147587049Y-107952953D01*
X147587046Y-107952950D01*
X147471634Y-107864392D01*
X147337232Y-107808720D01*
X147337228Y-107808719D01*
X147337225Y-107808718D01*
X147337227Y-107808718D01*
X147193003Y-107789732D01*
X147192997Y-107789732D01*
X147048773Y-107808718D01*
X146914365Y-107864392D01*
X146798953Y-107952950D01*
X146798950Y-107952953D01*
X146710392Y-108068365D01*
X146654718Y-108202773D01*
X146635732Y-108346997D01*
X144972251Y-108346997D01*
X144940423Y-108325730D01*
X144940422Y-108325729D01*
X144863858Y-108310500D01*
X144863856Y-108310500D01*
X144442144Y-108310500D01*
X144442142Y-108310500D01*
X144365577Y-108325729D01*
X144365576Y-108325730D01*
X144278749Y-108383746D01*
X144278746Y-108383749D01*
X144227002Y-108461190D01*
X144199351Y-108479665D01*
X144190875Y-108480500D01*
X143972125Y-108480500D01*
X143941401Y-108467774D01*
X143935998Y-108461190D01*
X143884253Y-108383749D01*
X143884250Y-108383746D01*
X143797423Y-108325730D01*
X143797422Y-108325729D01*
X143720858Y-108310500D01*
X143720856Y-108310500D01*
X143299144Y-108310500D01*
X143299142Y-108310500D01*
X143222577Y-108325729D01*
X143222576Y-108325730D01*
X143135749Y-108383746D01*
X143135746Y-108383749D01*
X143077730Y-108470576D01*
X143077729Y-108470577D01*
X143062500Y-108547141D01*
X140623000Y-108547141D01*
X140623000Y-108076999D01*
X140958670Y-108076999D01*
X140958670Y-108077000D01*
X140977872Y-108198237D01*
X140977872Y-108198238D01*
X141033596Y-108307604D01*
X141120395Y-108394403D01*
X141189278Y-108429500D01*
X141229763Y-108450128D01*
X141328183Y-108465716D01*
X141350999Y-108469330D01*
X141351000Y-108469330D01*
X141351001Y-108469330D01*
X141367577Y-108466704D01*
X141472237Y-108450128D01*
X141581606Y-108394402D01*
X141602790Y-108373217D01*
X141633512Y-108360490D01*
X141664236Y-108373215D01*
X141669641Y-108379800D01*
X141679076Y-108393920D01*
X141679079Y-108393923D01*
X141721248Y-108422100D01*
X141721249Y-108422100D01*
X141721252Y-108422102D01*
X141747855Y-108427394D01*
X141758440Y-108429500D01*
X141758442Y-108429500D01*
X142833560Y-108429500D01*
X142842825Y-108427656D01*
X142870748Y-108422102D01*
X142912922Y-108393922D01*
X142941102Y-108351748D01*
X142948500Y-108314558D01*
X142948500Y-107839442D01*
X142948500Y-107839439D01*
X142945522Y-107824470D01*
X142941102Y-107802252D01*
X142941100Y-107802249D01*
X142941100Y-107802248D01*
X142912923Y-107760079D01*
X142912920Y-107760076D01*
X142870751Y-107731899D01*
X142870748Y-107731898D01*
X142858351Y-107729432D01*
X142833560Y-107724500D01*
X142833558Y-107724500D01*
X141758442Y-107724500D01*
X141758440Y-107724500D01*
X141721252Y-107731898D01*
X141721248Y-107731899D01*
X141679079Y-107760076D01*
X141679076Y-107760079D01*
X141669642Y-107774199D01*
X141641991Y-107792674D01*
X141609375Y-107786186D01*
X141602791Y-107780783D01*
X141581604Y-107759596D01*
X141472238Y-107703872D01*
X141351001Y-107684670D01*
X141350999Y-107684670D01*
X141229762Y-107703872D01*
X141229761Y-107703872D01*
X141120395Y-107759596D01*
X141033596Y-107846395D01*
X140977872Y-107955761D01*
X140977872Y-107955762D01*
X140958670Y-108076999D01*
X140623000Y-108076999D01*
X140623000Y-107649490D01*
X140615630Y-107612447D01*
X140587561Y-107570438D01*
X140545552Y-107542369D01*
X140508509Y-107535000D01*
X139547600Y-107535000D01*
X139547600Y-108610400D01*
X139344400Y-108610400D01*
X139344400Y-107535000D01*
X138383491Y-107535000D01*
X138346447Y-107542369D01*
X138304438Y-107570438D01*
X138276369Y-107612447D01*
X138269000Y-107649490D01*
X133020300Y-107649490D01*
X133020300Y-106569439D01*
X135943500Y-106569439D01*
X135943500Y-107044560D01*
X135950898Y-107081747D01*
X135950899Y-107081751D01*
X135979076Y-107123920D01*
X135979079Y-107123923D01*
X136021248Y-107152100D01*
X136021249Y-107152100D01*
X136021252Y-107152102D01*
X136047855Y-107157394D01*
X136058440Y-107159500D01*
X136058442Y-107159500D01*
X137133560Y-107159500D01*
X137142825Y-107157656D01*
X137170748Y-107152102D01*
X137212922Y-107123922D01*
X137241102Y-107081748D01*
X137243544Y-107069472D01*
X137262021Y-107041822D01*
X137286159Y-107034500D01*
X137583494Y-107034500D01*
X137614218Y-107047226D01*
X137691395Y-107124403D01*
X137760278Y-107159500D01*
X137800763Y-107180128D01*
X137899183Y-107195716D01*
X137921999Y-107199330D01*
X137922000Y-107199330D01*
X137922001Y-107199330D01*
X137938577Y-107196704D01*
X138043237Y-107180128D01*
X138152606Y-107124402D01*
X138232499Y-107044509D01*
X141644000Y-107044509D01*
X141651369Y-107081552D01*
X141679438Y-107123561D01*
X141721447Y-107151630D01*
X141758491Y-107159000D01*
X142194400Y-107159000D01*
X142194400Y-106908600D01*
X141644000Y-106908600D01*
X141644000Y-107044509D01*
X138232499Y-107044509D01*
X138239402Y-107037606D01*
X138295128Y-106928237D01*
X138314330Y-106807000D01*
X138295128Y-106685763D01*
X138288180Y-106672127D01*
X138239403Y-106576395D01*
X138232498Y-106569490D01*
X141644000Y-106569490D01*
X141644000Y-106705400D01*
X142194400Y-106705400D01*
X142194400Y-106455000D01*
X141758491Y-106455000D01*
X141721447Y-106462369D01*
X141679438Y-106490438D01*
X141651369Y-106532447D01*
X141644000Y-106569490D01*
X138232498Y-106569490D01*
X138152604Y-106489596D01*
X138043238Y-106433872D01*
X137922001Y-106414670D01*
X137921999Y-106414670D01*
X137800762Y-106433872D01*
X137800761Y-106433872D01*
X137691395Y-106489596D01*
X137614218Y-106566774D01*
X137583494Y-106579500D01*
X137286159Y-106579500D01*
X137255435Y-106566774D01*
X137243544Y-106544528D01*
X137243535Y-106544484D01*
X137241102Y-106532252D01*
X137241100Y-106532249D01*
X137241100Y-106532248D01*
X137212923Y-106490079D01*
X137212920Y-106490076D01*
X137170751Y-106461899D01*
X137170748Y-106461898D01*
X137158351Y-106459432D01*
X137133560Y-106454500D01*
X137133558Y-106454500D01*
X136058442Y-106454500D01*
X136058440Y-106454500D01*
X136021252Y-106461898D01*
X136021248Y-106461899D01*
X135979079Y-106490076D01*
X135979076Y-106490079D01*
X135950899Y-106532248D01*
X135950898Y-106532252D01*
X135943500Y-106569439D01*
X133020300Y-106569439D01*
X133020300Y-105223983D01*
X133033026Y-105193259D01*
X133063750Y-105180533D01*
X133094474Y-105193259D01*
X133106365Y-105215506D01*
X133131536Y-105342049D01*
X133131538Y-105342059D01*
X133186340Y-105474362D01*
X133186340Y-105474363D01*
X133265900Y-105593432D01*
X133265904Y-105593437D01*
X133367163Y-105694696D01*
X133367167Y-105694699D01*
X133486237Y-105774259D01*
X133618540Y-105829061D01*
X133618550Y-105829063D01*
X133758995Y-105857000D01*
X134079000Y-105857000D01*
X134079000Y-105430000D01*
X134282200Y-105430000D01*
X134282200Y-105857000D01*
X134602205Y-105857000D01*
X134742649Y-105829063D01*
X134742659Y-105829061D01*
X134874962Y-105774259D01*
X134874963Y-105774259D01*
X134994032Y-105694699D01*
X134994037Y-105694696D01*
X135095296Y-105593437D01*
X135095299Y-105593432D01*
X135174859Y-105474363D01*
X135174859Y-105474362D01*
X135229662Y-105342055D01*
X135229664Y-105342047D01*
X135251633Y-105231600D01*
X134813960Y-105231600D01*
X134830600Y-105169496D01*
X134830600Y-105090504D01*
X134813960Y-105028400D01*
X135257600Y-105028400D01*
X135257600Y-104631600D01*
X134122450Y-104631600D01*
X134091726Y-104618874D01*
X134079000Y-104588150D01*
X134079000Y-104428400D01*
X134282200Y-104428400D01*
X135257600Y-104428400D01*
X135257600Y-104130000D01*
X136023907Y-104130000D01*
X136042628Y-104308117D01*
X136097970Y-104478443D01*
X136097970Y-104478444D01*
X136187523Y-104633554D01*
X136209240Y-104657674D01*
X136516885Y-104350028D01*
X136540516Y-104390956D01*
X136619644Y-104470084D01*
X136660570Y-104493713D01*
X136353855Y-104800427D01*
X136452250Y-104871916D01*
X136615871Y-104944764D01*
X136615870Y-104944764D01*
X136791046Y-104981999D01*
X136791052Y-104982000D01*
X136970148Y-104982000D01*
X136970153Y-104981999D01*
X137145329Y-104944764D01*
X137308949Y-104871916D01*
X137407343Y-104800427D01*
X137100629Y-104493713D01*
X137141556Y-104470084D01*
X137220684Y-104390956D01*
X137244313Y-104350028D01*
X137551958Y-104657673D01*
X137573678Y-104633551D01*
X137663229Y-104478444D01*
X137663229Y-104478443D01*
X137718571Y-104308117D01*
X137737292Y-104130000D01*
X137718571Y-103951882D01*
X137663229Y-103781556D01*
X137663229Y-103781555D01*
X137573676Y-103626445D01*
X137551958Y-103602324D01*
X137244312Y-103909969D01*
X137220684Y-103869044D01*
X137141556Y-103789916D01*
X137100628Y-103766285D01*
X137407343Y-103459571D01*
X137308949Y-103388083D01*
X137201274Y-103340144D01*
X137178383Y-103316021D01*
X137179253Y-103282777D01*
X137203376Y-103259886D01*
X137218947Y-103257000D01*
X137568109Y-103257000D01*
X137605152Y-103249630D01*
X137647161Y-103221561D01*
X137675230Y-103179552D01*
X137682600Y-103142509D01*
X137682600Y-103031600D01*
X136078600Y-103031600D01*
X136078600Y-103142509D01*
X136085969Y-103179552D01*
X136114038Y-103221561D01*
X136156047Y-103249630D01*
X136193091Y-103257000D01*
X136542253Y-103257000D01*
X136572977Y-103269726D01*
X136585703Y-103300450D01*
X136572977Y-103331174D01*
X136559926Y-103340144D01*
X136452251Y-103388083D01*
X136353855Y-103459571D01*
X136660570Y-103766286D01*
X136619644Y-103789916D01*
X136540516Y-103869044D01*
X136516886Y-103909970D01*
X136209241Y-103602325D01*
X136187521Y-103626447D01*
X136097970Y-103781555D01*
X136097970Y-103781556D01*
X136042628Y-103951882D01*
X136023907Y-104130000D01*
X135257600Y-104130000D01*
X135257600Y-103917490D01*
X135250230Y-103880447D01*
X135222161Y-103838438D01*
X135180152Y-103810369D01*
X135143109Y-103803000D01*
X134282200Y-103803000D01*
X134282200Y-104428400D01*
X134079000Y-104428400D01*
X134079000Y-103803000D01*
X133218091Y-103803000D01*
X133181047Y-103810369D01*
X133139038Y-103838438D01*
X133110969Y-103880447D01*
X133106365Y-103903591D01*
X133087889Y-103931241D01*
X133055272Y-103937728D01*
X133027622Y-103919252D01*
X133020300Y-103895113D01*
X133020300Y-103414886D01*
X133033026Y-103384162D01*
X133063750Y-103371436D01*
X133094474Y-103384162D01*
X133106365Y-103406409D01*
X133110968Y-103429552D01*
X133139038Y-103471561D01*
X133181047Y-103499630D01*
X133218091Y-103507000D01*
X134079000Y-103507000D01*
X134282200Y-103507000D01*
X135143109Y-103507000D01*
X135180152Y-103499630D01*
X135222161Y-103471561D01*
X135250230Y-103429552D01*
X135257600Y-103392509D01*
X135257600Y-102731600D01*
X134282200Y-102731600D01*
X134282200Y-103507000D01*
X134079000Y-103507000D01*
X134079000Y-102528400D01*
X134282200Y-102528400D01*
X135257600Y-102528400D01*
X135257600Y-101867490D01*
X135250230Y-101830447D01*
X135222161Y-101788438D01*
X135180152Y-101760369D01*
X135143109Y-101753000D01*
X134282200Y-101753000D01*
X134282200Y-102528400D01*
X134079000Y-102528400D01*
X134079000Y-101753000D01*
X133218091Y-101753000D01*
X133181047Y-101760369D01*
X133139038Y-101788438D01*
X133110969Y-101830447D01*
X133106365Y-101853591D01*
X133087889Y-101881241D01*
X133055272Y-101887728D01*
X133027622Y-101869252D01*
X133020300Y-101845113D01*
X133020300Y-101414886D01*
X133033026Y-101384162D01*
X133063750Y-101371436D01*
X133094474Y-101384162D01*
X133106365Y-101406409D01*
X133110968Y-101429552D01*
X133139038Y-101471561D01*
X133181047Y-101499630D01*
X133218091Y-101507000D01*
X134079000Y-101507000D01*
X134282200Y-101507000D01*
X135143109Y-101507000D01*
X135180152Y-101499630D01*
X135222161Y-101471561D01*
X135250230Y-101429552D01*
X135257600Y-101392509D01*
X135257600Y-100731600D01*
X134282200Y-100731600D01*
X134282200Y-101507000D01*
X134079000Y-101507000D01*
X134079000Y-100528400D01*
X134282200Y-100528400D01*
X135257600Y-100528400D01*
X135257600Y-99867490D01*
X135250230Y-99830447D01*
X135222161Y-99788438D01*
X135180152Y-99760369D01*
X135143109Y-99753000D01*
X134282200Y-99753000D01*
X134282200Y-100528400D01*
X134079000Y-100528400D01*
X134079000Y-99753000D01*
X133218091Y-99753000D01*
X133181047Y-99760369D01*
X133139038Y-99788438D01*
X133110969Y-99830447D01*
X133106365Y-99853591D01*
X133087889Y-99881241D01*
X133055272Y-99887728D01*
X133027622Y-99869252D01*
X133020300Y-99845113D01*
X133020300Y-99364886D01*
X133033026Y-99334162D01*
X133063750Y-99321436D01*
X133094474Y-99334162D01*
X133106365Y-99356409D01*
X133110968Y-99379552D01*
X133139038Y-99421561D01*
X133181047Y-99449630D01*
X133218091Y-99457000D01*
X134079000Y-99457000D01*
X134282200Y-99457000D01*
X135143109Y-99457000D01*
X135180152Y-99449630D01*
X135222161Y-99421561D01*
X135250230Y-99379552D01*
X135257600Y-99342509D01*
X135257600Y-99130000D01*
X136023907Y-99130000D01*
X136042628Y-99308117D01*
X136097970Y-99478443D01*
X136097970Y-99478444D01*
X136187523Y-99633554D01*
X136209240Y-99657674D01*
X136516885Y-99350028D01*
X136540516Y-99390956D01*
X136619644Y-99470084D01*
X136660570Y-99493713D01*
X136353855Y-99800427D01*
X136452250Y-99871916D01*
X136558803Y-99919356D01*
X136581694Y-99943479D01*
X136580824Y-99976723D01*
X136556701Y-99999614D01*
X136541130Y-100002500D01*
X136193040Y-100002500D01*
X136155852Y-100009898D01*
X136155848Y-100009899D01*
X136113679Y-100038076D01*
X136113676Y-100038079D01*
X136085499Y-100080248D01*
X136085498Y-100080252D01*
X136078100Y-100117439D01*
X136078100Y-100542560D01*
X136085498Y-100579747D01*
X136085499Y-100579751D01*
X136113676Y-100621920D01*
X136116032Y-100624276D01*
X136128758Y-100655000D01*
X136116032Y-100685724D01*
X136113676Y-100688079D01*
X136085499Y-100730248D01*
X136085498Y-100730252D01*
X136078100Y-100767439D01*
X136078100Y-101192560D01*
X136085498Y-101229747D01*
X136085499Y-101229751D01*
X136113676Y-101271920D01*
X136116032Y-101274276D01*
X136128758Y-101305000D01*
X136116032Y-101335724D01*
X136113676Y-101338079D01*
X136085499Y-101380248D01*
X136085498Y-101380252D01*
X136078100Y-101417439D01*
X136078100Y-101842560D01*
X136078608Y-101845113D01*
X136083968Y-101872059D01*
X136085498Y-101879747D01*
X136085499Y-101879751D01*
X136113676Y-101921920D01*
X136116032Y-101924276D01*
X136128758Y-101955000D01*
X136116032Y-101985724D01*
X136113676Y-101988079D01*
X136085499Y-102030248D01*
X136085498Y-102030252D01*
X136078100Y-102067439D01*
X136078100Y-102492560D01*
X136085498Y-102529747D01*
X136085499Y-102529751D01*
X136113676Y-102571920D01*
X136116392Y-102574636D01*
X136129118Y-102605360D01*
X136116392Y-102636084D01*
X136114038Y-102638437D01*
X136085969Y-102680447D01*
X136078600Y-102717490D01*
X136078600Y-102828400D01*
X137682600Y-102828400D01*
X137682600Y-102717490D01*
X137675230Y-102680447D01*
X137647161Y-102638437D01*
X137644808Y-102636084D01*
X137632082Y-102605360D01*
X137644808Y-102574636D01*
X137647518Y-102571924D01*
X137647522Y-102571922D01*
X137675702Y-102529748D01*
X137683100Y-102492558D01*
X137683100Y-102067442D01*
X137683100Y-102067439D01*
X137676620Y-102034869D01*
X137675702Y-102030252D01*
X137675700Y-102030249D01*
X137675700Y-102030248D01*
X137655549Y-102000090D01*
X137649061Y-101967473D01*
X137667536Y-101939823D01*
X137691676Y-101932500D01*
X138109625Y-101932500D01*
X138109631Y-101932499D01*
X138186561Y-101911885D01*
X138255539Y-101872060D01*
X138283090Y-101844509D01*
X139233000Y-101844509D01*
X139240369Y-101881552D01*
X139268438Y-101923561D01*
X139310447Y-101951630D01*
X139314011Y-101953107D01*
X139337526Y-101976622D01*
X139337527Y-102009877D01*
X139314011Y-102033393D01*
X139310447Y-102034869D01*
X139268438Y-102062938D01*
X139240369Y-102104947D01*
X139233000Y-102141990D01*
X139233000Y-102227900D01*
X139433400Y-102227900D01*
X139433400Y-102027500D01*
X139429874Y-102023974D01*
X139417148Y-101993250D01*
X139429874Y-101962526D01*
X139433400Y-101959000D01*
X139433400Y-101758600D01*
X139233000Y-101758600D01*
X139233000Y-101844509D01*
X138283090Y-101844509D01*
X138311860Y-101815739D01*
X138311859Y-101815739D01*
X138332386Y-101795212D01*
X138332385Y-101795212D01*
X138755374Y-101372226D01*
X138786098Y-101359500D01*
X139207821Y-101359500D01*
X139238545Y-101372226D01*
X139251271Y-101402950D01*
X139243949Y-101427088D01*
X139240370Y-101432443D01*
X139240369Y-101432447D01*
X139233000Y-101469490D01*
X139233000Y-101555400D01*
X139593150Y-101555400D01*
X139623874Y-101568126D01*
X139636600Y-101598850D01*
X139636600Y-101959000D01*
X139640126Y-101962526D01*
X139652852Y-101993250D01*
X139640126Y-102023974D01*
X139636600Y-102027500D01*
X139636600Y-102387650D01*
X139623874Y-102418374D01*
X139593150Y-102431100D01*
X139233000Y-102431100D01*
X139233000Y-102512550D01*
X139220274Y-102543274D01*
X139189550Y-102556000D01*
X139183417Y-102556000D01*
X139161619Y-102565028D01*
X139161619Y-102565029D01*
X139108991Y-102586828D01*
X139108989Y-102586829D01*
X138895363Y-102800455D01*
X138864639Y-102813181D01*
X138857842Y-102812646D01*
X138747501Y-102795170D01*
X138747499Y-102795170D01*
X138626262Y-102814372D01*
X138626261Y-102814372D01*
X138516895Y-102870096D01*
X138430096Y-102956895D01*
X138374372Y-103066261D01*
X138374372Y-103066262D01*
X138355170Y-103187499D01*
X138355170Y-103187500D01*
X138374372Y-103308737D01*
X138374372Y-103308738D01*
X138430096Y-103418104D01*
X138516895Y-103504903D01*
X138619143Y-103557000D01*
X138626263Y-103560628D01*
X138715123Y-103574702D01*
X138747499Y-103579830D01*
X138747500Y-103579830D01*
X138747501Y-103579830D01*
X138764077Y-103577204D01*
X138868737Y-103560628D01*
X138978106Y-103504902D01*
X139064902Y-103418106D01*
X139068899Y-103410263D01*
X139110734Y-103328155D01*
X139136021Y-103306557D01*
X139169173Y-103309166D01*
X139190771Y-103334453D01*
X139192363Y-103354676D01*
X139188670Y-103377997D01*
X139188670Y-103378000D01*
X139207872Y-103499237D01*
X139207872Y-103499238D01*
X139263596Y-103608604D01*
X139350395Y-103695403D01*
X139436745Y-103739400D01*
X139459763Y-103751128D01*
X139558183Y-103766716D01*
X139580999Y-103770330D01*
X139581000Y-103770330D01*
X139581001Y-103770330D01*
X139597577Y-103767704D01*
X139702237Y-103751128D01*
X139811606Y-103695402D01*
X139898402Y-103608606D01*
X139922264Y-103561772D01*
X139947550Y-103540176D01*
X139980703Y-103542784D01*
X140002301Y-103568071D01*
X140003893Y-103574702D01*
X140016253Y-103652737D01*
X140016253Y-103652738D01*
X140071977Y-103762104D01*
X140071979Y-103762106D01*
X140158775Y-103848902D01*
X140174875Y-103857105D01*
X140196474Y-103882392D01*
X140193866Y-103915544D01*
X140185875Y-103926544D01*
X139934118Y-104178301D01*
X139903394Y-104191027D01*
X139896598Y-104190492D01*
X139827001Y-104179470D01*
X139826999Y-104179470D01*
X139705762Y-104198672D01*
X139705761Y-104198672D01*
X139596395Y-104254396D01*
X139509596Y-104341195D01*
X139453872Y-104450561D01*
X139453872Y-104450562D01*
X139434670Y-104571799D01*
X139434670Y-104571800D01*
X139453872Y-104693037D01*
X139453872Y-104693038D01*
X139509596Y-104802404D01*
X139596395Y-104889203D01*
X139705441Y-104944764D01*
X139705763Y-104944928D01*
X139804183Y-104960516D01*
X139826999Y-104964130D01*
X139827000Y-104964130D01*
X139827001Y-104964130D01*
X139843577Y-104961504D01*
X139948237Y-104944928D01*
X140057606Y-104889202D01*
X140144402Y-104802406D01*
X140200128Y-104693037D01*
X140204188Y-104667400D01*
X140221563Y-104639046D01*
X140253899Y-104631282D01*
X140282254Y-104648657D01*
X140285817Y-104654471D01*
X140322396Y-104726262D01*
X140409195Y-104813061D01*
X140514445Y-104866688D01*
X140518563Y-104868786D01*
X140616983Y-104884374D01*
X140639799Y-104887988D01*
X140639800Y-104887988D01*
X140639801Y-104887988D01*
X140661759Y-104884510D01*
X140761037Y-104868786D01*
X140870406Y-104813060D01*
X140927500Y-104755964D01*
X140958223Y-104743238D01*
X140982362Y-104750560D01*
X141017742Y-104774200D01*
X141017743Y-104774201D01*
X141069518Y-104784500D01*
X141069520Y-104784500D01*
X141179724Y-104784500D01*
X141210448Y-104797226D01*
X141223174Y-104827950D01*
X141210448Y-104858674D01*
X141039867Y-105029253D01*
X141009143Y-105041979D01*
X140989417Y-105037243D01*
X140938838Y-105011472D01*
X140817601Y-104992270D01*
X140817599Y-104992270D01*
X140696362Y-105011472D01*
X140696361Y-105011472D01*
X140586995Y-105067196D01*
X140500198Y-105153993D01*
X140498747Y-105156841D01*
X140498077Y-105158158D01*
X140497966Y-105158375D01*
X140472679Y-105179973D01*
X140459251Y-105182100D01*
X140324220Y-105182100D01*
X140293496Y-105169374D01*
X140288095Y-105162793D01*
X140274922Y-105143078D01*
X140274921Y-105143077D01*
X140274920Y-105143076D01*
X140232751Y-105114899D01*
X140232748Y-105114898D01*
X140220351Y-105112432D01*
X140195560Y-105107500D01*
X140195558Y-105107500D01*
X139820442Y-105107500D01*
X139820440Y-105107500D01*
X139783252Y-105114898D01*
X139783248Y-105114899D01*
X139741079Y-105143076D01*
X139738724Y-105145432D01*
X139708000Y-105158158D01*
X139677276Y-105145432D01*
X139674920Y-105143076D01*
X139632751Y-105114899D01*
X139632748Y-105114898D01*
X139620351Y-105112432D01*
X139595560Y-105107500D01*
X139595558Y-105107500D01*
X139220442Y-105107500D01*
X139220440Y-105107500D01*
X139183252Y-105114898D01*
X139183248Y-105114899D01*
X139141079Y-105143076D01*
X139141076Y-105143079D01*
X139112899Y-105185248D01*
X139112898Y-105185252D01*
X139105500Y-105222439D01*
X139105500Y-105566030D01*
X139092774Y-105596754D01*
X139089102Y-105599889D01*
X139001596Y-105687395D01*
X138945872Y-105796761D01*
X138945872Y-105796762D01*
X138926670Y-105917999D01*
X138926670Y-105918000D01*
X138945872Y-106039237D01*
X138945872Y-106039238D01*
X139001596Y-106148604D01*
X139088395Y-106235403D01*
X139189563Y-106286950D01*
X139197763Y-106291128D01*
X139296183Y-106306716D01*
X139318999Y-106310330D01*
X139319000Y-106310330D01*
X139319001Y-106310330D01*
X139335577Y-106307704D01*
X139440237Y-106291128D01*
X139549606Y-106235402D01*
X139636402Y-106148606D01*
X139692128Y-106039237D01*
X139711330Y-105918000D01*
X139710281Y-105911380D01*
X139704836Y-105876999D01*
X139692128Y-105796763D01*
X139682022Y-105776930D01*
X139659733Y-105733185D01*
X139657123Y-105700033D01*
X139672139Y-105680197D01*
X139671892Y-105679951D01*
X139673679Y-105678163D01*
X139674309Y-105677331D01*
X139674922Y-105676922D01*
X139674928Y-105676912D01*
X139677272Y-105674570D01*
X139707995Y-105661841D01*
X139738720Y-105674564D01*
X139741079Y-105676923D01*
X139783248Y-105705100D01*
X139783249Y-105705100D01*
X139783252Y-105705102D01*
X139809855Y-105710394D01*
X139820440Y-105712500D01*
X139820442Y-105712500D01*
X140195560Y-105712500D01*
X140204825Y-105710656D01*
X140232748Y-105705102D01*
X140274922Y-105676922D01*
X140303102Y-105634748D01*
X140305624Y-105622071D01*
X140324101Y-105594421D01*
X140348239Y-105587100D01*
X140459251Y-105587100D01*
X140489975Y-105599826D01*
X140497966Y-105610825D01*
X140500198Y-105615206D01*
X140586995Y-105702003D01*
X140648194Y-105733185D01*
X140696363Y-105757728D01*
X140794783Y-105773316D01*
X140817599Y-105776930D01*
X140817600Y-105776930D01*
X140817601Y-105776930D01*
X140834464Y-105774259D01*
X140938837Y-105757728D01*
X141048206Y-105702002D01*
X141135002Y-105615206D01*
X141190728Y-105505837D01*
X141198810Y-105454801D01*
X141210999Y-105430877D01*
X141646171Y-104995707D01*
X141677000Y-104921280D01*
X141677000Y-104840720D01*
X141677000Y-104827950D01*
X141689726Y-104797226D01*
X141720450Y-104784500D01*
X141879482Y-104784500D01*
X141913998Y-104777634D01*
X141931257Y-104774201D01*
X141936145Y-104770934D01*
X141968758Y-104764444D01*
X141996411Y-104782917D01*
X142000426Y-104790427D01*
X142002312Y-104794979D01*
X142015888Y-104819843D01*
X142068314Y-104862089D01*
X142084251Y-104891274D01*
X142084500Y-104895920D01*
X142084500Y-105799482D01*
X142094798Y-105851256D01*
X142094800Y-105851260D01*
X142134026Y-105909966D01*
X142134033Y-105909973D01*
X142192739Y-105949199D01*
X142192743Y-105949201D01*
X142244518Y-105959500D01*
X142313548Y-105959500D01*
X142344272Y-105972226D01*
X142356998Y-106002950D01*
X142352262Y-106022676D01*
X142341156Y-106044471D01*
X142341154Y-106044477D01*
X142321953Y-106165712D01*
X142321953Y-106165713D01*
X142341155Y-106286950D01*
X142341155Y-106286951D01*
X142396880Y-106396318D01*
X142398891Y-106399086D01*
X142397765Y-106399903D01*
X142408583Y-106426019D01*
X142397600Y-106452534D01*
X142397600Y-106705400D01*
X142948000Y-106705400D01*
X142948000Y-106569490D01*
X142940630Y-106532447D01*
X142938993Y-106528493D01*
X142940916Y-106527696D01*
X142935902Y-106502446D01*
X142947789Y-106480214D01*
X143031685Y-106396319D01*
X143087411Y-106286950D01*
X143094135Y-106244495D01*
X143111511Y-106216141D01*
X143143847Y-106208378D01*
X143172202Y-106225754D01*
X143180500Y-106251293D01*
X143180500Y-106702650D01*
X143167774Y-106733374D01*
X143156779Y-106741363D01*
X143152394Y-106743597D01*
X143065596Y-106830395D01*
X143026656Y-106906820D01*
X143001369Y-106928417D01*
X142968216Y-106925808D01*
X142957218Y-106917818D01*
X142948000Y-106908600D01*
X142397600Y-106908600D01*
X142397600Y-107159000D01*
X142833509Y-107159000D01*
X142870552Y-107151630D01*
X142912562Y-107123561D01*
X142922035Y-107109383D01*
X142949685Y-107090905D01*
X142982301Y-107097391D01*
X143000779Y-107125041D01*
X143001079Y-107126723D01*
X143009872Y-107182237D01*
X143009872Y-107182238D01*
X143065596Y-107291604D01*
X143152395Y-107378403D01*
X143261761Y-107434127D01*
X143261763Y-107434128D01*
X143360183Y-107449716D01*
X143382999Y-107453330D01*
X143383000Y-107453330D01*
X143383001Y-107453330D01*
X143399577Y-107450704D01*
X143498738Y-107434999D01*
X145610000Y-107434999D01*
X145617369Y-107472042D01*
X145645438Y-107514051D01*
X145687447Y-107542120D01*
X145724491Y-107549490D01*
X145810400Y-107549490D01*
X146013600Y-107549490D01*
X146099509Y-107549490D01*
X146136552Y-107542120D01*
X146178561Y-107514051D01*
X146206630Y-107472042D01*
X146214000Y-107434999D01*
X146214000Y-107349090D01*
X146013600Y-107349090D01*
X146013600Y-107549490D01*
X145810400Y-107549490D01*
X145810400Y-107349090D01*
X145610000Y-107349090D01*
X145610000Y-107434999D01*
X143498738Y-107434999D01*
X143504237Y-107434128D01*
X143613606Y-107378402D01*
X143700402Y-107291606D01*
X143756128Y-107182237D01*
X143775330Y-107061000D01*
X143775168Y-107059980D01*
X143769301Y-107022937D01*
X143756128Y-106939763D01*
X143744947Y-106917818D01*
X143700403Y-106830395D01*
X143613605Y-106743597D01*
X143609221Y-106741363D01*
X143587626Y-106716074D01*
X143585500Y-106702650D01*
X143585500Y-106106321D01*
X143585500Y-106106320D01*
X143554671Y-106031893D01*
X143554669Y-106031891D01*
X143554668Y-106031888D01*
X143552293Y-106028333D01*
X143553557Y-106027488D01*
X143543159Y-106002383D01*
X143555885Y-105971659D01*
X143578132Y-105959768D01*
X143579479Y-105959500D01*
X143579480Y-105959500D01*
X143631257Y-105949201D01*
X143681132Y-105915875D01*
X143687860Y-105911380D01*
X143720477Y-105904892D01*
X143736140Y-105911380D01*
X143746046Y-105917999D01*
X143792740Y-105949199D01*
X143792742Y-105949200D01*
X143792743Y-105949201D01*
X143844518Y-105959500D01*
X143844520Y-105959500D01*
X143979482Y-105959500D01*
X144013998Y-105952634D01*
X144031257Y-105949201D01*
X144041910Y-105942082D01*
X144074525Y-105935594D01*
X144102176Y-105954068D01*
X144109500Y-105978209D01*
X144109500Y-106555269D01*
X144096774Y-106585993D01*
X144085776Y-106593983D01*
X144041395Y-106616596D01*
X143954596Y-106703395D01*
X143898872Y-106812761D01*
X143898872Y-106812762D01*
X143879670Y-106933999D01*
X143879670Y-106934000D01*
X143898872Y-107055237D01*
X143898872Y-107055238D01*
X143954596Y-107164604D01*
X144041395Y-107251403D01*
X144120295Y-107291604D01*
X144150763Y-107307128D01*
X144249183Y-107322716D01*
X144271999Y-107326330D01*
X144272000Y-107326330D01*
X144272001Y-107326330D01*
X144288577Y-107323704D01*
X144393237Y-107307128D01*
X144502606Y-107251402D01*
X144589402Y-107164606D01*
X144645128Y-107055237D01*
X144664330Y-106934000D01*
X144663417Y-106928238D01*
X144648659Y-106835058D01*
X144645128Y-106812763D01*
X144609887Y-106743598D01*
X144589403Y-106703395D01*
X144527226Y-106641218D01*
X144514500Y-106610494D01*
X144514500Y-106559406D01*
X144527226Y-106528682D01*
X144557950Y-106515956D01*
X144588674Y-106528682D01*
X144676395Y-106616403D01*
X144725098Y-106641218D01*
X144785763Y-106672128D01*
X144884183Y-106687716D01*
X144906999Y-106691330D01*
X144907000Y-106691330D01*
X144907001Y-106691330D01*
X144923577Y-106688704D01*
X145028237Y-106672128D01*
X145137606Y-106616402D01*
X145224402Y-106529606D01*
X145280128Y-106420237D01*
X145299330Y-106299000D01*
X145297421Y-106286950D01*
X145286206Y-106216141D01*
X145280128Y-106177763D01*
X145224402Y-106068394D01*
X145183602Y-106027594D01*
X145170876Y-105996870D01*
X145183602Y-105966146D01*
X145205849Y-105954255D01*
X145212912Y-105952849D01*
X145231257Y-105949201D01*
X145281132Y-105915875D01*
X145287860Y-105911380D01*
X145320477Y-105904892D01*
X145336140Y-105911380D01*
X145346046Y-105917999D01*
X145392740Y-105949199D01*
X145392742Y-105949200D01*
X145392743Y-105949201D01*
X145444518Y-105959500D01*
X145444520Y-105959500D01*
X145579482Y-105959500D01*
X145612936Y-105952845D01*
X145631257Y-105949201D01*
X145631257Y-105949200D01*
X145632573Y-105948939D01*
X145665189Y-105955426D01*
X145683665Y-105983077D01*
X145684500Y-105991554D01*
X145684500Y-106331012D01*
X145671774Y-106361736D01*
X145665195Y-106367135D01*
X145645224Y-106380480D01*
X145645075Y-106380580D01*
X145616899Y-106422748D01*
X145616898Y-106422752D01*
X145609500Y-106459939D01*
X145609500Y-106835060D01*
X145616898Y-106872247D01*
X145616899Y-106872251D01*
X145645076Y-106914420D01*
X145647787Y-106917131D01*
X145660513Y-106947855D01*
X145647787Y-106978579D01*
X145645438Y-106980927D01*
X145617369Y-107022937D01*
X145610000Y-107059980D01*
X145610000Y-107145890D01*
X146214000Y-107145890D01*
X146214000Y-107059980D01*
X146206630Y-107022937D01*
X146178561Y-106980927D01*
X146176213Y-106978579D01*
X146163487Y-106947855D01*
X146176213Y-106917131D01*
X146178918Y-106914424D01*
X146178922Y-106914422D01*
X146207102Y-106872248D01*
X146214500Y-106835058D01*
X146214500Y-106459942D01*
X146214500Y-106459939D01*
X146209314Y-106433872D01*
X146207102Y-106422752D01*
X146207100Y-106422749D01*
X146207100Y-106422748D01*
X146178924Y-106380580D01*
X146178922Y-106380579D01*
X146178922Y-106380578D01*
X146158808Y-106367137D01*
X146140335Y-106339487D01*
X146139500Y-106331012D01*
X146139500Y-105991554D01*
X146152226Y-105960830D01*
X146182950Y-105948104D01*
X146191427Y-105948939D01*
X146192742Y-105949200D01*
X146192743Y-105949201D01*
X146211063Y-105952845D01*
X146244518Y-105959500D01*
X146244520Y-105959500D01*
X146379482Y-105959500D01*
X146413998Y-105952634D01*
X146431257Y-105949201D01*
X146481132Y-105915875D01*
X146487860Y-105911380D01*
X146520477Y-105904892D01*
X146536140Y-105911380D01*
X146546046Y-105917999D01*
X146592740Y-105949199D01*
X146592742Y-105949200D01*
X146592743Y-105949201D01*
X146644518Y-105959500D01*
X146644520Y-105959500D01*
X146779482Y-105959500D01*
X146813998Y-105952634D01*
X146831257Y-105949201D01*
X146881132Y-105915875D01*
X146887860Y-105911380D01*
X146920477Y-105904892D01*
X146936140Y-105911380D01*
X146946046Y-105917999D01*
X146992740Y-105949199D01*
X146992742Y-105949200D01*
X146992743Y-105949201D01*
X147044518Y-105959500D01*
X147044520Y-105959500D01*
X147179482Y-105959500D01*
X147213998Y-105952634D01*
X147231257Y-105949201D01*
X147281132Y-105915875D01*
X147287860Y-105911380D01*
X147320477Y-105904892D01*
X147336140Y-105911380D01*
X147346046Y-105917999D01*
X147392740Y-105949199D01*
X147392742Y-105949200D01*
X147392743Y-105949201D01*
X147444518Y-105959500D01*
X147444520Y-105959500D01*
X147579482Y-105959500D01*
X147613998Y-105952634D01*
X147631257Y-105949201D01*
X147651621Y-105935594D01*
X147689966Y-105909973D01*
X147689966Y-105909972D01*
X147689970Y-105909970D01*
X147729201Y-105851257D01*
X147739500Y-105799480D01*
X147739500Y-105244009D01*
X152737010Y-105244009D01*
X152744379Y-105281052D01*
X152772448Y-105323061D01*
X152814457Y-105351130D01*
X152851501Y-105358500D01*
X152937410Y-105358500D01*
X152937410Y-105158100D01*
X152737010Y-105158100D01*
X152737010Y-105244009D01*
X147739500Y-105244009D01*
X147739500Y-104989520D01*
X147739500Y-104989517D01*
X147729201Y-104937743D01*
X147729200Y-104937741D01*
X147725934Y-104932854D01*
X147719444Y-104900238D01*
X147737919Y-104872587D01*
X147745429Y-104868572D01*
X147749979Y-104866688D01*
X147774843Y-104853112D01*
X147821688Y-104794979D01*
X147823569Y-104790436D01*
X147847080Y-104766920D01*
X147880335Y-104766915D01*
X147887854Y-104770934D01*
X147892741Y-104774200D01*
X147892743Y-104774201D01*
X147944518Y-104784500D01*
X147944520Y-104784500D01*
X148304247Y-104784500D01*
X148851446Y-104784500D01*
X148882170Y-104797226D01*
X148894361Y-104821153D01*
X148906252Y-104896235D01*
X148906254Y-104896241D01*
X148961977Y-105005604D01*
X149048776Y-105092403D01*
X149148229Y-105143076D01*
X149158144Y-105148128D01*
X149250710Y-105162789D01*
X149279380Y-105167330D01*
X149279381Y-105167330D01*
X149279382Y-105167330D01*
X149295958Y-105164704D01*
X149400618Y-105148128D01*
X149509987Y-105092402D01*
X149596783Y-105005606D01*
X149652509Y-104896237D01*
X149656824Y-104868990D01*
X152737010Y-104868990D01*
X152737010Y-104954900D01*
X152937410Y-104954900D01*
X152937410Y-104754500D01*
X152851501Y-104754500D01*
X152814457Y-104761869D01*
X152772448Y-104789938D01*
X152744379Y-104831947D01*
X152737010Y-104868990D01*
X149656824Y-104868990D01*
X149671711Y-104775000D01*
X149671584Y-104774201D01*
X149665371Y-104734970D01*
X149652509Y-104653763D01*
X149641706Y-104632561D01*
X149601428Y-104553509D01*
X151212000Y-104553509D01*
X151219369Y-104590552D01*
X151247438Y-104632561D01*
X151289447Y-104660630D01*
X151326491Y-104668000D01*
X151837400Y-104668000D01*
X152040600Y-104668000D01*
X152551509Y-104668000D01*
X152588552Y-104660630D01*
X152630561Y-104632561D01*
X152658630Y-104590552D01*
X152666000Y-104553509D01*
X152666000Y-103942600D01*
X152040600Y-103942600D01*
X152040600Y-104668000D01*
X151837400Y-104668000D01*
X151837400Y-103942600D01*
X151212000Y-103942600D01*
X151212000Y-104553509D01*
X149601428Y-104553509D01*
X149596784Y-104544395D01*
X149509985Y-104457596D01*
X149400619Y-104401872D01*
X149279382Y-104382670D01*
X149279379Y-104382670D01*
X149240301Y-104388858D01*
X149207964Y-104381094D01*
X149202781Y-104376667D01*
X149190250Y-104364136D01*
X149190249Y-104364135D01*
X149106634Y-104329500D01*
X149106632Y-104329500D01*
X148946554Y-104329500D01*
X148915830Y-104316774D01*
X148903104Y-104286050D01*
X148903939Y-104277573D01*
X148914500Y-104224482D01*
X148914500Y-104089517D01*
X148904201Y-104037743D01*
X148904200Y-104037742D01*
X148866380Y-103981140D01*
X148859892Y-103948523D01*
X148866380Y-103932860D01*
X148877950Y-103915544D01*
X148904201Y-103876257D01*
X148914500Y-103824480D01*
X148914500Y-103689520D01*
X148914500Y-103689517D01*
X148904201Y-103637743D01*
X148904200Y-103637742D01*
X148866380Y-103581140D01*
X148859892Y-103548523D01*
X148866380Y-103532860D01*
X148883659Y-103507000D01*
X148904201Y-103476257D01*
X148914500Y-103424480D01*
X148914500Y-103289520D01*
X148914500Y-103289517D01*
X148904201Y-103237743D01*
X148904200Y-103237742D01*
X148900363Y-103232000D01*
X148866078Y-103180689D01*
X148859591Y-103148073D01*
X148866079Y-103132410D01*
X148868698Y-103128490D01*
X151212000Y-103128490D01*
X151212000Y-103739400D01*
X151837400Y-103739400D01*
X151837400Y-103014000D01*
X151326491Y-103014000D01*
X151289447Y-103021369D01*
X151247438Y-103049438D01*
X151219369Y-103091447D01*
X151212000Y-103128490D01*
X148868698Y-103128490D01*
X148903729Y-103076064D01*
X148903730Y-103076061D01*
X148907523Y-103057000D01*
X148292950Y-103057000D01*
X148262226Y-103044274D01*
X148249500Y-103013550D01*
X148249500Y-102900450D01*
X148262226Y-102869726D01*
X148292950Y-102857000D01*
X148907522Y-102857000D01*
X148907522Y-102856999D01*
X148903431Y-102836425D01*
X148909920Y-102803809D01*
X148937571Y-102785335D01*
X148946046Y-102784500D01*
X152242769Y-102784500D01*
X152273493Y-102797226D01*
X152416093Y-102939826D01*
X152428819Y-102970550D01*
X152416093Y-103001274D01*
X152385369Y-103014000D01*
X152040600Y-103014000D01*
X152040600Y-103739400D01*
X152666000Y-103739400D01*
X152666000Y-103294631D01*
X152678726Y-103263907D01*
X152709450Y-103251181D01*
X152740174Y-103263907D01*
X152898774Y-103422507D01*
X152911500Y-103453231D01*
X152911500Y-104553560D01*
X152918898Y-104590747D01*
X152918899Y-104590751D01*
X152947076Y-104632920D01*
X152947079Y-104632923D01*
X152989248Y-104661100D01*
X152989249Y-104661100D01*
X152989252Y-104661102D01*
X153015855Y-104666394D01*
X153026440Y-104668500D01*
X153026442Y-104668500D01*
X153121712Y-104668500D01*
X153152436Y-104681226D01*
X153165162Y-104711950D01*
X153152436Y-104742674D01*
X153140610Y-104754500D01*
X153140610Y-105358500D01*
X153226519Y-105358500D01*
X153263562Y-105351130D01*
X153305572Y-105323061D01*
X153307921Y-105320713D01*
X153338645Y-105307987D01*
X153369369Y-105320713D01*
X153372079Y-105323423D01*
X153414248Y-105351600D01*
X153414249Y-105351600D01*
X153414252Y-105351602D01*
X153440855Y-105356894D01*
X153451440Y-105359000D01*
X153451442Y-105359000D01*
X153826560Y-105359000D01*
X153835825Y-105357156D01*
X153863748Y-105351602D01*
X153905922Y-105323422D01*
X153934102Y-105281248D01*
X153939656Y-105253325D01*
X153941500Y-105244060D01*
X153941500Y-104868939D01*
X153937820Y-104850444D01*
X153934102Y-104831752D01*
X153934100Y-104831749D01*
X153934100Y-104831748D01*
X153905924Y-104789580D01*
X153905922Y-104789579D01*
X153905922Y-104789578D01*
X153885808Y-104776137D01*
X153867335Y-104748487D01*
X153866500Y-104740012D01*
X153866500Y-104711950D01*
X153879226Y-104681226D01*
X153909950Y-104668500D01*
X154251560Y-104668500D01*
X154260825Y-104666656D01*
X154288748Y-104661102D01*
X154330922Y-104632922D01*
X154359102Y-104590748D01*
X154366500Y-104553558D01*
X154366500Y-103128442D01*
X154366500Y-103128439D01*
X154363734Y-103114540D01*
X154359102Y-103091252D01*
X154359100Y-103091249D01*
X154359100Y-103091248D01*
X154330923Y-103049079D01*
X154330920Y-103049076D01*
X154288751Y-103020899D01*
X154288748Y-103020898D01*
X154276351Y-103018432D01*
X154251560Y-103013500D01*
X154251558Y-103013500D01*
X153151231Y-103013500D01*
X153120507Y-103000774D01*
X152621441Y-102501708D01*
X152608715Y-102470984D01*
X152621441Y-102440260D01*
X152628027Y-102434856D01*
X152630922Y-102432922D01*
X152659102Y-102390748D01*
X152664656Y-102362825D01*
X152666500Y-102353560D01*
X152666500Y-102353509D01*
X152912000Y-102353509D01*
X152919369Y-102390552D01*
X152947438Y-102432561D01*
X152989447Y-102460630D01*
X153026491Y-102468000D01*
X153537400Y-102468000D01*
X153740600Y-102468000D01*
X154251509Y-102468000D01*
X154288552Y-102460630D01*
X154330561Y-102432561D01*
X154358630Y-102390552D01*
X154366000Y-102353509D01*
X154366000Y-101742600D01*
X153740600Y-101742600D01*
X153740600Y-102468000D01*
X153537400Y-102468000D01*
X153537400Y-101742600D01*
X152912000Y-101742600D01*
X152912000Y-102353509D01*
X152666500Y-102353509D01*
X152666500Y-100928490D01*
X152912000Y-100928490D01*
X152912000Y-101539400D01*
X153537400Y-101539400D01*
X153740600Y-101539400D01*
X154366000Y-101539400D01*
X154366000Y-100928490D01*
X154358630Y-100891447D01*
X154330561Y-100849438D01*
X154288552Y-100821369D01*
X154251509Y-100814000D01*
X153740600Y-100814000D01*
X153740600Y-101539400D01*
X153537400Y-101539400D01*
X153537400Y-100814000D01*
X153026491Y-100814000D01*
X152989447Y-100821369D01*
X152947438Y-100849438D01*
X152919369Y-100891447D01*
X152912000Y-100928490D01*
X152666500Y-100928490D01*
X152666500Y-100928439D01*
X152662470Y-100908184D01*
X152659102Y-100891252D01*
X152659100Y-100891249D01*
X152659100Y-100891248D01*
X152630923Y-100849079D01*
X152630920Y-100849076D01*
X152588751Y-100820899D01*
X152588748Y-100820898D01*
X152576351Y-100818432D01*
X152551560Y-100813500D01*
X152551558Y-100813500D01*
X152209950Y-100813500D01*
X152179226Y-100800774D01*
X152166500Y-100770050D01*
X152166500Y-100740987D01*
X152179226Y-100710263D01*
X152185805Y-100704863D01*
X152205922Y-100691422D01*
X152205924Y-100691418D01*
X152208631Y-100688713D01*
X152239355Y-100675987D01*
X152270079Y-100688713D01*
X152272427Y-100691061D01*
X152314437Y-100719130D01*
X152351481Y-100726500D01*
X152437390Y-100726500D01*
X152640590Y-100726500D01*
X152726499Y-100726500D01*
X152763542Y-100719130D01*
X152805551Y-100691061D01*
X152833620Y-100649052D01*
X152840990Y-100612009D01*
X152840990Y-100526100D01*
X152640590Y-100526100D01*
X152640590Y-100726500D01*
X152437390Y-100726500D01*
X152437390Y-100322900D01*
X152640590Y-100322900D01*
X152840990Y-100322900D01*
X152840990Y-100236990D01*
X152833620Y-100199947D01*
X152805551Y-100157938D01*
X152763542Y-100129869D01*
X152726499Y-100122500D01*
X152640590Y-100122500D01*
X152640590Y-100322900D01*
X152437390Y-100322900D01*
X152437390Y-100122500D01*
X152351481Y-100122500D01*
X152314437Y-100129869D01*
X152272427Y-100157938D01*
X152270079Y-100160287D01*
X152239355Y-100173013D01*
X152208631Y-100160287D01*
X152205920Y-100157576D01*
X152163751Y-100129399D01*
X152163748Y-100129398D01*
X152151351Y-100126932D01*
X152126560Y-100122000D01*
X152126558Y-100122000D01*
X151751442Y-100122000D01*
X151751440Y-100122000D01*
X151714252Y-100129398D01*
X151714248Y-100129399D01*
X151672079Y-100157576D01*
X151672076Y-100157579D01*
X151643899Y-100199748D01*
X151643898Y-100199752D01*
X151636500Y-100236939D01*
X151636500Y-100612060D01*
X151643898Y-100649247D01*
X151643899Y-100649251D01*
X151672076Y-100691420D01*
X151672077Y-100691421D01*
X151672078Y-100691422D01*
X151692189Y-100704860D01*
X151710665Y-100732509D01*
X151711500Y-100740987D01*
X151711500Y-100770050D01*
X151698774Y-100800774D01*
X151668050Y-100813500D01*
X151326440Y-100813500D01*
X151289252Y-100820898D01*
X151289248Y-100820899D01*
X151247079Y-100849076D01*
X151247076Y-100849079D01*
X151218899Y-100891248D01*
X151218898Y-100891252D01*
X151211500Y-100928439D01*
X151211500Y-101820550D01*
X151198774Y-101851274D01*
X151168050Y-101864000D01*
X150754249Y-101864000D01*
X150723525Y-101851274D01*
X150710799Y-101820550D01*
X150723525Y-101789826D01*
X150730110Y-101784422D01*
X150769562Y-101758061D01*
X150797630Y-101716052D01*
X150805000Y-101679009D01*
X150805000Y-101593100D01*
X150444850Y-101593100D01*
X150414126Y-101580374D01*
X150401400Y-101549650D01*
X150401400Y-101389900D01*
X150604600Y-101389900D01*
X150805000Y-101389900D01*
X150805000Y-101303990D01*
X150797630Y-101266947D01*
X150769561Y-101224937D01*
X150766848Y-101222224D01*
X150754122Y-101191500D01*
X150766848Y-101160776D01*
X150769561Y-101158062D01*
X150797630Y-101116052D01*
X150805000Y-101079009D01*
X150805000Y-100993100D01*
X150604600Y-100993100D01*
X150604600Y-101389900D01*
X150401400Y-101389900D01*
X150401400Y-100833350D01*
X150414126Y-100802626D01*
X150444850Y-100789900D01*
X150805000Y-100789900D01*
X150805000Y-100703990D01*
X150797630Y-100666947D01*
X150769561Y-100624938D01*
X150727552Y-100596869D01*
X150727552Y-100596868D01*
X150723008Y-100595965D01*
X150695357Y-100577489D01*
X150688870Y-100544873D01*
X150707346Y-100517222D01*
X150731485Y-100509900D01*
X150989678Y-100509900D01*
X150989680Y-100509900D01*
X151064107Y-100479071D01*
X151944671Y-99598507D01*
X151975500Y-99524080D01*
X151975500Y-99443521D01*
X151975500Y-99037348D01*
X151988226Y-99006624D01*
X151999221Y-98998635D01*
X152003606Y-98996402D01*
X152090402Y-98909606D01*
X152146128Y-98800237D01*
X152165330Y-98679000D01*
X152164205Y-98671900D01*
X152157006Y-98626445D01*
X152146128Y-98557763D01*
X152116351Y-98499322D01*
X152090403Y-98448395D01*
X152003604Y-98361596D01*
X151894238Y-98305872D01*
X151773001Y-98286670D01*
X151772999Y-98286670D01*
X151651762Y-98305872D01*
X151651761Y-98305872D01*
X151542395Y-98361596D01*
X151455596Y-98448395D01*
X151399872Y-98557761D01*
X151399872Y-98557762D01*
X151380670Y-98678999D01*
X151380670Y-98679000D01*
X151399872Y-98800237D01*
X151399872Y-98800238D01*
X151440827Y-98880618D01*
X151443436Y-98913771D01*
X151421839Y-98939058D01*
X151388689Y-98941668D01*
X151386240Y-98940872D01*
X151265001Y-98921670D01*
X151264999Y-98921670D01*
X151143762Y-98940872D01*
X151143761Y-98940872D01*
X151034395Y-98996596D01*
X150947596Y-99083395D01*
X150891872Y-99192761D01*
X150891872Y-99192762D01*
X150872670Y-99313999D01*
X150872670Y-99314000D01*
X150891872Y-99435237D01*
X150891872Y-99435238D01*
X150940663Y-99530998D01*
X150943272Y-99564151D01*
X150932673Y-99581447D01*
X150879674Y-99634447D01*
X150848950Y-99647174D01*
X150818227Y-99634448D01*
X150805500Y-99603724D01*
X150805500Y-99507439D01*
X150802528Y-99492500D01*
X150798102Y-99470252D01*
X150798100Y-99470249D01*
X150798100Y-99470248D01*
X150769924Y-99428080D01*
X150769922Y-99428079D01*
X150769922Y-99428078D01*
X150749808Y-99414637D01*
X150731335Y-99386987D01*
X150730500Y-99378512D01*
X150730500Y-98895748D01*
X150724233Y-98880618D01*
X150695865Y-98812132D01*
X150631868Y-98748135D01*
X150385331Y-98501598D01*
X150372605Y-98470874D01*
X150373139Y-98464084D01*
X150379330Y-98425000D01*
X150378696Y-98421000D01*
X150372508Y-98381927D01*
X150360128Y-98303763D01*
X150346703Y-98277414D01*
X150304403Y-98194395D01*
X150217604Y-98107596D01*
X150108238Y-98051872D01*
X149987001Y-98032670D01*
X149986999Y-98032670D01*
X149865762Y-98051872D01*
X149865761Y-98051872D01*
X149756395Y-98107596D01*
X149669596Y-98194395D01*
X149613872Y-98303761D01*
X149613872Y-98303762D01*
X149594670Y-98424999D01*
X149594670Y-98425000D01*
X149613872Y-98546237D01*
X149613872Y-98546238D01*
X149669596Y-98655604D01*
X149756395Y-98742403D01*
X149797813Y-98763506D01*
X149865763Y-98798128D01*
X149954181Y-98812132D01*
X149986999Y-98817330D01*
X149986999Y-98817329D01*
X149987000Y-98817330D01*
X150026077Y-98811140D01*
X150058413Y-98818903D01*
X150063598Y-98823331D01*
X150262774Y-99022507D01*
X150275500Y-99053231D01*
X150275500Y-99378512D01*
X150262774Y-99409236D01*
X150256195Y-99414635D01*
X150247609Y-99420373D01*
X150236075Y-99428080D01*
X150233721Y-99430435D01*
X150202996Y-99443158D01*
X150172276Y-99430432D01*
X150169920Y-99428076D01*
X150127751Y-99399899D01*
X150127748Y-99399898D01*
X150115351Y-99397432D01*
X150090560Y-99392500D01*
X150090558Y-99392500D01*
X149715442Y-99392500D01*
X149715440Y-99392500D01*
X149678252Y-99399898D01*
X149678248Y-99399899D01*
X149636079Y-99428076D01*
X149636076Y-99428079D01*
X149605934Y-99473190D01*
X149578283Y-99491665D01*
X149569807Y-99492500D01*
X149499787Y-99492500D01*
X149469063Y-99479774D01*
X149456337Y-99449050D01*
X149468112Y-99420619D01*
X149467773Y-99420373D01*
X149468801Y-99418957D01*
X149469063Y-99418326D01*
X149469783Y-99417606D01*
X149525509Y-99308237D01*
X149544711Y-99187000D01*
X149525509Y-99065763D01*
X149503469Y-99022507D01*
X149469784Y-98956395D01*
X149382985Y-98869596D01*
X149273619Y-98813872D01*
X149152382Y-98794670D01*
X149152380Y-98794670D01*
X149031143Y-98813872D01*
X149031142Y-98813872D01*
X148921776Y-98869596D01*
X148834977Y-98956395D01*
X148779253Y-99065761D01*
X148779253Y-99065762D01*
X148774963Y-99092847D01*
X148757587Y-99121202D01*
X148732048Y-99129500D01*
X148661331Y-99129500D01*
X148630607Y-99116774D01*
X148617881Y-99086050D01*
X148617881Y-98763506D01*
X148630607Y-98732782D01*
X148658389Y-98705000D01*
X148707783Y-98655606D01*
X148763509Y-98546237D01*
X148782711Y-98425000D01*
X148782077Y-98421000D01*
X148775889Y-98381927D01*
X148763509Y-98303763D01*
X148750084Y-98277414D01*
X148707784Y-98194395D01*
X148620985Y-98107596D01*
X148511619Y-98051872D01*
X148390382Y-98032670D01*
X148390380Y-98032670D01*
X148269143Y-98051872D01*
X148269142Y-98051872D01*
X148159776Y-98107596D01*
X148072977Y-98194395D01*
X148017253Y-98303761D01*
X148017253Y-98303762D01*
X147998051Y-98424999D01*
X147998051Y-98425000D01*
X148017253Y-98546237D01*
X148017253Y-98546238D01*
X148072977Y-98655604D01*
X148150155Y-98732782D01*
X148162881Y-98763506D01*
X148162881Y-99086050D01*
X148150155Y-99116774D01*
X148119431Y-99129500D01*
X147944518Y-99129500D01*
X147892743Y-99139798D01*
X147892739Y-99139800D01*
X147887851Y-99143067D01*
X147855235Y-99149554D01*
X147827585Y-99131077D01*
X147823571Y-99123567D01*
X147821692Y-99119031D01*
X147821688Y-99119021D01*
X147808112Y-99094157D01*
X147749979Y-99047312D01*
X147745433Y-99045429D01*
X147721918Y-99021915D01*
X147721917Y-98988659D01*
X147725930Y-98981152D01*
X147729201Y-98976257D01*
X147733152Y-98956394D01*
X147739500Y-98924482D01*
X147739500Y-97840955D01*
X147752226Y-97810231D01*
X147776153Y-97798040D01*
X147876618Y-97782128D01*
X147985987Y-97726402D01*
X148072783Y-97639606D01*
X148128509Y-97530237D01*
X148147711Y-97409000D01*
X148146874Y-97403718D01*
X148138621Y-97351608D01*
X148128509Y-97287763D01*
X148124032Y-97278977D01*
X148072784Y-97178395D01*
X148012888Y-97118499D01*
X149086670Y-97118499D01*
X149086670Y-97118500D01*
X149105872Y-97239737D01*
X149105872Y-97239738D01*
X149161596Y-97349104D01*
X149248395Y-97435903D01*
X149346207Y-97485740D01*
X149357763Y-97491628D01*
X149456183Y-97507216D01*
X149478999Y-97510830D01*
X149479000Y-97510830D01*
X149479001Y-97510830D01*
X149495577Y-97508204D01*
X149600237Y-97491628D01*
X149709606Y-97435902D01*
X149796402Y-97349106D01*
X149852128Y-97239737D01*
X149867443Y-97143040D01*
X150175000Y-97143040D01*
X150190926Y-97223104D01*
X150190927Y-97223108D01*
X150251592Y-97313900D01*
X150251599Y-97313907D01*
X150342391Y-97374572D01*
X150342395Y-97374573D01*
X150422460Y-97390500D01*
X150520400Y-97390500D01*
X150723600Y-97390500D01*
X150821540Y-97390500D01*
X150901604Y-97374573D01*
X150901608Y-97374572D01*
X150992400Y-97313907D01*
X150992407Y-97313900D01*
X151053072Y-97223108D01*
X151053073Y-97223104D01*
X151069000Y-97143040D01*
X151069000Y-97070100D01*
X150723600Y-97070100D01*
X150723600Y-97390500D01*
X150520400Y-97390500D01*
X150520400Y-97070100D01*
X150175000Y-97070100D01*
X150175000Y-97143040D01*
X149867443Y-97143040D01*
X149871330Y-97118500D01*
X149871096Y-97117025D01*
X149868288Y-97099297D01*
X149852128Y-96997263D01*
X149847928Y-96989020D01*
X149796403Y-96887895D01*
X149773142Y-96864634D01*
X149760416Y-96833910D01*
X149767739Y-96809770D01*
X149774102Y-96800248D01*
X149775353Y-96793959D01*
X150175000Y-96793959D01*
X150175000Y-96866900D01*
X150520400Y-96866900D01*
X150723600Y-96866900D01*
X151069000Y-96866900D01*
X151069000Y-96793959D01*
X151053073Y-96713895D01*
X151053072Y-96713891D01*
X150992407Y-96623099D01*
X150992400Y-96623092D01*
X150901608Y-96562427D01*
X150901604Y-96562426D01*
X150821540Y-96546500D01*
X150723600Y-96546500D01*
X150723600Y-96866900D01*
X150520400Y-96866900D01*
X150520400Y-96546500D01*
X150422460Y-96546500D01*
X150342395Y-96562426D01*
X150342391Y-96562427D01*
X150251599Y-96623092D01*
X150251592Y-96623099D01*
X150190927Y-96713891D01*
X150190926Y-96713895D01*
X150175000Y-96793959D01*
X149775353Y-96793959D01*
X149776568Y-96787851D01*
X149781500Y-96763060D01*
X149781500Y-96387939D01*
X149777732Y-96369000D01*
X149774102Y-96350752D01*
X149774100Y-96350749D01*
X149774100Y-96350748D01*
X149745923Y-96308579D01*
X149743568Y-96306224D01*
X149730842Y-96275500D01*
X149743568Y-96244776D01*
X149745918Y-96242424D01*
X149745922Y-96242422D01*
X149750967Y-96234871D01*
X149759361Y-96222310D01*
X149787012Y-96203835D01*
X149795488Y-96203000D01*
X150144792Y-96203000D01*
X150175516Y-96215726D01*
X150187407Y-96237975D01*
X150190454Y-96253298D01*
X150190455Y-96253300D01*
X150251234Y-96344262D01*
X150251237Y-96344265D01*
X150296718Y-96374654D01*
X150342200Y-96405045D01*
X150395794Y-96415705D01*
X150422410Y-96421000D01*
X150422412Y-96421000D01*
X150821590Y-96421000D01*
X150841573Y-96417024D01*
X150901800Y-96405045D01*
X150992764Y-96344264D01*
X151053545Y-96253300D01*
X151065524Y-96193073D01*
X151069500Y-96173090D01*
X151069500Y-95823909D01*
X151062345Y-95787942D01*
X151053545Y-95743700D01*
X151011248Y-95680399D01*
X150992765Y-95652737D01*
X150992762Y-95652734D01*
X150901800Y-95591955D01*
X150821590Y-95576000D01*
X150821588Y-95576000D01*
X150422412Y-95576000D01*
X150422410Y-95576000D01*
X150342200Y-95591955D01*
X150342199Y-95591955D01*
X150251237Y-95652734D01*
X150251234Y-95652737D01*
X150200484Y-95728690D01*
X150172833Y-95747165D01*
X150164357Y-95748000D01*
X149795488Y-95748000D01*
X149764764Y-95735274D01*
X149759361Y-95728690D01*
X149745923Y-95708579D01*
X149745920Y-95708576D01*
X149703751Y-95680399D01*
X149703748Y-95680398D01*
X149691351Y-95677932D01*
X149666560Y-95673000D01*
X149666558Y-95673000D01*
X149291442Y-95673000D01*
X149291440Y-95673000D01*
X149254252Y-95680398D01*
X149254248Y-95680399D01*
X149212079Y-95708576D01*
X149212076Y-95708579D01*
X149183899Y-95750748D01*
X149183898Y-95750752D01*
X149176500Y-95787939D01*
X149176500Y-96163060D01*
X149183898Y-96200247D01*
X149183899Y-96200251D01*
X149212076Y-96242420D01*
X149214432Y-96244776D01*
X149227158Y-96275500D01*
X149214432Y-96306224D01*
X149212076Y-96308579D01*
X149183899Y-96350748D01*
X149183898Y-96350752D01*
X149176500Y-96387939D01*
X149176500Y-96763060D01*
X149183898Y-96800247D01*
X149183899Y-96800251D01*
X149190260Y-96809770D01*
X149196748Y-96842386D01*
X149184858Y-96864633D01*
X149161596Y-96887896D01*
X149105872Y-96997261D01*
X149105872Y-96997262D01*
X149086670Y-97118499D01*
X148012888Y-97118499D01*
X147985985Y-97091596D01*
X147876619Y-97035872D01*
X147755382Y-97016670D01*
X147755380Y-97016670D01*
X147634143Y-97035872D01*
X147634142Y-97035872D01*
X147524776Y-97091596D01*
X147437977Y-97178395D01*
X147421664Y-97210413D01*
X147396377Y-97232010D01*
X147363224Y-97229401D01*
X147341627Y-97204114D01*
X147339500Y-97190687D01*
X147339500Y-96946350D01*
X147352226Y-96915626D01*
X147376151Y-96903436D01*
X147441237Y-96893128D01*
X147550606Y-96837402D01*
X147637402Y-96750606D01*
X147693128Y-96641237D01*
X147712330Y-96520000D01*
X147712012Y-96517995D01*
X147702288Y-96456598D01*
X147693128Y-96398763D01*
X147688688Y-96390048D01*
X147637403Y-96289395D01*
X147550604Y-96202596D01*
X147441238Y-96146872D01*
X147320001Y-96127670D01*
X147319999Y-96127670D01*
X147198762Y-96146872D01*
X147198761Y-96146872D01*
X147089395Y-96202596D01*
X147002596Y-96289395D01*
X146946872Y-96398761D01*
X146946872Y-96398762D01*
X146927670Y-96519999D01*
X146927670Y-96520000D01*
X146933859Y-96559078D01*
X146926096Y-96591415D01*
X146921671Y-96596596D01*
X146919135Y-96599131D01*
X146907441Y-96627363D01*
X146885760Y-96679707D01*
X146884500Y-96682748D01*
X146884500Y-96851669D01*
X146871774Y-96882393D01*
X146841050Y-96895119D01*
X146810326Y-96882393D01*
X146618972Y-96691039D01*
X146606781Y-96667111D01*
X146605762Y-96660678D01*
X146604509Y-96652763D01*
X146604508Y-96652761D01*
X146604507Y-96652758D01*
X146548784Y-96543395D01*
X146461985Y-96456596D01*
X146352619Y-96400872D01*
X146231382Y-96381670D01*
X146231380Y-96381670D01*
X146110143Y-96400872D01*
X146110142Y-96400872D01*
X146000776Y-96456596D01*
X145913977Y-96543395D01*
X145864741Y-96640027D01*
X145839454Y-96661624D01*
X145806301Y-96659015D01*
X145791329Y-96642817D01*
X145789683Y-96643917D01*
X145764850Y-96606752D01*
X145764847Y-96606749D01*
X145731245Y-96584296D01*
X145731241Y-96584294D01*
X145701607Y-96578400D01*
X145567400Y-96578400D01*
X145567400Y-96862350D01*
X145554674Y-96893074D01*
X145523950Y-96905800D01*
X145240001Y-96905800D01*
X145240001Y-97040002D01*
X145245895Y-97069642D01*
X145268349Y-97103247D01*
X145268410Y-97103288D01*
X145268450Y-97103348D01*
X145271377Y-97106275D01*
X145270795Y-97106856D01*
X145286890Y-97130936D01*
X145280407Y-97163553D01*
X145268417Y-97175545D01*
X145249680Y-97188065D01*
X145249676Y-97188069D01*
X145221499Y-97230238D01*
X145221498Y-97230242D01*
X145214100Y-97267429D01*
X145214100Y-97363985D01*
X145201374Y-97394709D01*
X145170650Y-97407435D01*
X145150924Y-97402699D01*
X145079038Y-97366072D01*
X144957801Y-97346870D01*
X144957799Y-97346870D01*
X144836562Y-97366072D01*
X144836561Y-97366072D01*
X144762676Y-97403718D01*
X144729523Y-97406327D01*
X144704236Y-97384730D01*
X144699500Y-97365004D01*
X144699500Y-97014106D01*
X144712226Y-96983382D01*
X144716402Y-96979206D01*
X144772128Y-96869837D01*
X144791330Y-96748600D01*
X144778880Y-96669992D01*
X145240000Y-96669992D01*
X145240000Y-96804200D01*
X145465800Y-96804200D01*
X145465800Y-96578400D01*
X145331597Y-96578400D01*
X145301957Y-96584295D01*
X145268352Y-96606749D01*
X145268349Y-96606752D01*
X145245896Y-96640354D01*
X145245894Y-96640358D01*
X145240000Y-96669992D01*
X144778880Y-96669992D01*
X144772128Y-96627363D01*
X144751715Y-96587300D01*
X144716403Y-96517995D01*
X144629604Y-96431196D01*
X144520238Y-96375472D01*
X144399001Y-96356270D01*
X144398999Y-96356270D01*
X144277762Y-96375472D01*
X144277761Y-96375472D01*
X144168395Y-96431196D01*
X144081596Y-96517995D01*
X144025872Y-96627361D01*
X144025872Y-96627362D01*
X144006670Y-96748599D01*
X144006670Y-96748600D01*
X144025872Y-96869837D01*
X144025872Y-96869838D01*
X144081596Y-96979204D01*
X144081598Y-96979206D01*
X144168394Y-97066002D01*
X144220776Y-97092691D01*
X144242373Y-97117978D01*
X144244500Y-97131405D01*
X144244500Y-97179271D01*
X144231774Y-97209995D01*
X144201050Y-97222721D01*
X144181324Y-97217985D01*
X144129855Y-97191760D01*
X144129849Y-97191758D01*
X144018001Y-97174044D01*
X144017999Y-97174044D01*
X143906150Y-97191758D01*
X143906144Y-97191760D01*
X143802676Y-97244480D01*
X143769523Y-97247089D01*
X143744236Y-97225492D01*
X143739500Y-97205766D01*
X143739500Y-96984747D01*
X143739499Y-96984745D01*
X143739406Y-96984520D01*
X143725301Y-96950468D01*
X143704866Y-96901132D01*
X143654331Y-96850597D01*
X143641605Y-96819873D01*
X143642139Y-96813084D01*
X143648330Y-96774000D01*
X143629128Y-96652763D01*
X143614010Y-96623092D01*
X143573403Y-96543395D01*
X143486604Y-96456596D01*
X143377238Y-96400872D01*
X143256001Y-96381670D01*
X143255999Y-96381670D01*
X143134762Y-96400872D01*
X143134761Y-96400872D01*
X143025395Y-96456596D01*
X142938596Y-96543395D01*
X142882872Y-96652761D01*
X142882872Y-96652762D01*
X142863670Y-96773999D01*
X142863670Y-96774000D01*
X142882872Y-96895237D01*
X142882872Y-96895238D01*
X142938596Y-97004604D01*
X143025395Y-97091403D01*
X143125480Y-97142398D01*
X143134763Y-97147128D01*
X143247848Y-97165038D01*
X143276202Y-97182414D01*
X143284500Y-97207953D01*
X143284500Y-97432163D01*
X143271774Y-97462887D01*
X143241050Y-97475613D01*
X143210326Y-97462887D01*
X143202336Y-97451889D01*
X143192403Y-97432395D01*
X143105604Y-97345596D01*
X142996238Y-97289872D01*
X142875001Y-97270670D01*
X142874999Y-97270670D01*
X142753762Y-97289872D01*
X142753761Y-97289872D01*
X142689676Y-97322525D01*
X142656523Y-97325134D01*
X142631236Y-97303537D01*
X142626500Y-97283811D01*
X142626500Y-97198447D01*
X142616415Y-97147748D01*
X142616411Y-97147738D01*
X142609452Y-97130936D01*
X142603688Y-97117021D01*
X142590112Y-97092157D01*
X142531979Y-97045312D01*
X142531977Y-97045311D01*
X142531974Y-97045309D01*
X142501257Y-97032586D01*
X142501251Y-97032584D01*
X142450552Y-97022500D01*
X142450550Y-97022500D01*
X142413269Y-97022500D01*
X142411327Y-97022595D01*
X142400288Y-97023137D01*
X142391802Y-97023973D01*
X142391801Y-97023973D01*
X142328669Y-97046563D01*
X142328181Y-97045200D01*
X142299602Y-97047291D01*
X142289118Y-97042169D01*
X142209576Y-96989021D01*
X142209572Y-96989019D01*
X142131550Y-96973500D01*
X142131548Y-96973500D01*
X141738852Y-96973500D01*
X141738850Y-96973500D01*
X141660827Y-96989019D01*
X141660823Y-96989021D01*
X141581339Y-97042131D01*
X141548723Y-97048619D01*
X141540571Y-97046146D01*
X141538562Y-97045313D01*
X141538560Y-97045312D01*
X141522382Y-97038611D01*
X141507838Y-97032586D01*
X141507832Y-97032584D01*
X141457133Y-97022500D01*
X141457131Y-97022500D01*
X141202964Y-97022500D01*
X141201022Y-97022595D01*
X141189984Y-97023137D01*
X141181498Y-97023973D01*
X141181496Y-97023973D01*
X141121283Y-97045518D01*
X141088067Y-97043886D01*
X141082506Y-97040735D01*
X140998376Y-96984521D01*
X140998372Y-96984519D01*
X140920350Y-96969000D01*
X140920348Y-96969000D01*
X140527652Y-96969000D01*
X140527650Y-96969000D01*
X140449627Y-96984519D01*
X140449627Y-96984520D01*
X140365640Y-97040637D01*
X140333024Y-97047124D01*
X140324875Y-97044652D01*
X140295747Y-97032587D01*
X140295737Y-97032584D01*
X140245038Y-97022500D01*
X140245036Y-97022500D01*
X140124450Y-97022500D01*
X140124448Y-97022500D01*
X140073748Y-97032584D01*
X140073738Y-97032588D01*
X140043031Y-97045307D01*
X140043015Y-97045315D01*
X140018157Y-97058887D01*
X139971311Y-97117022D01*
X139971309Y-97117025D01*
X139958586Y-97147742D01*
X139958584Y-97147748D01*
X139948500Y-97198447D01*
X139948500Y-98153004D01*
X139958584Y-98203703D01*
X139958585Y-98203705D01*
X139958586Y-98203707D01*
X139970139Y-98231600D01*
X139971313Y-98234433D01*
X140000031Y-98277414D01*
X140000034Y-98277418D01*
X140059116Y-98336500D01*
X140090618Y-98368002D01*
X140097090Y-98376955D01*
X140097184Y-98376893D01*
X140098311Y-98378580D01*
X140098328Y-98378667D01*
X140098699Y-98379180D01*
X140099859Y-98381483D01*
X140098976Y-98381927D01*
X140104795Y-98411196D01*
X140098309Y-98426855D01*
X140050020Y-98499126D01*
X140050019Y-98499127D01*
X140034500Y-98577149D01*
X140034500Y-98969850D01*
X140050019Y-99047872D01*
X140050021Y-99047876D01*
X140109139Y-99136353D01*
X140109143Y-99136357D01*
X140122710Y-99145422D01*
X140141186Y-99173073D01*
X140134699Y-99205689D01*
X140107048Y-99224165D01*
X140098571Y-99225000D01*
X140021650Y-99225000D01*
X139943627Y-99240519D01*
X139943623Y-99240521D01*
X139855146Y-99299639D01*
X139855139Y-99299646D01*
X139796021Y-99388123D01*
X139796019Y-99388127D01*
X139780500Y-99466149D01*
X139780500Y-99858850D01*
X139796019Y-99936872D01*
X139796021Y-99936876D01*
X139855139Y-100025353D01*
X139855146Y-100025360D01*
X139938035Y-100080744D01*
X139956511Y-100108394D01*
X139950023Y-100141010D01*
X139922376Y-100159486D01*
X139910251Y-100161898D01*
X139910248Y-100161899D01*
X139868079Y-100190076D01*
X139865724Y-100192432D01*
X139835000Y-100205158D01*
X139804276Y-100192432D01*
X139801920Y-100190076D01*
X139759751Y-100161899D01*
X139759748Y-100161898D01*
X139747351Y-100159432D01*
X139722560Y-100154500D01*
X139722558Y-100154500D01*
X139574825Y-100154500D01*
X139509916Y-100154500D01*
X139479192Y-100141774D01*
X139466466Y-100111050D01*
X139479192Y-100080326D01*
X139485776Y-100074923D01*
X139560494Y-100024997D01*
X139560497Y-100024994D01*
X139619508Y-99936678D01*
X139619508Y-99936677D01*
X139635000Y-99858800D01*
X139635000Y-99764100D01*
X138821000Y-99764100D01*
X138821000Y-99858800D01*
X138836491Y-99936677D01*
X138836491Y-99936678D01*
X138895502Y-100024994D01*
X138895505Y-100024997D01*
X138970224Y-100074923D01*
X138988699Y-100102573D01*
X138982211Y-100135190D01*
X138954561Y-100153665D01*
X138946084Y-100154500D01*
X138415573Y-100154500D01*
X138348881Y-100172370D01*
X138315911Y-100168029D01*
X138295666Y-100141645D01*
X138294721Y-100123603D01*
X138295127Y-100121038D01*
X138295128Y-100121037D01*
X138314330Y-99999800D01*
X138295128Y-99878563D01*
X138282404Y-99853591D01*
X138239403Y-99769195D01*
X138152604Y-99682396D01*
X138043238Y-99626672D01*
X137922001Y-99607470D01*
X137921999Y-99607470D01*
X137800762Y-99626672D01*
X137800761Y-99626672D01*
X137691395Y-99682396D01*
X137604599Y-99769192D01*
X137593029Y-99791897D01*
X137585040Y-99802891D01*
X137448161Y-99939773D01*
X137417437Y-99952500D01*
X137331532Y-99952500D01*
X137300808Y-99939774D01*
X137288082Y-99909050D01*
X137300808Y-99878326D01*
X137307216Y-99873408D01*
X137307105Y-99873256D01*
X137407343Y-99800427D01*
X137100629Y-99493713D01*
X137141556Y-99470084D01*
X137220684Y-99390956D01*
X137244313Y-99350028D01*
X137551958Y-99657673D01*
X137573678Y-99633551D01*
X137663229Y-99478444D01*
X137663229Y-99478443D01*
X137667207Y-99466199D01*
X138821000Y-99466199D01*
X138821000Y-99560900D01*
X139635000Y-99560900D01*
X139635000Y-99466199D01*
X139619508Y-99388322D01*
X139619508Y-99388321D01*
X139560497Y-99300005D01*
X139560494Y-99300002D01*
X139545640Y-99290077D01*
X139527165Y-99262426D01*
X139533653Y-99229810D01*
X139561304Y-99211335D01*
X139569780Y-99210500D01*
X139648300Y-99210500D01*
X139726177Y-99195008D01*
X139726178Y-99195008D01*
X139814494Y-99135997D01*
X139814497Y-99135994D01*
X139873508Y-99047678D01*
X139873508Y-99047677D01*
X139889000Y-98969800D01*
X139889000Y-98875100D01*
X139075000Y-98875100D01*
X139075000Y-98969800D01*
X139090491Y-99047677D01*
X139090491Y-99047678D01*
X139149502Y-99135994D01*
X139149505Y-99135997D01*
X139164360Y-99145923D01*
X139182835Y-99173574D01*
X139176347Y-99206190D01*
X139148696Y-99224665D01*
X139140220Y-99225500D01*
X139061700Y-99225500D01*
X138983822Y-99240991D01*
X138983821Y-99240991D01*
X138895505Y-99300002D01*
X138895502Y-99300005D01*
X138836491Y-99388321D01*
X138836491Y-99388322D01*
X138821000Y-99466199D01*
X137667207Y-99466199D01*
X137718571Y-99308117D01*
X137737292Y-99130000D01*
X137718571Y-98951882D01*
X137663229Y-98781556D01*
X137663229Y-98781555D01*
X137573676Y-98626445D01*
X137551958Y-98602324D01*
X137244312Y-98909969D01*
X137220684Y-98869044D01*
X137141556Y-98789916D01*
X137100628Y-98766285D01*
X137289715Y-98577199D01*
X139075000Y-98577199D01*
X139075000Y-98671900D01*
X139380400Y-98671900D01*
X139583600Y-98671900D01*
X139889000Y-98671900D01*
X139889000Y-98577199D01*
X139873508Y-98499322D01*
X139873508Y-98499321D01*
X139814497Y-98411005D01*
X139814494Y-98411002D01*
X139726178Y-98351991D01*
X139648300Y-98336500D01*
X139583600Y-98336500D01*
X139583600Y-98671900D01*
X139380400Y-98671900D01*
X139380400Y-98336500D01*
X139315700Y-98336500D01*
X139237822Y-98351991D01*
X139237821Y-98351991D01*
X139149505Y-98411002D01*
X139149502Y-98411005D01*
X139090491Y-98499321D01*
X139090491Y-98499322D01*
X139075000Y-98577199D01*
X137289715Y-98577199D01*
X137407343Y-98459571D01*
X137308949Y-98388083D01*
X137145328Y-98315235D01*
X137145329Y-98315235D01*
X136970153Y-98278000D01*
X136791046Y-98278000D01*
X136615870Y-98315235D01*
X136452251Y-98388083D01*
X136353855Y-98459571D01*
X136660570Y-98766286D01*
X136619644Y-98789916D01*
X136540516Y-98869044D01*
X136516886Y-98909970D01*
X136209241Y-98602325D01*
X136187521Y-98626447D01*
X136097970Y-98781555D01*
X136097970Y-98781556D01*
X136042628Y-98951882D01*
X136023907Y-99130000D01*
X135257600Y-99130000D01*
X135257600Y-98831600D01*
X134282200Y-98831600D01*
X134282200Y-99457000D01*
X134079000Y-99457000D01*
X134079000Y-98671850D01*
X134091726Y-98641126D01*
X134122450Y-98628400D01*
X135257600Y-98628400D01*
X135257600Y-98231600D01*
X134813960Y-98231600D01*
X134830600Y-98169496D01*
X134830600Y-98090504D01*
X134813960Y-98028400D01*
X135251633Y-98028400D01*
X135251632Y-98028399D01*
X135229664Y-97917952D01*
X135229662Y-97917944D01*
X135174859Y-97785637D01*
X135174859Y-97785636D01*
X135095299Y-97666567D01*
X135095296Y-97666563D01*
X134994037Y-97565304D01*
X134994032Y-97565300D01*
X134874962Y-97485740D01*
X134742659Y-97430938D01*
X134742649Y-97430936D01*
X134602205Y-97403000D01*
X134282200Y-97403000D01*
X134282200Y-97830000D01*
X134079000Y-97830000D01*
X134079000Y-97403000D01*
X133758995Y-97403000D01*
X133618550Y-97430936D01*
X133618540Y-97430938D01*
X133486237Y-97485740D01*
X133486236Y-97485740D01*
X133367167Y-97565300D01*
X133265900Y-97666567D01*
X133186340Y-97785636D01*
X133186340Y-97785637D01*
X133131538Y-97917940D01*
X133131536Y-97917950D01*
X133106365Y-98044493D01*
X133087889Y-98072143D01*
X133055273Y-98078631D01*
X133027623Y-98060155D01*
X133020300Y-98036016D01*
X133020300Y-95995997D01*
X133427732Y-95995997D01*
X133427732Y-95996002D01*
X133446718Y-96140226D01*
X133446719Y-96140230D01*
X133446720Y-96140232D01*
X133487207Y-96237975D01*
X133502392Y-96274634D01*
X133590950Y-96390046D01*
X133590953Y-96390049D01*
X133644577Y-96431196D01*
X133706366Y-96478608D01*
X133840768Y-96534280D01*
X133840773Y-96534280D01*
X133840774Y-96534281D01*
X133840772Y-96534281D01*
X133984997Y-96553268D01*
X133985000Y-96553268D01*
X133985003Y-96553268D01*
X134129226Y-96534281D01*
X134129226Y-96534280D01*
X134129232Y-96534280D01*
X134263634Y-96478608D01*
X134379048Y-96390048D01*
X134467608Y-96274634D01*
X134523280Y-96140232D01*
X134537859Y-96029491D01*
X134542268Y-95996002D01*
X134542268Y-95995997D01*
X134533375Y-95928447D01*
X135122500Y-95928447D01*
X135122500Y-96629004D01*
X135132584Y-96679703D01*
X135132585Y-96679705D01*
X135145313Y-96710433D01*
X135172155Y-96750606D01*
X135174034Y-96753418D01*
X135656582Y-97235966D01*
X135699569Y-97264688D01*
X135730293Y-97277414D01*
X135730294Y-97277414D01*
X135730296Y-97277415D01*
X135780996Y-97287500D01*
X135780998Y-97287500D01*
X136715795Y-97287500D01*
X136733345Y-97291202D01*
X136757364Y-97301807D01*
X136757363Y-97301807D01*
X136757366Y-97301808D01*
X136780568Y-97304500D01*
X136780573Y-97304500D01*
X137163427Y-97304500D01*
X137163432Y-97304500D01*
X137186634Y-97301808D01*
X137210655Y-97291202D01*
X137228205Y-97287500D01*
X137243552Y-97287500D01*
X137294251Y-97277415D01*
X137294252Y-97277414D01*
X137294255Y-97277414D01*
X137324979Y-97264688D01*
X137349843Y-97251112D01*
X137396688Y-97192979D01*
X137409414Y-97162255D01*
X137409502Y-97161816D01*
X137419706Y-97110515D01*
X137438181Y-97082865D01*
X137470798Y-97076377D01*
X137498448Y-97094852D01*
X137502069Y-97101442D01*
X137539515Y-97186252D01*
X137612747Y-97259484D01*
X137707481Y-97301312D01*
X137707479Y-97301312D01*
X137730647Y-97303999D01*
X137820400Y-97303999D01*
X138023600Y-97303999D01*
X138113352Y-97303999D01*
X138136518Y-97301312D01*
X138231252Y-97259484D01*
X138304484Y-97186252D01*
X138346312Y-97091519D01*
X138349000Y-97068352D01*
X138349000Y-96616100D01*
X138023600Y-96616100D01*
X138023600Y-97303999D01*
X137820400Y-97303999D01*
X137820400Y-96412900D01*
X138023600Y-96412900D01*
X138348999Y-96412900D01*
X138348999Y-95960648D01*
X138348990Y-95960568D01*
X138444500Y-95960568D01*
X138444500Y-97068432D01*
X138444641Y-97069645D01*
X138447192Y-97091635D01*
X138489096Y-97186541D01*
X138550808Y-97248253D01*
X138563534Y-97278977D01*
X138555969Y-97302255D01*
X138556150Y-97302347D01*
X138555569Y-97303485D01*
X138555234Y-97304519D01*
X138554595Y-97305397D01*
X138498872Y-97414761D01*
X138498872Y-97414762D01*
X138479670Y-97535999D01*
X138479670Y-97536000D01*
X138498872Y-97657237D01*
X138498872Y-97657238D01*
X138554596Y-97766604D01*
X138641395Y-97853403D01*
X138713104Y-97889940D01*
X138750763Y-97909128D01*
X138849183Y-97924716D01*
X138871999Y-97928330D01*
X138872000Y-97928330D01*
X138872001Y-97928330D01*
X138888577Y-97925704D01*
X138993237Y-97909128D01*
X139102606Y-97853402D01*
X139189402Y-97766606D01*
X139245128Y-97657237D01*
X139264330Y-97536000D01*
X139263417Y-97530238D01*
X139257302Y-97491627D01*
X139245128Y-97414763D01*
X139239500Y-97403718D01*
X139189403Y-97305395D01*
X139188763Y-97304514D01*
X139188592Y-97303804D01*
X139187850Y-97302347D01*
X139188200Y-97302168D01*
X139181001Y-97272177D01*
X139193190Y-97248254D01*
X139254903Y-97186542D01*
X139296808Y-97091634D01*
X139299500Y-97068432D01*
X139299500Y-96582800D01*
X140287000Y-96582800D01*
X140302491Y-96660677D01*
X140302491Y-96660678D01*
X140361502Y-96748994D01*
X140361505Y-96748997D01*
X140449821Y-96808008D01*
X140527700Y-96823500D01*
X140622400Y-96823500D01*
X140825600Y-96823500D01*
X140920300Y-96823500D01*
X140998177Y-96808008D01*
X140998178Y-96808008D01*
X141086494Y-96748997D01*
X141086497Y-96748994D01*
X141145508Y-96660678D01*
X141145508Y-96660677D01*
X141160105Y-96587300D01*
X141498200Y-96587300D01*
X141513691Y-96665177D01*
X141513691Y-96665178D01*
X141572702Y-96753494D01*
X141572705Y-96753497D01*
X141661021Y-96812508D01*
X141738900Y-96828000D01*
X141833600Y-96828000D01*
X142036800Y-96828000D01*
X142131500Y-96828000D01*
X142209377Y-96812508D01*
X142209378Y-96812508D01*
X142297694Y-96753497D01*
X142297697Y-96753494D01*
X142356708Y-96665178D01*
X142356708Y-96665177D01*
X142372200Y-96587300D01*
X142372200Y-96522600D01*
X142036800Y-96522600D01*
X142036800Y-96828000D01*
X141833600Y-96828000D01*
X141833600Y-96522600D01*
X141498200Y-96522600D01*
X141498200Y-96587300D01*
X141160105Y-96587300D01*
X141161000Y-96582800D01*
X141161000Y-96518100D01*
X140825600Y-96518100D01*
X140825600Y-96823500D01*
X140622400Y-96823500D01*
X140622400Y-96518100D01*
X140287000Y-96518100D01*
X140287000Y-96582800D01*
X139299500Y-96582800D01*
X139299500Y-96250199D01*
X140287000Y-96250199D01*
X140287000Y-96314900D01*
X140622400Y-96314900D01*
X140825600Y-96314900D01*
X141161000Y-96314900D01*
X141161000Y-96254699D01*
X141498200Y-96254699D01*
X141498200Y-96319400D01*
X141833600Y-96319400D01*
X142036800Y-96319400D01*
X142372200Y-96319400D01*
X142372200Y-96254699D01*
X142356708Y-96176822D01*
X142356708Y-96176821D01*
X142297697Y-96088505D01*
X142297694Y-96088502D01*
X142209378Y-96029491D01*
X142131500Y-96014000D01*
X142036800Y-96014000D01*
X142036800Y-96319400D01*
X141833600Y-96319400D01*
X141833600Y-96014000D01*
X141738900Y-96014000D01*
X141661022Y-96029491D01*
X141661021Y-96029491D01*
X141572705Y-96088502D01*
X141572702Y-96088505D01*
X141513691Y-96176821D01*
X141513691Y-96176822D01*
X141498200Y-96254699D01*
X141161000Y-96254699D01*
X141161000Y-96250199D01*
X141145508Y-96172322D01*
X141145508Y-96172321D01*
X141086497Y-96084005D01*
X141086494Y-96084002D01*
X140998178Y-96024991D01*
X140920300Y-96009500D01*
X140825600Y-96009500D01*
X140825600Y-96314900D01*
X140622400Y-96314900D01*
X140622400Y-96009500D01*
X140527700Y-96009500D01*
X140449822Y-96024991D01*
X140449821Y-96024991D01*
X140361505Y-96084002D01*
X140361502Y-96084005D01*
X140302491Y-96172321D01*
X140302491Y-96172322D01*
X140287000Y-96250199D01*
X139299500Y-96250199D01*
X139299500Y-95960568D01*
X139296808Y-95937366D01*
X139254903Y-95842458D01*
X139181542Y-95769097D01*
X139181541Y-95769096D01*
X139181542Y-95769096D01*
X139086634Y-95727192D01*
X139086636Y-95727192D01*
X139080004Y-95726422D01*
X139063432Y-95724500D01*
X138680568Y-95724500D01*
X138663995Y-95726422D01*
X138657364Y-95727192D01*
X138562458Y-95769096D01*
X138489096Y-95842458D01*
X138447192Y-95937364D01*
X138446294Y-95945100D01*
X138444500Y-95960568D01*
X138348990Y-95960568D01*
X138346312Y-95937481D01*
X138304484Y-95842747D01*
X138231252Y-95769515D01*
X138136518Y-95727687D01*
X138136520Y-95727687D01*
X138113352Y-95725000D01*
X138023600Y-95725000D01*
X138023600Y-96412900D01*
X137820400Y-96412900D01*
X137820400Y-95725000D01*
X137730648Y-95725000D01*
X137707481Y-95727687D01*
X137612747Y-95769515D01*
X137539515Y-95842747D01*
X137500560Y-95930973D01*
X137476508Y-95953939D01*
X137443262Y-95953171D01*
X137420296Y-95929119D01*
X137418197Y-95921899D01*
X137409415Y-95877750D01*
X137409414Y-95877749D01*
X137409414Y-95877745D01*
X137396688Y-95847021D01*
X137383112Y-95822157D01*
X137324979Y-95775312D01*
X137324977Y-95775311D01*
X137324972Y-95775308D01*
X137299800Y-95764883D01*
X137294255Y-95762586D01*
X137294253Y-95762585D01*
X137294252Y-95762585D01*
X137294249Y-95762584D01*
X137248976Y-95753578D01*
X137239904Y-95750711D01*
X137186635Y-95727192D01*
X137182767Y-95726743D01*
X137163432Y-95724500D01*
X136780568Y-95724500D01*
X136763995Y-95726422D01*
X136757364Y-95727192D01*
X136708432Y-95748798D01*
X136690882Y-95752500D01*
X136311228Y-95752500D01*
X136304431Y-95751965D01*
X136271001Y-95746670D01*
X136270999Y-95746670D01*
X136237569Y-95751965D01*
X136230772Y-95752500D01*
X136069760Y-95752500D01*
X136039036Y-95739774D01*
X136026310Y-95709050D01*
X136033633Y-95684910D01*
X136057508Y-95649178D01*
X136057508Y-95649177D01*
X136073000Y-95571300D01*
X136073000Y-95515300D01*
X139644000Y-95515300D01*
X139659491Y-95593177D01*
X139659491Y-95593178D01*
X139718502Y-95681494D01*
X139718505Y-95681497D01*
X139806821Y-95740508D01*
X139884700Y-95756000D01*
X139979400Y-95756000D01*
X140182600Y-95756000D01*
X140277300Y-95756000D01*
X140355177Y-95740508D01*
X140355178Y-95740508D01*
X140443494Y-95681497D01*
X140443497Y-95681494D01*
X140502508Y-95593178D01*
X140502508Y-95593177D01*
X140518000Y-95515300D01*
X140518000Y-95450600D01*
X140182600Y-95450600D01*
X140182600Y-95756000D01*
X139979400Y-95756000D01*
X139979400Y-95450600D01*
X139644000Y-95450600D01*
X139644000Y-95515300D01*
X136073000Y-95515300D01*
X136073000Y-95506600D01*
X135199000Y-95506600D01*
X135199000Y-95571300D01*
X135214491Y-95649177D01*
X135214491Y-95649178D01*
X135251636Y-95704769D01*
X135258124Y-95737386D01*
X135239649Y-95765036D01*
X135232141Y-95769048D01*
X135217021Y-95775312D01*
X135217017Y-95775313D01*
X135217015Y-95775315D01*
X135192157Y-95788887D01*
X135145311Y-95847022D01*
X135145309Y-95847025D01*
X135132586Y-95877742D01*
X135132584Y-95877748D01*
X135122500Y-95928447D01*
X134533375Y-95928447D01*
X134523281Y-95851773D01*
X134523280Y-95851771D01*
X134523280Y-95851768D01*
X134467608Y-95717366D01*
X134391208Y-95617799D01*
X134382601Y-95585676D01*
X134399228Y-95556877D01*
X134420429Y-95548500D01*
X134420413Y-95548417D01*
X134420870Y-95548325D01*
X134421425Y-95548107D01*
X134422505Y-95548000D01*
X134459552Y-95540630D01*
X134501561Y-95512561D01*
X134529630Y-95470552D01*
X134537000Y-95433509D01*
X134537000Y-95238699D01*
X135199000Y-95238699D01*
X135199000Y-95303400D01*
X135534400Y-95303400D01*
X135737600Y-95303400D01*
X136073000Y-95303400D01*
X136073000Y-95238699D01*
X136061860Y-95182699D01*
X139644000Y-95182699D01*
X139644000Y-95247400D01*
X139979400Y-95247400D01*
X140182600Y-95247400D01*
X140518000Y-95247400D01*
X140518000Y-95182699D01*
X140502508Y-95104822D01*
X140502508Y-95104821D01*
X140443497Y-95016505D01*
X140443494Y-95016502D01*
X140355178Y-94957491D01*
X140277300Y-94942000D01*
X140182600Y-94942000D01*
X140182600Y-95247400D01*
X139979400Y-95247400D01*
X139979400Y-94942000D01*
X139884700Y-94942000D01*
X139806822Y-94957491D01*
X139806821Y-94957491D01*
X139718505Y-95016502D01*
X139718502Y-95016505D01*
X139659491Y-95104821D01*
X139659491Y-95104822D01*
X139644000Y-95182699D01*
X136061860Y-95182699D01*
X136057508Y-95160822D01*
X136057508Y-95160821D01*
X135998497Y-95072505D01*
X135998494Y-95072502D01*
X135910178Y-95013491D01*
X135832300Y-94998000D01*
X135737600Y-94998000D01*
X135737600Y-95303400D01*
X135534400Y-95303400D01*
X135534400Y-94998000D01*
X135439700Y-94998000D01*
X135361822Y-95013491D01*
X135361821Y-95013491D01*
X135273505Y-95072502D01*
X135273502Y-95072505D01*
X135214491Y-95160821D01*
X135214491Y-95160822D01*
X135199000Y-95238699D01*
X134537000Y-95238699D01*
X134537000Y-95097600D01*
X134213514Y-95097600D01*
X134235000Y-95045728D01*
X134235000Y-94946272D01*
X134213514Y-94894400D01*
X134537000Y-94894400D01*
X134537000Y-94558490D01*
X134529630Y-94521447D01*
X134501561Y-94479438D01*
X134459552Y-94451369D01*
X134422509Y-94444000D01*
X134086600Y-94444000D01*
X134086600Y-94767485D01*
X134034728Y-94746000D01*
X133935272Y-94746000D01*
X133883400Y-94767485D01*
X133883400Y-94444000D01*
X133547491Y-94444000D01*
X133510447Y-94451369D01*
X133468438Y-94479438D01*
X133440369Y-94521447D01*
X133433000Y-94558490D01*
X133433000Y-94894400D01*
X133756486Y-94894400D01*
X133735000Y-94946272D01*
X133735000Y-95045728D01*
X133756486Y-95097600D01*
X133433000Y-95097600D01*
X133433000Y-95433509D01*
X133440369Y-95470552D01*
X133468438Y-95512561D01*
X133510447Y-95540630D01*
X133547493Y-95548000D01*
X133548575Y-95548107D01*
X133548898Y-95548280D01*
X133549587Y-95548417D01*
X133549545Y-95548625D01*
X133577905Y-95563781D01*
X133587561Y-95595603D01*
X133578791Y-95617798D01*
X133502393Y-95717363D01*
X133446718Y-95851773D01*
X133427732Y-95995997D01*
X133020300Y-95995997D01*
X133020300Y-93345000D01*
X136265500Y-93345000D01*
X136265500Y-94879701D01*
G37*
G04 #@! TD.AperFunction*
M02*
