G04 #@! TF.GenerationSoftware,KiCad,Pcbnew,8.0.3*
G04 #@! TF.CreationDate,2024-06-18T15:01:00-07:00*
G04 #@! TF.ProjectId,lora2040,6c6f7261-3230-4343-902e-6b696361645f,rev?*
G04 #@! TF.SameCoordinates,Original*
G04 #@! TF.FileFunction,Paste,Top*
G04 #@! TF.FilePolarity,Positive*
%FSLAX46Y46*%
G04 Gerber Fmt 4.6, Leading zero omitted, Abs format (unit mm)*
G04 Created by KiCad (PCBNEW 8.0.3) date 2024-06-18 15:01:00*
%MOMM*%
%LPD*%
G01*
G04 APERTURE LIST*
G04 Aperture macros list*
%AMRoundRect*
0 Rectangle with rounded corners*
0 $1 Rounding radius*
0 $2 $3 $4 $5 $6 $7 $8 $9 X,Y pos of 4 corners*
0 Add a 4 corners polygon primitive as box body*
4,1,4,$2,$3,$4,$5,$6,$7,$8,$9,$2,$3,0*
0 Add four circle primitives for the rounded corners*
1,1,$1+$1,$2,$3*
1,1,$1+$1,$4,$5*
1,1,$1+$1,$6,$7*
1,1,$1+$1,$8,$9*
0 Add four rect primitives between the rounded corners*
20,1,$1+$1,$2,$3,$4,$5,0*
20,1,$1+$1,$4,$5,$6,$7,0*
20,1,$1+$1,$6,$7,$8,$9,0*
20,1,$1+$1,$8,$9,$2,$3,0*%
%AMRotRect*
0 Rectangle, with rotation*
0 The origin of the aperture is its center*
0 $1 length*
0 $2 width*
0 $3 Rotation angle, in degrees counterclockwise*
0 Add horizontal line*
21,1,$1,$2,0,0,$3*%
G04 Aperture macros list end*
%ADD10C,0.000000*%
%ADD11R,0.350000X0.350000*%
%ADD12R,0.500000X0.250000*%
%ADD13R,0.300000X0.600000*%
%ADD14RoundRect,0.140000X-0.170000X0.140000X-0.170000X-0.140000X0.170000X-0.140000X0.170000X0.140000X0*%
%ADD15R,0.550000X0.550000*%
%ADD16RoundRect,0.140000X-0.140000X-0.170000X0.140000X-0.170000X0.140000X0.170000X-0.140000X0.170000X0*%
%ADD17RoundRect,0.250000X-0.275000X-0.250000X0.275000X-0.250000X0.275000X0.250000X-0.275000X0.250000X0*%
%ADD18RoundRect,0.250000X-0.850000X-0.275000X0.850000X-0.275000X0.850000X0.275000X-0.850000X0.275000X0*%
%ADD19RoundRect,0.140000X0.170000X-0.140000X0.170000X0.140000X-0.170000X0.140000X-0.170000X-0.140000X0*%
%ADD20C,0.250000*%
%ADD21R,0.800000X0.900000*%
%ADD22R,1.200000X1.400000*%
%ADD23R,1.050000X0.450000*%
%ADD24R,2.100000X2.100000*%
%ADD25RoundRect,0.140000X0.140000X0.170000X-0.140000X0.170000X-0.140000X-0.170000X0.140000X-0.170000X0*%
%ADD26R,1.300000X1.300000*%
%ADD27RoundRect,0.135000X0.185000X-0.135000X0.185000X0.135000X-0.185000X0.135000X-0.185000X-0.135000X0*%
%ADD28RoundRect,0.249999X0.395001X-0.395001X0.395001X0.395001X-0.395001X0.395001X-0.395001X-0.395001X0*%
%ADD29RoundRect,0.050000X0.050000X-0.387500X0.050000X0.387500X-0.050000X0.387500X-0.050000X-0.387500X0*%
%ADD30RoundRect,0.050000X0.387500X-0.050000X0.387500X0.050000X-0.387500X0.050000X-0.387500X-0.050000X0*%
%ADD31RotRect,0.350000X0.350000X315.000000*%
%ADD32R,1.350000X0.400000*%
%ADD33R,1.900000X1.500000*%
%ADD34O,0.300000X0.800000*%
%ADD35O,0.800000X0.300000*%
%ADD36RoundRect,0.135000X-0.185000X0.135000X-0.185000X-0.135000X0.185000X-0.135000X0.185000X0.135000X0*%
%ADD37RoundRect,0.150000X0.150000X-0.512500X0.150000X0.512500X-0.150000X0.512500X-0.150000X-0.512500X0*%
%ADD38RoundRect,0.147500X0.172500X-0.147500X0.172500X0.147500X-0.172500X0.147500X-0.172500X-0.147500X0*%
G04 APERTURE END LIST*
D10*
G36*
X142999900Y-88402000D02*
G01*
X142999900Y-89502000D01*
X141899900Y-89501990D01*
X141899900Y-88401990D01*
X142999900Y-88402000D01*
G37*
G36*
X142999890Y-89602000D02*
G01*
X142999900Y-90701990D01*
X141899900Y-90702000D01*
X141899900Y-89601990D01*
X142999890Y-89602000D01*
G37*
G36*
X144199900Y-90701990D02*
G01*
X143099900Y-90702000D01*
X143099890Y-89602000D01*
X144199900Y-89601990D01*
X144199900Y-90701990D01*
G37*
G36*
X144199900Y-89502000D02*
G01*
X143099900Y-89502000D01*
X143099900Y-88402000D01*
X144199900Y-88401990D01*
X144199900Y-89502000D01*
G37*
D11*
X148849900Y-87002000D03*
X148849900Y-87602000D03*
X145912000Y-107247490D03*
X145912000Y-106647500D03*
D12*
X146899900Y-88302000D03*
X146899900Y-88802000D03*
X146899900Y-89302000D03*
X146899900Y-89802000D03*
D13*
X147549900Y-90127000D03*
D12*
X148199900Y-89802000D03*
X148199900Y-89302000D03*
X148199900Y-88802000D03*
X148199900Y-88302000D03*
D13*
X147549900Y-87977000D03*
D11*
X145516600Y-96855000D03*
X145516600Y-97454990D03*
D14*
X140724000Y-96416500D03*
X140724000Y-97376500D03*
D11*
X140008000Y-105410000D03*
X139408000Y-105410000D03*
X146824900Y-86452000D03*
X146824900Y-87051990D03*
D15*
X144754600Y-83947000D03*
X144754600Y-84747000D03*
D16*
X139228000Y-99662500D03*
X140188000Y-99662500D03*
D17*
X151667900Y-89202000D03*
D18*
X153192900Y-87727000D03*
X153192900Y-90677000D03*
D19*
X140081000Y-95349000D03*
X140081000Y-94389000D03*
D14*
X141935200Y-96421000D03*
X141935200Y-97381000D03*
D11*
X150674900Y-89202000D03*
X150074910Y-89202000D03*
D20*
X149049900Y-88802000D03*
X149049900Y-89202000D03*
X149049900Y-89602000D03*
X149449900Y-88802000D03*
X149449900Y-89202000D03*
X149449900Y-89602000D03*
D11*
X144124000Y-83882000D03*
X144124000Y-84481990D03*
X149449900Y-87002000D03*
X149449900Y-87601990D03*
X140024900Y-90177000D03*
X140024900Y-90776990D03*
D21*
X142198000Y-84009000D03*
X142198000Y-85409000D03*
X143298000Y-85409000D03*
X143298000Y-84009000D03*
D11*
X149449900Y-91452000D03*
X149449900Y-90852010D03*
X150503000Y-101491500D03*
X149903010Y-101491500D03*
D22*
X153639000Y-103841000D03*
X153639000Y-101641000D03*
X151939000Y-101641000D03*
X151939000Y-103841000D03*
D15*
X139899900Y-88282000D03*
X139899900Y-87482000D03*
D23*
X142296000Y-110617000D03*
X142296000Y-109347000D03*
X142296000Y-108077000D03*
X142296000Y-106807000D03*
X136596000Y-106807000D03*
X136596000Y-108077000D03*
X136596000Y-109347000D03*
X136596000Y-110617000D03*
D24*
X139446000Y-108712000D03*
D16*
X139482000Y-98773500D03*
X140442000Y-98773500D03*
D14*
X135636000Y-95405000D03*
X135636000Y-96365000D03*
D15*
X146124900Y-87352000D03*
X146124900Y-88152000D03*
D11*
X149479000Y-96575500D03*
X149479000Y-95975500D03*
X142702000Y-86868000D03*
X143302000Y-86868000D03*
D25*
X138021000Y-92837000D03*
X137061000Y-92837000D03*
D11*
X152538990Y-100424500D03*
X151939000Y-100424500D03*
X139535000Y-101057000D03*
X140135000Y-101057000D03*
D15*
X145650000Y-85979000D03*
X146450000Y-85979000D03*
D11*
X139535000Y-101657000D03*
X140134990Y-101657000D03*
X148849900Y-90852000D03*
X148849900Y-91452000D03*
X149903000Y-99695000D03*
X150503000Y-99695000D03*
X142702000Y-86268000D03*
X143301990Y-86268000D03*
X147424900Y-86452000D03*
X147424900Y-87051990D03*
D26*
X138624900Y-88602000D03*
X138624900Y-87002000D03*
D11*
X150503000Y-100891500D03*
X149903010Y-100891500D03*
X153039010Y-105056500D03*
X153639000Y-105056500D03*
D27*
X144653000Y-109728000D03*
X144653000Y-108708000D03*
D11*
X150168000Y-102091500D03*
X149568000Y-102091500D03*
X139535000Y-100457000D03*
X140135000Y-100457000D03*
D16*
X135692000Y-90678000D03*
X136652000Y-90678000D03*
D28*
X144112000Y-102757000D03*
X145712000Y-102757000D03*
X144112000Y-101157000D03*
X145712000Y-101157000D03*
D29*
X142312000Y-105394500D03*
X142712000Y-105394500D03*
X143112000Y-105394500D03*
X143512000Y-105394500D03*
X143912000Y-105394500D03*
X144312000Y-105394500D03*
X144712000Y-105394500D03*
X145112000Y-105394500D03*
X145512000Y-105394500D03*
X145912000Y-105394500D03*
X146312000Y-105394500D03*
X146712000Y-105394500D03*
X147112000Y-105394500D03*
X147512000Y-105394500D03*
D30*
X148349500Y-104557000D03*
X148349500Y-104157000D03*
X148349500Y-103757000D03*
X148349500Y-103357000D03*
X148349500Y-102957000D03*
X148349500Y-102557000D03*
X148349500Y-102157000D03*
X148349500Y-101757000D03*
X148349500Y-101357000D03*
X148349500Y-100957000D03*
X148349500Y-100557000D03*
X148349500Y-100157000D03*
X148349500Y-99757000D03*
X148349500Y-99357000D03*
D29*
X147512000Y-98519500D03*
X147112000Y-98519500D03*
X146712000Y-98519500D03*
X146312000Y-98519500D03*
X145912000Y-98519500D03*
X145512000Y-98519500D03*
X145112000Y-98519500D03*
X144712000Y-98519500D03*
X144312000Y-98519500D03*
X143912000Y-98519500D03*
X143512000Y-98519500D03*
X143112000Y-98519500D03*
X142712000Y-98519500D03*
X142312000Y-98519500D03*
D30*
X141474500Y-99357000D03*
X141474500Y-99757000D03*
X141474500Y-100157000D03*
X141474500Y-100557000D03*
X141474500Y-100957000D03*
X141474500Y-101357000D03*
X141474500Y-101757000D03*
X141474500Y-102157000D03*
X141474500Y-102557000D03*
X141474500Y-102957000D03*
X141474500Y-103357000D03*
X141474500Y-103757000D03*
X141474500Y-104157000D03*
X141474500Y-104557000D03*
D31*
X134830743Y-109811743D03*
X135255000Y-110236000D03*
D32*
X136880600Y-100330000D03*
X136880600Y-100980000D03*
X136880600Y-101630000D03*
X136880600Y-102280000D03*
X136880600Y-102930000D03*
D33*
X134180600Y-100630000D03*
X134180600Y-102630000D03*
D34*
X144299900Y-87652000D03*
X143799900Y-87652000D03*
X143299900Y-87652000D03*
X142799900Y-87652000D03*
X142299900Y-87652000D03*
X141799900Y-87652000D03*
D35*
X141149900Y-88302000D03*
X141149900Y-88802000D03*
X141149900Y-89302000D03*
X141149900Y-89802000D03*
X141149900Y-90302000D03*
X141149900Y-90802000D03*
D34*
X141799900Y-91452000D03*
X142299900Y-91452000D03*
X142799900Y-91452000D03*
X143299900Y-91452000D03*
X143799900Y-91452000D03*
X144299900Y-91452000D03*
D35*
X144949900Y-90802000D03*
X144949900Y-90302000D03*
X144949900Y-89802000D03*
X144949900Y-89302000D03*
X144949900Y-88802000D03*
X144949900Y-88302000D03*
D36*
X143510000Y-108708000D03*
X143510000Y-109728000D03*
D11*
X139535000Y-102329500D03*
X140134990Y-102329500D03*
D37*
X136972000Y-96514500D03*
X137922000Y-96514500D03*
X138872000Y-96514500D03*
X138872000Y-94239500D03*
X136972000Y-94239500D03*
D38*
X150622000Y-96968500D03*
X150622000Y-95998500D03*
M02*
