G04 #@! TF.GenerationSoftware,KiCad,Pcbnew,8.0.3*
G04 #@! TF.CreationDate,2024-06-18T15:01:00-07:00*
G04 #@! TF.ProjectId,lora2040,6c6f7261-3230-4343-902e-6b696361645f,rev?*
G04 #@! TF.SameCoordinates,Original*
G04 #@! TF.FileFunction,Legend,Top*
G04 #@! TF.FilePolarity,Positive*
%FSLAX46Y46*%
G04 Gerber Fmt 4.6, Leading zero omitted, Abs format (unit mm)*
G04 Created by KiCad (PCBNEW 8.0.3) date 2024-06-18 15:01:00*
%MOMM*%
%LPD*%
G01*
G04 APERTURE LIST*
G04 Aperture macros list*
%AMRoundRect*
0 Rectangle with rounded corners*
0 $1 Rounding radius*
0 $2 $3 $4 $5 $6 $7 $8 $9 X,Y pos of 4 corners*
0 Add a 4 corners polygon primitive as box body*
4,1,4,$2,$3,$4,$5,$6,$7,$8,$9,$2,$3,0*
0 Add four circle primitives for the rounded corners*
1,1,$1+$1,$2,$3*
1,1,$1+$1,$4,$5*
1,1,$1+$1,$6,$7*
1,1,$1+$1,$8,$9*
0 Add four rect primitives between the rounded corners*
20,1,$1+$1,$2,$3,$4,$5,0*
20,1,$1+$1,$4,$5,$6,$7,0*
20,1,$1+$1,$6,$7,$8,$9,0*
20,1,$1+$1,$8,$9,$2,$3,0*%
G04 Aperture macros list end*
%ADD10C,0.177800*%
%ADD11C,0.127000*%
%ADD12C,0.163500*%
%ADD13C,0.120000*%
%ADD14C,0.151600*%
%ADD15C,0.100000*%
%ADD16C,0.250000*%
%ADD17C,0.190500*%
%ADD18C,0.152400*%
%ADD19RoundRect,0.025000X-0.175000X0.175000X-0.175000X-0.175000X0.175000X-0.175000X0.175000X0.175000X0*%
%ADD20RoundRect,0.025000X0.175000X-0.175000X0.175000X0.175000X-0.175000X0.175000X-0.175000X-0.175000X0*%
%ADD21RoundRect,0.025000X-0.250000X0.125000X-0.250000X-0.125000X0.250000X-0.125000X0.250000X0.125000X0*%
%ADD22RoundRect,0.025000X-0.150000X-0.300000X0.150000X-0.300000X0.150000X0.300000X-0.150000X0.300000X0*%
%ADD23RoundRect,0.140000X-0.170000X0.140000X-0.170000X-0.140000X0.170000X-0.140000X0.170000X0.140000X0*%
%ADD24R,0.850000X0.850000*%
%ADD25O,0.850000X0.850000*%
%ADD26RoundRect,0.025000X0.175000X0.175000X-0.175000X0.175000X-0.175000X-0.175000X0.175000X-0.175000X0*%
%ADD27RoundRect,0.025000X-0.275000X0.275000X-0.275000X-0.275000X0.275000X-0.275000X0.275000X0.275000X0*%
%ADD28RoundRect,0.140000X-0.140000X-0.170000X0.140000X-0.170000X0.140000X0.170000X-0.140000X0.170000X0*%
%ADD29RoundRect,0.250000X-0.275000X-0.250000X0.275000X-0.250000X0.275000X0.250000X-0.275000X0.250000X0*%
%ADD30RoundRect,0.250000X-0.850000X-0.275000X0.850000X-0.275000X0.850000X0.275000X-0.850000X0.275000X0*%
%ADD31RoundRect,0.140000X0.170000X-0.140000X0.170000X0.140000X-0.170000X0.140000X-0.170000X-0.140000X0*%
%ADD32RoundRect,0.062500X-0.062500X-0.062500X0.062500X-0.062500X0.062500X0.062500X-0.062500X0.062500X0*%
%ADD33R,0.800000X0.900000*%
%ADD34R,1.200000X1.400000*%
%ADD35RoundRect,0.025000X0.275000X-0.275000X0.275000X0.275000X-0.275000X0.275000X-0.275000X-0.275000X0*%
%ADD36RoundRect,0.063500X0.525000X0.225000X-0.525000X0.225000X-0.525000X-0.225000X0.525000X-0.225000X0*%
%ADD37RoundRect,0.063500X-1.050000X1.050000X-1.050000X-1.050000X1.050000X-1.050000X1.050000X1.050000X0*%
%ADD38RoundRect,0.025000X-0.175000X-0.175000X0.175000X-0.175000X0.175000X0.175000X-0.175000X0.175000X0*%
%ADD39RoundRect,0.140000X0.140000X0.170000X-0.140000X0.170000X-0.140000X-0.170000X0.140000X-0.170000X0*%
%ADD40RoundRect,0.025000X-0.275000X-0.275000X0.275000X-0.275000X0.275000X0.275000X-0.275000X0.275000X0*%
%ADD41RoundRect,0.050000X0.650000X-0.650000X0.650000X0.650000X-0.650000X0.650000X-0.650000X-0.650000X0*%
%ADD42RoundRect,0.135000X0.185000X-0.135000X0.185000X0.135000X-0.185000X0.135000X-0.185000X-0.135000X0*%
%ADD43RoundRect,0.050000X0.050000X-0.387500X0.050000X0.387500X-0.050000X0.387500X-0.050000X-0.387500X0*%
%ADD44RoundRect,0.050000X0.387500X-0.050000X0.387500X0.050000X-0.387500X0.050000X-0.387500X-0.050000X0*%
%ADD45R,3.200000X3.200000*%
%ADD46RoundRect,0.025000X-0.247487X0.000000X0.000000X-0.247487X0.247487X0.000000X0.000000X0.247487X0*%
%ADD47R,1.350000X0.400000*%
%ADD48O,1.900000X1.200000*%
%ADD49R,1.900000X1.200000*%
%ADD50C,1.450000*%
%ADD51R,1.900000X1.500000*%
%ADD52O,0.400000X0.900000*%
%ADD53O,0.900000X0.400000*%
%ADD54RoundRect,0.062500X-1.187500X1.187500X-1.187500X-1.187500X1.187500X-1.187500X1.187500X1.187500X0*%
%ADD55RoundRect,0.135000X-0.185000X0.135000X-0.185000X-0.135000X0.185000X-0.135000X0.185000X0.135000X0*%
%ADD56RoundRect,0.150000X0.150000X-0.512500X0.150000X0.512500X-0.150000X0.512500X-0.150000X-0.512500X0*%
%ADD57RoundRect,0.147500X0.172500X-0.147500X0.172500X0.147500X-0.172500X0.147500X-0.172500X-0.147500X0*%
G04 APERTURE END LIST*
D10*
X141884400Y-95202774D02*
X141787638Y-95154394D01*
X141787638Y-95154394D02*
X141739257Y-95057632D01*
X141739257Y-95057632D02*
X141739257Y-94186774D01*
X142416590Y-95202774D02*
X142319828Y-95154394D01*
X142319828Y-95154394D02*
X142271447Y-95106013D01*
X142271447Y-95106013D02*
X142223066Y-95009251D01*
X142223066Y-95009251D02*
X142223066Y-94718965D01*
X142223066Y-94718965D02*
X142271447Y-94622203D01*
X142271447Y-94622203D02*
X142319828Y-94573822D01*
X142319828Y-94573822D02*
X142416590Y-94525441D01*
X142416590Y-94525441D02*
X142561733Y-94525441D01*
X142561733Y-94525441D02*
X142658495Y-94573822D01*
X142658495Y-94573822D02*
X142706876Y-94622203D01*
X142706876Y-94622203D02*
X142755257Y-94718965D01*
X142755257Y-94718965D02*
X142755257Y-95009251D01*
X142755257Y-95009251D02*
X142706876Y-95106013D01*
X142706876Y-95106013D02*
X142658495Y-95154394D01*
X142658495Y-95154394D02*
X142561733Y-95202774D01*
X142561733Y-95202774D02*
X142416590Y-95202774D01*
X143190685Y-95202774D02*
X143190685Y-94525441D01*
X143190685Y-94718965D02*
X143239066Y-94622203D01*
X143239066Y-94622203D02*
X143287447Y-94573822D01*
X143287447Y-94573822D02*
X143384209Y-94525441D01*
X143384209Y-94525441D02*
X143480971Y-94525441D01*
X144255066Y-95202774D02*
X144255066Y-94670584D01*
X144255066Y-94670584D02*
X144206685Y-94573822D01*
X144206685Y-94573822D02*
X144109923Y-94525441D01*
X144109923Y-94525441D02*
X143916399Y-94525441D01*
X143916399Y-94525441D02*
X143819637Y-94573822D01*
X144255066Y-95154394D02*
X144158304Y-95202774D01*
X144158304Y-95202774D02*
X143916399Y-95202774D01*
X143916399Y-95202774D02*
X143819637Y-95154394D01*
X143819637Y-95154394D02*
X143771256Y-95057632D01*
X143771256Y-95057632D02*
X143771256Y-94960870D01*
X143771256Y-94960870D02*
X143819637Y-94864108D01*
X143819637Y-94864108D02*
X143916399Y-94815727D01*
X143916399Y-94815727D02*
X144158304Y-94815727D01*
X144158304Y-94815727D02*
X144255066Y-94767346D01*
X144690494Y-94283536D02*
X144738875Y-94235155D01*
X144738875Y-94235155D02*
X144835637Y-94186774D01*
X144835637Y-94186774D02*
X145077542Y-94186774D01*
X145077542Y-94186774D02*
X145174304Y-94235155D01*
X145174304Y-94235155D02*
X145222685Y-94283536D01*
X145222685Y-94283536D02*
X145271066Y-94380298D01*
X145271066Y-94380298D02*
X145271066Y-94477060D01*
X145271066Y-94477060D02*
X145222685Y-94622203D01*
X145222685Y-94622203D02*
X144642113Y-95202774D01*
X144642113Y-95202774D02*
X145271066Y-95202774D01*
X145900018Y-94186774D02*
X145996780Y-94186774D01*
X145996780Y-94186774D02*
X146093542Y-94235155D01*
X146093542Y-94235155D02*
X146141923Y-94283536D01*
X146141923Y-94283536D02*
X146190304Y-94380298D01*
X146190304Y-94380298D02*
X146238685Y-94573822D01*
X146238685Y-94573822D02*
X146238685Y-94815727D01*
X146238685Y-94815727D02*
X146190304Y-95009251D01*
X146190304Y-95009251D02*
X146141923Y-95106013D01*
X146141923Y-95106013D02*
X146093542Y-95154394D01*
X146093542Y-95154394D02*
X145996780Y-95202774D01*
X145996780Y-95202774D02*
X145900018Y-95202774D01*
X145900018Y-95202774D02*
X145803256Y-95154394D01*
X145803256Y-95154394D02*
X145754875Y-95106013D01*
X145754875Y-95106013D02*
X145706494Y-95009251D01*
X145706494Y-95009251D02*
X145658113Y-94815727D01*
X145658113Y-94815727D02*
X145658113Y-94573822D01*
X145658113Y-94573822D02*
X145706494Y-94380298D01*
X145706494Y-94380298D02*
X145754875Y-94283536D01*
X145754875Y-94283536D02*
X145803256Y-94235155D01*
X145803256Y-94235155D02*
X145900018Y-94186774D01*
X147109542Y-94525441D02*
X147109542Y-95202774D01*
X146867637Y-94138394D02*
X146625732Y-94864108D01*
X146625732Y-94864108D02*
X147254685Y-94864108D01*
X147835256Y-94186774D02*
X147932018Y-94186774D01*
X147932018Y-94186774D02*
X148028780Y-94235155D01*
X148028780Y-94235155D02*
X148077161Y-94283536D01*
X148077161Y-94283536D02*
X148125542Y-94380298D01*
X148125542Y-94380298D02*
X148173923Y-94573822D01*
X148173923Y-94573822D02*
X148173923Y-94815727D01*
X148173923Y-94815727D02*
X148125542Y-95009251D01*
X148125542Y-95009251D02*
X148077161Y-95106013D01*
X148077161Y-95106013D02*
X148028780Y-95154394D01*
X148028780Y-95154394D02*
X147932018Y-95202774D01*
X147932018Y-95202774D02*
X147835256Y-95202774D01*
X147835256Y-95202774D02*
X147738494Y-95154394D01*
X147738494Y-95154394D02*
X147690113Y-95106013D01*
X147690113Y-95106013D02*
X147641732Y-95009251D01*
X147641732Y-95009251D02*
X147593351Y-94815727D01*
X147593351Y-94815727D02*
X147593351Y-94573822D01*
X147593351Y-94573822D02*
X147641732Y-94380298D01*
X147641732Y-94380298D02*
X147690113Y-94283536D01*
X147690113Y-94283536D02*
X147738494Y-94235155D01*
X147738494Y-94235155D02*
X147835256Y-94186774D01*
D11*
X154073122Y-99305438D02*
X154042884Y-99365914D01*
X154042884Y-99365914D02*
X154042884Y-99456628D01*
X154042884Y-99456628D02*
X154073122Y-99547343D01*
X154073122Y-99547343D02*
X154133598Y-99607819D01*
X154133598Y-99607819D02*
X154194074Y-99638057D01*
X154194074Y-99638057D02*
X154315026Y-99668295D01*
X154315026Y-99668295D02*
X154405741Y-99668295D01*
X154405741Y-99668295D02*
X154526693Y-99638057D01*
X154526693Y-99638057D02*
X154587169Y-99607819D01*
X154587169Y-99607819D02*
X154647646Y-99547343D01*
X154647646Y-99547343D02*
X154677884Y-99456628D01*
X154677884Y-99456628D02*
X154677884Y-99396152D01*
X154677884Y-99396152D02*
X154647646Y-99305438D01*
X154647646Y-99305438D02*
X154617407Y-99275200D01*
X154617407Y-99275200D02*
X154405741Y-99275200D01*
X154405741Y-99275200D02*
X154405741Y-99396152D01*
X154677884Y-99003057D02*
X154042884Y-99003057D01*
X154042884Y-99003057D02*
X154677884Y-98640200D01*
X154677884Y-98640200D02*
X154042884Y-98640200D01*
X154677884Y-98337819D02*
X154042884Y-98337819D01*
X154042884Y-98337819D02*
X154042884Y-98186629D01*
X154042884Y-98186629D02*
X154073122Y-98095914D01*
X154073122Y-98095914D02*
X154133598Y-98035438D01*
X154133598Y-98035438D02*
X154194074Y-98005200D01*
X154194074Y-98005200D02*
X154315026Y-97974962D01*
X154315026Y-97974962D02*
X154405741Y-97974962D01*
X154405741Y-97974962D02*
X154526693Y-98005200D01*
X154526693Y-98005200D02*
X154587169Y-98035438D01*
X154587169Y-98035438D02*
X154647646Y-98095914D01*
X154647646Y-98095914D02*
X154677884Y-98186629D01*
X154677884Y-98186629D02*
X154677884Y-98337819D01*
X134191477Y-92667761D02*
X134221715Y-92607285D01*
X134221715Y-92607285D02*
X134221715Y-92516571D01*
X134221715Y-92516571D02*
X134191477Y-92425856D01*
X134191477Y-92425856D02*
X134131001Y-92365380D01*
X134131001Y-92365380D02*
X134070525Y-92335142D01*
X134070525Y-92335142D02*
X133949573Y-92304904D01*
X133949573Y-92304904D02*
X133858858Y-92304904D01*
X133858858Y-92304904D02*
X133737906Y-92335142D01*
X133737906Y-92335142D02*
X133677430Y-92365380D01*
X133677430Y-92365380D02*
X133616954Y-92425856D01*
X133616954Y-92425856D02*
X133586715Y-92516571D01*
X133586715Y-92516571D02*
X133586715Y-92577047D01*
X133586715Y-92577047D02*
X133616954Y-92667761D01*
X133616954Y-92667761D02*
X133647192Y-92697999D01*
X133647192Y-92697999D02*
X133858858Y-92697999D01*
X133858858Y-92697999D02*
X133858858Y-92577047D01*
X133586715Y-92970142D02*
X134221715Y-92970142D01*
X134221715Y-92970142D02*
X133586715Y-93332999D01*
X133586715Y-93332999D02*
X134221715Y-93332999D01*
X133586715Y-93635380D02*
X134221715Y-93635380D01*
X134221715Y-93635380D02*
X134221715Y-93786570D01*
X134221715Y-93786570D02*
X134191477Y-93877285D01*
X134191477Y-93877285D02*
X134131001Y-93937761D01*
X134131001Y-93937761D02*
X134070525Y-93967999D01*
X134070525Y-93967999D02*
X133949573Y-93998237D01*
X133949573Y-93998237D02*
X133858858Y-93998237D01*
X133858858Y-93998237D02*
X133737906Y-93967999D01*
X133737906Y-93967999D02*
X133677430Y-93937761D01*
X133677430Y-93937761D02*
X133616954Y-93877285D01*
X133616954Y-93877285D02*
X133586715Y-93786570D01*
X133586715Y-93786570D02*
X133586715Y-93635380D01*
X143880209Y-110758865D02*
X143970923Y-110789103D01*
X143970923Y-110789103D02*
X144001161Y-110819341D01*
X144001161Y-110819341D02*
X144031399Y-110879817D01*
X144031399Y-110879817D02*
X144031399Y-110970531D01*
X144031399Y-110970531D02*
X144001161Y-111031007D01*
X144001161Y-111031007D02*
X143970923Y-111061246D01*
X143970923Y-111061246D02*
X143910447Y-111091484D01*
X143910447Y-111091484D02*
X143668542Y-111091484D01*
X143668542Y-111091484D02*
X143668542Y-110456484D01*
X143668542Y-110456484D02*
X143880209Y-110456484D01*
X143880209Y-110456484D02*
X143940685Y-110486722D01*
X143940685Y-110486722D02*
X143970923Y-110516960D01*
X143970923Y-110516960D02*
X144001161Y-110577436D01*
X144001161Y-110577436D02*
X144001161Y-110637912D01*
X144001161Y-110637912D02*
X143970923Y-110698388D01*
X143970923Y-110698388D02*
X143940685Y-110728626D01*
X143940685Y-110728626D02*
X143880209Y-110758865D01*
X143880209Y-110758865D02*
X143668542Y-110758865D01*
X144424494Y-110456484D02*
X144545447Y-110456484D01*
X144545447Y-110456484D02*
X144605923Y-110486722D01*
X144605923Y-110486722D02*
X144666399Y-110547198D01*
X144666399Y-110547198D02*
X144696637Y-110668150D01*
X144696637Y-110668150D02*
X144696637Y-110879817D01*
X144696637Y-110879817D02*
X144666399Y-111000769D01*
X144666399Y-111000769D02*
X144605923Y-111061246D01*
X144605923Y-111061246D02*
X144545447Y-111091484D01*
X144545447Y-111091484D02*
X144424494Y-111091484D01*
X144424494Y-111091484D02*
X144364018Y-111061246D01*
X144364018Y-111061246D02*
X144303542Y-111000769D01*
X144303542Y-111000769D02*
X144273304Y-110879817D01*
X144273304Y-110879817D02*
X144273304Y-110668150D01*
X144273304Y-110668150D02*
X144303542Y-110547198D01*
X144303542Y-110547198D02*
X144364018Y-110486722D01*
X144364018Y-110486722D02*
X144424494Y-110456484D01*
X145089732Y-110456484D02*
X145210685Y-110456484D01*
X145210685Y-110456484D02*
X145271161Y-110486722D01*
X145271161Y-110486722D02*
X145331637Y-110547198D01*
X145331637Y-110547198D02*
X145361875Y-110668150D01*
X145361875Y-110668150D02*
X145361875Y-110879817D01*
X145361875Y-110879817D02*
X145331637Y-111000769D01*
X145331637Y-111000769D02*
X145271161Y-111061246D01*
X145271161Y-111061246D02*
X145210685Y-111091484D01*
X145210685Y-111091484D02*
X145089732Y-111091484D01*
X145089732Y-111091484D02*
X145029256Y-111061246D01*
X145029256Y-111061246D02*
X144968780Y-111000769D01*
X144968780Y-111000769D02*
X144938542Y-110879817D01*
X144938542Y-110879817D02*
X144938542Y-110668150D01*
X144938542Y-110668150D02*
X144968780Y-110547198D01*
X144968780Y-110547198D02*
X145029256Y-110486722D01*
X145029256Y-110486722D02*
X145089732Y-110456484D01*
X145543304Y-110456484D02*
X145906161Y-110456484D01*
X145724732Y-111091484D02*
X145724732Y-110456484D01*
X150725160Y-86765095D02*
X150694922Y-86734857D01*
X150694922Y-86734857D02*
X150664684Y-86674381D01*
X150664684Y-86674381D02*
X150664684Y-86523190D01*
X150664684Y-86523190D02*
X150694922Y-86462714D01*
X150694922Y-86462714D02*
X150725160Y-86432476D01*
X150725160Y-86432476D02*
X150785636Y-86402238D01*
X150785636Y-86402238D02*
X150846112Y-86402238D01*
X150846112Y-86402238D02*
X150936826Y-86432476D01*
X150936826Y-86432476D02*
X151299684Y-86795333D01*
X151299684Y-86795333D02*
X151299684Y-86402238D01*
X150725160Y-86160333D02*
X150694922Y-86130095D01*
X150694922Y-86130095D02*
X150664684Y-86069619D01*
X150664684Y-86069619D02*
X150664684Y-85918428D01*
X150664684Y-85918428D02*
X150694922Y-85857952D01*
X150694922Y-85857952D02*
X150725160Y-85827714D01*
X150725160Y-85827714D02*
X150785636Y-85797476D01*
X150785636Y-85797476D02*
X150846112Y-85797476D01*
X150846112Y-85797476D02*
X150936826Y-85827714D01*
X150936826Y-85827714D02*
X151299684Y-86190571D01*
X151299684Y-86190571D02*
X151299684Y-85797476D01*
X151299684Y-85253190D02*
X150664684Y-85253190D01*
X151269446Y-85253190D02*
X151299684Y-85313666D01*
X151299684Y-85313666D02*
X151299684Y-85434619D01*
X151299684Y-85434619D02*
X151269446Y-85495095D01*
X151269446Y-85495095D02*
X151239207Y-85525333D01*
X151239207Y-85525333D02*
X151178731Y-85555571D01*
X151178731Y-85555571D02*
X150997303Y-85555571D01*
X150997303Y-85555571D02*
X150936826Y-85525333D01*
X150936826Y-85525333D02*
X150906588Y-85495095D01*
X150906588Y-85495095D02*
X150876350Y-85434619D01*
X150876350Y-85434619D02*
X150876350Y-85313666D01*
X150876350Y-85313666D02*
X150906588Y-85253190D01*
X150967065Y-84739142D02*
X150997303Y-84648428D01*
X150997303Y-84648428D02*
X151027541Y-84618190D01*
X151027541Y-84618190D02*
X151088017Y-84587952D01*
X151088017Y-84587952D02*
X151178731Y-84587952D01*
X151178731Y-84587952D02*
X151239207Y-84618190D01*
X151239207Y-84618190D02*
X151269446Y-84648428D01*
X151269446Y-84648428D02*
X151299684Y-84708904D01*
X151299684Y-84708904D02*
X151299684Y-84950809D01*
X151299684Y-84950809D02*
X150664684Y-84950809D01*
X150664684Y-84950809D02*
X150664684Y-84739142D01*
X150664684Y-84739142D02*
X150694922Y-84678666D01*
X150694922Y-84678666D02*
X150725160Y-84648428D01*
X150725160Y-84648428D02*
X150785636Y-84618190D01*
X150785636Y-84618190D02*
X150846112Y-84618190D01*
X150846112Y-84618190D02*
X150906588Y-84648428D01*
X150906588Y-84648428D02*
X150936826Y-84678666D01*
X150936826Y-84678666D02*
X150967065Y-84739142D01*
X150967065Y-84739142D02*
X150967065Y-84950809D01*
X151299684Y-84315809D02*
X150876350Y-84315809D01*
X150936826Y-84315809D02*
X150906588Y-84285571D01*
X150906588Y-84285571D02*
X150876350Y-84225095D01*
X150876350Y-84225095D02*
X150876350Y-84134380D01*
X150876350Y-84134380D02*
X150906588Y-84073904D01*
X150906588Y-84073904D02*
X150967065Y-84043666D01*
X150967065Y-84043666D02*
X151299684Y-84043666D01*
X150967065Y-84043666D02*
X150906588Y-84013428D01*
X150906588Y-84013428D02*
X150876350Y-83952952D01*
X150876350Y-83952952D02*
X150876350Y-83862238D01*
X150876350Y-83862238D02*
X150906588Y-83801761D01*
X150906588Y-83801761D02*
X150967065Y-83771523D01*
X150967065Y-83771523D02*
X151299684Y-83771523D01*
D10*
X134150758Y-84741657D02*
X133473425Y-84983562D01*
X133473425Y-84983562D02*
X134150758Y-85225467D01*
X134489425Y-85806038D02*
X134489425Y-85902800D01*
X134489425Y-85902800D02*
X134441044Y-85999562D01*
X134441044Y-85999562D02*
X134392663Y-86047943D01*
X134392663Y-86047943D02*
X134295901Y-86096324D01*
X134295901Y-86096324D02*
X134102377Y-86144705D01*
X134102377Y-86144705D02*
X133860472Y-86144705D01*
X133860472Y-86144705D02*
X133666948Y-86096324D01*
X133666948Y-86096324D02*
X133570186Y-86047943D01*
X133570186Y-86047943D02*
X133521806Y-85999562D01*
X133521806Y-85999562D02*
X133473425Y-85902800D01*
X133473425Y-85902800D02*
X133473425Y-85806038D01*
X133473425Y-85806038D02*
X133521806Y-85709276D01*
X133521806Y-85709276D02*
X133570186Y-85660895D01*
X133570186Y-85660895D02*
X133666948Y-85612514D01*
X133666948Y-85612514D02*
X133860472Y-85564133D01*
X133860472Y-85564133D02*
X134102377Y-85564133D01*
X134102377Y-85564133D02*
X134295901Y-85612514D01*
X134295901Y-85612514D02*
X134392663Y-85660895D01*
X134392663Y-85660895D02*
X134441044Y-85709276D01*
X134441044Y-85709276D02*
X134489425Y-85806038D01*
X134489425Y-86773657D02*
X134489425Y-86870419D01*
X134489425Y-86870419D02*
X134441044Y-86967181D01*
X134441044Y-86967181D02*
X134392663Y-87015562D01*
X134392663Y-87015562D02*
X134295901Y-87063943D01*
X134295901Y-87063943D02*
X134102377Y-87112324D01*
X134102377Y-87112324D02*
X133860472Y-87112324D01*
X133860472Y-87112324D02*
X133666948Y-87063943D01*
X133666948Y-87063943D02*
X133570186Y-87015562D01*
X133570186Y-87015562D02*
X133521806Y-86967181D01*
X133521806Y-86967181D02*
X133473425Y-86870419D01*
X133473425Y-86870419D02*
X133473425Y-86773657D01*
X133473425Y-86773657D02*
X133521806Y-86676895D01*
X133521806Y-86676895D02*
X133570186Y-86628514D01*
X133570186Y-86628514D02*
X133666948Y-86580133D01*
X133666948Y-86580133D02*
X133860472Y-86531752D01*
X133860472Y-86531752D02*
X134102377Y-86531752D01*
X134102377Y-86531752D02*
X134295901Y-86580133D01*
X134295901Y-86580133D02*
X134392663Y-86628514D01*
X134392663Y-86628514D02*
X134441044Y-86676895D01*
X134441044Y-86676895D02*
X134489425Y-86773657D01*
X133473425Y-87983181D02*
X134005615Y-87983181D01*
X134005615Y-87983181D02*
X134102377Y-87934800D01*
X134102377Y-87934800D02*
X134150758Y-87838038D01*
X134150758Y-87838038D02*
X134150758Y-87644514D01*
X134150758Y-87644514D02*
X134102377Y-87547752D01*
X133521806Y-87983181D02*
X133473425Y-87886419D01*
X133473425Y-87886419D02*
X133473425Y-87644514D01*
X133473425Y-87644514D02*
X133521806Y-87547752D01*
X133521806Y-87547752D02*
X133618567Y-87499371D01*
X133618567Y-87499371D02*
X133715329Y-87499371D01*
X133715329Y-87499371D02*
X133812091Y-87547752D01*
X133812091Y-87547752D02*
X133860472Y-87644514D01*
X133860472Y-87644514D02*
X133860472Y-87886419D01*
X133860472Y-87886419D02*
X133908853Y-87983181D01*
D11*
X153992084Y-94948733D02*
X153992084Y-94555638D01*
X153992084Y-94555638D02*
X154233988Y-94767305D01*
X154233988Y-94767305D02*
X154233988Y-94676590D01*
X154233988Y-94676590D02*
X154264226Y-94616114D01*
X154264226Y-94616114D02*
X154294465Y-94585876D01*
X154294465Y-94585876D02*
X154354941Y-94555638D01*
X154354941Y-94555638D02*
X154506131Y-94555638D01*
X154506131Y-94555638D02*
X154566607Y-94585876D01*
X154566607Y-94585876D02*
X154596846Y-94616114D01*
X154596846Y-94616114D02*
X154627084Y-94676590D01*
X154627084Y-94676590D02*
X154627084Y-94858019D01*
X154627084Y-94858019D02*
X154596846Y-94918495D01*
X154596846Y-94918495D02*
X154566607Y-94948733D01*
X153992084Y-94374209D02*
X154627084Y-94162543D01*
X154627084Y-94162543D02*
X153992084Y-93950876D01*
X153992084Y-93799685D02*
X153992084Y-93406590D01*
X153992084Y-93406590D02*
X154233988Y-93618257D01*
X154233988Y-93618257D02*
X154233988Y-93527542D01*
X154233988Y-93527542D02*
X154264226Y-93467066D01*
X154264226Y-93467066D02*
X154294465Y-93436828D01*
X154294465Y-93436828D02*
X154354941Y-93406590D01*
X154354941Y-93406590D02*
X154506131Y-93406590D01*
X154506131Y-93406590D02*
X154566607Y-93436828D01*
X154566607Y-93436828D02*
X154596846Y-93467066D01*
X154596846Y-93467066D02*
X154627084Y-93527542D01*
X154627084Y-93527542D02*
X154627084Y-93708971D01*
X154627084Y-93708971D02*
X154596846Y-93769447D01*
X154596846Y-93769447D02*
X154566607Y-93799685D01*
X152067198Y-86669543D02*
X152036960Y-86730019D01*
X152036960Y-86730019D02*
X152006722Y-86760257D01*
X152006722Y-86760257D02*
X151946246Y-86790495D01*
X151946246Y-86790495D02*
X151916008Y-86790495D01*
X151916008Y-86790495D02*
X151855532Y-86760257D01*
X151855532Y-86760257D02*
X151825294Y-86730019D01*
X151825294Y-86730019D02*
X151795056Y-86669543D01*
X151795056Y-86669543D02*
X151795056Y-86548590D01*
X151795056Y-86548590D02*
X151825294Y-86488114D01*
X151825294Y-86488114D02*
X151855532Y-86457876D01*
X151855532Y-86457876D02*
X151916008Y-86427638D01*
X151916008Y-86427638D02*
X151946246Y-86427638D01*
X151946246Y-86427638D02*
X152006722Y-86457876D01*
X152006722Y-86457876D02*
X152036960Y-86488114D01*
X152036960Y-86488114D02*
X152067198Y-86548590D01*
X152067198Y-86548590D02*
X152067198Y-86669543D01*
X152067198Y-86669543D02*
X152097437Y-86730019D01*
X152097437Y-86730019D02*
X152127675Y-86760257D01*
X152127675Y-86760257D02*
X152188151Y-86790495D01*
X152188151Y-86790495D02*
X152309103Y-86790495D01*
X152309103Y-86790495D02*
X152369579Y-86760257D01*
X152369579Y-86760257D02*
X152399818Y-86730019D01*
X152399818Y-86730019D02*
X152430056Y-86669543D01*
X152430056Y-86669543D02*
X152430056Y-86548590D01*
X152430056Y-86548590D02*
X152399818Y-86488114D01*
X152399818Y-86488114D02*
X152369579Y-86457876D01*
X152369579Y-86457876D02*
X152309103Y-86427638D01*
X152309103Y-86427638D02*
X152188151Y-86427638D01*
X152188151Y-86427638D02*
X152127675Y-86457876D01*
X152127675Y-86457876D02*
X152097437Y-86488114D01*
X152097437Y-86488114D02*
X152067198Y-86548590D01*
X151795056Y-85883352D02*
X151795056Y-86004305D01*
X151795056Y-86004305D02*
X151825294Y-86064781D01*
X151825294Y-86064781D02*
X151855532Y-86095019D01*
X151855532Y-86095019D02*
X151946246Y-86155495D01*
X151946246Y-86155495D02*
X152067198Y-86185733D01*
X152067198Y-86185733D02*
X152309103Y-86185733D01*
X152309103Y-86185733D02*
X152369579Y-86155495D01*
X152369579Y-86155495D02*
X152399818Y-86125257D01*
X152399818Y-86125257D02*
X152430056Y-86064781D01*
X152430056Y-86064781D02*
X152430056Y-85943828D01*
X152430056Y-85943828D02*
X152399818Y-85883352D01*
X152399818Y-85883352D02*
X152369579Y-85853114D01*
X152369579Y-85853114D02*
X152309103Y-85822876D01*
X152309103Y-85822876D02*
X152157913Y-85822876D01*
X152157913Y-85822876D02*
X152097437Y-85853114D01*
X152097437Y-85853114D02*
X152067198Y-85883352D01*
X152067198Y-85883352D02*
X152036960Y-85943828D01*
X152036960Y-85943828D02*
X152036960Y-86064781D01*
X152036960Y-86064781D02*
X152067198Y-86125257D01*
X152067198Y-86125257D02*
X152097437Y-86155495D01*
X152097437Y-86155495D02*
X152157913Y-86185733D01*
X151855532Y-85580971D02*
X151825294Y-85550733D01*
X151825294Y-85550733D02*
X151795056Y-85490257D01*
X151795056Y-85490257D02*
X151795056Y-85339066D01*
X151795056Y-85339066D02*
X151825294Y-85278590D01*
X151825294Y-85278590D02*
X151855532Y-85248352D01*
X151855532Y-85248352D02*
X151916008Y-85218114D01*
X151916008Y-85218114D02*
X151976484Y-85218114D01*
X151976484Y-85218114D02*
X152067198Y-85248352D01*
X152067198Y-85248352D02*
X152430056Y-85611209D01*
X152430056Y-85611209D02*
X152430056Y-85218114D01*
X153452370Y-86730019D02*
X153452370Y-86609067D01*
X153452370Y-86609067D02*
X153422132Y-86548590D01*
X153422132Y-86548590D02*
X153391893Y-86518352D01*
X153391893Y-86518352D02*
X153301179Y-86457876D01*
X153301179Y-86457876D02*
X153180227Y-86427638D01*
X153180227Y-86427638D02*
X152938322Y-86427638D01*
X152938322Y-86427638D02*
X152877846Y-86457876D01*
X152877846Y-86457876D02*
X152847608Y-86488114D01*
X152847608Y-86488114D02*
X152817370Y-86548590D01*
X152817370Y-86548590D02*
X152817370Y-86669543D01*
X152817370Y-86669543D02*
X152847608Y-86730019D01*
X152847608Y-86730019D02*
X152877846Y-86760257D01*
X152877846Y-86760257D02*
X152938322Y-86790495D01*
X152938322Y-86790495D02*
X153089512Y-86790495D01*
X153089512Y-86790495D02*
X153149989Y-86760257D01*
X153149989Y-86760257D02*
X153180227Y-86730019D01*
X153180227Y-86730019D02*
X153210465Y-86669543D01*
X153210465Y-86669543D02*
X153210465Y-86548590D01*
X153210465Y-86548590D02*
X153180227Y-86488114D01*
X153180227Y-86488114D02*
X153149989Y-86457876D01*
X153149989Y-86457876D02*
X153089512Y-86427638D01*
X152877846Y-86185733D02*
X152847608Y-86155495D01*
X152847608Y-86155495D02*
X152817370Y-86095019D01*
X152817370Y-86095019D02*
X152817370Y-85943828D01*
X152817370Y-85943828D02*
X152847608Y-85883352D01*
X152847608Y-85883352D02*
X152877846Y-85853114D01*
X152877846Y-85853114D02*
X152938322Y-85822876D01*
X152938322Y-85822876D02*
X152998798Y-85822876D01*
X152998798Y-85822876D02*
X153089512Y-85853114D01*
X153089512Y-85853114D02*
X153452370Y-86215971D01*
X153452370Y-86215971D02*
X153452370Y-85822876D01*
X153089512Y-85460019D02*
X153059274Y-85520495D01*
X153059274Y-85520495D02*
X153029036Y-85550733D01*
X153029036Y-85550733D02*
X152968560Y-85580971D01*
X152968560Y-85580971D02*
X152938322Y-85580971D01*
X152938322Y-85580971D02*
X152877846Y-85550733D01*
X152877846Y-85550733D02*
X152847608Y-85520495D01*
X152847608Y-85520495D02*
X152817370Y-85460019D01*
X152817370Y-85460019D02*
X152817370Y-85339066D01*
X152817370Y-85339066D02*
X152847608Y-85278590D01*
X152847608Y-85278590D02*
X152877846Y-85248352D01*
X152877846Y-85248352D02*
X152938322Y-85218114D01*
X152938322Y-85218114D02*
X152968560Y-85218114D01*
X152968560Y-85218114D02*
X153029036Y-85248352D01*
X153029036Y-85248352D02*
X153059274Y-85278590D01*
X153059274Y-85278590D02*
X153089512Y-85339066D01*
X153089512Y-85339066D02*
X153089512Y-85460019D01*
X153089512Y-85460019D02*
X153119751Y-85520495D01*
X153119751Y-85520495D02*
X153149989Y-85550733D01*
X153149989Y-85550733D02*
X153210465Y-85580971D01*
X153210465Y-85580971D02*
X153331417Y-85580971D01*
X153331417Y-85580971D02*
X153391893Y-85550733D01*
X153391893Y-85550733D02*
X153422132Y-85520495D01*
X153422132Y-85520495D02*
X153452370Y-85460019D01*
X153452370Y-85460019D02*
X153452370Y-85339066D01*
X153452370Y-85339066D02*
X153422132Y-85278590D01*
X153422132Y-85278590D02*
X153391893Y-85248352D01*
X153391893Y-85248352D02*
X153331417Y-85218114D01*
X153331417Y-85218114D02*
X153210465Y-85218114D01*
X153210465Y-85218114D02*
X153149989Y-85248352D01*
X153149989Y-85248352D02*
X153119751Y-85278590D01*
X153119751Y-85278590D02*
X153089512Y-85339066D01*
X154474684Y-86760257D02*
X153839684Y-86760257D01*
X153839684Y-86760257D02*
X154293255Y-86548590D01*
X154293255Y-86548590D02*
X153839684Y-86336924D01*
X153839684Y-86336924D02*
X154474684Y-86336924D01*
X154474684Y-86034543D02*
X153839684Y-86034543D01*
X154142065Y-86034543D02*
X154142065Y-85671686D01*
X154474684Y-85671686D02*
X153839684Y-85671686D01*
X154051350Y-85429781D02*
X154051350Y-85097162D01*
X154051350Y-85097162D02*
X154474684Y-85429781D01*
X154474684Y-85429781D02*
X154474684Y-85097162D01*
X146919742Y-90974684D02*
X146919742Y-91488731D01*
X146919742Y-91488731D02*
X146949980Y-91549207D01*
X146949980Y-91549207D02*
X146980218Y-91579446D01*
X146980218Y-91579446D02*
X147040694Y-91609684D01*
X147040694Y-91609684D02*
X147161647Y-91609684D01*
X147161647Y-91609684D02*
X147222123Y-91579446D01*
X147222123Y-91579446D02*
X147252361Y-91549207D01*
X147252361Y-91549207D02*
X147282599Y-91488731D01*
X147282599Y-91488731D02*
X147282599Y-90974684D01*
X147524504Y-90974684D02*
X147917599Y-90974684D01*
X147917599Y-90974684D02*
X147705932Y-91216588D01*
X147705932Y-91216588D02*
X147796647Y-91216588D01*
X147796647Y-91216588D02*
X147857123Y-91246826D01*
X147857123Y-91246826D02*
X147887361Y-91277065D01*
X147887361Y-91277065D02*
X147917599Y-91337541D01*
X147917599Y-91337541D02*
X147917599Y-91488731D01*
X147917599Y-91488731D02*
X147887361Y-91549207D01*
X147887361Y-91549207D02*
X147857123Y-91579446D01*
X147857123Y-91579446D02*
X147796647Y-91609684D01*
X147796647Y-91609684D02*
X147615218Y-91609684D01*
X147615218Y-91609684D02*
X147554742Y-91579446D01*
X147554742Y-91579446D02*
X147524504Y-91549207D01*
X142645190Y-82583159D02*
X142645190Y-83097206D01*
X142645190Y-83097206D02*
X142675428Y-83157682D01*
X142675428Y-83157682D02*
X142705666Y-83187921D01*
X142705666Y-83187921D02*
X142766142Y-83218159D01*
X142766142Y-83218159D02*
X142887095Y-83218159D01*
X142887095Y-83218159D02*
X142947571Y-83187921D01*
X142947571Y-83187921D02*
X142977809Y-83157682D01*
X142977809Y-83157682D02*
X143008047Y-83097206D01*
X143008047Y-83097206D02*
X143008047Y-82583159D01*
X143582571Y-82583159D02*
X143461618Y-82583159D01*
X143461618Y-82583159D02*
X143401142Y-82613397D01*
X143401142Y-82613397D02*
X143370904Y-82643635D01*
X143370904Y-82643635D02*
X143310428Y-82734349D01*
X143310428Y-82734349D02*
X143280190Y-82855301D01*
X143280190Y-82855301D02*
X143280190Y-83097206D01*
X143280190Y-83097206D02*
X143310428Y-83157682D01*
X143310428Y-83157682D02*
X143340666Y-83187921D01*
X143340666Y-83187921D02*
X143401142Y-83218159D01*
X143401142Y-83218159D02*
X143522095Y-83218159D01*
X143522095Y-83218159D02*
X143582571Y-83187921D01*
X143582571Y-83187921D02*
X143612809Y-83157682D01*
X143612809Y-83157682D02*
X143643047Y-83097206D01*
X143643047Y-83097206D02*
X143643047Y-82946016D01*
X143643047Y-82946016D02*
X143612809Y-82885540D01*
X143612809Y-82885540D02*
X143582571Y-82855301D01*
X143582571Y-82855301D02*
X143522095Y-82825063D01*
X143522095Y-82825063D02*
X143401142Y-82825063D01*
X143401142Y-82825063D02*
X143340666Y-82855301D01*
X143340666Y-82855301D02*
X143310428Y-82885540D01*
X143310428Y-82885540D02*
X143280190Y-82946016D01*
X150014818Y-103769178D02*
X150014818Y-104071559D01*
X149803152Y-103436559D02*
X150014818Y-103769178D01*
X150014818Y-103769178D02*
X150226485Y-103436559D01*
X150407914Y-103497035D02*
X150438152Y-103466797D01*
X150438152Y-103466797D02*
X150498628Y-103436559D01*
X150498628Y-103436559D02*
X150649819Y-103436559D01*
X150649819Y-103436559D02*
X150710295Y-103466797D01*
X150710295Y-103466797D02*
X150740533Y-103497035D01*
X150740533Y-103497035D02*
X150770771Y-103557511D01*
X150770771Y-103557511D02*
X150770771Y-103617987D01*
X150770771Y-103617987D02*
X150740533Y-103708701D01*
X150740533Y-103708701D02*
X150377676Y-104071559D01*
X150377676Y-104071559D02*
X150770771Y-104071559D01*
X137775742Y-105325684D02*
X137775742Y-105839731D01*
X137775742Y-105839731D02*
X137805980Y-105900207D01*
X137805980Y-105900207D02*
X137836218Y-105930446D01*
X137836218Y-105930446D02*
X137896694Y-105960684D01*
X137896694Y-105960684D02*
X138017647Y-105960684D01*
X138017647Y-105960684D02*
X138078123Y-105930446D01*
X138078123Y-105930446D02*
X138108361Y-105900207D01*
X138108361Y-105900207D02*
X138138599Y-105839731D01*
X138138599Y-105839731D02*
X138138599Y-105325684D01*
X138713123Y-105537350D02*
X138713123Y-105960684D01*
X138561932Y-105295446D02*
X138410742Y-105749017D01*
X138410742Y-105749017D02*
X138803837Y-105749017D01*
X149122190Y-97442159D02*
X149122190Y-97956206D01*
X149122190Y-97956206D02*
X149152428Y-98016682D01*
X149152428Y-98016682D02*
X149182666Y-98046921D01*
X149182666Y-98046921D02*
X149243142Y-98077159D01*
X149243142Y-98077159D02*
X149364095Y-98077159D01*
X149364095Y-98077159D02*
X149424571Y-98046921D01*
X149424571Y-98046921D02*
X149454809Y-98016682D01*
X149454809Y-98016682D02*
X149485047Y-97956206D01*
X149485047Y-97956206D02*
X149485047Y-97442159D01*
X150089809Y-97442159D02*
X149787428Y-97442159D01*
X149787428Y-97442159D02*
X149757190Y-97744540D01*
X149757190Y-97744540D02*
X149787428Y-97714301D01*
X149787428Y-97714301D02*
X149847904Y-97684063D01*
X149847904Y-97684063D02*
X149999095Y-97684063D01*
X149999095Y-97684063D02*
X150059571Y-97714301D01*
X150059571Y-97714301D02*
X150089809Y-97744540D01*
X150089809Y-97744540D02*
X150120047Y-97805016D01*
X150120047Y-97805016D02*
X150120047Y-97956206D01*
X150120047Y-97956206D02*
X150089809Y-98016682D01*
X150089809Y-98016682D02*
X150059571Y-98046921D01*
X150059571Y-98046921D02*
X149999095Y-98077159D01*
X149999095Y-98077159D02*
X149847904Y-98077159D01*
X149847904Y-98077159D02*
X149787428Y-98046921D01*
X149787428Y-98046921D02*
X149757190Y-98016682D01*
X139934742Y-86148684D02*
X139934742Y-86662731D01*
X139934742Y-86662731D02*
X139964980Y-86723207D01*
X139964980Y-86723207D02*
X139995218Y-86753446D01*
X139995218Y-86753446D02*
X140055694Y-86783684D01*
X140055694Y-86783684D02*
X140176647Y-86783684D01*
X140176647Y-86783684D02*
X140237123Y-86753446D01*
X140237123Y-86753446D02*
X140267361Y-86723207D01*
X140267361Y-86723207D02*
X140297599Y-86662731D01*
X140297599Y-86662731D02*
X140297599Y-86148684D01*
X140932599Y-86783684D02*
X140569742Y-86783684D01*
X140751170Y-86783684D02*
X140751170Y-86148684D01*
X140751170Y-86148684D02*
X140690694Y-86239398D01*
X140690694Y-86239398D02*
X140630218Y-86299874D01*
X140630218Y-86299874D02*
X140569742Y-86330112D01*
X138073190Y-97569159D02*
X138073190Y-98083206D01*
X138073190Y-98083206D02*
X138103428Y-98143682D01*
X138103428Y-98143682D02*
X138133666Y-98173921D01*
X138133666Y-98173921D02*
X138194142Y-98204159D01*
X138194142Y-98204159D02*
X138315095Y-98204159D01*
X138315095Y-98204159D02*
X138375571Y-98173921D01*
X138375571Y-98173921D02*
X138405809Y-98143682D01*
X138405809Y-98143682D02*
X138436047Y-98083206D01*
X138436047Y-98083206D02*
X138436047Y-97569159D01*
X138677952Y-97569159D02*
X139101285Y-97569159D01*
X139101285Y-97569159D02*
X138829142Y-98204159D01*
D12*
X146856650Y-87877000D02*
G75*
G02*
X146693150Y-87877000I-81750J0D01*
G01*
X146693150Y-87877000D02*
G75*
G02*
X146856650Y-87877000I81750J0D01*
G01*
D13*
X140364000Y-96788664D02*
X140364000Y-97004336D01*
X141084000Y-96788664D02*
X141084000Y-97004336D01*
X133290000Y-94311000D02*
X133985000Y-94311000D01*
X133290000Y-94996000D02*
X133290000Y-94311000D01*
X133290000Y-95681000D02*
X133290000Y-96556000D01*
X133290000Y-95681000D02*
X133376724Y-95681000D01*
X133290000Y-96556000D02*
X133590507Y-96556000D01*
X134379493Y-96556000D02*
X134680000Y-96556000D01*
X134593276Y-95681000D02*
X134680000Y-95681000D01*
X134680000Y-95681000D02*
X134680000Y-96556000D01*
X139600164Y-99302500D02*
X139815836Y-99302500D01*
X139600164Y-100022500D02*
X139815836Y-100022500D01*
X151832900Y-87802000D02*
X151832900Y-88442000D01*
X151832900Y-88442000D02*
X151202900Y-88442000D01*
X151832900Y-90602000D02*
X151832900Y-89962000D01*
X154552900Y-87852000D02*
X154552900Y-90552000D01*
X139721000Y-94976836D02*
X139721000Y-94761164D01*
X140441000Y-94976836D02*
X140441000Y-94761164D01*
X141575200Y-96793164D02*
X141575200Y-97008836D01*
X142295200Y-96793164D02*
X142295200Y-97008836D01*
D14*
X149187246Y-88353886D02*
G75*
G02*
X149035646Y-88353886I-75800J0D01*
G01*
X149035646Y-88353886D02*
G75*
G02*
X149187246Y-88353886I75800J0D01*
G01*
D13*
X141628969Y-83409865D02*
X141628969Y-83789865D01*
X142012969Y-83409865D02*
X141628969Y-83409865D01*
X151139000Y-104741000D02*
X154439000Y-104741000D01*
X154439000Y-104741000D02*
X154439000Y-100741000D01*
D15*
X136446000Y-106212000D02*
X142446000Y-106212000D01*
X136446000Y-111212000D02*
X136446000Y-106212000D01*
X142446000Y-106212000D02*
X142446000Y-111212000D01*
X142446000Y-111212000D02*
X136446000Y-111212000D01*
D16*
X142946000Y-111342000D02*
G75*
G02*
X142696000Y-111342000I-125000J0D01*
G01*
X142696000Y-111342000D02*
G75*
G02*
X142946000Y-111342000I125000J0D01*
G01*
D13*
X139854164Y-98413500D02*
X140069836Y-98413500D01*
X139854164Y-99133500D02*
X140069836Y-99133500D01*
X135276000Y-95777164D02*
X135276000Y-95992836D01*
X135996000Y-95777164D02*
X135996000Y-95992836D01*
X146508000Y-110057000D02*
X146508000Y-109347000D01*
X146633000Y-107637000D02*
X152753000Y-107637000D01*
X146633000Y-107952507D02*
X146633000Y-107637000D01*
X147193000Y-110057000D02*
X146508000Y-110057000D01*
X147878000Y-110057000D02*
X147878000Y-109955276D01*
X147878000Y-110057000D02*
X152753000Y-110057000D01*
X152753000Y-107952507D02*
X152753000Y-107637000D01*
X152753000Y-108952507D02*
X152753000Y-108741493D01*
X152753000Y-110057000D02*
X152753000Y-109741493D01*
X152162200Y-97184000D02*
X152162200Y-94309000D01*
X152248924Y-97184000D02*
X152162200Y-97184000D01*
X152462707Y-94309000D02*
X152162200Y-94309000D01*
X153552200Y-94309000D02*
X153251693Y-94309000D01*
X153552200Y-97184000D02*
X153465476Y-97184000D01*
X153552200Y-97184000D02*
X153552200Y-94309000D01*
X153552200Y-97869000D02*
X153552200Y-98554000D01*
X153552200Y-98554000D02*
X152857200Y-98554000D01*
X137648836Y-92477000D02*
X137433164Y-92477000D01*
X137648836Y-93197000D02*
X137433164Y-93197000D01*
X144273000Y-109371641D02*
X144273000Y-109064359D01*
X145033000Y-109371641D02*
X145033000Y-109064359D01*
X136064164Y-90318000D02*
X136279836Y-90318000D01*
X136064164Y-91038000D02*
X136279836Y-91038000D01*
X141302000Y-98347000D02*
X141952000Y-98347000D01*
X141302000Y-98997000D02*
X141302000Y-98347000D01*
X141302000Y-104917000D02*
X141302000Y-105267000D01*
X141952000Y-105567000D02*
X141542000Y-105567000D01*
X148522000Y-98347000D02*
X147872000Y-98347000D01*
X148522000Y-98997000D02*
X148522000Y-98347000D01*
X148522000Y-104917000D02*
X148522000Y-105567000D01*
X148522000Y-105567000D02*
X147872000Y-105567000D01*
X141302000Y-105567000D02*
X140972000Y-105807000D01*
X140972000Y-105327000D01*
X141302000Y-105567000D01*
G36*
X141302000Y-105567000D02*
G01*
X140972000Y-105807000D01*
X140972000Y-105327000D01*
X141302000Y-105567000D01*
G37*
X132780600Y-97730000D02*
X133030600Y-97730000D01*
X132780600Y-105530000D02*
X133030600Y-105530000D01*
X135330600Y-97730000D02*
X137180600Y-97730000D01*
X135330600Y-105530000D02*
X137180600Y-105530000D01*
X137180600Y-97730000D02*
X137180600Y-98180000D01*
X137180600Y-105530000D02*
X137180600Y-105080000D01*
X137730600Y-99930000D02*
X137280600Y-99930000D01*
X137730600Y-99930000D02*
X137730600Y-100380000D01*
D15*
X140849900Y-87352000D02*
X141349900Y-87352000D01*
X140849900Y-87852000D02*
X140849900Y-87352000D01*
X140849900Y-91752000D02*
X140849900Y-91252000D01*
X140849900Y-91752000D02*
X141349900Y-91752000D01*
X144749900Y-87352000D02*
X145049900Y-87352000D01*
X144749900Y-91752000D02*
X145249900Y-91752000D01*
X145049900Y-87352000D02*
X145249900Y-87552000D01*
X145249900Y-87852000D02*
X145249900Y-87552000D01*
X145249900Y-91752000D02*
X145249900Y-91302000D01*
D17*
X145495150Y-87202000D02*
G75*
G02*
X145304650Y-87202000I-95250J0D01*
G01*
X145304650Y-87202000D02*
G75*
G02*
X145495150Y-87202000I95250J0D01*
G01*
D13*
X143130000Y-109064359D02*
X143130000Y-109371641D01*
X143890000Y-109064359D02*
X143890000Y-109371641D01*
X136362000Y-95377000D02*
X136362000Y-94577000D01*
X136362000Y-95377000D02*
X136362000Y-96177000D01*
X139482000Y-95377000D02*
X139482000Y-94577000D01*
X139482000Y-95377000D02*
X139482000Y-96177000D01*
X136412000Y-96677000D02*
X136082000Y-96917000D01*
X136082000Y-96437000D01*
X136412000Y-96677000D01*
G36*
X136412000Y-96677000D02*
G01*
X136082000Y-96917000D01*
X136082000Y-96437000D01*
X136412000Y-96677000D01*
G37*
D15*
X150672000Y-97573500D02*
G75*
G02*
X150572000Y-97573500I-50000J0D01*
G01*
X150572000Y-97573500D02*
G75*
G02*
X150672000Y-97573500I50000J0D01*
G01*
%LPC*%
D18*
X147334514Y-107126190D02*
X147334514Y-106364190D01*
X147334514Y-106727047D02*
X147769943Y-106727047D01*
X147769943Y-107126190D02*
X147769943Y-106364190D01*
X148277943Y-106364190D02*
X148423086Y-106364190D01*
X148423086Y-106364190D02*
X148495657Y-106400476D01*
X148495657Y-106400476D02*
X148568229Y-106473047D01*
X148568229Y-106473047D02*
X148604514Y-106618190D01*
X148604514Y-106618190D02*
X148604514Y-106872190D01*
X148604514Y-106872190D02*
X148568229Y-107017333D01*
X148568229Y-107017333D02*
X148495657Y-107089905D01*
X148495657Y-107089905D02*
X148423086Y-107126190D01*
X148423086Y-107126190D02*
X148277943Y-107126190D01*
X148277943Y-107126190D02*
X148205372Y-107089905D01*
X148205372Y-107089905D02*
X148132800Y-107017333D01*
X148132800Y-107017333D02*
X148096514Y-106872190D01*
X148096514Y-106872190D02*
X148096514Y-106618190D01*
X148096514Y-106618190D02*
X148132800Y-106473047D01*
X148132800Y-106473047D02*
X148205372Y-106400476D01*
X148205372Y-106400476D02*
X148277943Y-106364190D01*
X149293943Y-107126190D02*
X148931086Y-107126190D01*
X148931086Y-107126190D02*
X148931086Y-106364190D01*
X149910800Y-107126190D02*
X149547943Y-107126190D01*
X149547943Y-107126190D02*
X149547943Y-106364190D01*
X150164800Y-107126190D02*
X150164800Y-106364190D01*
X150527657Y-107126190D02*
X150527657Y-106364190D01*
X150527657Y-106364190D02*
X150709086Y-106364190D01*
X150709086Y-106364190D02*
X150817943Y-106400476D01*
X150817943Y-106400476D02*
X150890514Y-106473047D01*
X150890514Y-106473047D02*
X150926800Y-106545619D01*
X150926800Y-106545619D02*
X150963086Y-106690762D01*
X150963086Y-106690762D02*
X150963086Y-106799619D01*
X150963086Y-106799619D02*
X150926800Y-106944762D01*
X150926800Y-106944762D02*
X150890514Y-107017333D01*
X150890514Y-107017333D02*
X150817943Y-107089905D01*
X150817943Y-107089905D02*
X150709086Y-107126190D01*
X150709086Y-107126190D02*
X150527657Y-107126190D01*
X151253371Y-106908476D02*
X151616229Y-106908476D01*
X151180800Y-107126190D02*
X151434800Y-106364190D01*
X151434800Y-106364190D02*
X151688800Y-107126190D01*
X152087943Y-106763333D02*
X152087943Y-107126190D01*
X151833943Y-106364190D02*
X152087943Y-106763333D01*
X152087943Y-106763333D02*
X152341943Y-106364190D01*
G36*
X152202900Y-88262000D02*
G01*
X154292900Y-88262000D01*
X154292900Y-90142000D01*
X152202900Y-90142000D01*
X152202900Y-88262000D01*
G37*
D19*
X148849900Y-87002000D03*
X148849900Y-87602000D03*
D20*
X145912000Y-107247490D03*
X145912000Y-106647500D03*
D21*
X146899900Y-88302000D03*
X146899900Y-88802000D03*
X146899900Y-89302000D03*
X146899900Y-89802000D03*
D22*
X147549900Y-90127000D03*
D21*
X148199900Y-89802000D03*
X148199900Y-89302000D03*
X148199900Y-88802000D03*
X148199900Y-88302000D03*
D22*
X147549900Y-87977000D03*
D19*
X145516600Y-96855000D03*
X145516600Y-97454990D03*
D23*
X140724000Y-96416500D03*
X140724000Y-97376500D03*
D24*
X133985000Y-94996000D03*
D25*
X133985000Y-95996000D03*
D26*
X140008000Y-105410000D03*
X139408000Y-105410000D03*
D19*
X146824900Y-86452000D03*
X146824900Y-87051990D03*
D27*
X144754600Y-83947000D03*
X144754600Y-84747000D03*
D28*
X139228000Y-99662500D03*
X140188000Y-99662500D03*
D29*
X151667900Y-89202000D03*
D30*
X153192900Y-87727000D03*
X153192900Y-90677000D03*
D31*
X140081000Y-95349000D03*
X140081000Y-94389000D03*
D23*
X141935200Y-96421000D03*
X141935200Y-97381000D03*
D26*
X150674900Y-89202000D03*
X150074910Y-89202000D03*
D32*
X149049900Y-88802000D03*
X149049900Y-89202000D03*
X149049900Y-89602000D03*
X149449900Y-89602000D03*
X149449900Y-89202000D03*
X149449900Y-88802000D03*
D19*
X144124000Y-83882000D03*
X144124000Y-84481990D03*
X149449900Y-87002000D03*
X149449900Y-87601990D03*
X140024900Y-90177000D03*
X140024900Y-90776990D03*
D33*
X142198000Y-84009000D03*
X142198000Y-85409000D03*
X143298000Y-85409000D03*
X143298000Y-84009000D03*
D20*
X149449900Y-91452000D03*
X149449900Y-90852010D03*
D26*
X150503000Y-101491500D03*
X149903010Y-101491500D03*
D34*
X153639000Y-103841000D03*
X153639000Y-101641000D03*
X151939000Y-101641000D03*
X151939000Y-103841000D03*
D35*
X139899900Y-88282000D03*
X139899900Y-87482000D03*
D36*
X142296000Y-110617000D03*
X142296000Y-109347000D03*
X142296000Y-108077000D03*
X142296000Y-106807000D03*
X136596000Y-106807000D03*
X136596000Y-108077000D03*
X136596000Y-109347000D03*
X136596000Y-110617000D03*
D37*
X139446000Y-108712000D03*
D28*
X139482000Y-98773500D03*
X140442000Y-98773500D03*
D23*
X135636000Y-95405000D03*
X135636000Y-96365000D03*
D24*
X147193000Y-109347000D03*
D25*
X147193000Y-108347000D03*
X148193000Y-109347000D03*
X148193000Y-108347000D03*
X149193000Y-109347000D03*
X149193000Y-108347000D03*
X150193000Y-109347000D03*
X150193000Y-108347000D03*
X151193000Y-109347000D03*
X151193000Y-108347000D03*
X152193000Y-109347000D03*
X152193000Y-108347000D03*
D24*
X152857200Y-97869000D03*
D25*
X152857200Y-96869000D03*
X152857200Y-95869000D03*
X152857200Y-94869000D03*
D27*
X146124900Y-87352000D03*
X146124900Y-88152000D03*
D20*
X149479000Y-96575500D03*
X149479000Y-95975500D03*
D38*
X142702000Y-86868000D03*
X143302000Y-86868000D03*
D39*
X138021000Y-92837000D03*
X137061000Y-92837000D03*
D26*
X152538990Y-100424500D03*
X151939000Y-100424500D03*
D38*
X139535000Y-101057000D03*
X140135000Y-101057000D03*
D40*
X145650000Y-85979000D03*
X146450000Y-85979000D03*
D38*
X139535000Y-101657000D03*
X140134990Y-101657000D03*
D19*
X148849900Y-90852000D03*
X148849900Y-91452000D03*
D38*
X149903000Y-99695000D03*
X150503000Y-99695000D03*
X142702000Y-86268000D03*
X143301990Y-86268000D03*
D19*
X147424900Y-86452000D03*
X147424900Y-87051990D03*
D41*
X138624900Y-88602000D03*
X138624900Y-87002000D03*
D26*
X150503000Y-100891500D03*
X149903010Y-100891500D03*
D38*
X153039010Y-105056500D03*
X153639000Y-105056500D03*
D42*
X144653000Y-109728000D03*
X144653000Y-108708000D03*
D26*
X150168000Y-102091500D03*
X149568000Y-102091500D03*
D38*
X139535000Y-100457000D03*
X140135000Y-100457000D03*
D28*
X135692000Y-90678000D03*
X136652000Y-90678000D03*
D43*
X142312000Y-105394500D03*
X142712000Y-105394500D03*
X143112000Y-105394500D03*
X143512000Y-105394500D03*
X143912000Y-105394500D03*
X144312000Y-105394500D03*
X144712000Y-105394500D03*
X145112000Y-105394500D03*
X145512000Y-105394500D03*
X145912000Y-105394500D03*
X146312000Y-105394500D03*
X146712000Y-105394500D03*
X147112000Y-105394500D03*
X147512000Y-105394500D03*
D44*
X148349500Y-104557000D03*
X148349500Y-104157000D03*
X148349500Y-103757000D03*
X148349500Y-103357000D03*
X148349500Y-102957000D03*
X148349500Y-102557000D03*
X148349500Y-102157000D03*
X148349500Y-101757000D03*
X148349500Y-101357000D03*
X148349500Y-100957000D03*
X148349500Y-100557000D03*
X148349500Y-100157000D03*
X148349500Y-99757000D03*
X148349500Y-99357000D03*
D43*
X147512000Y-98519500D03*
X147112000Y-98519500D03*
X146712000Y-98519500D03*
X146312000Y-98519500D03*
X145912000Y-98519500D03*
X145512000Y-98519500D03*
X145112000Y-98519500D03*
X144712000Y-98519500D03*
X144312000Y-98519500D03*
X143912000Y-98519500D03*
X143512000Y-98519500D03*
X143112000Y-98519500D03*
X142712000Y-98519500D03*
X142312000Y-98519500D03*
D44*
X141474500Y-99357000D03*
X141474500Y-99757000D03*
X141474500Y-100157000D03*
X141474500Y-100557000D03*
X141474500Y-100957000D03*
X141474500Y-101357000D03*
X141474500Y-101757000D03*
X141474500Y-102157000D03*
X141474500Y-102557000D03*
X141474500Y-102957000D03*
X141474500Y-103357000D03*
X141474500Y-103757000D03*
X141474500Y-104157000D03*
X141474500Y-104557000D03*
D45*
X144912000Y-101957000D03*
D46*
X134830743Y-109811743D03*
X135255000Y-110236000D03*
D47*
X136880600Y-100330000D03*
X136880600Y-100980000D03*
X136880600Y-101630000D03*
X136880600Y-102280000D03*
X136880600Y-102930000D03*
D48*
X134180600Y-98130000D03*
D49*
X134180600Y-98730000D03*
D50*
X136880600Y-99130000D03*
D51*
X134180600Y-100630000D03*
X134180600Y-102630000D03*
D50*
X136880600Y-104130000D03*
D49*
X134180600Y-104530000D03*
D48*
X134180600Y-105130000D03*
D52*
X144299900Y-87652000D03*
X143799900Y-87652000D03*
X143299900Y-87652000D03*
X142799900Y-87652000D03*
X142299900Y-87652000D03*
X141799900Y-87652000D03*
D53*
X141149900Y-88302000D03*
X141149900Y-88802000D03*
X141149900Y-89302000D03*
X141149900Y-89802000D03*
X141149900Y-90302000D03*
X141149900Y-90802000D03*
D52*
X141799900Y-91452000D03*
X142299900Y-91452000D03*
X142799900Y-91452000D03*
X143299900Y-91452000D03*
X143799900Y-91452000D03*
X144299900Y-91452000D03*
D53*
X144949900Y-90802000D03*
X144949900Y-90302000D03*
X144949900Y-89802000D03*
X144949900Y-89302000D03*
X144949900Y-88802000D03*
X144949900Y-88302000D03*
D54*
X143049900Y-89552000D03*
D55*
X143510000Y-108708000D03*
X143510000Y-109728000D03*
D38*
X139535000Y-102329500D03*
X140134990Y-102329500D03*
D56*
X136972000Y-96514500D03*
X137922000Y-96514500D03*
X138872000Y-96514500D03*
X138872000Y-94239500D03*
X136972000Y-94239500D03*
D57*
X150622000Y-96968500D03*
X150622000Y-95998500D03*
%LPD*%
M02*
