G04 #@! TF.GenerationSoftware,KiCad,Pcbnew,8.0.3*
G04 #@! TF.CreationDate,2024-06-18T15:01:00-07:00*
G04 #@! TF.ProjectId,lora2040,6c6f7261-3230-4343-902e-6b696361645f,rev?*
G04 #@! TF.SameCoordinates,Original*
G04 #@! TF.FileFunction,Copper,L2,Inr*
G04 #@! TF.FilePolarity,Positive*
%FSLAX46Y46*%
G04 Gerber Fmt 4.6, Leading zero omitted, Abs format (unit mm)*
G04 Created by KiCad (PCBNEW 8.0.3) date 2024-06-18 15:01:00*
%MOMM*%
%LPD*%
G01*
G04 APERTURE LIST*
G04 #@! TA.AperFunction,ComponentPad*
%ADD10R,0.850000X0.850000*%
G04 #@! TD*
G04 #@! TA.AperFunction,ComponentPad*
%ADD11O,0.850000X0.850000*%
G04 #@! TD*
G04 #@! TA.AperFunction,ComponentPad*
%ADD12O,1.900000X1.200000*%
G04 #@! TD*
G04 #@! TA.AperFunction,ComponentPad*
%ADD13C,1.450000*%
G04 #@! TD*
G04 #@! TA.AperFunction,ViaPad*
%ADD14C,0.520000*%
G04 #@! TD*
G04 #@! TA.AperFunction,ViaPad*
%ADD15C,0.650000*%
G04 #@! TD*
G04 #@! TA.AperFunction,ViaPad*
%ADD16C,0.600000*%
G04 #@! TD*
G04 #@! TA.AperFunction,ViaPad*
%ADD17C,0.460000*%
G04 #@! TD*
G04 APERTURE END LIST*
D10*
X133985000Y-94996000D03*
D11*
X133985000Y-95996000D03*
D10*
X147193000Y-109347000D03*
D11*
X147193000Y-108347000D03*
X148193000Y-109347000D03*
X148193000Y-108347000D03*
X149193000Y-109347000D03*
X149193000Y-108347000D03*
X150193000Y-109347000D03*
X150193000Y-108347000D03*
X151193000Y-109347000D03*
X151193000Y-108347000D03*
X152193000Y-109347000D03*
X152193000Y-108347000D03*
D10*
X152857200Y-97869000D03*
D11*
X152857200Y-96869000D03*
X152857200Y-95869000D03*
X152857200Y-94869000D03*
D12*
X134180600Y-98130000D03*
D13*
X136880600Y-99130000D03*
X136880600Y-104130000D03*
D12*
X134180600Y-105130000D03*
D14*
X145624900Y-82169000D03*
D15*
X146187000Y-101957000D03*
D14*
X150899900Y-86952000D03*
X138811000Y-84074000D03*
X145574900Y-83527000D03*
X150571200Y-92633800D03*
X139199900Y-91277000D03*
X143349900Y-88652000D03*
X142149900Y-89852000D03*
X141351000Y-83185000D03*
X138665217Y-92932866D03*
X135890000Y-83820000D03*
X149999900Y-88602000D03*
D15*
X144912000Y-103232000D03*
D14*
X140724900Y-92302000D03*
X150774900Y-88602000D03*
X147474900Y-93902000D03*
D16*
X135694600Y-100330000D03*
D17*
X148624900Y-88302000D03*
D14*
X147324900Y-84502000D03*
X135763000Y-94488000D03*
X149374900Y-85602000D03*
X142749900Y-89252000D03*
D16*
X138201400Y-102235000D03*
D14*
X154051000Y-100457000D03*
X146699900Y-82169000D03*
X140798239Y-95678501D03*
X141935200Y-95758000D03*
X148615400Y-94157800D03*
X138988800Y-102329500D03*
X153162000Y-83566000D03*
X141224000Y-85471000D03*
X150952200Y-100891500D03*
X135824900Y-88392000D03*
X151774900Y-91427000D03*
X154101800Y-86868000D03*
X134874000Y-88950800D03*
X143949900Y-89252000D03*
X136906000Y-82927000D03*
D17*
X147549900Y-90552000D03*
D14*
X153670000Y-92377000D03*
X149524900Y-86427000D03*
X142749900Y-88652000D03*
X138324900Y-82804000D03*
X140817600Y-94767400D03*
X153898600Y-105918000D03*
X153162000Y-84877000D03*
D15*
X146177000Y-100682000D03*
D14*
X152400000Y-86868000D03*
D15*
X143764000Y-103232000D03*
D14*
X146507200Y-85302000D03*
X148349900Y-85877000D03*
X152654000Y-92377000D03*
X139446000Y-83312000D03*
X146608800Y-91440000D03*
X150774900Y-89802000D03*
X139446000Y-108712000D03*
X142749900Y-90452000D03*
X149245250Y-103103750D03*
X154178000Y-91694000D03*
X147701000Y-85217000D03*
X140724900Y-91427000D03*
X152450800Y-93446600D03*
X152501600Y-105054400D03*
X134874000Y-90678000D03*
X150952200Y-101491500D03*
X151674900Y-86302000D03*
X143637000Y-82169000D03*
X145531984Y-90335288D03*
X150774900Y-91477000D03*
X133705600Y-89585800D03*
X151206200Y-93446600D03*
X148590000Y-82804000D03*
X148274900Y-91177000D03*
X148049900Y-92152000D03*
X146974900Y-85752000D03*
X153162000Y-86302000D03*
X152654000Y-99568000D03*
D15*
X143764000Y-101981000D03*
D17*
X148291298Y-87476146D03*
D14*
X153076400Y-100426600D03*
X135824900Y-87096600D03*
X153670000Y-99568000D03*
X139228000Y-99662500D03*
X148124900Y-86952000D03*
X147904010Y-86431741D03*
X146499900Y-83527000D03*
D17*
X146927212Y-87796383D03*
D14*
X135824900Y-89535000D03*
X142149900Y-88652000D03*
X146197723Y-90328472D03*
X144082923Y-84898736D03*
D17*
X148199900Y-90299773D03*
D14*
X137160000Y-83820000D03*
X149961600Y-91452000D03*
X142149900Y-90452000D03*
D17*
X147549360Y-87584165D03*
D14*
X146056471Y-90991939D03*
X138760200Y-109347000D03*
X153593800Y-93446600D03*
D15*
X144912000Y-101957000D03*
D14*
X139482000Y-98773500D03*
X150349900Y-94277000D03*
X149529800Y-92002000D03*
X147431193Y-86031190D03*
X143949900Y-89852000D03*
X143349900Y-90452000D03*
D15*
X146187000Y-103232000D03*
D14*
X147449900Y-83527000D03*
X144145000Y-83185000D03*
X150049900Y-90577000D03*
X142624900Y-82169000D03*
X141401800Y-106807000D03*
D17*
X147549900Y-89427000D03*
D14*
X150049900Y-87827000D03*
D16*
X135890000Y-97688400D03*
D14*
X134874000Y-86537800D03*
X146459777Y-86409588D03*
X145469381Y-96393000D03*
X140081000Y-109347000D03*
D16*
X135694600Y-101346000D03*
D14*
X135763000Y-91948000D03*
X144599900Y-82169000D03*
X150524900Y-83527000D03*
X134366000Y-109474000D03*
X151949900Y-82252000D03*
X142049341Y-86105860D03*
X144199900Y-86827000D03*
X151099900Y-87802000D03*
D15*
X144912000Y-100682000D03*
D14*
X142749900Y-89852000D03*
X136249900Y-84952000D03*
X143949900Y-90452000D03*
X143949900Y-88652000D03*
D17*
X147524900Y-88702000D03*
D14*
X148349900Y-84777000D03*
X133705600Y-91414600D03*
X153192900Y-91694000D03*
X148615400Y-95402400D03*
X141224000Y-84201000D03*
X139699900Y-92302000D03*
X134874000Y-92456000D03*
X151815800Y-90477000D03*
X146999900Y-92227000D03*
X150899900Y-90502000D03*
D16*
X134670800Y-96951800D03*
D14*
X135824900Y-86002000D03*
X149349900Y-84677000D03*
X151674900Y-84877000D03*
D17*
X146899900Y-90299170D03*
D14*
X135128000Y-84963000D03*
X138150600Y-93624400D03*
X139149900Y-82169000D03*
X140374900Y-82169000D03*
X150449900Y-84802000D03*
X140024900Y-91252000D03*
X140081000Y-108077000D03*
X150474900Y-86077000D03*
X142149900Y-89252000D03*
X140335000Y-83185000D03*
X150574900Y-82327000D03*
X151836423Y-87790470D03*
D15*
X143764000Y-100682000D03*
D14*
X149349900Y-83577000D03*
X149349900Y-93102000D03*
X151699900Y-92377000D03*
X146524900Y-93202000D03*
X151384000Y-105079800D03*
X147474900Y-91252000D03*
X136144000Y-82296000D03*
D17*
X148945600Y-90297000D03*
D14*
X151774900Y-83502000D03*
X141599900Y-82169000D03*
X134874000Y-87680800D03*
X140335000Y-88366600D03*
D16*
X136906000Y-95402400D03*
D14*
X138430000Y-91277000D03*
X138988800Y-101650800D03*
X148349900Y-93027000D03*
X145899900Y-92152000D03*
X149999900Y-89802000D03*
X149349900Y-82169000D03*
X140970000Y-93726000D03*
D17*
X146424900Y-88802000D03*
D14*
X140081000Y-110286800D03*
X150622000Y-104394000D03*
X145912000Y-107736490D03*
X137549900Y-82169000D03*
D17*
X148596068Y-89302977D03*
D14*
X135001000Y-93599000D03*
X142240000Y-83185000D03*
X142240000Y-84709000D03*
X149949900Y-87002000D03*
X135763000Y-93218000D03*
X147749900Y-82169000D03*
X143349900Y-89252000D03*
X143349900Y-89852000D03*
X152552400Y-106654600D03*
X146507200Y-84378800D03*
X148082000Y-83947000D03*
X150622000Y-103124000D03*
X138023600Y-110286800D03*
X149402800Y-100965000D03*
X140589000Y-102285800D03*
D16*
X142812000Y-101257000D03*
X146964400Y-101357030D03*
D14*
X141224000Y-98044000D03*
D16*
X140081000Y-85394800D03*
D14*
X140716000Y-101473000D03*
X149987000Y-98425000D03*
X142367000Y-104521000D03*
D16*
X145745200Y-84734400D03*
D14*
X142367000Y-99441000D03*
D16*
X145745200Y-85394800D03*
D14*
X137287000Y-91948000D03*
X135600775Y-109890225D03*
X139319000Y-105918000D03*
X146939000Y-100457000D03*
X136652000Y-91948000D03*
D16*
X139547600Y-84886800D03*
D14*
X149479000Y-94869000D03*
X140589000Y-98044000D03*
D16*
X140106400Y-84378800D03*
X145465800Y-86537800D03*
D14*
X140817600Y-105384600D03*
X141478000Y-110617000D03*
X149279381Y-104775000D03*
X148849900Y-91952000D03*
X139974900Y-93027000D03*
X148849900Y-86502000D03*
X139827000Y-104571800D03*
X141351000Y-108077000D03*
X137541000Y-109347000D03*
X138747500Y-103187500D03*
D16*
X141351000Y-86741000D03*
X144476770Y-85519894D03*
D14*
X142299900Y-92202000D03*
X146231381Y-97459800D03*
X142799900Y-93091000D03*
X146231381Y-96774000D03*
X141799900Y-93091000D03*
X144399000Y-96748600D03*
X137541000Y-108077000D03*
X139581000Y-103378000D03*
X141478000Y-109347000D03*
X140639800Y-104495658D03*
X140389381Y-103531500D03*
X137922000Y-106807000D03*
X143383000Y-107061000D03*
X142714283Y-106165713D03*
X144272000Y-106934000D03*
X147320000Y-96520000D03*
X143801630Y-93091000D03*
X144907000Y-106299000D03*
X143299900Y-92202000D03*
X149152381Y-99187000D03*
X144299900Y-92202000D03*
X147755381Y-97409000D03*
X148390381Y-98425000D03*
X145399900Y-91302000D03*
X136271000Y-96139000D03*
X138872000Y-97536000D03*
X137922000Y-99999800D03*
X136271000Y-96774000D03*
X143256000Y-96774000D03*
D17*
X144018000Y-97536000D03*
D14*
X142875000Y-97663000D03*
X151773000Y-98679000D03*
X151265000Y-99314000D03*
X144957800Y-97739200D03*
X149479000Y-97118500D03*
G04 #@! TA.AperFunction,Conductor*
G36*
X151910847Y-81730606D02*
G01*
X154743394Y-84563153D01*
X154761700Y-84607347D01*
X154761700Y-93472000D01*
X143940987Y-93472000D01*
X144041305Y-93420885D01*
X144131515Y-93330675D01*
X144189433Y-93217005D01*
X144209390Y-93091000D01*
X144189433Y-92964995D01*
X144189431Y-92964992D01*
X144189431Y-92964990D01*
X144131515Y-92851325D01*
X144041304Y-92761114D01*
X143927639Y-92703198D01*
X143927635Y-92703197D01*
X143801630Y-92683240D01*
X143675624Y-92703197D01*
X143675620Y-92703198D01*
X143561955Y-92761114D01*
X143471744Y-92851325D01*
X143413828Y-92964990D01*
X143413827Y-92964994D01*
X143393870Y-93091000D01*
X143413827Y-93217005D01*
X143413828Y-93217009D01*
X143471744Y-93330674D01*
X143471745Y-93330675D01*
X143561955Y-93420885D01*
X143662273Y-93472000D01*
X142939257Y-93472000D01*
X143039575Y-93420885D01*
X143129785Y-93330675D01*
X143187703Y-93217005D01*
X143207660Y-93091000D01*
X143187703Y-92964995D01*
X143187701Y-92964992D01*
X143187701Y-92964990D01*
X143129785Y-92851325D01*
X143039574Y-92761114D01*
X142925909Y-92703198D01*
X142925905Y-92703197D01*
X142799900Y-92683240D01*
X142673894Y-92703197D01*
X142673890Y-92703198D01*
X142560225Y-92761114D01*
X142470014Y-92851325D01*
X142412098Y-92964990D01*
X142412097Y-92964994D01*
X142392140Y-93091000D01*
X142412097Y-93217005D01*
X142412098Y-93217009D01*
X142470014Y-93330674D01*
X142470015Y-93330675D01*
X142560225Y-93420885D01*
X142660543Y-93472000D01*
X141939257Y-93472000D01*
X142039575Y-93420885D01*
X142129785Y-93330675D01*
X142187703Y-93217005D01*
X142207660Y-93091000D01*
X142187703Y-92964995D01*
X142187701Y-92964992D01*
X142187701Y-92964990D01*
X142129785Y-92851325D01*
X142039574Y-92761114D01*
X141925909Y-92703198D01*
X141925905Y-92703197D01*
X141799900Y-92683240D01*
X141673894Y-92703197D01*
X141673890Y-92703198D01*
X141560225Y-92761114D01*
X141470014Y-92851325D01*
X141412098Y-92964990D01*
X141412097Y-92964994D01*
X141392140Y-93091000D01*
X141412097Y-93217005D01*
X141412098Y-93217009D01*
X141470014Y-93330674D01*
X141470015Y-93330675D01*
X141560225Y-93420885D01*
X141660543Y-93472000D01*
X133020300Y-93472000D01*
X133020300Y-93027000D01*
X139567140Y-93027000D01*
X139587097Y-93153005D01*
X139587098Y-93153009D01*
X139645014Y-93266674D01*
X139735225Y-93356885D01*
X139848890Y-93414801D01*
X139848892Y-93414801D01*
X139848895Y-93414803D01*
X139974900Y-93434760D01*
X140100905Y-93414803D01*
X140214575Y-93356885D01*
X140304785Y-93266675D01*
X140362703Y-93153005D01*
X140382660Y-93027000D01*
X140362703Y-92900995D01*
X140362701Y-92900992D01*
X140362701Y-92900990D01*
X140304785Y-92787325D01*
X140214574Y-92697114D01*
X140100909Y-92639198D01*
X140100905Y-92639197D01*
X139974900Y-92619240D01*
X139848894Y-92639197D01*
X139848890Y-92639198D01*
X139735225Y-92697114D01*
X139645014Y-92787325D01*
X139587098Y-92900990D01*
X139587097Y-92900994D01*
X139567140Y-93027000D01*
X133020300Y-93027000D01*
X133020300Y-91948000D01*
X136244240Y-91948000D01*
X136264197Y-92074005D01*
X136264198Y-92074009D01*
X136322114Y-92187674D01*
X136412325Y-92277885D01*
X136525990Y-92335801D01*
X136525992Y-92335801D01*
X136525995Y-92335803D01*
X136652000Y-92355760D01*
X136778005Y-92335803D01*
X136891675Y-92277885D01*
X136925306Y-92244254D01*
X136969500Y-92225948D01*
X137013694Y-92244254D01*
X137047325Y-92277885D01*
X137160990Y-92335801D01*
X137160992Y-92335801D01*
X137160995Y-92335803D01*
X137287000Y-92355760D01*
X137413005Y-92335803D01*
X137526675Y-92277885D01*
X137602560Y-92202000D01*
X141892140Y-92202000D01*
X141912097Y-92328005D01*
X141912098Y-92328009D01*
X141970014Y-92441674D01*
X142060225Y-92531885D01*
X142173890Y-92589801D01*
X142173892Y-92589801D01*
X142173895Y-92589803D01*
X142299900Y-92609760D01*
X142425905Y-92589803D01*
X142539575Y-92531885D01*
X142629785Y-92441675D01*
X142687703Y-92328005D01*
X142707660Y-92202000D01*
X142892140Y-92202000D01*
X142912097Y-92328005D01*
X142912098Y-92328009D01*
X142970014Y-92441674D01*
X143060225Y-92531885D01*
X143173890Y-92589801D01*
X143173892Y-92589801D01*
X143173895Y-92589803D01*
X143299900Y-92609760D01*
X143425905Y-92589803D01*
X143539575Y-92531885D01*
X143629785Y-92441675D01*
X143687703Y-92328005D01*
X143707660Y-92202000D01*
X143892140Y-92202000D01*
X143912097Y-92328005D01*
X143912098Y-92328009D01*
X143970014Y-92441674D01*
X144060225Y-92531885D01*
X144173890Y-92589801D01*
X144173892Y-92589801D01*
X144173895Y-92589803D01*
X144299900Y-92609760D01*
X144425905Y-92589803D01*
X144539575Y-92531885D01*
X144629785Y-92441675D01*
X144687703Y-92328005D01*
X144707660Y-92202000D01*
X144687703Y-92075995D01*
X144687701Y-92075992D01*
X144687701Y-92075990D01*
X144629785Y-91962325D01*
X144619460Y-91952000D01*
X148442140Y-91952000D01*
X148462097Y-92078005D01*
X148462098Y-92078009D01*
X148520014Y-92191674D01*
X148610225Y-92281885D01*
X148723890Y-92339801D01*
X148723892Y-92339801D01*
X148723895Y-92339803D01*
X148849900Y-92359760D01*
X148975905Y-92339803D01*
X149089575Y-92281885D01*
X149179785Y-92191675D01*
X149237703Y-92078005D01*
X149257660Y-91952000D01*
X149237703Y-91825995D01*
X149237701Y-91825992D01*
X149237701Y-91825990D01*
X149179785Y-91712325D01*
X149089574Y-91622114D01*
X148975909Y-91564198D01*
X148975905Y-91564197D01*
X148849900Y-91544240D01*
X148723894Y-91564197D01*
X148723890Y-91564198D01*
X148610225Y-91622114D01*
X148520014Y-91712325D01*
X148462098Y-91825990D01*
X148462097Y-91825994D01*
X148442140Y-91952000D01*
X144619460Y-91952000D01*
X144539574Y-91872114D01*
X144425909Y-91814198D01*
X144425905Y-91814197D01*
X144299900Y-91794240D01*
X144173894Y-91814197D01*
X144173890Y-91814198D01*
X144060225Y-91872114D01*
X143970014Y-91962325D01*
X143912098Y-92075990D01*
X143912097Y-92075994D01*
X143892140Y-92202000D01*
X143707660Y-92202000D01*
X143687703Y-92075995D01*
X143687701Y-92075992D01*
X143687701Y-92075990D01*
X143629785Y-91962325D01*
X143539574Y-91872114D01*
X143425909Y-91814198D01*
X143425905Y-91814197D01*
X143299900Y-91794240D01*
X143173894Y-91814197D01*
X143173890Y-91814198D01*
X143060225Y-91872114D01*
X142970014Y-91962325D01*
X142912098Y-92075990D01*
X142912097Y-92075994D01*
X142892140Y-92202000D01*
X142707660Y-92202000D01*
X142687703Y-92075995D01*
X142687701Y-92075992D01*
X142687701Y-92075990D01*
X142629785Y-91962325D01*
X142539574Y-91872114D01*
X142425909Y-91814198D01*
X142425905Y-91814197D01*
X142299900Y-91794240D01*
X142173894Y-91814197D01*
X142173890Y-91814198D01*
X142060225Y-91872114D01*
X141970014Y-91962325D01*
X141912098Y-92075990D01*
X141912097Y-92075994D01*
X141892140Y-92202000D01*
X137602560Y-92202000D01*
X137616885Y-92187675D01*
X137674803Y-92074005D01*
X137694760Y-91948000D01*
X137674803Y-91821995D01*
X137674801Y-91821992D01*
X137674801Y-91821990D01*
X137616885Y-91708325D01*
X137526674Y-91618114D01*
X137413009Y-91560198D01*
X137413005Y-91560197D01*
X137287000Y-91540240D01*
X137160994Y-91560197D01*
X137160990Y-91560198D01*
X137047325Y-91618114D01*
X137013694Y-91651746D01*
X136969500Y-91670052D01*
X136925306Y-91651746D01*
X136891674Y-91618114D01*
X136778009Y-91560198D01*
X136778005Y-91560197D01*
X136652000Y-91540240D01*
X136525994Y-91560197D01*
X136525990Y-91560198D01*
X136412325Y-91618114D01*
X136322114Y-91708325D01*
X136264198Y-91821990D01*
X136264197Y-91821994D01*
X136244240Y-91948000D01*
X133020300Y-91948000D01*
X133020300Y-91302000D01*
X144992140Y-91302000D01*
X145012097Y-91428005D01*
X145012098Y-91428009D01*
X145070014Y-91541674D01*
X145160225Y-91631885D01*
X145273890Y-91689801D01*
X145273892Y-91689801D01*
X145273895Y-91689803D01*
X145399900Y-91709760D01*
X145525905Y-91689803D01*
X145639575Y-91631885D01*
X145729785Y-91541675D01*
X145787703Y-91428005D01*
X145807660Y-91302000D01*
X145787703Y-91175995D01*
X145787701Y-91175992D01*
X145787701Y-91175990D01*
X145729785Y-91062325D01*
X145639574Y-90972114D01*
X145525909Y-90914198D01*
X145525905Y-90914197D01*
X145399900Y-90894240D01*
X145273894Y-90914197D01*
X145273890Y-90914198D01*
X145160225Y-90972114D01*
X145070014Y-91062325D01*
X145012098Y-91175990D01*
X145012097Y-91175994D01*
X144992140Y-91302000D01*
X133020300Y-91302000D01*
X133020300Y-90152000D01*
X152202900Y-90152000D01*
X154292900Y-90152000D01*
X154292900Y-88252000D01*
X152202900Y-88252000D01*
X152202900Y-90152000D01*
X133020300Y-90152000D01*
X133020300Y-86741000D01*
X140903707Y-86741000D01*
X140921825Y-86867015D01*
X140921826Y-86867018D01*
X140974712Y-86982824D01*
X140974716Y-86982830D01*
X141058086Y-87079043D01*
X141165183Y-87147869D01*
X141165188Y-87147872D01*
X141287341Y-87183739D01*
X141287343Y-87183740D01*
X141287344Y-87183740D01*
X141414657Y-87183740D01*
X141414657Y-87183739D01*
X141536812Y-87147872D01*
X141577009Y-87122038D01*
X141643913Y-87079043D01*
X141727283Y-86982830D01*
X141727284Y-86982828D01*
X141727287Y-86982825D01*
X141780174Y-86867017D01*
X141798293Y-86741000D01*
X141780174Y-86614983D01*
X141744926Y-86537800D01*
X145018507Y-86537800D01*
X145036625Y-86663815D01*
X145036626Y-86663818D01*
X145089512Y-86779624D01*
X145089516Y-86779630D01*
X145172886Y-86875843D01*
X145279983Y-86944669D01*
X145279988Y-86944672D01*
X145402141Y-86980539D01*
X145402143Y-86980540D01*
X145402144Y-86980540D01*
X145529457Y-86980540D01*
X145529457Y-86980539D01*
X145651612Y-86944672D01*
X145736990Y-86889803D01*
X145758713Y-86875843D01*
X145842083Y-86779630D01*
X145842084Y-86779628D01*
X145842087Y-86779625D01*
X145894974Y-86663817D01*
X145913093Y-86537800D01*
X145907946Y-86502000D01*
X148442140Y-86502000D01*
X148462097Y-86628005D01*
X148462098Y-86628009D01*
X148520014Y-86741674D01*
X148610225Y-86831885D01*
X148723890Y-86889801D01*
X148723892Y-86889801D01*
X148723895Y-86889803D01*
X148849900Y-86909760D01*
X148975905Y-86889803D01*
X149089575Y-86831885D01*
X149179785Y-86741675D01*
X149237703Y-86628005D01*
X149257660Y-86502000D01*
X149237703Y-86375995D01*
X149237701Y-86375992D01*
X149237701Y-86375990D01*
X149179785Y-86262325D01*
X149089574Y-86172114D01*
X148975909Y-86114198D01*
X148975905Y-86114197D01*
X148849900Y-86094240D01*
X148723894Y-86114197D01*
X148723890Y-86114198D01*
X148610225Y-86172114D01*
X148520014Y-86262325D01*
X148462098Y-86375990D01*
X148462097Y-86375994D01*
X148442140Y-86502000D01*
X145907946Y-86502000D01*
X145894974Y-86411783D01*
X145842087Y-86295975D01*
X145842083Y-86295969D01*
X145758713Y-86199756D01*
X145651616Y-86130930D01*
X145651607Y-86130926D01*
X145529458Y-86095060D01*
X145529456Y-86095060D01*
X145402144Y-86095060D01*
X145402142Y-86095060D01*
X145279992Y-86130926D01*
X145279983Y-86130930D01*
X145172886Y-86199756D01*
X145089516Y-86295969D01*
X145089512Y-86295975D01*
X145036626Y-86411781D01*
X145036625Y-86411784D01*
X145018507Y-86537800D01*
X141744926Y-86537800D01*
X141727287Y-86499175D01*
X141727283Y-86499169D01*
X141643913Y-86402956D01*
X141536816Y-86334130D01*
X141536807Y-86334126D01*
X141414658Y-86298260D01*
X141414656Y-86298260D01*
X141287344Y-86298260D01*
X141287342Y-86298260D01*
X141165192Y-86334126D01*
X141165183Y-86334130D01*
X141058086Y-86402956D01*
X140974716Y-86499169D01*
X140974712Y-86499175D01*
X140921826Y-86614981D01*
X140921825Y-86614984D01*
X140903707Y-86741000D01*
X133020300Y-86741000D01*
X133020300Y-84886800D01*
X139100307Y-84886800D01*
X139118425Y-85012815D01*
X139118426Y-85012818D01*
X139171312Y-85128624D01*
X139171316Y-85128630D01*
X139254686Y-85224843D01*
X139337509Y-85278069D01*
X139361788Y-85293672D01*
X139483941Y-85329539D01*
X139483943Y-85329540D01*
X139571207Y-85329540D01*
X139615401Y-85347846D01*
X139633020Y-85390382D01*
X139633071Y-85390375D01*
X139633099Y-85390573D01*
X139633707Y-85392040D01*
X139633707Y-85394798D01*
X139651825Y-85520815D01*
X139651826Y-85520818D01*
X139704712Y-85636624D01*
X139704716Y-85636630D01*
X139788086Y-85732843D01*
X139895183Y-85801669D01*
X139895188Y-85801672D01*
X140017341Y-85837539D01*
X140017343Y-85837540D01*
X140017344Y-85837540D01*
X140144657Y-85837540D01*
X140144657Y-85837539D01*
X140266812Y-85801672D01*
X140307009Y-85775838D01*
X140373913Y-85732843D01*
X140457283Y-85636630D01*
X140457284Y-85636628D01*
X140457287Y-85636625D01*
X140510174Y-85520817D01*
X140510307Y-85519894D01*
X144029477Y-85519894D01*
X144047595Y-85645909D01*
X144047596Y-85645912D01*
X144100482Y-85761718D01*
X144100486Y-85761724D01*
X144183856Y-85857937D01*
X144290953Y-85926763D01*
X144290958Y-85926766D01*
X144413111Y-85962633D01*
X144413113Y-85962634D01*
X144413114Y-85962634D01*
X144540427Y-85962634D01*
X144540427Y-85962633D01*
X144662582Y-85926766D01*
X144702779Y-85900932D01*
X144769683Y-85857937D01*
X144853053Y-85761724D01*
X144853054Y-85761722D01*
X144853057Y-85761719D01*
X144905944Y-85645911D01*
X144924063Y-85519894D01*
X144905944Y-85393877D01*
X144853057Y-85278069D01*
X144853053Y-85278063D01*
X144769683Y-85181850D01*
X144662586Y-85113024D01*
X144662577Y-85113020D01*
X144540428Y-85077154D01*
X144540426Y-85077154D01*
X144413114Y-85077154D01*
X144413112Y-85077154D01*
X144290962Y-85113020D01*
X144290953Y-85113024D01*
X144183856Y-85181850D01*
X144100486Y-85278063D01*
X144100482Y-85278069D01*
X144047596Y-85393875D01*
X144047595Y-85393878D01*
X144029477Y-85519894D01*
X140510307Y-85519894D01*
X140528293Y-85394800D01*
X140510174Y-85268783D01*
X140457287Y-85152975D01*
X140457283Y-85152969D01*
X140373913Y-85056756D01*
X140266816Y-84987930D01*
X140266807Y-84987926D01*
X140144658Y-84952060D01*
X140144656Y-84952060D01*
X140057393Y-84952060D01*
X140013199Y-84933754D01*
X139994893Y-84889560D01*
X139994893Y-84884040D01*
X140013199Y-84839846D01*
X140057393Y-84821540D01*
X140170057Y-84821540D01*
X140170057Y-84821539D01*
X140292212Y-84785672D01*
X140371993Y-84734400D01*
X145297907Y-84734400D01*
X145316025Y-84860415D01*
X145316026Y-84860418D01*
X145329335Y-84889560D01*
X145368913Y-84976225D01*
X145368914Y-84976226D01*
X145368915Y-84976227D01*
X145410025Y-85023672D01*
X145425131Y-85069059D01*
X145410025Y-85105528D01*
X145368915Y-85152972D01*
X145368912Y-85152977D01*
X145316026Y-85268781D01*
X145316025Y-85268784D01*
X145297907Y-85394800D01*
X145316025Y-85520815D01*
X145316026Y-85520818D01*
X145368912Y-85636624D01*
X145368916Y-85636630D01*
X145452286Y-85732843D01*
X145559383Y-85801669D01*
X145559388Y-85801672D01*
X145681541Y-85837539D01*
X145681543Y-85837540D01*
X145681544Y-85837540D01*
X145808857Y-85837540D01*
X145808857Y-85837539D01*
X145931012Y-85801672D01*
X145971209Y-85775838D01*
X146038113Y-85732843D01*
X146121483Y-85636630D01*
X146121484Y-85636628D01*
X146121487Y-85636625D01*
X146174374Y-85520817D01*
X146192493Y-85394800D01*
X146174374Y-85268783D01*
X146121487Y-85152975D01*
X146080373Y-85105527D01*
X146065267Y-85060143D01*
X146080372Y-85023672D01*
X146121487Y-84976225D01*
X146174374Y-84860417D01*
X146192493Y-84734400D01*
X146174374Y-84608383D01*
X146121487Y-84492575D01*
X146121483Y-84492569D01*
X146038113Y-84396356D01*
X145931016Y-84327530D01*
X145931007Y-84327526D01*
X145808858Y-84291660D01*
X145808856Y-84291660D01*
X145681544Y-84291660D01*
X145681542Y-84291660D01*
X145559392Y-84327526D01*
X145559383Y-84327530D01*
X145452286Y-84396356D01*
X145368916Y-84492569D01*
X145368912Y-84492575D01*
X145316026Y-84608381D01*
X145316025Y-84608384D01*
X145297907Y-84734400D01*
X140371993Y-84734400D01*
X140399313Y-84716843D01*
X140482683Y-84620630D01*
X140482684Y-84620628D01*
X140482687Y-84620625D01*
X140535574Y-84504817D01*
X140553693Y-84378800D01*
X140535574Y-84252783D01*
X140482687Y-84136975D01*
X140482683Y-84136969D01*
X140399313Y-84040756D01*
X140292216Y-83971930D01*
X140292207Y-83971926D01*
X140170058Y-83936060D01*
X140170056Y-83936060D01*
X140042744Y-83936060D01*
X140042742Y-83936060D01*
X139920592Y-83971926D01*
X139920583Y-83971930D01*
X139813486Y-84040756D01*
X139730116Y-84136969D01*
X139730112Y-84136975D01*
X139677226Y-84252781D01*
X139677225Y-84252784D01*
X139659107Y-84378801D01*
X139659107Y-84381560D01*
X139658499Y-84383026D01*
X139658471Y-84383225D01*
X139658420Y-84383217D01*
X139640801Y-84425754D01*
X139596607Y-84444060D01*
X139483942Y-84444060D01*
X139361792Y-84479926D01*
X139361783Y-84479930D01*
X139254686Y-84548756D01*
X139171316Y-84644969D01*
X139171312Y-84644975D01*
X139118426Y-84760781D01*
X139118425Y-84760784D01*
X139100307Y-84886800D01*
X133020300Y-84886800D01*
X133020300Y-84607347D01*
X133038606Y-84563153D01*
X135871153Y-81730606D01*
X135915347Y-81712300D01*
X151866653Y-81712300D01*
X151910847Y-81730606D01*
G37*
G04 #@! TD.AperFunction*
G04 #@! TA.AperFunction,Conductor*
G36*
X149294600Y-109118485D02*
G01*
X149242728Y-109097000D01*
X149143272Y-109097000D01*
X149091400Y-109118485D01*
X149091400Y-108575514D01*
X149143272Y-108597000D01*
X149242728Y-108597000D01*
X149294600Y-108575514D01*
X149294600Y-109118485D01*
G37*
G04 #@! TD.AperFunction*
G04 #@! TA.AperFunction,Conductor*
G36*
X139853661Y-93400127D02*
G01*
X139853663Y-93400128D01*
X139952083Y-93415716D01*
X139974899Y-93419330D01*
X139974900Y-93419330D01*
X139974901Y-93419330D01*
X139991477Y-93416704D01*
X140096137Y-93400128D01*
X140204332Y-93345000D01*
X141505892Y-93345000D01*
X141569295Y-93408403D01*
X141678661Y-93464127D01*
X141678663Y-93464128D01*
X141777083Y-93479716D01*
X141799899Y-93483330D01*
X141799900Y-93483330D01*
X141799901Y-93483330D01*
X141816477Y-93480704D01*
X141921137Y-93464128D01*
X142030506Y-93408402D01*
X142093908Y-93345000D01*
X142505892Y-93345000D01*
X142569295Y-93408403D01*
X142678661Y-93464127D01*
X142678663Y-93464128D01*
X142777083Y-93479716D01*
X142799899Y-93483330D01*
X142799900Y-93483330D01*
X142799901Y-93483330D01*
X142816477Y-93480704D01*
X142921137Y-93464128D01*
X143030506Y-93408402D01*
X143093908Y-93345000D01*
X143507622Y-93345000D01*
X143571025Y-93408403D01*
X143680391Y-93464127D01*
X143680393Y-93464128D01*
X143778813Y-93479716D01*
X143801629Y-93483330D01*
X143801630Y-93483330D01*
X143801631Y-93483330D01*
X143818207Y-93480704D01*
X143922867Y-93464128D01*
X144032236Y-93408402D01*
X144095638Y-93345000D01*
X154761700Y-93345000D01*
X154761700Y-108694543D01*
X154748974Y-108725267D01*
X151905267Y-111568974D01*
X151874543Y-111581700D01*
X135907457Y-111581700D01*
X135876733Y-111568974D01*
X134924758Y-110616999D01*
X141085670Y-110616999D01*
X141085670Y-110617000D01*
X141104872Y-110738237D01*
X141104872Y-110738238D01*
X141160596Y-110847604D01*
X141247395Y-110934403D01*
X141356761Y-110990127D01*
X141356763Y-110990128D01*
X141455183Y-111005716D01*
X141477999Y-111009330D01*
X141478000Y-111009330D01*
X141478001Y-111009330D01*
X141494577Y-111006704D01*
X141599237Y-110990128D01*
X141708606Y-110934402D01*
X141795402Y-110847606D01*
X141851128Y-110738237D01*
X141870330Y-110617000D01*
X141851128Y-110495763D01*
X141795402Y-110386394D01*
X141708606Y-110299598D01*
X141708604Y-110299596D01*
X141599238Y-110243872D01*
X141478001Y-110224670D01*
X141477999Y-110224670D01*
X141356762Y-110243872D01*
X141356761Y-110243872D01*
X141247395Y-110299596D01*
X141160596Y-110386395D01*
X141104872Y-110495761D01*
X141104872Y-110495762D01*
X141085670Y-110616999D01*
X134924758Y-110616999D01*
X134197983Y-109890224D01*
X135208445Y-109890224D01*
X135208445Y-109890225D01*
X135227647Y-110011462D01*
X135227647Y-110011463D01*
X135283371Y-110120829D01*
X135370170Y-110207628D01*
X135441304Y-110243872D01*
X135479538Y-110263353D01*
X135577958Y-110278941D01*
X135600774Y-110282555D01*
X135600775Y-110282555D01*
X135600776Y-110282555D01*
X135617352Y-110279929D01*
X135722012Y-110263353D01*
X135831381Y-110207627D01*
X135918177Y-110120831D01*
X135973903Y-110011462D01*
X135993105Y-109890225D01*
X135973903Y-109768988D01*
X135961577Y-109744797D01*
X135918178Y-109659620D01*
X135831379Y-109572821D01*
X135722013Y-109517097D01*
X135600776Y-109497895D01*
X135600774Y-109497895D01*
X135479537Y-109517097D01*
X135479536Y-109517097D01*
X135370170Y-109572821D01*
X135283371Y-109659620D01*
X135227647Y-109768986D01*
X135227647Y-109768987D01*
X135208445Y-109890224D01*
X134197983Y-109890224D01*
X133654758Y-109346999D01*
X137148670Y-109346999D01*
X137148670Y-109347000D01*
X137167872Y-109468237D01*
X137167872Y-109468238D01*
X137223596Y-109577604D01*
X137310395Y-109664403D01*
X137419761Y-109720127D01*
X137419763Y-109720128D01*
X137518183Y-109735716D01*
X137540999Y-109739330D01*
X137541000Y-109739330D01*
X137541001Y-109739330D01*
X137557577Y-109736704D01*
X137662237Y-109720128D01*
X137771606Y-109664402D01*
X137858402Y-109577606D01*
X137914128Y-109468237D01*
X137933330Y-109347000D01*
X137933330Y-109346999D01*
X141085670Y-109346999D01*
X141085670Y-109347000D01*
X141104872Y-109468237D01*
X141104872Y-109468238D01*
X141160596Y-109577604D01*
X141247395Y-109664403D01*
X141356761Y-109720127D01*
X141356763Y-109720128D01*
X141455183Y-109735716D01*
X141477999Y-109739330D01*
X141478000Y-109739330D01*
X141478001Y-109739330D01*
X141494577Y-109736704D01*
X141599237Y-109720128D01*
X141708606Y-109664402D01*
X141795402Y-109577606D01*
X141851128Y-109468237D01*
X141870330Y-109347000D01*
X141851128Y-109225763D01*
X141851127Y-109225761D01*
X141795403Y-109116395D01*
X141708604Y-109029596D01*
X141599238Y-108973872D01*
X141478001Y-108954670D01*
X141477999Y-108954670D01*
X141356762Y-108973872D01*
X141356761Y-108973872D01*
X141247395Y-109029596D01*
X141160596Y-109116395D01*
X141104872Y-109225761D01*
X141104872Y-109225762D01*
X141085670Y-109346999D01*
X137933330Y-109346999D01*
X137914128Y-109225763D01*
X137914127Y-109225761D01*
X137858403Y-109116395D01*
X137771604Y-109029596D01*
X137662238Y-108973872D01*
X137541001Y-108954670D01*
X137540999Y-108954670D01*
X137419762Y-108973872D01*
X137419761Y-108973872D01*
X137310395Y-109029596D01*
X137223596Y-109116395D01*
X137167872Y-109225761D01*
X137167872Y-109225762D01*
X137148670Y-109346999D01*
X133654758Y-109346999D01*
X133033026Y-108725267D01*
X133020300Y-108694543D01*
X133020300Y-108076999D01*
X137148670Y-108076999D01*
X137148670Y-108077000D01*
X137167872Y-108198237D01*
X137167872Y-108198238D01*
X137223596Y-108307604D01*
X137310395Y-108394403D01*
X137419761Y-108450127D01*
X137419763Y-108450128D01*
X137518183Y-108465716D01*
X137540999Y-108469330D01*
X137541000Y-108469330D01*
X137541001Y-108469330D01*
X137557577Y-108466704D01*
X137662237Y-108450128D01*
X137771606Y-108394402D01*
X137858402Y-108307606D01*
X137914128Y-108198237D01*
X137933330Y-108077000D01*
X137933330Y-108076999D01*
X140958670Y-108076999D01*
X140958670Y-108077000D01*
X140977872Y-108198237D01*
X140977872Y-108198238D01*
X141033596Y-108307604D01*
X141120395Y-108394403D01*
X141229761Y-108450127D01*
X141229763Y-108450128D01*
X141328183Y-108465716D01*
X141350999Y-108469330D01*
X141351000Y-108469330D01*
X141351001Y-108469330D01*
X141367577Y-108466704D01*
X141472237Y-108450128D01*
X141581606Y-108394402D01*
X141629011Y-108346997D01*
X146635732Y-108346997D01*
X146635732Y-108347002D01*
X146654718Y-108491226D01*
X146710393Y-108625636D01*
X146786431Y-108724732D01*
X146795038Y-108756854D01*
X146778410Y-108785653D01*
X146757502Y-108793916D01*
X146757536Y-108794083D01*
X146756620Y-108794265D01*
X146756221Y-108794423D01*
X146755440Y-108794499D01*
X146718252Y-108801898D01*
X146718248Y-108801899D01*
X146676079Y-108830076D01*
X146676076Y-108830079D01*
X146647899Y-108872248D01*
X146647898Y-108872252D01*
X146640500Y-108909439D01*
X146640500Y-109784560D01*
X146647898Y-109821747D01*
X146647899Y-109821751D01*
X146676076Y-109863920D01*
X146676079Y-109863923D01*
X146718248Y-109892100D01*
X146718249Y-109892100D01*
X146718252Y-109892102D01*
X146744855Y-109897394D01*
X146755440Y-109899500D01*
X146755442Y-109899500D01*
X147630560Y-109899500D01*
X147639825Y-109897656D01*
X147667748Y-109892102D01*
X147709922Y-109863922D01*
X147738102Y-109821748D01*
X147745500Y-109784558D01*
X147745500Y-109784551D01*
X147745575Y-109783794D01*
X147745698Y-109783563D01*
X147745917Y-109782464D01*
X147746249Y-109782530D01*
X147761242Y-109754460D01*
X147793062Y-109744797D01*
X147815268Y-109753568D01*
X147855658Y-109784560D01*
X147914366Y-109829608D01*
X148048768Y-109885280D01*
X148048773Y-109885280D01*
X148048774Y-109885281D01*
X148048772Y-109885281D01*
X148192997Y-109904268D01*
X148193000Y-109904268D01*
X148193003Y-109904268D01*
X148337226Y-109885281D01*
X148337226Y-109885280D01*
X148337232Y-109885280D01*
X148471634Y-109829608D01*
X148587048Y-109741048D01*
X148587324Y-109740689D01*
X148614773Y-109704914D01*
X148658844Y-109647480D01*
X148687643Y-109630853D01*
X148719765Y-109639460D01*
X148727786Y-109647480D01*
X148799307Y-109740689D01*
X148799310Y-109740692D01*
X148914618Y-109829171D01*
X149048900Y-109884791D01*
X149048908Y-109884793D01*
X149091399Y-109890387D01*
X149091400Y-109890386D01*
X149091400Y-109575514D01*
X149143272Y-109597000D01*
X149242728Y-109597000D01*
X149294600Y-109575514D01*
X149294600Y-109890387D01*
X149337091Y-109884793D01*
X149337099Y-109884791D01*
X149471381Y-109829171D01*
X149586689Y-109740692D01*
X149586691Y-109740690D01*
X149658212Y-109647481D01*
X149687012Y-109630853D01*
X149719134Y-109639459D01*
X149727155Y-109647480D01*
X149798678Y-109740692D01*
X149798952Y-109741048D01*
X149914366Y-109829608D01*
X150048768Y-109885280D01*
X150048773Y-109885280D01*
X150048774Y-109885281D01*
X150048772Y-109885281D01*
X150192997Y-109904268D01*
X150193000Y-109904268D01*
X150193003Y-109904268D01*
X150337226Y-109885281D01*
X150337226Y-109885280D01*
X150337232Y-109885280D01*
X150471634Y-109829608D01*
X150587048Y-109741048D01*
X150587324Y-109740689D01*
X150658529Y-109647892D01*
X150687328Y-109631264D01*
X150719450Y-109639871D01*
X150727471Y-109647892D01*
X150798947Y-109741043D01*
X150798950Y-109741046D01*
X150798952Y-109741048D01*
X150914366Y-109829608D01*
X151048768Y-109885280D01*
X151048773Y-109885280D01*
X151048774Y-109885281D01*
X151048772Y-109885281D01*
X151192997Y-109904268D01*
X151193000Y-109904268D01*
X151193003Y-109904268D01*
X151337226Y-109885281D01*
X151337226Y-109885280D01*
X151337232Y-109885280D01*
X151471634Y-109829608D01*
X151587048Y-109741048D01*
X151587324Y-109740689D01*
X151658529Y-109647892D01*
X151687328Y-109631264D01*
X151719450Y-109639871D01*
X151727471Y-109647892D01*
X151798947Y-109741043D01*
X151798950Y-109741046D01*
X151798952Y-109741048D01*
X151914366Y-109829608D01*
X152048768Y-109885280D01*
X152048773Y-109885280D01*
X152048774Y-109885281D01*
X152048772Y-109885281D01*
X152192997Y-109904268D01*
X152193000Y-109904268D01*
X152193003Y-109904268D01*
X152337226Y-109885281D01*
X152337226Y-109885280D01*
X152337232Y-109885280D01*
X152471634Y-109829608D01*
X152587048Y-109741048D01*
X152675608Y-109625634D01*
X152731280Y-109491232D01*
X152734307Y-109468237D01*
X152750268Y-109347002D01*
X152750268Y-109346997D01*
X152731281Y-109202773D01*
X152731280Y-109202771D01*
X152731280Y-109202768D01*
X152675608Y-109068366D01*
X152631328Y-109010659D01*
X152587049Y-108952953D01*
X152587043Y-108952947D01*
X152493892Y-108881471D01*
X152477264Y-108852672D01*
X152485871Y-108820550D01*
X152493892Y-108812529D01*
X152587043Y-108741052D01*
X152587043Y-108741051D01*
X152587048Y-108741048D01*
X152675608Y-108625634D01*
X152731280Y-108491232D01*
X152731625Y-108488614D01*
X152750268Y-108347002D01*
X152750268Y-108346997D01*
X152731281Y-108202773D01*
X152731280Y-108202771D01*
X152731280Y-108202768D01*
X152675608Y-108068366D01*
X152589204Y-107955762D01*
X152587049Y-107952953D01*
X152587046Y-107952950D01*
X152471634Y-107864392D01*
X152337232Y-107808720D01*
X152337228Y-107808719D01*
X152337225Y-107808718D01*
X152337227Y-107808718D01*
X152193003Y-107789732D01*
X152192997Y-107789732D01*
X152048773Y-107808718D01*
X151914365Y-107864392D01*
X151798953Y-107952950D01*
X151798950Y-107952953D01*
X151727471Y-108046108D01*
X151698672Y-108062735D01*
X151666549Y-108054128D01*
X151658529Y-108046108D01*
X151587049Y-107952953D01*
X151587046Y-107952950D01*
X151471634Y-107864392D01*
X151337232Y-107808720D01*
X151337228Y-107808719D01*
X151337225Y-107808718D01*
X151337227Y-107808718D01*
X151193003Y-107789732D01*
X151192997Y-107789732D01*
X151048773Y-107808718D01*
X150914365Y-107864392D01*
X150798953Y-107952950D01*
X150798950Y-107952953D01*
X150727471Y-108046108D01*
X150698672Y-108062735D01*
X150666549Y-108054128D01*
X150658529Y-108046108D01*
X150587049Y-107952953D01*
X150587046Y-107952950D01*
X150471634Y-107864392D01*
X150337232Y-107808720D01*
X150337228Y-107808719D01*
X150337225Y-107808718D01*
X150337227Y-107808718D01*
X150193003Y-107789732D01*
X150192997Y-107789732D01*
X150048773Y-107808718D01*
X149914365Y-107864392D01*
X149798953Y-107952950D01*
X149798950Y-107952953D01*
X149727155Y-108046519D01*
X149698355Y-108063146D01*
X149666233Y-108054539D01*
X149658213Y-108046518D01*
X149586697Y-107953316D01*
X149586691Y-107953309D01*
X149471380Y-107864828D01*
X149337100Y-107809208D01*
X149294600Y-107803612D01*
X149294600Y-108118485D01*
X149242728Y-108097000D01*
X149143272Y-108097000D01*
X149091400Y-108118485D01*
X149091400Y-107803612D01*
X149048900Y-107809208D01*
X148914616Y-107864830D01*
X148799313Y-107953304D01*
X148799307Y-107953310D01*
X148727786Y-108046519D01*
X148698986Y-108063146D01*
X148666864Y-108054539D01*
X148658844Y-108046518D01*
X148587052Y-107952956D01*
X148587046Y-107952950D01*
X148471634Y-107864392D01*
X148337232Y-107808720D01*
X148337228Y-107808719D01*
X148337225Y-107808718D01*
X148337227Y-107808718D01*
X148193003Y-107789732D01*
X148192997Y-107789732D01*
X148048773Y-107808718D01*
X147914365Y-107864392D01*
X147798953Y-107952950D01*
X147798950Y-107952953D01*
X147727471Y-108046108D01*
X147698672Y-108062735D01*
X147666549Y-108054128D01*
X147658529Y-108046108D01*
X147587049Y-107952953D01*
X147587046Y-107952950D01*
X147471634Y-107864392D01*
X147337232Y-107808720D01*
X147337228Y-107808719D01*
X147337225Y-107808718D01*
X147337227Y-107808718D01*
X147193003Y-107789732D01*
X147192997Y-107789732D01*
X147048773Y-107808718D01*
X146914365Y-107864392D01*
X146798953Y-107952950D01*
X146798950Y-107952953D01*
X146710392Y-108068365D01*
X146654718Y-108202773D01*
X146635732Y-108346997D01*
X141629011Y-108346997D01*
X141668402Y-108307606D01*
X141724128Y-108198237D01*
X141743330Y-108077000D01*
X141724128Y-107955763D01*
X141677795Y-107864828D01*
X141668403Y-107846395D01*
X141581604Y-107759596D01*
X141472238Y-107703872D01*
X141351001Y-107684670D01*
X141350999Y-107684670D01*
X141229762Y-107703872D01*
X141229761Y-107703872D01*
X141120395Y-107759596D01*
X141033596Y-107846395D01*
X140977872Y-107955761D01*
X140977872Y-107955762D01*
X140958670Y-108076999D01*
X137933330Y-108076999D01*
X137914128Y-107955763D01*
X137867795Y-107864828D01*
X137858403Y-107846395D01*
X137771604Y-107759596D01*
X137662238Y-107703872D01*
X137541001Y-107684670D01*
X137540999Y-107684670D01*
X137419762Y-107703872D01*
X137419761Y-107703872D01*
X137310395Y-107759596D01*
X137223596Y-107846395D01*
X137167872Y-107955761D01*
X137167872Y-107955762D01*
X137148670Y-108076999D01*
X133020300Y-108076999D01*
X133020300Y-106806999D01*
X137529670Y-106806999D01*
X137529670Y-106807000D01*
X137548872Y-106928237D01*
X137548872Y-106928238D01*
X137604596Y-107037604D01*
X137691395Y-107124403D01*
X137770295Y-107164604D01*
X137800763Y-107180128D01*
X137899183Y-107195716D01*
X137921999Y-107199330D01*
X137922000Y-107199330D01*
X137922001Y-107199330D01*
X137938577Y-107196704D01*
X138043237Y-107180128D01*
X138152606Y-107124402D01*
X138216009Y-107060999D01*
X142990670Y-107060999D01*
X142990670Y-107061000D01*
X143009872Y-107182237D01*
X143009872Y-107182238D01*
X143065596Y-107291604D01*
X143152395Y-107378403D01*
X143261761Y-107434127D01*
X143261763Y-107434128D01*
X143360183Y-107449716D01*
X143382999Y-107453330D01*
X143383000Y-107453330D01*
X143383001Y-107453330D01*
X143399577Y-107450704D01*
X143504237Y-107434128D01*
X143613606Y-107378402D01*
X143700402Y-107291606D01*
X143756128Y-107182237D01*
X143775330Y-107061000D01*
X143774417Y-107055238D01*
X143771624Y-107037604D01*
X143756128Y-106939763D01*
X143753191Y-106933999D01*
X143879670Y-106933999D01*
X143879670Y-106934000D01*
X143898872Y-107055237D01*
X143898872Y-107055238D01*
X143954596Y-107164604D01*
X144041395Y-107251403D01*
X144120295Y-107291604D01*
X144150763Y-107307128D01*
X144249183Y-107322716D01*
X144271999Y-107326330D01*
X144272000Y-107326330D01*
X144272001Y-107326330D01*
X144288577Y-107323704D01*
X144393237Y-107307128D01*
X144502606Y-107251402D01*
X144589402Y-107164606D01*
X144645128Y-107055237D01*
X144664330Y-106934000D01*
X144663417Y-106928238D01*
X144661288Y-106914797D01*
X144645128Y-106812763D01*
X144589402Y-106703394D01*
X144502606Y-106616598D01*
X144502604Y-106616596D01*
X144393238Y-106560872D01*
X144272001Y-106541670D01*
X144271999Y-106541670D01*
X144150762Y-106560872D01*
X144150761Y-106560872D01*
X144041395Y-106616596D01*
X143954596Y-106703395D01*
X143898872Y-106812761D01*
X143898872Y-106812762D01*
X143879670Y-106933999D01*
X143753191Y-106933999D01*
X143700402Y-106830394D01*
X143613606Y-106743598D01*
X143613604Y-106743596D01*
X143504238Y-106687872D01*
X143383001Y-106668670D01*
X143382999Y-106668670D01*
X143261762Y-106687872D01*
X143261761Y-106687872D01*
X143152395Y-106743596D01*
X143065596Y-106830395D01*
X143009872Y-106939761D01*
X143009872Y-106939762D01*
X142990670Y-107060999D01*
X138216009Y-107060999D01*
X138239402Y-107037606D01*
X138295128Y-106928237D01*
X138314330Y-106807000D01*
X138295128Y-106685763D01*
X138259886Y-106616596D01*
X138239403Y-106576395D01*
X138152604Y-106489596D01*
X138043238Y-106433872D01*
X137922001Y-106414670D01*
X137921999Y-106414670D01*
X137800762Y-106433872D01*
X137800761Y-106433872D01*
X137691395Y-106489596D01*
X137604596Y-106576395D01*
X137548872Y-106685761D01*
X137548872Y-106685762D01*
X137529670Y-106806999D01*
X133020300Y-106806999D01*
X133020300Y-105917999D01*
X138926670Y-105917999D01*
X138926670Y-105918000D01*
X138945872Y-106039237D01*
X138945872Y-106039238D01*
X139001596Y-106148604D01*
X139088395Y-106235403D01*
X139189563Y-106286950D01*
X139197763Y-106291128D01*
X139296183Y-106306716D01*
X139318999Y-106310330D01*
X139319000Y-106310330D01*
X139319001Y-106310330D01*
X139335577Y-106307704D01*
X139440237Y-106291128D01*
X139549606Y-106235402D01*
X139619296Y-106165712D01*
X142321953Y-106165712D01*
X142321953Y-106165713D01*
X142341155Y-106286950D01*
X142341155Y-106286951D01*
X142396879Y-106396317D01*
X142483678Y-106483116D01*
X142574917Y-106529604D01*
X142593046Y-106538841D01*
X142691466Y-106554429D01*
X142714282Y-106558043D01*
X142714283Y-106558043D01*
X142714284Y-106558043D01*
X142730860Y-106555417D01*
X142835520Y-106538841D01*
X142944889Y-106483115D01*
X143031685Y-106396319D01*
X143081272Y-106298999D01*
X144514670Y-106298999D01*
X144514670Y-106299000D01*
X144533872Y-106420237D01*
X144533872Y-106420238D01*
X144589596Y-106529604D01*
X144676395Y-106616403D01*
X144778976Y-106668670D01*
X144785763Y-106672128D01*
X144884183Y-106687716D01*
X144906999Y-106691330D01*
X144907000Y-106691330D01*
X144907001Y-106691330D01*
X144928833Y-106687872D01*
X145028237Y-106672128D01*
X145137606Y-106616402D01*
X145224402Y-106529606D01*
X145280128Y-106420237D01*
X145299330Y-106299000D01*
X145297421Y-106286950D01*
X145289257Y-106235402D01*
X145280128Y-106177763D01*
X145224402Y-106068394D01*
X145137606Y-105981598D01*
X145137604Y-105981596D01*
X145028238Y-105925872D01*
X144907001Y-105906670D01*
X144906999Y-105906670D01*
X144785762Y-105925872D01*
X144785761Y-105925872D01*
X144676395Y-105981596D01*
X144589596Y-106068395D01*
X144533872Y-106177761D01*
X144533872Y-106177762D01*
X144514670Y-106298999D01*
X143081272Y-106298999D01*
X143087411Y-106286950D01*
X143106613Y-106165713D01*
X143087411Y-106044476D01*
X143084742Y-106039237D01*
X143031686Y-105935108D01*
X142944887Y-105848309D01*
X142835521Y-105792585D01*
X142714284Y-105773383D01*
X142714282Y-105773383D01*
X142593045Y-105792585D01*
X142593044Y-105792585D01*
X142483678Y-105848309D01*
X142396879Y-105935108D01*
X142341155Y-106044474D01*
X142341155Y-106044475D01*
X142321953Y-106165712D01*
X139619296Y-106165712D01*
X139636402Y-106148606D01*
X139692128Y-106039237D01*
X139711330Y-105918000D01*
X139692128Y-105796763D01*
X139643846Y-105702003D01*
X139636403Y-105687395D01*
X139549604Y-105600596D01*
X139440238Y-105544872D01*
X139319001Y-105525670D01*
X139318999Y-105525670D01*
X139197762Y-105544872D01*
X139197761Y-105544872D01*
X139088395Y-105600596D01*
X139001596Y-105687395D01*
X138945872Y-105796761D01*
X138945872Y-105796762D01*
X138926670Y-105917999D01*
X133020300Y-105917999D01*
X133020300Y-105223983D01*
X133033026Y-105193259D01*
X133063750Y-105180533D01*
X133094474Y-105193259D01*
X133106365Y-105215506D01*
X133131536Y-105342049D01*
X133131538Y-105342059D01*
X133186340Y-105474362D01*
X133186340Y-105474363D01*
X133265900Y-105593432D01*
X133265904Y-105593437D01*
X133367163Y-105694696D01*
X133367167Y-105694699D01*
X133486237Y-105774259D01*
X133618540Y-105829061D01*
X133618550Y-105829063D01*
X133758995Y-105857000D01*
X134079000Y-105857000D01*
X134079000Y-105430000D01*
X134282200Y-105430000D01*
X134282200Y-105857000D01*
X134602205Y-105857000D01*
X134742649Y-105829063D01*
X134742659Y-105829061D01*
X134874962Y-105774259D01*
X134874963Y-105774259D01*
X134994032Y-105694699D01*
X134994037Y-105694696D01*
X135095296Y-105593437D01*
X135095299Y-105593432D01*
X135174859Y-105474363D01*
X135174859Y-105474362D01*
X135212040Y-105384599D01*
X140425270Y-105384599D01*
X140425270Y-105384600D01*
X140444472Y-105505837D01*
X140444472Y-105505838D01*
X140500196Y-105615204D01*
X140586995Y-105702003D01*
X140696361Y-105757727D01*
X140696363Y-105757728D01*
X140794783Y-105773316D01*
X140817599Y-105776930D01*
X140817600Y-105776930D01*
X140817601Y-105776930D01*
X140839995Y-105773383D01*
X140938837Y-105757728D01*
X141048206Y-105702002D01*
X141135002Y-105615206D01*
X141190728Y-105505837D01*
X141209930Y-105384600D01*
X141190728Y-105263363D01*
X141166344Y-105215506D01*
X141135003Y-105153995D01*
X141048204Y-105067196D01*
X140938838Y-105011472D01*
X140817601Y-104992270D01*
X140817599Y-104992270D01*
X140696362Y-105011472D01*
X140696361Y-105011472D01*
X140586995Y-105067196D01*
X140500196Y-105153995D01*
X140444472Y-105263361D01*
X140444472Y-105263362D01*
X140425270Y-105384599D01*
X135212040Y-105384599D01*
X135229662Y-105342055D01*
X135229664Y-105342047D01*
X135251633Y-105231600D01*
X134813960Y-105231600D01*
X134830600Y-105169496D01*
X134830600Y-105090504D01*
X134813960Y-105028400D01*
X135251633Y-105028400D01*
X135251632Y-105028399D01*
X135229664Y-104917952D01*
X135229662Y-104917944D01*
X135174859Y-104785637D01*
X135174859Y-104785636D01*
X135095299Y-104666567D01*
X135095296Y-104666563D01*
X134994037Y-104565304D01*
X134994032Y-104565300D01*
X134874962Y-104485740D01*
X134742659Y-104430938D01*
X134742649Y-104430936D01*
X134602205Y-104403000D01*
X134282200Y-104403000D01*
X134282200Y-104830000D01*
X134079000Y-104830000D01*
X134079000Y-104403000D01*
X133758995Y-104403000D01*
X133618550Y-104430936D01*
X133618540Y-104430938D01*
X133486237Y-104485740D01*
X133486236Y-104485740D01*
X133367167Y-104565300D01*
X133265900Y-104666567D01*
X133186340Y-104785636D01*
X133186340Y-104785637D01*
X133131538Y-104917940D01*
X133131536Y-104917950D01*
X133106365Y-105044493D01*
X133087889Y-105072143D01*
X133055273Y-105078631D01*
X133027623Y-105060155D01*
X133020300Y-105036016D01*
X133020300Y-104130000D01*
X136023907Y-104130000D01*
X136042628Y-104308117D01*
X136097970Y-104478443D01*
X136097970Y-104478444D01*
X136187523Y-104633554D01*
X136209240Y-104657674D01*
X136516885Y-104350028D01*
X136540516Y-104390956D01*
X136619644Y-104470084D01*
X136660570Y-104493713D01*
X136353855Y-104800427D01*
X136452250Y-104871916D01*
X136615871Y-104944764D01*
X136615870Y-104944764D01*
X136791046Y-104981999D01*
X136791052Y-104982000D01*
X136970148Y-104982000D01*
X136970153Y-104981999D01*
X137145329Y-104944764D01*
X137308949Y-104871916D01*
X137407343Y-104800427D01*
X137100629Y-104493713D01*
X137141556Y-104470084D01*
X137220684Y-104390956D01*
X137244313Y-104350028D01*
X137551958Y-104657673D01*
X137573678Y-104633551D01*
X137609331Y-104571799D01*
X139434670Y-104571799D01*
X139434670Y-104571800D01*
X139453872Y-104693037D01*
X139453872Y-104693038D01*
X139509596Y-104802404D01*
X139596395Y-104889203D01*
X139652815Y-104917950D01*
X139705763Y-104944928D01*
X139804183Y-104960516D01*
X139826999Y-104964130D01*
X139827000Y-104964130D01*
X139827001Y-104964130D01*
X139843577Y-104961504D01*
X139948237Y-104944928D01*
X140057606Y-104889202D01*
X140144402Y-104802406D01*
X140200128Y-104693037D01*
X140204188Y-104667400D01*
X140221563Y-104639046D01*
X140253899Y-104631282D01*
X140282254Y-104648657D01*
X140285817Y-104654471D01*
X140322396Y-104726262D01*
X140409195Y-104813061D01*
X140518561Y-104868785D01*
X140518563Y-104868786D01*
X140616983Y-104884374D01*
X140639799Y-104887988D01*
X140639800Y-104887988D01*
X140639801Y-104887988D01*
X140656377Y-104885362D01*
X140761037Y-104868786D01*
X140870406Y-104813060D01*
X140957202Y-104726264D01*
X141012928Y-104616895D01*
X141028116Y-104520999D01*
X141974670Y-104520999D01*
X141974670Y-104521000D01*
X141993872Y-104642237D01*
X141993872Y-104642238D01*
X142049596Y-104751604D01*
X142136395Y-104838403D01*
X142245761Y-104894127D01*
X142245763Y-104894128D01*
X142344183Y-104909716D01*
X142366999Y-104913330D01*
X142367000Y-104913330D01*
X142367001Y-104913330D01*
X142383577Y-104910704D01*
X142488237Y-104894128D01*
X142597606Y-104838402D01*
X142661009Y-104774999D01*
X148887051Y-104774999D01*
X148887051Y-104775000D01*
X148906253Y-104896237D01*
X148906253Y-104896238D01*
X148961977Y-105005604D01*
X149048776Y-105092403D01*
X149158142Y-105148127D01*
X149158144Y-105148128D01*
X149256564Y-105163716D01*
X149279380Y-105167330D01*
X149279381Y-105167330D01*
X149279382Y-105167330D01*
X149295958Y-105164704D01*
X149400618Y-105148128D01*
X149509987Y-105092402D01*
X149596783Y-105005606D01*
X149652509Y-104896237D01*
X149671711Y-104775000D01*
X149652509Y-104653763D01*
X149642211Y-104633551D01*
X149596784Y-104544395D01*
X149509985Y-104457596D01*
X149400619Y-104401872D01*
X149279382Y-104382670D01*
X149279380Y-104382670D01*
X149158143Y-104401872D01*
X149158142Y-104401872D01*
X149048776Y-104457596D01*
X148961977Y-104544395D01*
X148906253Y-104653761D01*
X148906253Y-104653762D01*
X148887051Y-104774999D01*
X142661009Y-104774999D01*
X142684402Y-104751606D01*
X142740128Y-104642237D01*
X142759330Y-104521000D01*
X142740128Y-104399763D01*
X142727215Y-104374419D01*
X142684403Y-104290395D01*
X142597604Y-104203596D01*
X142488238Y-104147872D01*
X142367001Y-104128670D01*
X142366999Y-104128670D01*
X142245762Y-104147872D01*
X142245761Y-104147872D01*
X142136395Y-104203596D01*
X142049596Y-104290395D01*
X141993872Y-104399761D01*
X141993872Y-104399762D01*
X141974670Y-104520999D01*
X141028116Y-104520999D01*
X141032130Y-104495658D01*
X141012928Y-104374421D01*
X140970115Y-104290395D01*
X140957203Y-104265053D01*
X140870404Y-104178254D01*
X140761038Y-104122530D01*
X140639801Y-104103328D01*
X140639799Y-104103328D01*
X140518562Y-104122530D01*
X140518561Y-104122530D01*
X140409195Y-104178254D01*
X140322396Y-104265053D01*
X140266672Y-104374419D01*
X140262611Y-104400058D01*
X140245235Y-104428412D01*
X140212898Y-104436175D01*
X140184544Y-104418799D01*
X140180982Y-104412986D01*
X140144403Y-104341195D01*
X140057604Y-104254396D01*
X139948238Y-104198672D01*
X139827001Y-104179470D01*
X139826999Y-104179470D01*
X139705762Y-104198672D01*
X139705761Y-104198672D01*
X139596395Y-104254396D01*
X139509596Y-104341195D01*
X139453872Y-104450561D01*
X139453872Y-104450562D01*
X139434670Y-104571799D01*
X137609331Y-104571799D01*
X137663229Y-104478444D01*
X137663229Y-104478443D01*
X137718571Y-104308117D01*
X137737292Y-104130000D01*
X137718571Y-103951882D01*
X137663229Y-103781556D01*
X137663229Y-103781555D01*
X137573676Y-103626445D01*
X137551958Y-103602324D01*
X137244312Y-103909969D01*
X137220684Y-103869044D01*
X137141556Y-103789916D01*
X137100628Y-103766285D01*
X137407343Y-103459571D01*
X137308949Y-103388083D01*
X137145328Y-103315235D01*
X137145329Y-103315235D01*
X136970153Y-103278000D01*
X136791046Y-103278000D01*
X136615870Y-103315235D01*
X136452251Y-103388083D01*
X136353855Y-103459571D01*
X136660570Y-103766286D01*
X136619644Y-103789916D01*
X136540516Y-103869044D01*
X136516886Y-103909970D01*
X136209241Y-103602325D01*
X136187521Y-103626447D01*
X136097970Y-103781555D01*
X136097970Y-103781556D01*
X136042628Y-103951882D01*
X136023907Y-104130000D01*
X133020300Y-104130000D01*
X133020300Y-103187499D01*
X138355170Y-103187499D01*
X138355170Y-103187500D01*
X138374372Y-103308737D01*
X138374372Y-103308738D01*
X138430096Y-103418104D01*
X138516895Y-103504903D01*
X138586123Y-103540176D01*
X138626263Y-103560628D01*
X138715123Y-103574702D01*
X138747499Y-103579830D01*
X138747500Y-103579830D01*
X138747501Y-103579830D01*
X138764077Y-103577204D01*
X138868737Y-103560628D01*
X138978106Y-103504902D01*
X139064902Y-103418106D01*
X139068899Y-103410263D01*
X139110734Y-103328155D01*
X139136021Y-103306557D01*
X139169173Y-103309166D01*
X139190771Y-103334453D01*
X139192363Y-103354676D01*
X139188670Y-103377997D01*
X139188670Y-103378000D01*
X139207872Y-103499237D01*
X139207872Y-103499238D01*
X139263596Y-103608604D01*
X139350395Y-103695403D01*
X139459761Y-103751127D01*
X139459763Y-103751128D01*
X139558183Y-103766716D01*
X139580999Y-103770330D01*
X139581000Y-103770330D01*
X139581001Y-103770330D01*
X139597577Y-103767704D01*
X139702237Y-103751128D01*
X139811606Y-103695402D01*
X139898402Y-103608606D01*
X139922264Y-103561772D01*
X139947550Y-103540176D01*
X139980703Y-103542784D01*
X140002301Y-103568071D01*
X140003893Y-103574702D01*
X140016253Y-103652737D01*
X140016253Y-103652738D01*
X140071977Y-103762104D01*
X140158776Y-103848903D01*
X140268142Y-103904627D01*
X140268144Y-103904628D01*
X140366564Y-103920216D01*
X140389380Y-103923830D01*
X140389381Y-103923830D01*
X140389382Y-103923830D01*
X140405958Y-103921204D01*
X140510618Y-103904628D01*
X140619987Y-103848902D01*
X140706783Y-103762106D01*
X140762509Y-103652737D01*
X140781711Y-103531500D01*
X140762509Y-103410263D01*
X140730645Y-103347726D01*
X140706784Y-103300895D01*
X140619985Y-103214096D01*
X140510619Y-103158372D01*
X140389382Y-103139170D01*
X140389380Y-103139170D01*
X140268143Y-103158372D01*
X140268142Y-103158372D01*
X140158776Y-103214096D01*
X140071977Y-103300895D01*
X140048116Y-103347726D01*
X140022829Y-103369323D01*
X139989676Y-103366714D01*
X139968079Y-103341427D01*
X139966487Y-103334797D01*
X139963389Y-103315235D01*
X139954128Y-103256763D01*
X139918837Y-103187500D01*
X139898403Y-103147395D01*
X139811604Y-103060596D01*
X139702238Y-103004872D01*
X139581001Y-102985670D01*
X139580999Y-102985670D01*
X139459762Y-103004872D01*
X139459761Y-103004872D01*
X139350395Y-103060596D01*
X139263596Y-103147395D01*
X139217765Y-103237345D01*
X139192478Y-103258942D01*
X139159325Y-103256333D01*
X139137728Y-103231046D01*
X139136136Y-103210821D01*
X139139830Y-103187499D01*
X139132175Y-103139170D01*
X139120628Y-103066263D01*
X139064902Y-102956894D01*
X138978106Y-102870098D01*
X138978104Y-102870096D01*
X138868738Y-102814372D01*
X138747501Y-102795170D01*
X138747499Y-102795170D01*
X138626262Y-102814372D01*
X138626261Y-102814372D01*
X138516895Y-102870096D01*
X138430096Y-102956895D01*
X138374372Y-103066261D01*
X138374372Y-103066262D01*
X138355170Y-103187499D01*
X133020300Y-103187499D01*
X133020300Y-102285799D01*
X140196670Y-102285799D01*
X140196670Y-102285800D01*
X140215872Y-102407037D01*
X140215872Y-102407038D01*
X140271596Y-102516404D01*
X140358395Y-102603203D01*
X140467761Y-102658927D01*
X140467763Y-102658928D01*
X140566183Y-102674516D01*
X140588999Y-102678130D01*
X140589000Y-102678130D01*
X140589001Y-102678130D01*
X140605577Y-102675504D01*
X140710237Y-102658928D01*
X140819606Y-102603202D01*
X140906402Y-102516406D01*
X140962128Y-102407037D01*
X140981330Y-102285800D01*
X140962128Y-102164563D01*
X140906402Y-102055194D01*
X140819606Y-101968398D01*
X140819604Y-101968396D01*
X140759873Y-101937962D01*
X140738276Y-101912675D01*
X140740885Y-101879522D01*
X140766172Y-101857925D01*
X140772796Y-101856334D01*
X140837237Y-101846128D01*
X140946606Y-101790402D01*
X141033402Y-101703606D01*
X141089128Y-101594237D01*
X141108330Y-101473000D01*
X141089128Y-101351763D01*
X141082180Y-101338127D01*
X141040844Y-101257000D01*
X142380104Y-101257000D01*
X142397599Y-101378679D01*
X142448666Y-101490501D01*
X142529168Y-101583405D01*
X142546025Y-101594238D01*
X142632579Y-101649864D01*
X142632582Y-101649865D01*
X142632584Y-101649866D01*
X142750535Y-101684500D01*
X142750536Y-101684500D01*
X142873464Y-101684500D01*
X142873465Y-101684500D01*
X142991416Y-101649866D01*
X142991418Y-101649864D01*
X142991420Y-101649864D01*
X143023214Y-101629430D01*
X143094832Y-101583405D01*
X143175334Y-101490501D01*
X143226401Y-101378679D01*
X143229514Y-101357030D01*
X146532504Y-101357030D01*
X146549999Y-101478709D01*
X146601066Y-101590531D01*
X146681568Y-101683435D01*
X146712952Y-101703604D01*
X146784979Y-101749894D01*
X146784982Y-101749895D01*
X146784984Y-101749896D01*
X146902935Y-101784530D01*
X146902936Y-101784530D01*
X147025864Y-101784530D01*
X147025865Y-101784530D01*
X147143816Y-101749896D01*
X147143818Y-101749894D01*
X147143820Y-101749894D01*
X147175614Y-101729460D01*
X147247232Y-101683435D01*
X147327734Y-101590531D01*
X147378801Y-101478709D01*
X147396296Y-101357030D01*
X147378801Y-101235351D01*
X147327734Y-101123529D01*
X147247232Y-101030625D01*
X147231332Y-101020407D01*
X147145118Y-100964999D01*
X149010470Y-100964999D01*
X149010470Y-100965000D01*
X149029672Y-101086237D01*
X149029672Y-101086238D01*
X149085396Y-101195604D01*
X149172195Y-101282403D01*
X149281561Y-101338127D01*
X149281563Y-101338128D01*
X149379983Y-101353716D01*
X149402799Y-101357330D01*
X149402800Y-101357330D01*
X149402801Y-101357330D01*
X149419377Y-101354704D01*
X149524037Y-101338128D01*
X149633406Y-101282402D01*
X149720202Y-101195606D01*
X149775928Y-101086237D01*
X149795130Y-100965000D01*
X149775928Y-100843763D01*
X149768661Y-100829500D01*
X149720203Y-100734395D01*
X149633404Y-100647596D01*
X149524038Y-100591872D01*
X149402801Y-100572670D01*
X149402799Y-100572670D01*
X149281562Y-100591872D01*
X149281561Y-100591872D01*
X149172195Y-100647596D01*
X149085396Y-100734395D01*
X149029672Y-100843761D01*
X149029672Y-100843762D01*
X149010470Y-100964999D01*
X147145118Y-100964999D01*
X147143820Y-100964165D01*
X147099847Y-100951253D01*
X147025865Y-100929530D01*
X146984722Y-100929530D01*
X146953998Y-100916804D01*
X146941272Y-100886080D01*
X146953998Y-100855356D01*
X146977925Y-100843165D01*
X146985194Y-100842013D01*
X147060237Y-100830128D01*
X147169606Y-100774402D01*
X147256402Y-100687606D01*
X147312128Y-100578237D01*
X147331330Y-100457000D01*
X147312128Y-100335763D01*
X147302671Y-100317202D01*
X147256403Y-100226395D01*
X147169604Y-100139596D01*
X147060238Y-100083872D01*
X146939001Y-100064670D01*
X146938999Y-100064670D01*
X146817762Y-100083872D01*
X146817761Y-100083872D01*
X146708395Y-100139596D01*
X146621596Y-100226395D01*
X146565872Y-100335761D01*
X146565872Y-100335762D01*
X146546670Y-100456999D01*
X146546670Y-100457000D01*
X146565872Y-100578237D01*
X146565872Y-100578238D01*
X146621596Y-100687604D01*
X146708395Y-100774403D01*
X146816530Y-100829500D01*
X146817763Y-100830128D01*
X146903193Y-100843658D01*
X146931547Y-100861033D01*
X146939310Y-100893370D01*
X146921935Y-100921725D01*
X146905804Y-100928274D01*
X146905916Y-100928655D01*
X146902936Y-100929530D01*
X146902935Y-100929530D01*
X146857528Y-100942862D01*
X146784979Y-100964165D01*
X146681569Y-101030624D01*
X146681568Y-101030625D01*
X146601065Y-101123530D01*
X146549999Y-101235350D01*
X146549999Y-101235351D01*
X146532504Y-101357030D01*
X143229514Y-101357030D01*
X143243896Y-101257000D01*
X143226401Y-101135321D01*
X143175334Y-101023499D01*
X143094832Y-100930595D01*
X143073373Y-100916804D01*
X142991420Y-100864135D01*
X142940999Y-100849330D01*
X142873465Y-100829500D01*
X142750535Y-100829500D01*
X142705069Y-100842850D01*
X142632579Y-100864135D01*
X142529169Y-100930594D01*
X142529168Y-100930595D01*
X142448665Y-101023500D01*
X142397599Y-101135320D01*
X142388931Y-101195606D01*
X142380104Y-101257000D01*
X141040844Y-101257000D01*
X141033403Y-101242395D01*
X140946604Y-101155596D01*
X140837238Y-101099872D01*
X140716001Y-101080670D01*
X140715999Y-101080670D01*
X140594762Y-101099872D01*
X140594761Y-101099872D01*
X140485395Y-101155596D01*
X140398596Y-101242395D01*
X140342872Y-101351761D01*
X140342872Y-101351762D01*
X140323670Y-101472999D01*
X140323670Y-101473000D01*
X140342872Y-101594237D01*
X140342872Y-101594238D01*
X140398596Y-101703604D01*
X140485395Y-101790403D01*
X140545126Y-101820837D01*
X140566723Y-101846124D01*
X140564114Y-101879277D01*
X140538827Y-101900874D01*
X140532197Y-101902466D01*
X140467762Y-101912672D01*
X140467761Y-101912672D01*
X140358395Y-101968396D01*
X140271596Y-102055195D01*
X140215872Y-102164561D01*
X140215872Y-102164562D01*
X140196670Y-102285799D01*
X133020300Y-102285799D01*
X133020300Y-99999799D01*
X137529670Y-99999799D01*
X137529670Y-99999800D01*
X137548872Y-100121037D01*
X137548872Y-100121038D01*
X137604596Y-100230404D01*
X137691395Y-100317203D01*
X137727818Y-100335761D01*
X137800763Y-100372928D01*
X137899183Y-100388516D01*
X137921999Y-100392130D01*
X137922000Y-100392130D01*
X137922001Y-100392130D01*
X137938577Y-100389504D01*
X138043237Y-100372928D01*
X138152606Y-100317202D01*
X138239402Y-100230406D01*
X138295128Y-100121037D01*
X138314330Y-99999800D01*
X138295128Y-99878563D01*
X138262297Y-99814128D01*
X138239403Y-99769195D01*
X138152604Y-99682396D01*
X138043238Y-99626672D01*
X137922001Y-99607470D01*
X137921999Y-99607470D01*
X137800762Y-99626672D01*
X137800761Y-99626672D01*
X137691395Y-99682396D01*
X137604596Y-99769195D01*
X137548872Y-99878561D01*
X137548872Y-99878562D01*
X137529670Y-99999799D01*
X133020300Y-99999799D01*
X133020300Y-99130000D01*
X136023907Y-99130000D01*
X136042628Y-99308117D01*
X136097970Y-99478443D01*
X136097970Y-99478444D01*
X136187523Y-99633554D01*
X136209240Y-99657674D01*
X136516885Y-99350028D01*
X136540516Y-99390956D01*
X136619644Y-99470084D01*
X136660570Y-99493713D01*
X136353855Y-99800427D01*
X136452250Y-99871916D01*
X136615871Y-99944764D01*
X136615870Y-99944764D01*
X136791046Y-99981999D01*
X136791052Y-99982000D01*
X136970148Y-99982000D01*
X136970153Y-99981999D01*
X137145329Y-99944764D01*
X137308949Y-99871916D01*
X137407343Y-99800427D01*
X137100629Y-99493713D01*
X137141556Y-99470084D01*
X137220684Y-99390956D01*
X137244313Y-99350028D01*
X137551958Y-99657673D01*
X137573678Y-99633551D01*
X137663229Y-99478444D01*
X137663229Y-99478443D01*
X137675395Y-99440999D01*
X141974670Y-99440999D01*
X141974670Y-99441000D01*
X141993872Y-99562237D01*
X141993872Y-99562238D01*
X142049596Y-99671604D01*
X142136395Y-99758403D01*
X142218873Y-99800427D01*
X142245763Y-99814128D01*
X142344183Y-99829716D01*
X142366999Y-99833330D01*
X142367000Y-99833330D01*
X142367001Y-99833330D01*
X142383577Y-99830704D01*
X142488237Y-99814128D01*
X142597606Y-99758402D01*
X142684402Y-99671606D01*
X142740128Y-99562237D01*
X142759330Y-99441000D01*
X142758417Y-99435238D01*
X142751404Y-99390956D01*
X142740128Y-99319763D01*
X142684402Y-99210394D01*
X142661007Y-99186999D01*
X148760051Y-99186999D01*
X148760051Y-99187000D01*
X148779253Y-99308237D01*
X148779253Y-99308238D01*
X148834977Y-99417604D01*
X148921776Y-99504403D01*
X148964236Y-99526037D01*
X149031144Y-99560128D01*
X149129564Y-99575716D01*
X149152380Y-99579330D01*
X149152381Y-99579330D01*
X149152382Y-99579330D01*
X149168958Y-99576704D01*
X149273618Y-99560128D01*
X149382987Y-99504402D01*
X149469783Y-99417606D01*
X149522573Y-99313999D01*
X150872670Y-99313999D01*
X150872670Y-99314000D01*
X150891872Y-99435237D01*
X150891872Y-99435238D01*
X150947596Y-99544604D01*
X151034395Y-99631403D01*
X151113295Y-99671604D01*
X151143763Y-99687128D01*
X151242183Y-99702716D01*
X151264999Y-99706330D01*
X151265000Y-99706330D01*
X151265001Y-99706330D01*
X151281577Y-99703704D01*
X151386237Y-99687128D01*
X151495606Y-99631402D01*
X151582402Y-99544606D01*
X151638128Y-99435237D01*
X151657330Y-99314000D01*
X151656417Y-99308238D01*
X151654169Y-99294044D01*
X151638128Y-99192763D01*
X151606149Y-99130000D01*
X151597172Y-99112381D01*
X151594563Y-99079228D01*
X151616160Y-99053941D01*
X151649313Y-99051332D01*
X151649315Y-99051332D01*
X151651759Y-99052126D01*
X151651763Y-99052128D01*
X151732587Y-99064929D01*
X151772999Y-99071330D01*
X151773000Y-99071330D01*
X151773001Y-99071330D01*
X151794833Y-99067872D01*
X151894237Y-99052128D01*
X152003606Y-98996402D01*
X152090402Y-98909606D01*
X152146128Y-98800237D01*
X152165330Y-98679000D01*
X152146128Y-98557763D01*
X152103634Y-98474363D01*
X152090403Y-98448395D01*
X152003604Y-98361596D01*
X151894238Y-98305872D01*
X151773001Y-98286670D01*
X151772999Y-98286670D01*
X151651762Y-98305872D01*
X151651761Y-98305872D01*
X151542395Y-98361596D01*
X151455596Y-98448395D01*
X151399872Y-98557761D01*
X151399872Y-98557762D01*
X151380670Y-98678999D01*
X151380670Y-98679000D01*
X151399872Y-98800237D01*
X151399872Y-98800238D01*
X151440827Y-98880618D01*
X151443436Y-98913771D01*
X151421839Y-98939058D01*
X151388689Y-98941668D01*
X151386240Y-98940872D01*
X151265001Y-98921670D01*
X151264999Y-98921670D01*
X151143762Y-98940872D01*
X151143761Y-98940872D01*
X151034395Y-98996596D01*
X150947596Y-99083395D01*
X150891872Y-99192761D01*
X150891872Y-99192762D01*
X150872670Y-99313999D01*
X149522573Y-99313999D01*
X149525509Y-99308237D01*
X149544711Y-99187000D01*
X149525509Y-99065763D01*
X149490267Y-98996596D01*
X149469784Y-98956395D01*
X149382985Y-98869596D01*
X149273619Y-98813872D01*
X149152382Y-98794670D01*
X149152380Y-98794670D01*
X149031143Y-98813872D01*
X149031142Y-98813872D01*
X148921776Y-98869596D01*
X148834977Y-98956395D01*
X148779253Y-99065761D01*
X148779253Y-99065762D01*
X148760051Y-99186999D01*
X142661007Y-99186999D01*
X142597606Y-99123598D01*
X142597604Y-99123596D01*
X142488238Y-99067872D01*
X142367001Y-99048670D01*
X142366999Y-99048670D01*
X142245762Y-99067872D01*
X142245761Y-99067872D01*
X142136395Y-99123596D01*
X142049596Y-99210395D01*
X141993872Y-99319761D01*
X141993872Y-99319762D01*
X141974670Y-99440999D01*
X137675395Y-99440999D01*
X137718571Y-99308117D01*
X137737292Y-99130000D01*
X137718571Y-98951882D01*
X137663229Y-98781556D01*
X137663229Y-98781555D01*
X137573676Y-98626445D01*
X137551958Y-98602324D01*
X137244312Y-98909969D01*
X137220684Y-98869044D01*
X137141556Y-98789916D01*
X137100628Y-98766285D01*
X137407343Y-98459571D01*
X137308949Y-98388083D01*
X137145328Y-98315235D01*
X137145329Y-98315235D01*
X136970153Y-98278000D01*
X136791046Y-98278000D01*
X136615870Y-98315235D01*
X136452251Y-98388083D01*
X136353855Y-98459571D01*
X136660570Y-98766286D01*
X136619644Y-98789916D01*
X136540516Y-98869044D01*
X136516886Y-98909970D01*
X136209241Y-98602325D01*
X136187521Y-98626447D01*
X136097970Y-98781555D01*
X136097970Y-98781556D01*
X136042628Y-98951882D01*
X136023907Y-99130000D01*
X133020300Y-99130000D01*
X133020300Y-98223983D01*
X133033026Y-98193259D01*
X133063750Y-98180533D01*
X133094474Y-98193259D01*
X133106365Y-98215506D01*
X133131536Y-98342049D01*
X133131538Y-98342059D01*
X133186340Y-98474362D01*
X133186340Y-98474363D01*
X133265900Y-98593432D01*
X133265904Y-98593437D01*
X133367163Y-98694696D01*
X133367167Y-98694699D01*
X133486237Y-98774259D01*
X133618540Y-98829061D01*
X133618550Y-98829063D01*
X133758995Y-98857000D01*
X134079000Y-98857000D01*
X134079000Y-98430000D01*
X134282200Y-98430000D01*
X134282200Y-98857000D01*
X134602205Y-98857000D01*
X134742649Y-98829063D01*
X134742659Y-98829061D01*
X134874962Y-98774259D01*
X134874963Y-98774259D01*
X134994032Y-98694699D01*
X134994037Y-98694696D01*
X135095296Y-98593437D01*
X135095299Y-98593432D01*
X135174859Y-98474363D01*
X135174859Y-98474362D01*
X135229662Y-98342055D01*
X135229664Y-98342047D01*
X135251633Y-98231600D01*
X134813960Y-98231600D01*
X134830600Y-98169496D01*
X134830600Y-98090504D01*
X134818140Y-98043999D01*
X140196670Y-98043999D01*
X140196670Y-98044000D01*
X140215872Y-98165237D01*
X140215872Y-98165238D01*
X140271596Y-98274604D01*
X140358395Y-98361403D01*
X140452902Y-98409556D01*
X140467763Y-98417128D01*
X140566183Y-98432716D01*
X140588999Y-98436330D01*
X140589000Y-98436330D01*
X140589001Y-98436330D01*
X140605577Y-98433704D01*
X140710237Y-98417128D01*
X140819606Y-98361402D01*
X140875776Y-98305232D01*
X140906500Y-98292506D01*
X140937224Y-98305232D01*
X140993395Y-98361403D01*
X141087902Y-98409556D01*
X141102763Y-98417128D01*
X141201183Y-98432716D01*
X141223999Y-98436330D01*
X141224000Y-98436330D01*
X141224001Y-98436330D01*
X141240577Y-98433704D01*
X141295540Y-98424999D01*
X147998051Y-98424999D01*
X147998051Y-98425000D01*
X148017253Y-98546237D01*
X148017253Y-98546238D01*
X148072977Y-98655604D01*
X148159776Y-98742403D01*
X148222298Y-98774259D01*
X148269144Y-98798128D01*
X148367564Y-98813716D01*
X148390380Y-98817330D01*
X148390381Y-98817330D01*
X148390382Y-98817330D01*
X148412214Y-98813872D01*
X148511618Y-98798128D01*
X148620987Y-98742402D01*
X148707783Y-98655606D01*
X148763509Y-98546237D01*
X148782711Y-98425000D01*
X148782711Y-98424999D01*
X149594670Y-98424999D01*
X149594670Y-98425000D01*
X149613872Y-98546237D01*
X149613872Y-98546238D01*
X149669596Y-98655604D01*
X149756395Y-98742403D01*
X149818917Y-98774259D01*
X149865763Y-98798128D01*
X149964183Y-98813716D01*
X149986999Y-98817330D01*
X149987000Y-98817330D01*
X149987001Y-98817330D01*
X150008833Y-98813872D01*
X150108237Y-98798128D01*
X150217606Y-98742402D01*
X150304402Y-98655606D01*
X150360128Y-98546237D01*
X150379330Y-98425000D01*
X150378696Y-98421000D01*
X150369288Y-98361598D01*
X150360128Y-98303763D01*
X150345174Y-98274413D01*
X150304403Y-98194395D01*
X150217604Y-98107596D01*
X150108238Y-98051872D01*
X149987001Y-98032670D01*
X149986999Y-98032670D01*
X149865762Y-98051872D01*
X149865761Y-98051872D01*
X149756395Y-98107596D01*
X149669596Y-98194395D01*
X149613872Y-98303761D01*
X149613872Y-98303762D01*
X149594670Y-98424999D01*
X148782711Y-98424999D01*
X148782077Y-98421000D01*
X148772669Y-98361598D01*
X148763509Y-98303763D01*
X148748555Y-98274413D01*
X148707784Y-98194395D01*
X148620985Y-98107596D01*
X148511619Y-98051872D01*
X148390382Y-98032670D01*
X148390380Y-98032670D01*
X148269143Y-98051872D01*
X148269142Y-98051872D01*
X148159776Y-98107596D01*
X148072977Y-98194395D01*
X148017253Y-98303761D01*
X148017253Y-98303762D01*
X147998051Y-98424999D01*
X141295540Y-98424999D01*
X141345237Y-98417128D01*
X141454606Y-98361402D01*
X141541402Y-98274606D01*
X141597128Y-98165237D01*
X141616330Y-98044000D01*
X141615065Y-98036016D01*
X141606257Y-97980402D01*
X141597128Y-97922763D01*
X141565372Y-97860438D01*
X141541403Y-97813395D01*
X141454604Y-97726596D01*
X141345238Y-97670872D01*
X141295530Y-97662999D01*
X142482670Y-97662999D01*
X142482670Y-97663000D01*
X142501872Y-97784237D01*
X142501872Y-97784238D01*
X142557596Y-97893604D01*
X142644395Y-97980403D01*
X142738594Y-98028399D01*
X142753763Y-98036128D01*
X142852183Y-98051716D01*
X142874999Y-98055330D01*
X142875000Y-98055330D01*
X142875001Y-98055330D01*
X142896833Y-98051872D01*
X142996237Y-98036128D01*
X143105606Y-97980402D01*
X143192402Y-97893606D01*
X143248128Y-97784237D01*
X143267330Y-97663000D01*
X143266417Y-97657238D01*
X143260197Y-97617963D01*
X143248128Y-97541763D01*
X143245191Y-97535999D01*
X143656044Y-97535999D01*
X143656044Y-97536000D01*
X143673758Y-97647849D01*
X143673760Y-97647855D01*
X143725169Y-97748750D01*
X143805249Y-97828830D01*
X143906144Y-97880239D01*
X143906147Y-97880240D01*
X143906149Y-97880241D01*
X143962074Y-97889098D01*
X144017999Y-97897956D01*
X144018000Y-97897956D01*
X144018001Y-97897956D01*
X144068612Y-97889940D01*
X144129851Y-97880241D01*
X144230752Y-97828829D01*
X144310829Y-97748752D01*
X144315697Y-97739199D01*
X144565470Y-97739199D01*
X144565470Y-97739200D01*
X144584672Y-97860437D01*
X144584672Y-97860438D01*
X144640396Y-97969804D01*
X144727195Y-98056603D01*
X144827276Y-98107596D01*
X144836563Y-98112328D01*
X144934983Y-98127916D01*
X144957799Y-98131530D01*
X144957800Y-98131530D01*
X144957801Y-98131530D01*
X144974377Y-98128904D01*
X145079037Y-98112328D01*
X145188406Y-98056602D01*
X145275202Y-97969806D01*
X145330928Y-97860437D01*
X145350130Y-97739200D01*
X145330928Y-97617963D01*
X145312114Y-97581038D01*
X145275203Y-97508595D01*
X145188404Y-97421796D01*
X145079038Y-97366072D01*
X144957801Y-97346870D01*
X144957799Y-97346870D01*
X144836562Y-97366072D01*
X144836561Y-97366072D01*
X144727195Y-97421796D01*
X144640396Y-97508595D01*
X144584672Y-97617961D01*
X144584672Y-97617962D01*
X144565470Y-97739199D01*
X144315697Y-97739199D01*
X144362241Y-97647851D01*
X144379956Y-97536000D01*
X144379043Y-97530238D01*
X144367887Y-97459799D01*
X144362241Y-97424149D01*
X144362240Y-97424147D01*
X144362239Y-97424144D01*
X144310830Y-97323249D01*
X144230750Y-97243169D01*
X144129855Y-97191760D01*
X144129849Y-97191758D01*
X144018001Y-97174044D01*
X144017999Y-97174044D01*
X143906150Y-97191758D01*
X143906144Y-97191760D01*
X143805249Y-97243169D01*
X143725169Y-97323249D01*
X143673760Y-97424144D01*
X143673758Y-97424150D01*
X143656044Y-97535999D01*
X143245191Y-97535999D01*
X143206366Y-97459800D01*
X143192403Y-97432395D01*
X143105604Y-97345596D01*
X142996238Y-97289872D01*
X142875001Y-97270670D01*
X142874999Y-97270670D01*
X142753762Y-97289872D01*
X142753761Y-97289872D01*
X142644395Y-97345596D01*
X142557596Y-97432395D01*
X142501872Y-97541761D01*
X142501872Y-97541762D01*
X142482670Y-97662999D01*
X141295530Y-97662999D01*
X141224001Y-97651670D01*
X141223999Y-97651670D01*
X141102762Y-97670872D01*
X141102761Y-97670872D01*
X140993395Y-97726596D01*
X140937224Y-97782768D01*
X140906500Y-97795494D01*
X140875776Y-97782768D01*
X140819604Y-97726596D01*
X140710238Y-97670872D01*
X140589001Y-97651670D01*
X140588999Y-97651670D01*
X140467762Y-97670872D01*
X140467761Y-97670872D01*
X140358395Y-97726596D01*
X140271596Y-97813395D01*
X140215872Y-97922761D01*
X140215872Y-97922762D01*
X140196670Y-98043999D01*
X134818140Y-98043999D01*
X134813960Y-98028400D01*
X135251633Y-98028400D01*
X135251632Y-98028399D01*
X135229664Y-97917952D01*
X135229662Y-97917944D01*
X135174859Y-97785637D01*
X135174859Y-97785636D01*
X135095299Y-97666567D01*
X135095296Y-97666563D01*
X134994037Y-97565304D01*
X134994032Y-97565300D01*
X134950180Y-97535999D01*
X138479670Y-97535999D01*
X138479670Y-97536000D01*
X138498872Y-97657237D01*
X138498872Y-97657238D01*
X138554596Y-97766604D01*
X138641395Y-97853403D01*
X138750761Y-97909127D01*
X138750763Y-97909128D01*
X138849183Y-97924716D01*
X138871999Y-97928330D01*
X138872000Y-97928330D01*
X138872001Y-97928330D01*
X138888577Y-97925704D01*
X138993237Y-97909128D01*
X139102606Y-97853402D01*
X139189402Y-97766606D01*
X139245128Y-97657237D01*
X139264330Y-97536000D01*
X139263417Y-97530238D01*
X139257302Y-97491627D01*
X139245128Y-97414763D01*
X139241315Y-97407280D01*
X139189403Y-97305395D01*
X139102604Y-97218596D01*
X138993238Y-97162872D01*
X138872001Y-97143670D01*
X138871999Y-97143670D01*
X138750762Y-97162872D01*
X138750761Y-97162872D01*
X138641395Y-97218596D01*
X138554596Y-97305395D01*
X138498872Y-97414761D01*
X138498872Y-97414762D01*
X138479670Y-97535999D01*
X134950180Y-97535999D01*
X134874962Y-97485740D01*
X134742659Y-97430938D01*
X134742649Y-97430936D01*
X134602205Y-97403000D01*
X134282200Y-97403000D01*
X134282200Y-97830000D01*
X134079000Y-97830000D01*
X134079000Y-97403000D01*
X133758995Y-97403000D01*
X133618550Y-97430936D01*
X133618540Y-97430938D01*
X133486237Y-97485740D01*
X133486236Y-97485740D01*
X133367167Y-97565300D01*
X133265900Y-97666567D01*
X133186340Y-97785636D01*
X133186340Y-97785637D01*
X133131538Y-97917940D01*
X133131536Y-97917950D01*
X133106365Y-98044493D01*
X133087889Y-98072143D01*
X133055273Y-98078631D01*
X133027623Y-98060155D01*
X133020300Y-98036016D01*
X133020300Y-95995997D01*
X133427732Y-95995997D01*
X133427732Y-95996002D01*
X133446718Y-96140226D01*
X133446719Y-96140230D01*
X133446720Y-96140232D01*
X133496429Y-96260238D01*
X133502392Y-96274634D01*
X133590950Y-96390046D01*
X133590953Y-96390049D01*
X133605058Y-96400872D01*
X133706366Y-96478608D01*
X133840768Y-96534280D01*
X133840773Y-96534280D01*
X133840774Y-96534281D01*
X133840772Y-96534281D01*
X133984997Y-96553268D01*
X133985000Y-96553268D01*
X133985003Y-96553268D01*
X134129226Y-96534281D01*
X134129226Y-96534280D01*
X134129232Y-96534280D01*
X134263634Y-96478608D01*
X134379048Y-96390048D01*
X134467608Y-96274634D01*
X134523280Y-96140232D01*
X134523442Y-96139000D01*
X134523442Y-96138999D01*
X135878670Y-96138999D01*
X135878670Y-96139000D01*
X135897872Y-96260237D01*
X135897872Y-96260238D01*
X135953596Y-96369604D01*
X136009768Y-96425776D01*
X136022494Y-96456500D01*
X136009768Y-96487224D01*
X135953596Y-96543395D01*
X135897872Y-96652761D01*
X135897872Y-96652762D01*
X135878670Y-96773999D01*
X135878670Y-96774000D01*
X135897872Y-96895237D01*
X135897872Y-96895238D01*
X135953596Y-97004604D01*
X136040395Y-97091403D01*
X136093575Y-97118499D01*
X136149763Y-97147128D01*
X136248183Y-97162716D01*
X136270999Y-97166330D01*
X136271000Y-97166330D01*
X136271001Y-97166330D01*
X136292833Y-97162872D01*
X136392237Y-97147128D01*
X136501606Y-97091402D01*
X136588402Y-97004606D01*
X136644128Y-96895237D01*
X136663330Y-96774000D01*
X136663330Y-96773999D01*
X142863670Y-96773999D01*
X142863670Y-96774000D01*
X142882872Y-96895237D01*
X142882872Y-96895238D01*
X142938596Y-97004604D01*
X143025395Y-97091403D01*
X143078575Y-97118499D01*
X143134763Y-97147128D01*
X143233183Y-97162716D01*
X143255999Y-97166330D01*
X143256000Y-97166330D01*
X143256001Y-97166330D01*
X143277833Y-97162872D01*
X143377237Y-97147128D01*
X143486606Y-97091402D01*
X143573402Y-97004606D01*
X143629128Y-96895237D01*
X143648330Y-96774000D01*
X143644307Y-96748599D01*
X144006670Y-96748599D01*
X144006670Y-96748600D01*
X144025872Y-96869837D01*
X144025872Y-96869838D01*
X144081596Y-96979204D01*
X144168395Y-97066003D01*
X144218625Y-97091596D01*
X144277763Y-97121728D01*
X144376183Y-97137316D01*
X144398999Y-97140930D01*
X144399000Y-97140930D01*
X144399001Y-97140930D01*
X144415577Y-97138304D01*
X144520237Y-97121728D01*
X144629606Y-97066002D01*
X144716402Y-96979206D01*
X144772128Y-96869837D01*
X144787307Y-96773999D01*
X145839051Y-96773999D01*
X145839051Y-96774000D01*
X145858253Y-96895237D01*
X145858253Y-96895238D01*
X145913977Y-97004604D01*
X145995549Y-97086176D01*
X146008275Y-97116900D01*
X145995549Y-97147624D01*
X145913977Y-97229195D01*
X145858253Y-97338561D01*
X145858253Y-97338562D01*
X145839051Y-97459799D01*
X145839051Y-97459800D01*
X145858253Y-97581037D01*
X145858253Y-97581038D01*
X145913977Y-97690404D01*
X146000776Y-97777203D01*
X146036675Y-97795494D01*
X146110144Y-97832928D01*
X146208564Y-97848516D01*
X146231380Y-97852130D01*
X146231381Y-97852130D01*
X146231382Y-97852130D01*
X146247958Y-97849504D01*
X146352618Y-97832928D01*
X146461987Y-97777202D01*
X146548783Y-97690406D01*
X146604509Y-97581037D01*
X146623711Y-97459800D01*
X146615665Y-97408999D01*
X147363051Y-97408999D01*
X147363051Y-97409000D01*
X147382253Y-97530237D01*
X147382253Y-97530238D01*
X147437977Y-97639604D01*
X147524776Y-97726403D01*
X147624476Y-97777202D01*
X147634144Y-97782128D01*
X147718534Y-97795494D01*
X147755380Y-97801330D01*
X147755381Y-97801330D01*
X147755382Y-97801330D01*
X147771958Y-97798704D01*
X147876618Y-97782128D01*
X147985987Y-97726402D01*
X148072783Y-97639606D01*
X148128509Y-97530237D01*
X148147711Y-97409000D01*
X148128509Y-97287763D01*
X148119800Y-97270670D01*
X148072784Y-97178395D01*
X148012888Y-97118499D01*
X149086670Y-97118499D01*
X149086670Y-97118500D01*
X149105872Y-97239737D01*
X149105872Y-97239738D01*
X149161596Y-97349104D01*
X149248395Y-97435903D01*
X149346207Y-97485740D01*
X149357763Y-97491628D01*
X149456183Y-97507216D01*
X149478999Y-97510830D01*
X149479000Y-97510830D01*
X149479001Y-97510830D01*
X149495577Y-97508204D01*
X149600237Y-97491628D01*
X149709606Y-97435902D01*
X149796402Y-97349106D01*
X149852128Y-97239737D01*
X149871330Y-97118500D01*
X149852128Y-96997263D01*
X149800144Y-96895238D01*
X149796403Y-96887895D01*
X149709604Y-96801096D01*
X149600238Y-96745372D01*
X149479001Y-96726170D01*
X149478999Y-96726170D01*
X149357762Y-96745372D01*
X149357761Y-96745372D01*
X149248395Y-96801096D01*
X149161596Y-96887895D01*
X149105872Y-96997261D01*
X149105872Y-96997262D01*
X149086670Y-97118499D01*
X148012888Y-97118499D01*
X147985985Y-97091596D01*
X147876619Y-97035872D01*
X147755382Y-97016670D01*
X147755380Y-97016670D01*
X147634143Y-97035872D01*
X147634142Y-97035872D01*
X147524776Y-97091596D01*
X147437977Y-97178395D01*
X147382253Y-97287761D01*
X147382253Y-97287762D01*
X147363051Y-97408999D01*
X146615665Y-97408999D01*
X146604509Y-97338563D01*
X146593310Y-97316583D01*
X146548784Y-97229195D01*
X146467213Y-97147624D01*
X146454487Y-97116900D01*
X146467213Y-97086176D01*
X146487387Y-97066002D01*
X146548783Y-97004606D01*
X146604509Y-96895237D01*
X146623711Y-96774000D01*
X146604509Y-96652763D01*
X146591566Y-96627361D01*
X146548784Y-96543395D01*
X146525388Y-96519999D01*
X146927670Y-96519999D01*
X146927670Y-96520000D01*
X146946872Y-96641237D01*
X146946872Y-96641238D01*
X147002596Y-96750604D01*
X147089395Y-96837403D01*
X147198761Y-96893127D01*
X147198763Y-96893128D01*
X147297183Y-96908716D01*
X147319999Y-96912330D01*
X147320000Y-96912330D01*
X147320001Y-96912330D01*
X147336577Y-96909704D01*
X147441237Y-96893128D01*
X147550606Y-96837402D01*
X147637402Y-96750606D01*
X147693128Y-96641237D01*
X147712330Y-96520000D01*
X147712012Y-96517995D01*
X147702288Y-96456598D01*
X147693128Y-96398763D01*
X147688688Y-96390048D01*
X147637403Y-96289395D01*
X147550604Y-96202596D01*
X147441238Y-96146872D01*
X147320001Y-96127670D01*
X147319999Y-96127670D01*
X147198762Y-96146872D01*
X147198761Y-96146872D01*
X147089395Y-96202596D01*
X147002596Y-96289395D01*
X146946872Y-96398761D01*
X146946872Y-96398762D01*
X146927670Y-96519999D01*
X146525388Y-96519999D01*
X146461985Y-96456596D01*
X146352619Y-96400872D01*
X146231382Y-96381670D01*
X146231380Y-96381670D01*
X146110143Y-96400872D01*
X146110142Y-96400872D01*
X146000776Y-96456596D01*
X145913977Y-96543395D01*
X145858253Y-96652761D01*
X145858253Y-96652762D01*
X145839051Y-96773999D01*
X144787307Y-96773999D01*
X144791330Y-96748600D01*
X144772128Y-96627363D01*
X144734375Y-96553268D01*
X144716403Y-96517995D01*
X144629604Y-96431196D01*
X144520238Y-96375472D01*
X144399001Y-96356270D01*
X144398999Y-96356270D01*
X144277762Y-96375472D01*
X144277761Y-96375472D01*
X144168395Y-96431196D01*
X144081596Y-96517995D01*
X144025872Y-96627361D01*
X144025872Y-96627362D01*
X144006670Y-96748599D01*
X143644307Y-96748599D01*
X143629128Y-96652763D01*
X143616185Y-96627361D01*
X143573403Y-96543395D01*
X143486604Y-96456596D01*
X143377238Y-96400872D01*
X143256001Y-96381670D01*
X143255999Y-96381670D01*
X143134762Y-96400872D01*
X143134761Y-96400872D01*
X143025395Y-96456596D01*
X142938596Y-96543395D01*
X142882872Y-96652761D01*
X142882872Y-96652762D01*
X142863670Y-96773999D01*
X136663330Y-96773999D01*
X136644128Y-96652763D01*
X136631185Y-96627361D01*
X136588403Y-96543395D01*
X136532232Y-96487224D01*
X136519506Y-96456500D01*
X136532232Y-96425776D01*
X136559247Y-96398761D01*
X136588402Y-96369606D01*
X136644128Y-96260237D01*
X136663330Y-96139000D01*
X136644128Y-96017763D01*
X136588402Y-95908394D01*
X136501606Y-95821598D01*
X136501604Y-95821596D01*
X136392238Y-95765872D01*
X136271001Y-95746670D01*
X136270999Y-95746670D01*
X136149762Y-95765872D01*
X136149761Y-95765872D01*
X136040395Y-95821596D01*
X135953596Y-95908395D01*
X135897872Y-96017761D01*
X135897872Y-96017762D01*
X135878670Y-96138999D01*
X134523442Y-96138999D01*
X134542268Y-95996002D01*
X134542268Y-95995997D01*
X134523281Y-95851773D01*
X134523280Y-95851771D01*
X134523280Y-95851768D01*
X134467608Y-95717366D01*
X134391208Y-95617799D01*
X134382601Y-95585676D01*
X134399228Y-95556877D01*
X134420429Y-95548500D01*
X134420413Y-95548417D01*
X134420870Y-95548325D01*
X134421425Y-95548107D01*
X134422505Y-95548000D01*
X134459552Y-95540630D01*
X134501561Y-95512561D01*
X134529630Y-95470552D01*
X134537000Y-95433509D01*
X134537000Y-95097600D01*
X134213514Y-95097600D01*
X134235000Y-95045728D01*
X134235000Y-94946272D01*
X134213514Y-94894400D01*
X134537000Y-94894400D01*
X134537000Y-94868999D01*
X149086670Y-94868999D01*
X149086670Y-94869000D01*
X149105872Y-94990237D01*
X149105872Y-94990238D01*
X149161596Y-95099604D01*
X149248395Y-95186403D01*
X149357761Y-95242127D01*
X149357763Y-95242128D01*
X149456183Y-95257716D01*
X149478999Y-95261330D01*
X149479000Y-95261330D01*
X149479001Y-95261330D01*
X149495577Y-95258704D01*
X149600237Y-95242128D01*
X149709606Y-95186402D01*
X149796402Y-95099606D01*
X149852128Y-94990237D01*
X149871330Y-94869000D01*
X149871330Y-94868997D01*
X152299932Y-94868997D01*
X152299932Y-94869002D01*
X152318918Y-95013226D01*
X152318919Y-95013230D01*
X152318920Y-95013232D01*
X152353867Y-95097600D01*
X152374592Y-95147634D01*
X152463150Y-95263046D01*
X152463153Y-95263049D01*
X152556308Y-95334529D01*
X152572935Y-95363328D01*
X152564328Y-95395451D01*
X152556308Y-95403471D01*
X152463153Y-95474950D01*
X152463150Y-95474953D01*
X152374592Y-95590365D01*
X152327074Y-95705082D01*
X152321987Y-95717365D01*
X152318918Y-95724773D01*
X152299932Y-95868997D01*
X152299932Y-95869002D01*
X152318918Y-96013226D01*
X152318919Y-96013230D01*
X152318920Y-96013232D01*
X152320797Y-96017763D01*
X152374592Y-96147634D01*
X152463150Y-96263046D01*
X152463153Y-96263049D01*
X152556308Y-96334529D01*
X152572935Y-96363328D01*
X152564328Y-96395451D01*
X152556308Y-96403471D01*
X152463153Y-96474950D01*
X152463150Y-96474953D01*
X152374592Y-96590365D01*
X152318918Y-96724773D01*
X152299932Y-96868997D01*
X152299932Y-96869002D01*
X152318918Y-97013226D01*
X152318919Y-97013230D01*
X152318920Y-97013232D01*
X152340779Y-97066003D01*
X152374592Y-97147634D01*
X152450991Y-97247200D01*
X152459598Y-97279323D01*
X152442971Y-97308122D01*
X152421771Y-97316502D01*
X152421787Y-97316583D01*
X152421346Y-97316670D01*
X152420789Y-97316891D01*
X152419696Y-97316998D01*
X152382647Y-97324369D01*
X152340638Y-97352438D01*
X152312569Y-97394447D01*
X152305200Y-97431490D01*
X152305200Y-97767400D01*
X152628686Y-97767400D01*
X152607200Y-97819272D01*
X152607200Y-97918728D01*
X152628686Y-97970600D01*
X152305200Y-97970600D01*
X152305200Y-98306509D01*
X152312569Y-98343552D01*
X152340638Y-98385561D01*
X152382647Y-98413630D01*
X152419691Y-98421000D01*
X152755600Y-98421000D01*
X152755600Y-98097514D01*
X152807472Y-98119000D01*
X152906928Y-98119000D01*
X152958800Y-98097514D01*
X152958800Y-98421000D01*
X153294709Y-98421000D01*
X153331752Y-98413630D01*
X153373761Y-98385561D01*
X153401830Y-98343552D01*
X153409200Y-98306509D01*
X153409200Y-97970600D01*
X153085714Y-97970600D01*
X153107200Y-97918728D01*
X153107200Y-97819272D01*
X153085714Y-97767400D01*
X153409200Y-97767400D01*
X153409200Y-97431490D01*
X153401830Y-97394447D01*
X153373761Y-97352438D01*
X153331752Y-97324369D01*
X153294702Y-97316998D01*
X153293612Y-97316891D01*
X153293286Y-97316717D01*
X153292613Y-97316583D01*
X153292653Y-97316378D01*
X153264286Y-97301209D01*
X153254639Y-97269384D01*
X153263407Y-97247201D01*
X153339808Y-97147634D01*
X153395480Y-97013232D01*
X153396616Y-97004604D01*
X153414468Y-96869002D01*
X153414468Y-96868997D01*
X153395481Y-96724773D01*
X153395480Y-96724771D01*
X153395480Y-96724768D01*
X153339808Y-96590366D01*
X153260665Y-96487224D01*
X153251249Y-96474953D01*
X153251243Y-96474947D01*
X153158092Y-96403471D01*
X153141464Y-96374672D01*
X153150071Y-96342550D01*
X153158092Y-96334529D01*
X153251243Y-96263052D01*
X153251243Y-96263051D01*
X153251248Y-96263048D01*
X153339808Y-96147634D01*
X153395480Y-96013232D01*
X153395481Y-96013226D01*
X153414468Y-95869002D01*
X153414468Y-95868997D01*
X153395481Y-95724773D01*
X153395480Y-95724771D01*
X153395480Y-95724768D01*
X153339808Y-95590366D01*
X153251248Y-95474952D01*
X153251243Y-95474947D01*
X153158092Y-95403471D01*
X153141464Y-95374672D01*
X153150071Y-95342550D01*
X153158092Y-95334529D01*
X153251243Y-95263052D01*
X153251243Y-95263051D01*
X153251248Y-95263048D01*
X153339808Y-95147634D01*
X153395480Y-95013232D01*
X153414468Y-94869000D01*
X153398507Y-94747763D01*
X153395481Y-94724773D01*
X153395480Y-94724771D01*
X153395480Y-94724768D01*
X153339808Y-94590366D01*
X153286925Y-94521447D01*
X153251249Y-94474953D01*
X153251246Y-94474950D01*
X153135834Y-94386392D01*
X153001432Y-94330720D01*
X153001428Y-94330719D01*
X153001425Y-94330718D01*
X153001427Y-94330718D01*
X152857203Y-94311732D01*
X152857197Y-94311732D01*
X152712973Y-94330718D01*
X152578565Y-94386392D01*
X152463153Y-94474950D01*
X152463150Y-94474953D01*
X152374592Y-94590365D01*
X152318918Y-94724773D01*
X152299932Y-94868997D01*
X149871330Y-94868997D01*
X149852128Y-94747763D01*
X149796402Y-94638394D01*
X149709606Y-94551598D01*
X149709604Y-94551596D01*
X149600238Y-94495872D01*
X149479001Y-94476670D01*
X149478999Y-94476670D01*
X149357762Y-94495872D01*
X149357761Y-94495872D01*
X149248395Y-94551596D01*
X149161596Y-94638395D01*
X149105872Y-94747761D01*
X149105872Y-94747762D01*
X149086670Y-94868999D01*
X134537000Y-94868999D01*
X134537000Y-94558490D01*
X134529630Y-94521447D01*
X134501561Y-94479438D01*
X134459552Y-94451369D01*
X134422509Y-94444000D01*
X134086600Y-94444000D01*
X134086600Y-94767485D01*
X134034728Y-94746000D01*
X133935272Y-94746000D01*
X133883400Y-94767485D01*
X133883400Y-94444000D01*
X133547491Y-94444000D01*
X133510447Y-94451369D01*
X133468438Y-94479438D01*
X133440369Y-94521447D01*
X133433000Y-94558490D01*
X133433000Y-94894400D01*
X133756486Y-94894400D01*
X133735000Y-94946272D01*
X133735000Y-95045728D01*
X133756486Y-95097600D01*
X133433000Y-95097600D01*
X133433000Y-95433509D01*
X133440369Y-95470552D01*
X133468438Y-95512561D01*
X133510447Y-95540630D01*
X133547493Y-95548000D01*
X133548575Y-95548107D01*
X133548898Y-95548280D01*
X133549587Y-95548417D01*
X133549545Y-95548625D01*
X133577905Y-95563781D01*
X133587561Y-95595603D01*
X133578791Y-95617798D01*
X133502393Y-95717363D01*
X133446718Y-95851773D01*
X133427732Y-95995997D01*
X133020300Y-95995997D01*
X133020300Y-93345000D01*
X139745467Y-93345000D01*
X139853661Y-93400127D01*
G37*
G04 #@! TD.AperFunction*
M02*
